<?xml version="1.0" encoding="utf-8"?>
<!-- Generator: Adobe Illustrator 21.0.1, SVG Export Plug-In . SVG Version: 6.00 Build 0)  -->
<svg version="1.1" id="Layer_1" xmlns="http://www.w3.org/2000/svg" xmlns:xlink="http://www.w3.org/1999/xlink" x="0px" y="0px"
	 viewBox="0 0 80 68" style="enable-background:new 0 0 80 68;" xml:space="preserve">
<style type="text/css">
	.st0{fill-rule:evenodd;clip-rule:evenodd;fill:#FFFFFF;}
	.st1{fill:#FFFFFF;}
</style>
<path class="st1" d="M5,11.3H75c1.4,0,2.6,0.6,3.5,1.5c0.9,0.9,1.5,2.1,1.5,3.5v13.2l-33.5,9v-6.2H34.1h-0.6v6.2L0,29.4V16.2
	c0-1.4,0.6-2.6,1.5-3.5C2.4,11.8,3.6,11.3,5,11.3L5,11.3z M45.8,5.9H34.2c-0.8,0-1.6,0.3-2.1,0.9c-0.5,0.5-0.9,1.3-0.9,2.1v0.4h-5.9
	V9c0-2.5,1-4.7,2.6-6.3C29.5,1,31.7,0,34.2,0h11.6c2.5,0,4.7,1,6.3,2.6c1.6,1.6,2.6,3.9,2.6,6.3v0.4h-5.9V9c0-0.8-0.3-1.6-0.9-2.1
	C47.4,6.3,46.6,5.9,45.8,5.9L45.8,5.9z M80,33V63c0,1.4-0.6,2.6-1.5,3.5C77.6,67.4,76.4,68,75,68H5c-1.4,0-2.6-0.6-3.5-1.5
	C0.6,65.6,0,64.4,0,63V33l33.5,9V48h13v-6.1L80,33L80,33z M44.8,33.9h-9.6v12.5h9.6V33.9L44.8,33.9z"/>
</svg>
