<?xml version="1.0" encoding="utf-8"?>
<!-- Generator: Adobe Illustrator 21.0.1, SVG Export Plug-In . SVG Version: 6.00 Build 0)  -->
<svg version="1.1" id="Layer_1" xmlns="http://www.w3.org/2000/svg" xmlns:xlink="http://www.w3.org/1999/xlink" x="0px" y="0px"
	 viewBox="0 0 58 80" style="enable-background:new 0 0 58 80;" xml:space="preserve">
<style type="text/css">
	.st0{fill-rule:evenodd;clip-rule:evenodd;fill:#FFFFFF;}
	.st1{fill:#FFFFFF;}
</style>
<path class="st0" d="M50.9,33c0.6-27.7-8.6-33-22-33C15.4,0,6.2,5.3,6.9,33H3.7c-2,0-3.7,1.7-3.7,3.7v39.6c0,2,1.7,3.7,3.7,3.7h50.7
	c2,0,3.7-1.7,3.7-3.7V36.7c0-2-1.7-3.7-3.7-3.7H50.9L50.9,33z M14,33C13.5,10.3,19.8,7.3,28.9,7.3c9,0,15.4,2.6,14.9,25.7H14L14,33z
	 M31.6,55.4v7.4c0,1.4-1.2,2.6-2.6,2.6l0,0c-1.4,0-2.6-1.2-2.6-2.6v-7.4c-1.4-0.9-2.4-2.5-2.4-4.3c0-2.8,2.2-5,5-5c2.8,0,5,2.3,5,5
	C34,52.9,33.1,54.5,31.6,55.4L31.6,55.4z"/>
</svg>
