<?xml version="1.0" encoding="utf-8"?>
<!-- Generator: Adobe Illustrator 21.0.0, SVG Export Plug-In . SVG Version: 6.00 Build 0)  -->
<svg version="1.1" id="Layer_1" xmlns="http://www.w3.org/2000/svg" xmlns:xlink="http://www.w3.org/1999/xlink" x="0px" y="0px"
	 viewBox="0 0 80 66" style="enable-background:new 0 0 80 66;" xml:space="preserve">
<style type="text/css">
	.st0{fill-rule:evenodd;clip-rule:evenodd;fill:#FFFFFF;}
</style>
<path class="st0" d="M20.8,6.4H0V66h80V6.4H59.2V0H20.8V6.4L20.8,6.4z M40,21.1c8.1,0,14.6,6.6,14.6,14.7S48.1,50.5,40,50.5
	s-14.6-6.6-14.6-14.7S31.9,21.1,40,21.1L40,21.1z M40,14.5c5.9,0,11.2,2.4,15,6.3c3.8,3.9,6.2,9.2,6.2,15.1c0,5.9-2.4,11.2-6.2,15.1
	c-3.8,3.9-9.1,6.3-15,6.3s-11.2-2.4-15-6.3c-3.8-3.9-6.2-9.2-6.2-15.1c0-5.9,2.4-11.2,6.2-15.1C28.8,16.8,34.1,14.5,40,14.5L40,14.5
	z M53.5,22.3c-3.4-3.5-8.2-5.6-13.5-5.6c-5.3,0-10,2.1-13.5,5.6c-3.4,3.5-5.6,8.3-5.6,13.5c0,5.3,2.1,10.1,5.6,13.5
	C30,52.8,34.7,55,40,55c5.3,0,10-2.1,13.5-5.6c3.4-3.5,5.6-8.3,5.6-13.5C59,30.5,56.9,25.7,53.5,22.3L53.5,22.3z"/>
</svg>
