<?xml version="1.0" encoding="utf-8"?>
<!-- Generator: Adobe Illustrator 22.1.0, SVG Export Plug-In . SVG Version: 6.00 Build 0)  -->
<svg version="1.1" id="Layer_1" xmlns="http://www.w3.org/2000/svg" xmlns:xlink="http://www.w3.org/1999/xlink" x="0px" y="0px"
	 viewBox="0 0 200 140" style="enable-background:new 0 0 200 140;" xml:space="preserve">
<style type="text/css">
	.st0{fill:#FF0000;}
	.st1{fill:#FFFFFF;}
</style>
<path class="st0" d="M195.8,21.9c-2.3-8.6-9.1-15.4-17.7-17.7C162.5,0,100,0,100,0S37.5,0,21.9,4.2C13.3,6.5,6.5,13.3,4.2,21.9
	C0,37.5,0,70,0,70s0,32.5,4.2,48.1c2.3,8.6,9.1,15.4,17.7,17.7C37.5,140,100,140,100,140s62.5,0,78.1-4.2
	c8.6-2.3,15.4-9.1,17.7-17.7C200,102.5,200,70,200,70S200,37.5,195.8,21.9z"/>
<polygon class="st1" points="80,100 132,70 80,40 "/>
</svg>
