<?xml version="1.0" encoding="utf-8"?>
<!-- Generator: Adobe Illustrator 21.1.0, SVG Export Plug-In . SVG Version: 6.00 Build 0)  -->
<svg version="1.1" id="Layer_1" xmlns="http://www.w3.org/2000/svg" xmlns:xlink="http://www.w3.org/1999/xlink" x="0px" y="0px"
	 viewBox="0 0 100 100" style="enable-background:new 0 0 100 100;" xml:space="preserve">
<style type="text/css">
	.st0{fill:none;stroke:#059E54;stroke-width:13;stroke-linecap:round;stroke-miterlimit:10;}
	.st1{fill:none;stroke:#C72929;stroke-width:13;stroke-linecap:round;stroke-miterlimit:10;}
	.st2{fill:none;stroke:#059E54;stroke-width:13;stroke-linecap:round;stroke-linejoin:round;stroke-miterlimit:10;}
	.st3{fill:none;stroke:#059E54;stroke-width:8.4846;stroke-linecap:round;stroke-linejoin:round;stroke-miterlimit:10;}
	.st4{fill:#059E54;}
	.st5{fill:none;stroke:#C72929;stroke-width:9.2423;stroke-linecap:round;stroke-linejoin:round;stroke-miterlimit:10;}
</style>
<g>
	<path class="st4" d="M83.3,34.2L66.8,17.7c-1.2-1.2-1.2-3.1,0-4.2l8.7-8.7c1.2-1.2,3.1-1.2,4.2,0l16.5,16.5c1.2,1.2,1.2,3.1,0,4.2
		l-8.7,8.7C86.4,35.4,84.5,35.4,83.3,34.2z"/>
	<path class="st4" d="M61.6,22.9l16.5,16.5c1.2,1.2,1.2,3.1,0,4.2L26.6,95.1c-0.6,0.6-1.3,0.9-2.1,0.9H8c-1.6,0-3-1.3-3-3V76.5
		c0-0.8,0.3-1.5,0.9-2.1l51.5-51.5C58.5,21.7,60.4,21.7,61.6,22.9z"/>
	<path class="st4" d="M62.2,22.9l16.2,16.5c1.2,1.2,1.1,3.1,0,4.2L26,95.1c-0.6,0.5-1.3,0.9-2.1,0.9H7.4c-1.7,0-3-1.4-3-3l0.3-16.5
		c0-0.8,0.3-1.5,0.9-2.1L58,22.9C59.2,21.7,61.1,21.7,62.2,22.9z"/>
</g>
</svg>
