<?xml version="1.0" encoding="utf-8"?>
<!-- Generator: Adobe Illustrator 21.1.0, SVG Export Plug-In . SVG Version: 6.00 Build 0)  -->
<svg version="1.1" id="Layer_1" xmlns="http://www.w3.org/2000/svg" xmlns:xlink="http://www.w3.org/1999/xlink" x="0px" y="0px"
	 viewBox="0 0 100 100" style="enable-background:new 0 0 100 100;" xml:space="preserve">
<style type="text/css">
	.st0{fill:none;stroke:#059E54;stroke-width:8.4846;stroke-linecap:round;stroke-linejoin:round;stroke-miterlimit:10;}
	.st1{fill:#059E54;}
</style>
<polyline class="st0" points="4.4,54.8 51,8.2 95.6,52.8 "/>
<path class="st1" d="M48.4,26.9L16.1,59.2c-0.7,0.7-1.1,1.7-1.1,2.6v26.2c0,2.1,1.7,3.7,3.7,3.7h19.5c2.1,0,3.7-1.7,3.7-3.7V64
	c0-2.1,1.7-3.7,3.7-3.7h5.4h5.3c2.1,0,3.7,1.7,3.7,3.7v24c0,2.1,1.7,3.7,3.7,3.7h19.5c2.1,0,3.7-1.7,3.7-3.7V61.8
	c0-1-0.4-1.9-1.1-2.6L53.7,26.9C52.3,25.4,49.9,25.4,48.4,26.9z"/>
</svg>
