<?xml version="1.0" encoding="utf-8"?>
<!-- Generator: Adobe Illustrator 22.1.0, SVG Export Plug-In . SVG Version: 6.00 Build 0)  -->
<svg version="1.1" id="Layer_1" xmlns="http://www.w3.org/2000/svg" xmlns:xlink="http://www.w3.org/1999/xlink" x="0px" y="0px"
	 viewBox="0 0 300 300" style="enable-background:new 0 0 300 300;" xml:space="preserve">
<style type="text/css">
	.st0{fill-rule:evenodd;clip-rule:evenodd;fill:#ED1C24;}
	.st1{fill-rule:evenodd;clip-rule:evenodd;fill:#D2AB67;}
</style>
<path class="st0" d="M174,71.4c5.6,0.6,11,0.7,16.6,0.8v28.2c0,14,0,28.1,0,42.1c0,6.4-14,12.1-18.8,14.1
	c-5.4,2.2-10.9,4.1-16.2,6.4c-1.8,0.8-4.2,1.8-6.1,3.3c-1.9-1.4-4.2-2.5-6-3.3c-5.2-2.3-10.6-4.2-15.8-6.4
	c-4.9-2-18.3-7.7-18.3-14.1c0-14,0-28.1,0-42.1V72.2c5-0.1,10-0.3,15-0.9c8.5-1,16.8-2.9,25-5.2C157.4,68.8,165.6,70.5,174,71.4z
	 M26,272.9c-0.6,0.2-1.3,0.4-1.9,0.5c-0.6,0.1-1.3,0.2-2,0.2c-3.9,0-7-2.2-9.3-6.5c-2.3-4.3-3.4-10.3-3.4-18
	c0-5.7,0.6-10.6,1.9-14.8c1.3-4.2,3.3-7.9,6-11.2c-5.5,2.4-9.7,5.9-12.7,10.5c-3,4.6-4.5,10-4.5,16.1c0,7.3,2.1,13.3,6.2,18.1
	c4.1,4.8,9.4,7.2,15.8,7.2c3.4,0,6.4-0.7,9.1-2.2c2.6-1.5,5-3.8,7.3-7c2-2.8,3.5-5.9,4.5-9.4c1-3.5,1.5-7.2,1.5-11.2
	c0-5.3-1-9.9-2.9-13.7c-1.9-3.8-4.8-6.8-8.7-9.1c-0.9,0.7-1.8,1.3-2.8,2c-0.9,0.6-1.9,1.2-3,1.8v-3.7h-1v4.5
	c-1.6,0.9-3.3,1.8-5.2,2.7c-1.9,0.9-4.6,2.2-8.1,3.8v1.6l2.3-1v26.3c0,1.1-0.1,2.1-0.3,3.1c-0.2,1-0.5,1.8-0.9,2.4
	c3.4-0.7,5.7-1.7,6.9-2.9c1.3-1.2,1.9-3.3,1.9-6.3v-26.5l3.4-1.8V272.9z M34.3,241.7c-0.6,0.1-1.3,0.2-2.1,0.2
	c-1.1,0-2.1-0.1-2.9-0.2c-0.8-0.1-1.6-0.4-2.2-0.6v-12.9c2,1.2,3.8,2.9,5.3,5.1c1.5,2.2,2.7,4.9,3.6,8
	C35.4,241.4,34.8,241.6,34.3,241.7z M33.8,257.2c-0.7-0.1-1.4-0.2-2.1-0.2c-0.7,0-1.4,0.1-2.2,0.2c-0.8,0.1-1.6,0.3-2.4,0.4v-15.2
	c0.7,0.2,1.5,0.4,2.3,0.5c0.8,0.1,1.7,0.2,2.6,0.2c0.9,0,1.6,0,2.3-0.2c0.7-0.1,1.3-0.3,1.9-0.5c0,0-0.1,0-0.1-0.1
	c0,0-0.1,0-0.1,0.1c0,0,0,0.1,0.1,0.2c0.5,1.7,0.7,4,0.7,6.8c0,1.5-0.1,3-0.2,4.3c-0.1,1.4-0.3,2.7-0.6,3.9
	C35.2,257.5,34.5,257.3,33.8,257.2z M29.2,258.4c0.7-0.1,1.4-0.2,2.1-0.2c0.7,0,1.4,0,2.1,0.2c0.7,0.1,1.4,0.3,2.3,0.5
	c-0.8,3.5-1.8,6.4-3.3,8.6c-1.4,2.2-3.2,3.9-5.4,5.1v-13.7C27.8,258.7,28.5,258.5,29.2,258.4z M135.5,229.6l1.6-1
	c0.7,1.1,1.4,2,2.1,2.7c0.7,0.7,1.4,1.2,2.1,1.6v11.4h-5.8V229.6z M150.2,232.7c0.7-0.3,1.4-0.6,2-1.1v35.1c-0.6-0.5-1.2-1-1.9-1.3
	c-0.7-0.4-1.4-0.6-2.2-0.9v-31.3C148.9,233.1,149.6,233,150.2,232.7z M155.2,229.6c0.5,0.8,1,1.5,1.7,2.2c0.6,0.7,1.4,1.2,2.2,1.7
	v10.7h-5.6v-13.4L155.2,229.6z M159,251.8V264c-0.9,0.4-1.8,0.8-2.8,1.4c-0.9,0.5-1.9,1.1-2.9,1.7v-15.2H159z M116.3,272.9
	c0.6-0.3,1.1-0.4,1.7-0.4c0.8,0,2.2,0.3,4.4,1c2.2,0.7,3.9,1,5.2,1c2.6,0,4.6-1,5.8-3.2c1.3-2.1,1.9-5.3,1.9-9.5v-10.1h5.8V265
	c-1.1,0.7-2,1.6-2.7,2.7c-0.8,1.1-1.3,2.4-1.8,3.8c0.5-0.1,1-0.2,1.5-0.3c0.5-0.1,1-0.1,1.4-0.1c1.4,0,2.7,0.3,3.9,0.9
	c1.2,0.6,2.3,1.5,3.2,2.7c2.2-2.3,4.3-4.1,6.4-5.7c2.1-1.5,4-2.6,5.8-3.3c0.2,2.5,0.9,4.5,1.9,5.9c1,1.5,2.4,2.5,4.3,3
	c0.7-1.5,1.6-2.9,2.8-4.1c1.1-1.2,2.5-2.3,4-3.1c-2.4-0.7-4-1.4-4.7-2.3c-0.7-0.9-1.1-2.4-1.1-4.6V233c1.2-0.7,2.1-1.5,2.7-2.4
	c0.6-0.8,1-1.8,1.3-3c-0.1,0-0.1,0-0.2,0c-0.7,0.1-1.2,0.1-1.5,0.1c-1.3,0-2.4-0.4-3.3-1.1c-0.9-0.7-1.8-1.9-2.6-3.6
	c-1.4,1.4-2.8,2.7-4.3,3.7c-1.5,1-3.1,1.8-4.8,2.4v-5.5h-1.2v5.7c-0.1,0-0.2,0-0.4,0c-0.2,0-0.4,0-0.6,0c-1.5,0-2.8-0.5-3.9-1.6
	c-1.2-1.1-2.1-2.7-2.7-4.7l-15.8,8.8c-2,1.1-3.4,2.3-4.3,3.4c-0.9,1.2-1.3,2.5-1.3,4v5.1c-0.1,0-0.3,0-0.5,0c-0.2,0-0.4,0-0.7,0
	c-1.7,0-3,0.6-4,1.7c-1,1.1-1.5,2.7-1.5,4.6c0,1.1,0.1,2.1,0.4,2.9c0.2,0.8,0.6,1.6,1.1,2.3c0.1-1.3,0.5-2.3,1.2-2.9
	c0.7-0.6,1.8-1,3.2-1h0.7v4.8c0,1.3-0.2,2.3-0.5,2.9c-0.3,0.6-0.9,1.2-1.6,1.6c0.6,0.1,1.2,0.2,1.6,0.3c0.4,0.1,0.8,0.1,1.1,0.1
	c2.4,0,4.1-0.7,5.2-2.1c1.1-1.4,1.6-3.7,1.6-6.8v-16.4c0-2.1,0.3-3.5,0.8-4.1c0.5-0.7,1.6-1.3,3.1-2v28.6c0,2.8-0.3,4.6-0.9,5.6
	c-0.6,1-1.6,1.5-3.1,1.5c-0.4,0-1.4-0.3-3-0.8c-1.6-0.5-3-0.8-4.2-0.8c-2.2,0-4.1,0.9-5.8,2.8c-1.6,1.8-2.7,4.3-3.2,7.3
	C115.1,273.6,115.8,273.2,116.3,272.9z"/>
<path d="M50.8,231.5c0-1.2-0.1-2.2-0.4-3c-0.3-0.8-0.7-1.6-1.3-2.3c0.5,0.1,0.9,0.1,1.1,0.1c0.2,0,0.4,0,0.6,0
	c1.5,0,2.9-0.3,4.3-0.8c1.4-0.5,2.9-1.4,4.3-2.6c-0.7,1.3-1.2,2.5-1.5,3.7c-0.3,1.2-0.5,2.7-0.5,4.6v34.2c0.8,0.3,1.5,0.7,2.2,1.2
	c0.6,0.5,1.1,1.1,1.6,1.9l2.6-1.6l0.6,1.2c-1.9,1.1-3.6,2.2-4.9,3.2c-1.4,1-2.4,2-3.2,3c-1-1.3-1.9-2.2-2.8-2.8
	c-0.9-0.6-1.8-0.8-2.8-0.8c-0.4,0-0.8,0.1-1.3,0.2c-0.5,0.1-1.1,0.3-1.7,0.6c0.1-1.3,0.5-2.4,1-3.3c0.5-0.8,1.2-1.5,2.2-2V231.5z
	 M65.3,269.8c0.4,0,0.8-0.1,1.1-0.1c0.3,0,0.7,0,1.1,0c1.5,0,3,0.4,4.4,1.1c1.4,0.7,2.9,1.9,4.5,3.5c1.7-1.8,3.6-3.2,5.6-4.1
	c2-0.9,4.3-1.3,6.9-1.3c0.4,0,0.9,0,1.5,0c0.6,0,1.5,0.1,2.7,0.2c-0.6-0.9-1-1.8-1.3-2.7c-0.2-0.9-0.4-2.1-0.4-3.5v-12.5
	c0-2.5,0.2-4.2,0.5-5.2c0.3-1,0.9-1.8,1.7-2.4c-0.8-0.4-1.5-0.9-2.2-1.4c-0.7-0.5-1.3-1-1.8-1.6l-12.2-13c-0.7-0.7-1.1-1.4-1.4-1.9
	c-0.3-0.6-0.4-1.2-0.5-1.9c-1.1,0.9-2.2,1.7-3.4,2.3c-1.2,0.6-3.1,1.3-5.5,1.9c1.1,0.5,2.1,1,3,1.7c0.9,0.7,1.9,1.4,2.7,2.3l8.7,8.9
	c-1.9,0.9-3.6,1.6-5.2,2.1c-1.5,0.4-2.9,0.7-4.2,0.7c-0.7,0-1.4-0.1-2.2-0.2c-0.7-0.1-1.5-0.3-2.2-0.5c0.7,0.8,1.1,1.7,1.4,2.8
	c0.3,1.1,0.4,2.5,0.4,4.4v15.9c-0.8,0.5-1.5,1.2-2.1,1.9C66.3,267.9,65.7,268.8,65.3,269.8 M75.7,243.5c1-0.3,2-0.6,3.1-1
	c1-0.4,2.1-0.9,3.1-1.5l2.8,3v24.1c-0.4,0.1-0.8,0.2-1.2,0.4c-0.4,0.1-0.8,0.3-1.3,0.5c-0.9-1.3-1.8-2.3-2.9-2.9
	c-1-0.7-2.2-1.1-3.7-1.3V243.5z M180.1,252.1c-2.8,1.8-4.8,3.6-5.9,5.4c-1.1,1.8-1.7,4-1.7,6.6c0,3,0.6,5.3,1.9,6.9
	c1.2,1.6,3.2,2.7,5.8,3.2l8.2-7c0.4,2,1.1,3.6,2.1,4.7c1,1.1,2.2,1.7,3.6,1.9c0.9-1.2,1.9-2.3,2.8-3.3c0.9-1,1.8-2,2.7-2.8
	c-1.8-0.2-3-0.9-3.8-2c-0.8-1.1-1.2-2.8-1.2-5v-14.4c0.8-0.6,1.5-1.2,2-2.1c0.5-0.8,0.9-1.9,1.3-3.3c-0.5,0.4-0.9,0.6-1.4,0.8
	c-0.4,0.2-0.8,0.3-1.2,0.3c-0.8,0-1.6-0.3-2.3-0.9c-0.7-0.6-1.4-1.6-2.2-2.9c-1.1,1.5-2.3,2.6-3.4,3.4c-1.2,0.8-2.2,1.2-3.2,1.2
	c-1,0-1.8-0.4-2.5-1.1c-0.7-0.7-1.3-1.9-1.9-3.6c-0.7,1.3-1.5,2.4-2.5,3.2c-1,0.8-2.2,1.5-3.8,2.1L180.1,252.1z M178.8,246.3
	c0.7,0.3,1.5,0.4,2.1,0.4c0.8,0,1.6-0.2,2.3-0.7c0.7-0.5,1.3-1.2,2-2.1c0.4,0.8,0.9,1.5,1.4,2.1c0.5,0.6,1.1,1,1.8,1.4v18.5
	l-2.2,1.9c-2.4-0.5-4.3-1.5-5.5-3c-1.3-1.5-1.9-3.3-1.9-5.6c0-1.1,0.2-2,0.5-3c0.3-0.9,0.9-1.9,1.8-3l4.3,5.6l0.6-0.8l-9.8-13.2
	C177.2,245.5,178.1,246,178.8,246.3z M201.7,271.5c0.6-0.3,1.1-0.4,1.6-0.6c0.5-0.1,1-0.2,1.4-0.2c1,0,1.9,0.3,2.8,0.8
	c0.9,0.6,1.8,1.5,2.7,2.7c0.9-0.9,1.9-1.9,3.2-2.8c1.2-0.9,2.9-2,4.9-3.3l-0.5-1.2l-2.2,1.6c-0.7-0.9-1.4-1.6-2.1-2.1
	c-0.7-0.5-1.3-0.9-2-1.2V248l1.7-2.3c0.4,1.4,1,2.4,1.8,3.1c0.8,0.7,1.7,1.1,2.8,1.1c1.5,0,2.7-0.6,3.8-1.9c1.1-1.3,1.7-3,2.1-5.3
	c-0.4,0.1-0.7,0.2-1,0.3c-0.3,0.1-0.5,0.1-0.6,0.1c-0.8,0-1.5-0.4-2.3-1.2c-0.8-0.8-1.6-2-2.5-3.8l-5.7,8.2c-0.1-1.9-0.4-3.5-1-4.8
	c-0.6-1.3-1.7-2.4-3.1-3.4c-1,1.2-2.1,2.3-3.2,3.3c-1.1,0.9-2.3,1.8-3.5,2.5v0.9c1.5,0.1,2.5,0.6,3.2,1.4c0.6,0.8,1,2.2,1,4v16
	c-0.9,0.6-1.6,1.3-2.1,2.2C202.2,269.2,201.8,270.3,201.7,271.5 M231.8,252.1c-2.8,1.8-4.8,3.6-5.9,5.4c-1.1,1.8-1.7,4-1.7,6.6
	c0,3,0.6,5.3,1.9,6.9c1.2,1.6,3.2,2.7,5.8,3.2l8.2-7c0.4,2,1.1,3.6,2.1,4.7c1,1.1,2.2,1.7,3.6,1.9c0.9-1.2,1.9-2.3,2.8-3.3
	c0.9-1,1.8-2,2.7-2.8c-1.8-0.2-3-0.9-3.8-2c-0.8-1.1-1.2-2.8-1.2-5v-14.4c0.8-0.6,1.5-1.2,2-2.1c0.5-0.8,0.9-1.9,1.3-3.3
	c-0.5,0.4-0.9,0.6-1.4,0.8c-0.4,0.2-0.8,0.3-1.2,0.3c-0.8,0-1.6-0.3-2.3-0.9c-0.7-0.6-1.4-1.6-2.2-2.9c-1.1,1.5-2.3,2.6-3.4,3.4
	c-1.2,0.8-2.2,1.2-3.2,1.2c-1,0-1.8-0.4-2.5-1.1c-0.7-0.7-1.3-1.9-1.9-3.6c-0.7,1.3-1.5,2.4-2.5,3.2c-1,0.8-2.2,1.5-3.8,2.1
	L231.8,252.1z M230.5,246.3c0.7,0.3,1.5,0.4,2.1,0.4c0.8,0,1.6-0.2,2.3-0.7c0.7-0.5,1.3-1.2,2-2.1c0.4,0.8,0.9,1.5,1.4,2.1
	c0.5,0.6,1.1,1,1.8,1.4v18.5l-2.2,1.9c-2.4-0.5-4.3-1.5-5.5-3c-1.3-1.5-1.9-3.3-1.9-5.6c0-1.1,0.2-2,0.5-3c0.3-0.9,0.9-1.9,1.8-3
	l4.3,5.6l0.6-0.8l-9.8-13.2C228.9,245.5,229.8,246,230.5,246.3z M272.3,263.8c0,3.1,0.4,5.4,1.3,6.8c0.9,1.5,2.3,2.5,4.4,3.1
	c0.7-1.2,1.5-2.3,2.4-3.2c0.9-0.9,1.8-1.8,2.9-2.6v-0.8c-1.6-0.1-2.8-0.5-3.4-1.3c-0.6-0.8-1-2.2-1-4.3v-15.3c0.9-0.6,1.6-1.3,2-2.2
	c0.5-0.8,0.8-1.9,0.9-3.2c-0.5,0.3-0.9,0.5-1.3,0.6c-0.4,0.1-0.7,0.2-1,0.2c-0.9,0-1.8-0.3-2.6-0.9c-0.8-0.6-1.5-1.5-2-2.5
	l-11.8,9.3v-0.6c0-2.1-0.3-3.8-0.9-5.1c-0.6-1.3-1.7-2.5-3.2-3.6c-1,1.2-2.1,2.3-3.2,3.2c-1.1,0.9-2.3,1.8-3.6,2.5v0.9
	c1.6,0.2,2.6,0.6,3.3,1.4c0.6,0.8,0.9,2.1,0.9,4v15.4c-0.8,0.5-1.6,1.1-2.1,1.7c-0.6,0.7-1.1,1.5-1.6,2.6c1.5,0,2.9,0.4,4.3,1.1
	c1.3,0.7,2.6,1.8,3.8,3.3c1.1-1.6,2.2-2.8,3.2-3.8c1.1-1,2.2-1.7,3.3-2.2c-0.5-0.7-1.1-1.3-1.7-1.7c-0.6-0.5-1.4-0.9-2.3-1.2v-16.4
	l6.1-4.9c0.5,0.9,0.9,1.6,1.4,2.1c0.5,0.5,1,0.8,1.5,1V263.8z M289.1,264.6c0,2.6,0.3,4.5,0.9,5.8c0.6,1.3,1.7,2.5,3.2,3.6
	c1.1-1.2,2.2-2.3,3.3-3.3c1.1-1,2.3-1.8,3.5-2.5v-0.8c-1.5-0.2-2.6-0.7-3.2-1.4c-0.6-0.8-0.9-2.1-0.9-4v-15.4
	c0.8-0.5,1.5-1.1,2.1-1.7c0.6-0.7,1.1-1.5,1.6-2.6h-0.2c-1.4,0-2.8-0.3-4-1c-1.2-0.7-2.5-1.7-3.7-3.2c-1.2,1.5-2.2,2.7-3.3,3.7
	c-1,0.9-2.1,1.6-3.2,2.1c0.5,0.7,1,1.3,1.7,1.8c0.7,0.5,1.5,0.9,2.4,1.2V264.6z M286.9,231.3c0.3-0.3,0.5-0.5,0.7-0.7
	c0.2-0.1,0.5-0.2,0.8-0.2c0.4,0,1.1,0.4,2.1,1.1c1,0.8,1.9,1.1,2.8,1.1c1.3,0,2.5-0.6,3.5-1.7c1-1.2,1.6-2.6,1.7-4.4
	c-0.3,0.2-0.6,0.3-0.9,0.4c-0.3,0.1-0.6,0.1-0.8,0.1c-0.8,0-1.6-0.3-2.3-1c-0.7-0.7-1.3-1.7-1.7-3c-1.2,1.6-2.4,2.9-3.4,4.1
	c-1,1.2-2,2.2-3,3.2L286.9,231.3z"/>
<path class="st1" d="M217.9,155.5c0.1-1.4,1.3-2.6,2.6-2.7c1.4-0.1,2.4,0.9,2.3,2.3c-0.1,1.4-1.3,2.6-2.6,2.7
	C218.8,157.9,217.8,156.9,217.9,155.5 M223.9,151.4c0.1-1.6,1.5-3.1,3.1-3.2c1.6-0.1,2.8,1.1,2.7,2.7c-0.1,1.6-1.5,3.1-3.1,3.2
	C225,154.3,223.8,153.1,223.9,151.4z M229.2,157.9c-0.1,1.1-1,2-2,2.1c-1,0.1-1.8-0.7-1.8-1.7c0-1.1,1-2,2-2.1
	C228.4,156.1,229.2,156.9,229.2,157.9z M232.2,138.2c0.1-1.8,1.6-3.3,3.4-3.5c1.7-0.1,3.1,1.2,3,3c-0.1,1.8-1.6,3.3-3.4,3.5
	C233.5,141.3,232.1,140,232.2,138.2z M231.5,143c-0.1,1.6-1.5,3-3,3.1c-1.6,0.1-2.8-1.1-2.7-2.7c0.1-1.6,1.5-3,3-3.1
	C230.4,140.2,231.6,141.4,231.5,143z M226.4,135.6c0.1-1.4,1.3-2.6,2.6-2.7c1.4-0.1,2.4,0.9,2.3,2.3c-0.1,1.4-1.3,2.6-2.6,2.7
	C227.3,138.1,226.3,137,226.4,135.6z M233.2,152.6c1.3-0.1,2.4,0.9,2.3,2.3c-0.1,1.3-1.2,2.5-2.6,2.6c-1.3,0.1-2.4-0.9-2.3-2.3
	C230.7,153.9,231.8,152.7,233.2,152.6z M223.3,147.2c-0.1,1.3-1.1,2.4-2.4,2.5c-1.2,0.1-2.2-0.8-2.1-2.1c0.1-1.3,1.1-2.4,2.4-2.5
	C222.4,145,223.4,146,223.3,147.2z M236.3,151c0,0,0.1,0,0.2,0c1.7-0.1,3.1-1.6,3.2-3.3c0-0.2,0-0.3,0-0.5c1.6,0,2.8,1.2,2.7,2.8
	c-0.1,1.7-1.5,3.2-3.2,3.3C237.6,153.5,236.4,152.5,236.3,151z M237.8,146.3c-0.1,1.8-1.6,3.4-3.4,3.5c-1.8,0.1-3.1-1.2-3-3
	c0.1-1.8,1.6-3.4,3.4-3.5C236.6,143.2,237.9,144.5,237.8,146.3z M224.4,138.4c0.8-0.1,1.5,0.3,1.9,0.9c-1.3,0.8-2.3,2.3-2.5,3.9
	c0,0.1,0,0.2,0,0.3c-1.2,0-2.2-1-2.1-2.3C221.8,139.7,223,138.5,224.4,138.4z M238.8,142.9c0.1-1.5,1.4-2.8,2.8-3
	c1.5-0.1,2.6,1,2.5,2.5c-0.1,1.5-1.4,2.8-2.8,3C239.9,145.5,238.7,144.4,238.8,142.9z M210.1,136.3c4.8,2.1,0.3,2.5-1.6,1.7
	c-4.9-2.2-6.1-6.9-4.6-10.9c1.3-3.3,5.4-6.6,8.8-8.3c2.9-1.5,4.2-0.7,3.6,0.2c-0.3,0.6-1.6,0.9-2.9,1.6c-2.7,1.5-5.9,4.3-7.2,6.7
	C204.6,130.6,204.8,133.9,210.1,136.3z M197.4,80.2c-1.7-0.5-2.8-1.4-3.5-2.4v-2.5c0.5,0.1,1.3,0.6,2.4,1.7c1.8,2,5.8-0.1,6.6-1.8
	c1-2,0.9-4.5-1.9-7.3c-3.3-3.3-7.2-3.4-10.9-1c-0.5,0.3-1.1,0.7-1.6,1.2c-1.2,0-2.5,0-3.9-0.1c0.2-0.2,0.5-0.4,0.7-0.6
	c2.5-2,5.3-3.5,7.7-5.9c1.9-1.9,1.7-4.4,0.3-6.2c-1.3-0.9-4.2-1.1-5-0.3c-1.3,1.1-4.6,0-3.5-2.1c-3-2.4-4.4-4.3-4-8.2
	c0.8-0.8,2.8,0.4,3.5,0.2c-0.1-3.9,5.3,4.8,6.2,4.3c1.6-0.7-0.2-2.4-1.3-3.9c-0.8-1.1-1.5-2.8-0.9-4.8c0.7-2.1,1-0.6,1.8-1.6
	c0.3-0.4,0.7-1.1,1.1-1.8c2.1-3.4,0.6,0.6,2.6-2.6c0.7-1.2,3.8-1.8,5.1-1.6c0.3,0.7,0.5,1.4,0.6,2.1c0.4,2.9,1.8-0.2,1.9,3.2
	c0,0.6-0.1,1-0.2,1.5c-0.2,0.4-2,1-1.7,1.4c0.5,0.9-0.4,2.6-1.9,3.4c-1.2,0.6-0.5,1.6-0.5,1.6c1.2,0.5,2.6-0.1,3.2-1.9
	c0.7-2.1,3.1-3,2.9-1.2c0.6,0,1.3-0.5,2.4-0.2c1.9,0.5,2.8,2.1,1.4,2.5c-0.5,0.1-0.8,1.4,0.3,1.5c0.7,0,1.9,0,2.1,1.3
	c0.3,1.4-1.8,1.3-1.9,2c2.1,0.9-1.2,4.9-4.8,4.1c-2-0.5-2,1.3-2.4,1.3c0.8,0.7,1.2,1.9,0.1,2.3c-1,0.3-2.2,0.5-3.2,0.2
	c0.1,0.8-0.1,1.6-0.9,2.4c-0.9,0.9-1.7,1.6-3,2.9c0.9-0.2,1.9-0.4,2.8-0.5c3.8-0.4,5.7,1.2,8.4,3.9c3,3,3.4,5.9,2.6,8.2
	C205.1,79.3,200.8,81.3,197.4,80.2z M201.3,52c-1.5-0.6-1.7-1.8,0-2.1c1-0.2,2.1,0.3,3.2,0.1c2.7-0.5,3.1-1.4,0.3-1.1
	c-3.7,0.5,0.6-2.4,0.5-3.6c-0.5-0.2-1.1,0.4-1.6,1.3c-0.7,1.2-1.8,2.2-2.2,2c-0.2-1.1,0.1-1.9,0.4-2.5c1.1-2-0.1-1.5-1.2,0.2
	c-0.4,0.7-0.5,1.7-0.5,2.6c-0.8,0.2-0.9,0.3-1.4,0.8c-0.3-0.4-0.3-0.8-0.3-1.3c0.2-1.9-0.7-0.7-0.9,0.2c-0.1,0.4-0.1,1,0.2,1.7
	c-0.5,0.8-1.2,1.7-2,1.6c-0.9-0.1-1.4-0.9-1.8-3.1c0.2-2,1.7-3.9,2.6-4.9c0.9-1.1,0.7-1.9-0.2-1.4c-0.4,0.7-0.7,1.3-1,1.8
	c-2,2.9-1.6,1.3-0.8-0.4c0.7-1.4,1.9-3,2.7-4c1.7-2.3,1.1-3.4,0.4-3.3c0,0-0.2,0.7-0.6,1.6c-0.5,1.1-1,2-2.1,2.7
	c-0.2-0.7,0.3-1.9,0.4-2.7c0.1-0.9-0.3-2.4-0.8-0.7c-0.3,1-0.9,2.8-0.6,4.4c-0.4,0.6-0.5,1.5-0.7,2.5c-0.8-0.7-0.9-2.7-0.8-4.5
	c0-1.4-1-1.3-1.1,0.1c-0.1,1.3,0.4,3,1,4.3c0.9,1.9,0.1,2.6-0.8,1.6c-0.5-0.6-3-5.3-1.1-0.1c0.4,1.3,1.3,1.7,2.1,2.4
	c0.1,0.7,0.4,1.7,0.8,2.5c1,2.2,1.3,1-0.8,2.2c-0.8,0.5-1.6,0.5-4-3.7c-0.2-0.4-0.8-1.3-1.3-1.7c-0.9-0.7-1.6-0.7-0.3,0.9
	c1.3,1.6,1,2.4-0.7,0.1c-1.9-2.4-2.1-1.3-1,0c1.2,1.3,0,1.2-1.4-0.6c-1.3-1.6-2.1-2.1-0.6,0.6c0.8,1.3,2.3,2.9,4,2.7
	c2.6-0.2,2.2,1.8,0.3,1.7c-2.5-0.2-0.1,0.7,0.7,0.8c1.6,0.2,3,0.6,4,0.6c1.4-0.1,1.4-1.2,2.8-1.1c0.9,0.1,1.3,0.8,1.8,1.3
	c0.5,0.6,0.2,1.2,0.6,1.5c0.7,0.8,1.5,0.6,0.7-1.9c-0.3-0.9-1.9-1.2,0.5-2.3c0.3-0.2,0.6,0.5,2.1,1C202.3,53.3,205.2,53.4,201.3,52z
	 M226.1,121.4c-3.5-1.3-3.5-4.5,0.6-2.8c4.7,1.9,12.2,1,9.5-5.5c-0.3-0.8-2.3-2.2-3.8-2.1c-3.3,0.2-6.8,2.7-3-0.9
	c2.1-2,5.3-1.9,7.2-0.2c1.1,1,2.2,3,2.4,4.6C240,121.5,231.9,123.5,226.1,121.4z M173.7,157.6c0.3-0.5,1.2-1,2.6-1.1
	C175.4,156.9,174.5,157.2,173.7,157.6z M230.7,131.4c-0.6-1.3-2.7-1.9-4.3-2.2c-1.8-0.2-3.8,0.7-5.6,1c-0.4,1.5-1,3.1-1.7,4.5l0,0
	c-0.8,1.7-1.8,3.4-2.8,5c-2.9,4.3-6.6,7.9-11,10.8c-1.7,2,3.3,0.7,5.3-0.1c2.6-1.1,3.8-2.1,4.1-3.6c0.5-2-0.1-2.6,0.5-3.4
	c0.9-1.3,2.9-1.3,2,3.1c-0.5,2.5-2.2,4.8-4.6,5.8c-4.3,1.8-6.7,0.8-18.2,3.6c-3.2,1.1-6.5,1.9-10,2.4c-2.2,0.3-4.7,0.7-7.2,0.9
	c-1.3,0.1-2.3,0-2.9-0.3c2.3-1,4.5-2,6.6-3c11.7-1.5,24.4-6.5,31-16.3c1-1.6,2.3-2.9,3.1-4.6l0,0c0.9-1.9,1.6-3.8,2.1-5.8
	c-1.7-0.7-3.4-1.8-5.1-3.6c-2.2-2.2,0-3.5,1.8-1.7c1.4,1.4,2.4,2.1,3.8,2.8c0.9-4.9,0.5-10-1.4-14.5c-0.9-2.1-0.1-2.4,0.5-2.8
	c1-0.5,2.7,0.2,3.4,1.9c1.9,4.9,2.3,9.9,1.5,14.9c3.4-0.2,8.1-0.8,11,4.2C234.5,134,231.8,133.6,230.7,131.4z M219.8,106.4
	c-1,0.4-2.2,0.6-3.2,0.5c-0.1,1.4-1.1,1.2-1.9,0.7c-1.9-1.1-1.7,0.7-2.5-0.4c-0.6-0.8-0.9-2.2-0.5-3.3c0.7-2.1-0.2-3.6-2.8,3.6
	c-1.4,3.9-0.7,6.7,0.1,9.1c0.9,2.6-1.4,4-2.4,1.4c-1.1-2.9-1-6.9,0.8-11.6c0.5-1.4,2-4,2.7-6.3c0-0.6-1-1-1.9,0.7
	c-1.3,2.6-4.3,2.9-4.4,1.5l0.2,0c0.3-0.9-4,0.2-3.6-1.4c0.1-0.3,0.6-0.4,0.3-0.6c-0.3-0.1-1.9-0.9-1.3-1.6c0.8-0.4,1.3-0.5,2.3-1.5
	c-1.1-1.5,2.7-1.8,4.8-1.3c0.6,0.1,2.2-2.1-1.9-2c-3.5,0.1-5.9-1.4-4.9-3.5c0.3-0.6-1-2.5,0.2-3.5c1-0.8,0-3.1,0.7-4.4
	c0.4-0.7,1.4,0,2.6-0.1c0.6,0,1.1-0.1,1.3-0.4c1.5-1.9,2.8-1.2,3.5,0.5c0.4,0.9,2.9,5.3,3,1.7c0-2.1-2.4-4.6-0.9-6.9
	c0.9-1.4,3-2.2,3.7-0.8c1.4-1,2.4-2.9,3.1-1c0.6-0.5,3.9-2.3,3.1-0.7c-0.6,0.7-1.6,4.2-0.5,4c2.7-1.2,0.3,3.1,1,3.4
	c0.9,0.8,1.4,1.3,1.8,2.6c-0.3,1.2-1.3,2.5-2.3,3.4c-2.4,2.4-1.8,3.8,0.6,1.6c0.9-0.9,2-1.9,2.8-1.5c0.2-0.2,0.4,0.5,0.9,0.8
	c0.7,0.4,1.8,0.7,1.9,0.7c1.7,0.6,3.4,1.9,2.3,3.6c-0.1,0.4-0.8,0.8-1.1,1.4c-0.3,0.6-0.1,1.5-0.4,2c-1.6,2.1-3,0.1-3.8,0.6
	c0.2,1.9-2.1,0.5-2.3,0.5c-0.2-1-5.5-1.7-3.7,0.8c0.5,0.7,2.4,0.2,3.3,1.7c1.7,2.6-0.5,1.6-0.5,3C220.2,104.4,220.4,105,219.8,106.4
	z M218.2,104c-0.4-0.5-2.8-3.1-1.8-2.8c2.3,0.7,1.8-0.4,0.2-0.9c-1.6-0.5-1.4-0.4-1.5-2.2c-0.1-2.2-0.4-2.6-0.8-3.4
	c-0.6-1.1,0.5-1,1.4-0.6c1.8,0.8,4.9,1,6.5,1.5c0.6-1-1.6-0.4-1.3-1.5c2.2-1.1,5,2,4.7,0.7c-0.1-0.3-0.6-0.8-0.8-1.4
	c0.2-0.8,1.7-0.1,2.2-0.3c0.4-1.3-2.2-0.8-3.9-0.6c-0.1,0-0.9-0.1-0.8-0.4c0.5-0.7,1.2-1.6,0-1.5c-0.6,0-0.6,0.9-1.7,1.8
	c-0.9,0.8-2.5,1.1-3,1.1c-1.8-0.1-3.7-0.9-3.4-2.3c0.2-0.4,2.1-0.7,3-1.6c2.3-2.3,4.6-5.7,1.8-4.3c-0.4,1.2-1.4,3-3.4,4
	c-1.4,0.7-1.9-0.1-1.3-1.4c0.6-1.4,2.5-2.6,3.6-4.2c2.5-3.6,0.2-3-0.8-0.6c-0.3,0.9-1.1,1.4-1.7,1.9c-0.8-0.7-0.3-2.7,1-4.3
	c1.4-1.7,1.1-3.9-1.2-0.7c-1.1,1.5-1.4,1.5-2,0.1c-1.5-3.2-2-0.4-0.9,0.5c0.4,0.3,0.6,1.7,1,2.7c1.2,3.3,0.1,1.4-0.2,3.7
	c-0.2,1.5,0.4,3.7-0.4,4.7c-0.6,0-1.3-1.1-2.3-2c-1-0.9-2.3-1.6-2.4-2c-0.3-0.7,0-1.7-0.6-3.1c-0.6-1.6-1.2-0.9-1,0.6
	c0.1,1.1,0.2,2.1-0.3,2.7c-1.3,0.6-3.1-3.1-3.6-2.9c0.1,0.1,0,0.1,0,0.2c-0.2,1.4,1,1.7,1.4,2.5c-0.2,1-1.9,0.1-2.3,0.1
	c-0.6,1.7,6.6,0.8,5.6,2.5c-1.4,0.3-2.1,0.9-3.2,0.7c-2,0.1-1.4,1.1,0.2,1c1.1,0,2.6-0.6,4.2-0.8c0.9-0.1,1.8-0.4,2.5,0.3
	c2.2,2.5,0.1,3.3-0.8,4c-0.5,0.4-1.1,0.9-1.6,1.4c-0.8,0.8-2.5,0.5-3.6,0.4c-0.3,0-1.9,1,0,1.2c0.8,0.1,1.7,0,1.9-0.3
	c1.2-0.3,0.4,0.7-0.5,1.6c-1.7,1.7-0.6,1.2,0.2,0.8c0.8-0.4,1.4-0.8,1.8-1.3c1.5-1.6,2.4-2.9,4.1-3.7c2.4-0.3,1.8,2.7,1.6,2.9
	c0,0.6-1.1,1.6-1.1,2.7c0.2,0.2,0.4,0.1,0.7,0c1.2-0.9,1.2-1,0.9,0.9c-0.1,0.8-0.3,1.7-0.3,2.4c0,1.2,1.1,2.6,1-0.1
	c-0.1-1.5,0.1-2.7,1.3-1.5C216.6,104.2,218.7,105.6,218.2,104z M82.1,155.5c-0.1-1.4-1.3-2.6-2.6-2.7c-1.4-0.1-2.4,0.9-2.3,2.3
	c0.1,1.4,1.3,2.6,2.6,2.7C81.2,157.9,82.2,156.9,82.1,155.5 M76.1,151.4c-0.1-1.6-1.5-3.1-3.1-3.2c-1.6-0.1-2.8,1.1-2.7,2.7
	c0.1,1.6,1.5,3.1,3.1,3.2C75,154.3,76.2,153.1,76.1,151.4z M70.8,157.9c0.1,1.1,1,2,2,2.1c1,0.1,1.8-0.7,1.8-1.7c0-1.1-1-2-2-2.1
	C71.6,156.1,70.8,156.9,70.8,157.9z M67.8,138.2c-0.1-1.8-1.6-3.3-3.4-3.5c-1.7-0.1-3.1,1.2-3,3c0.1,1.8,1.6,3.3,3.4,3.5
	C66.5,141.3,67.9,140,67.8,138.2z M68.5,143c0.1,1.6,1.5,3,3,3.1c1.6,0.1,2.8-1.1,2.7-2.7c-0.1-1.6-1.5-3-3-3.1
	C69.6,140.2,68.4,141.4,68.5,143z M73.6,135.6c-0.1-1.4-1.3-2.6-2.6-2.7c-1.4-0.1-2.4,0.9-2.3,2.3c0.1,1.4,1.3,2.6,2.6,2.7
	C72.7,138.1,73.7,137,73.6,135.6z M66.8,152.6c-1.3-0.1-2.4,0.9-2.3,2.3c0.1,1.3,1.2,2.5,2.6,2.6c1.3,0.1,2.4-0.9,2.3-2.3
	C69.3,153.9,68.2,152.7,66.8,152.6z M76.7,147.2c0.1,1.3,1.1,2.4,2.4,2.5c1.2,0.1,2.2-0.8,2.1-2.1c-0.1-1.3-1.1-2.4-2.4-2.5
	C77.6,145,76.6,146,76.7,147.2z M63.7,151c0,0-0.1,0-0.2,0c-1.7-0.1-3.1-1.6-3.2-3.3c0-0.2,0-0.3,0-0.5c-1.6,0-2.8,1.2-2.7,2.8
	c0.1,1.7,1.5,3.2,3.2,3.3C62.4,153.5,63.6,152.5,63.7,151z M62.2,146.3c0.1,1.8,1.6,3.4,3.4,3.5c1.8,0.1,3.1-1.2,3-3
	c-0.1-1.8-1.6-3.4-3.4-3.5C63.4,143.2,62.1,144.5,62.2,146.3z M75.6,138.4c-0.8-0.1-1.5,0.3-1.9,0.9c1.3,0.8,2.3,2.3,2.5,3.9
	c0,0.1,0,0.2,0,0.3c1.2,0,2.2-1,2.1-2.3C78.2,139.7,77,138.5,75.6,138.4z M61.2,142.9c-0.1-1.5-1.4-2.8-2.8-3
	c-1.5-0.1-2.6,1-2.5,2.5c0.1,1.5,1.4,2.8,2.8,3C60.1,145.5,61.3,144.4,61.2,142.9z M89.9,136.3c-4.8,2.1-0.3,2.5,1.6,1.7
	c4.9-2.2,6.1-6.9,4.6-10.9c-1.3-3.3-5.4-6.6-8.8-8.3c-2.9-1.5-4.2-0.7-3.6,0.2c0.3,0.6,1.6,0.9,2.9,1.6c2.7,1.5,5.9,4.3,7.2,6.7
	C95.4,130.6,95.2,133.9,89.9,136.3z M102.6,80.2c1.7-0.5,2.8-1.4,3.5-2.4v-2.5c-0.5,0.1-1.3,0.6-2.4,1.7c-1.8,2-5.8-0.1-6.6-1.8
	c-1-2-0.9-4.5,1.9-7.3c3.3-3.3,7.2-3.4,10.9-1c0.5,0.3,1.1,0.7,1.5,1.1c1.2,0,2.5-0.1,3.8-0.1c-0.2-0.2-0.4-0.4-0.6-0.5
	c-2.5-2-5.3-3.5-7.7-5.9c-1.9-1.9-1.7-4.4-0.3-6.2c1.3-0.9,4.2-1.1,5-0.3c1.3,1.1,4.6,0,3.5-2.1c3-2.4,4.4-4.3,4-8.2
	c-0.8-0.8-2.8,0.4-3.5,0.2c0.1-3.9-5.3,4.8-6.2,4.3c-1.6-0.7,0.2-2.4,1.3-3.9c0.8-1.1,1.5-2.8,0.9-4.8c-0.7-2.1-1-0.6-1.8-1.6
	c-0.3-0.4-0.7-1.1-1.1-1.8c-2.1-3.4-0.6,0.6-2.6-2.6c-0.7-1.2-3.8-1.8-5.1-1.6c-0.3,0.7-0.5,1.4-0.6,2.1c-0.4,2.9-1.8-0.2-1.9,3.2
	c0,0.6,0.1,1,0.2,1.5c0.2,0.4,2,1,1.7,1.4c-0.5,0.9,0.4,2.6,1.9,3.4c1.2,0.6,0.5,1.6,0.5,1.6c-1.2,0.5-2.6-0.1-3.2-1.9
	c-0.7-2.1-3.1-3-2.9-1.2c-0.6,0-1.3-0.5-2.4-0.2c-1.9,0.5-2.8,2.1-1.4,2.5c0.5,0.1,0.8,1.4-0.3,1.5c-0.7,0-1.9,0-2.1,1.3
	c-0.3,1.4,1.8,1.3,1.9,2c-2.1,0.9,1.2,4.9,4.8,4.1c2-0.5,2,1.3,2.4,1.3c-0.8,0.7-1.2,1.9-0.1,2.3c1,0.3,2.2,0.5,3.2,0.2
	c-0.1,0.8,0.1,1.6,0.9,2.4c0.9,0.9,1.7,1.6,3,2.9c-0.9-0.2-1.9-0.4-2.8-0.5c-3.8-0.4-5.7,1.2-8.4,3.9c-3,3-3.4,5.9-2.6,8.2
	C94.9,79.3,99.2,81.3,102.6,80.2z M98.7,52c1.5-0.6,1.7-1.8,0-2.1c-1-0.2-2.1,0.3-3.2,0.1c-2.7-0.5-3.1-1.4-0.3-1.1
	c3.7,0.5-0.6-2.4-0.5-3.6c0.5-0.2,1.1,0.4,1.6,1.3c0.7,1.2,1.8,2.2,2.2,2c0.2-1.1-0.1-1.9-0.4-2.5c-1.1-2,0.1-1.5,1.2,0.2
	c0.4,0.7,0.5,1.7,0.5,2.6c0.8,0.2,0.9,0.3,1.4,0.8c0.3-0.4,0.3-0.8,0.3-1.3c-0.2-1.9,0.7-0.7,0.9,0.2c0.1,0.4,0.1,1-0.2,1.7
	c0.5,0.8,1.2,1.7,2,1.6c0.9-0.1,1.4-0.9,1.8-3.1c-0.2-2-1.7-3.9-2.6-4.9c-0.9-1.1-0.7-1.9,0.2-1.4c0.4,0.7,0.7,1.3,1,1.8
	c2,2.9,1.6,1.3,0.8-0.4c-0.7-1.4-1.9-3-2.7-4c-1.7-2.3-1.1-3.4-0.4-3.3c0,0,0.2,0.7,0.6,1.6c0.5,1.1,1,2,2.1,2.7
	c0.2-0.7-0.3-1.9-0.4-2.7c-0.1-0.9,0.3-2.4,0.8-0.7c0.3,1,0.9,2.8,0.6,4.4c0.4,0.6,0.5,1.5,0.7,2.5c0.8-0.7,0.9-2.7,0.8-4.5
	c0-1.4,1-1.3,1.1,0.1c0.1,1.3-0.4,3-1,4.3c-0.9,1.9-0.1,2.6,0.8,1.6c0.5-0.6,3-5.3,1.1-0.1c-0.4,1.3-1.3,1.7-2.1,2.4
	c-0.1,0.7-0.4,1.7-0.8,2.5c-1,2.2-1.3,1,0.8,2.2c0.8,0.5,1.6,0.5,4-3.7c0.2-0.4,0.8-1.3,1.3-1.7c0.9-0.7,1.6-0.7,0.3,0.9
	c-1.3,1.6-1,2.4,0.7,0.1c1.9-2.4,2.1-1.3,1,0c-1.2,1.3,0,1.2,1.4-0.6c1.3-1.6,2.1-2.1,0.6,0.6c-0.8,1.3-2.3,2.9-4,2.7
	c-2.6-0.2-2.2,1.8-0.3,1.7c2.5-0.2,0.1,0.7-0.7,0.8c-1.6,0.2-3,0.6-4,0.6c-1.4-0.1-1.4-1.2-2.8-1.1c-0.9,0.1-1.3,0.8-1.8,1.3
	c-0.5,0.6-0.2,1.2-0.6,1.5c-0.7,0.8-1.5,0.6-0.7-1.9c0.3-0.9,1.9-1.2-0.5-2.3c-0.3-0.2-0.6,0.5-2.1,1C97.7,53.3,94.8,53.4,98.7,52z
	 M73.9,121.4c3.5-1.3,3.5-4.5-0.6-2.8c-4.7,1.9-12.2,1-9.5-5.5c0.3-0.8,2.3-2.2,3.8-2.1c3.3,0.2,6.8,2.7,3-0.9
	c-2.1-2-5.3-1.9-7.2-0.2c-1.1,1-2.2,3-2.4,4.6C60,121.5,68.2,123.5,73.9,121.4z M126.4,157.8c-0.2-0.6-1.1-1.3-2.8-1.4l-0.3,0
	C124.3,157,125.4,157.4,126.4,157.8z M69.3,131.4c0.6-1.3,2.7-1.9,4.3-2.2c1.8-0.2,3.8,0.7,5.6,1c0.4,1.5,1,3.1,1.7,4.5l0,0
	c0.8,1.7,1.8,3.4,2.8,5c2.9,4.3,6.6,7.9,11,10.8c1.7,2-3.3,0.7-5.3-0.1c-2.6-1.1-3.8-2.1-4.1-3.6c-0.5-2,0.1-2.6-0.5-3.4
	c-0.9-1.3-2.9-1.3-2,3.1c0.5,2.5,2.2,4.8,4.6,5.8c4.3,1.8,6.7,0.8,18.2,3.6c3.2,1.1,6.5,1.9,10,2.4c2.2,0.3,4.7,0.7,7.2,0.9
	c1.2,0.1,2,0,2.6-0.2c-2.3-1-4.6-2-6.8-3.2c-11.6-1.6-24.1-6.5-30.7-16.2c-1-1.6-2.3-2.9-3.1-4.6l0,0c-0.9-1.9-1.6-3.8-2.1-5.8
	c1.7-0.7,3.4-1.8,5.1-3.6c2.2-2.2,0-3.5-1.8-1.7c-1.4,1.4-2.4,2.1-3.8,2.8c-0.9-4.9-0.5-10,1.4-14.5c0.9-2.1,0.1-2.4-0.5-2.8
	c-1-0.5-2.7,0.2-3.4,1.9c-1.9,4.9-2.3,9.9-1.5,14.9c-3.4-0.2-8.1-0.8-11,4.2C65.5,134,68.2,133.6,69.3,131.4z M80.2,106.4
	c1,0.4,2.2,0.6,3.2,0.5c0.1,1.4,1.1,1.2,1.9,0.7c1.9-1.1,1.7,0.7,2.5-0.4c0.6-0.8,0.9-2.2,0.5-3.3c-0.7-2.1,0.2-3.6,2.8,3.6
	c1.4,3.9,0.7,6.7-0.1,9.1c-0.9,2.6,1.4,4,2.4,1.4c1.1-2.9,1-6.9-0.8-11.6c-0.5-1.4-2-4-2.7-6.3c0-0.6,1-1,1.9,0.7
	c1.3,2.6,4.3,2.9,4.4,1.5l-0.2,0c-0.3-0.9,4,0.2,3.6-1.4c-0.1-0.3-0.6-0.4-0.3-0.6c0.3-0.1,1.9-0.9,1.3-1.6
	c-0.8-0.4-1.3-0.5-2.3-1.5c1.1-1.5-2.7-1.8-4.8-1.3c-0.6,0.1-2.2-2.1,1.9-2c3.5,0.1,5.9-1.4,4.9-3.5c-0.3-0.6,1-2.5-0.2-3.5
	c-1-0.8,0-3.1-0.7-4.4c-0.4-0.7-1.4,0-2.6-0.1c-0.6,0-1.1-0.1-1.3-0.4c-1.5-1.9-2.8-1.2-3.5,0.5c-0.4,0.9-2.9,5.3-3,1.7
	c0-2.1,2.4-4.6,0.9-6.9c-0.9-1.4-3-2.2-3.7-0.8c-1.4-1-2.4-2.9-3.1-1c-0.6-0.5-3.9-2.3-3.1-0.7c0.6,0.7,1.6,4.2,0.5,4
	c-2.7-1.2-0.3,3.1-1,3.4c-0.9,0.8-1.4,1.3-1.8,2.6c0.3,1.2,1.3,2.5,2.3,3.4c2.4,2.4,1.8,3.8-0.6,1.6c-0.9-0.9-2-1.9-2.8-1.5
	c-0.2-0.2-0.4,0.5-0.9,0.8c-0.7,0.4-1.8,0.7-1.9,0.7c-1.7,0.6-3.4,1.9-2.3,3.6c0.1,0.4,0.8,0.8,1.1,1.4c0.3,0.6,0.1,1.5,0.4,2
	c1.6,2.1,3,0.1,3.8,0.6c-0.2,1.9,2.1,0.5,2.3,0.5c0.2-1,5.5-1.7,3.7,0.8c-0.5,0.7-2.4,0.2-3.3,1.7c-1.7,2.6,0.5,1.6,0.5,3
	C79.8,104.4,79.6,105,80.2,106.4z M81.8,104c0.4-0.5,2.8-3.1,1.8-2.8c-2.3,0.7-1.8-0.4-0.2-0.9c1.6-0.5,1.4-0.4,1.5-2.2
	c0.1-2.2,0.4-2.6,0.8-3.4c0.6-1.1-0.5-1-1.4-0.6c-1.8,0.8-4.9,1-6.5,1.5c-0.6-1,1.6-0.4,1.3-1.5c-2.2-1.1-5,2-4.7,0.7
	c0.1-0.3,0.6-0.8,0.8-1.4c-0.2-0.8-1.7-0.1-2.2-0.3c-0.4-1.3,2.2-0.8,3.9-0.6c0.1,0,0.9-0.1,0.8-0.4c-0.5-0.7-1.2-1.6,0-1.5
	c0.6,0,0.6,0.9,1.7,1.8c0.9,0.8,2.5,1.1,3,1.1c1.8-0.1,3.7-0.9,3.4-2.3c-0.2-0.4-2.1-0.7-3-1.6c-2.3-2.3-4.6-5.7-1.8-4.3
	c0.4,1.2,1.4,3,3.4,4c1.4,0.7,1.9-0.1,1.3-1.4c-0.6-1.4-2.5-2.6-3.6-4.2c-2.5-3.6-0.2-3,0.8-0.6c0.3,0.9,1.1,1.4,1.7,1.9
	c0.8-0.7,0.3-2.7-1-4.3c-1.4-1.7-1.1-3.9,1.2-0.7c1.1,1.5,1.4,1.5,2,0.1c1.5-3.2,2-0.4,0.9,0.5c-0.4,0.3-0.6,1.7-1,2.7
	c-1.2,3.3-0.1,1.4,0.2,3.7c0.2,1.5-0.4,3.7,0.4,4.7c0.6,0,1.3-1.1,2.3-2c1-0.9,2.3-1.6,2.4-2c0.3-0.7,0-1.7,0.6-3.1
	c0.6-1.6,1.2-0.9,1,0.6c-0.1,1.1-0.2,2.1,0.3,2.7c1.3,0.6,3.1-3.1,3.6-2.9c-0.1,0.1,0,0.1,0,0.2c0.2,1.4-1,1.7-1.4,2.5
	c0.2,1,1.9,0.1,2.3,0.1c0.6,1.7-6.6,0.8-5.6,2.5c1.4,0.3,2.1,0.9,3.2,0.7c2,0.1,1.4,1.1-0.2,1c-1.1,0-2.6-0.6-4.2-0.8
	c-0.9-0.1-1.8-0.4-2.5,0.3c-2.2,2.5-0.1,3.3,0.8,4c0.5,0.4,1.1,0.9,1.6,1.4c0.8,0.8,2.5,0.5,3.6,0.4c0.3,0,1.9,1,0,1.2
	c-0.8,0.1-1.7,0-1.9-0.3c-1.2-0.3-0.4,0.7,0.5,1.6c1.7,1.7,0.6,1.2-0.2,0.8c-0.8-0.4-1.4-0.8-1.8-1.3c-1.5-1.6-2.4-2.9-4.1-3.7
	c-2.4-0.3-1.8,2.7-1.6,2.9c0,0.6,1.1,1.6,1.1,2.7c-0.2,0.2-0.4,0.1-0.7,0c-1.2-0.9-1.2-1-0.9,0.9c0.1,0.8,0.3,1.7,0.3,2.4
	c0,1.2-1.1,2.6-1-0.1c0.1-1.5-0.1-2.7-1.3-1.5C83.4,104.2,81.3,105.6,81.8,104z M177.5,33c0.9,0.1,1.6,0.9,1.5,1.7
	c-0.1,0.9-0.9,1.5-1.8,1.5c-0.9-0.1-1.6-0.9-1.5-1.7C175.8,33.5,176.6,32.9,177.5,33 M125.9,46.6c1.6,1.1,2.9,1.6,5.4,2
	c-2.3,1.2-3.3,2-4.3,3.7c0-0.4,0-0.8-0.1-1.2c0.8-0.3,1.3-1.1,1.2-1.9c-0.1-0.8-0.9-1.4-1.8-1.4C126.2,47.4,126.1,47,125.9,46.6z
	 M135.3,56c8.7-0.9,20.8-0.9,29.6,0C156.1,56.8,144.1,56.8,135.3,56z M164,54.1c-4-0.3-9.6-0.4-13.7-0.4c-4.1-0.1-9.9,0.1-13.9,0.4
	c-3.3,0.3-6.6,0.6-10,0.8c14.4-3.4,32.9-3.4,47.3,0C170.5,54.7,167.2,54.3,164,54.1z M138.2,47.3c2.1-1.6,2.4,2.3,0.1,1.1
	c0.4,1.4-1.8,1.6-1.7,0.2c-2.1,1.6-2.5-2.2-0.1-1.1C136.1,46.1,138.3,45.8,138.2,47.3z M150.9,46.7c2.3-1.4,2.2,2.5,0,1.1
	c0.3,1.4-1.9,1.5-1.7,0c-2.2,1.5-2.3-2.4,0-1.1C149,45.3,151.1,45.2,150.9,46.7z M163.6,48.5c0.1,1.5-2.1,1.2-1.7-0.2
	c-2.3,1.2-2-2.7,0.1-1.1c-0.1-1.5,2.1-1.2,1.7,0.2C166.1,46.3,165.6,50.2,163.6,48.5z M173.8,47.8c-0.9,0-1.6,0.5-1.8,1.4
	c-0.1,0.8,0.4,1.6,1.2,1.9c0,0.5-0.1,0.9-0.1,1.2c-1-1.6-2-2.5-4.3-3.7c2.5-0.4,3.8-0.9,5.4-2C174.1,47,174,47.4,173.8,47.8z
	 M163.4,29.8c0.1-0.9,0.9-1.5,1.8-1.5c0.9,0.1,1.6,0.9,1.5,1.7c-0.1,0.9-0.9,1.5-1.8,1.5C164,31.4,163.3,30.6,163.4,29.8z
	 M147.6,27.3c0.1-0.9,0.9-1.5,1.8-1.5c0.9,0.1,1.6,0.9,1.5,1.7c-0.1,0.9-0.9,1.5-1.8,1.5C148.1,29,147.5,28.2,147.6,27.3z
	 M132.7,31.5c-0.9-0.1-1.6-0.9-1.5-1.7c0.1-0.9,0.9-1.5,1.8-1.5c0.9,0.1,1.6,0.9,1.5,1.7C134.4,30.9,133.6,31.6,132.7,31.5z
	 M174.8,43.8c-3.4-0.2-14-1.4-24.4-1.4c-11.6,0-21.3,1.2-24.8,1.4C140.6,40.3,159.7,40.2,174.8,43.8z M150.3,25h-0.2
	c-1.9,0.1-3.5,1.6-3.5,3.5c0,1.4,0.8,2.6,2,3.2c0,0.4,0,0.4-0.2,1.3c-0.7,3.3-2,6.1-4.9,6.1c-2.7,0-5.4-2.1-7.1-5.6
	c0.7-0.6,1.1-1.5,1.1-2.5c0-2-1.6-3.5-3.6-3.5c-2,0-3.6,1.6-3.6,3.5c0,1.8,1.4,3.3,3.1,3.5c0.4,3.3-0.5,5.8-2.5,6.3
	c-1.8,0.4-4.1-0.9-6.1-3.3c0.3-0.5,0.5-1.1,0.5-1.8c0-2-1.6-3.5-3.6-3.5c-2,0-3.6,1.6-3.6,3.5c0,2,1.6,3.5,3.6,3.5
	c0.2,0,0.4,0,0.6-0.1c0.4,0.7,0.9,1.5,1.2,2.1c0.5,0.9,0.6,1.9,0.2,2.4c-0.4,0.2-0.8,0.4-0.8,0.8c0,0.4,0.5,0.8,0.7,1
	c0.3,0.2,0.6,0.5,0.7,0.9c0.5,1.2,0.8,2.1,1,3.5c0.2,1.4,0.5,3.6,0.4,4.6c0,0.4-0.2,0.8-0.4,1.1c-0.1,0.2-0.2,0.4-0.2,0.6
	c-0.1,0.7,0.4,1.4,1.1,1.5c7.3,1.1,16.4,1.7,23.7,1.7c7.4,0,16.4-0.6,23.7-1.7c0.7-0.1,1.2-0.8,1.1-1.5c0-0.2-0.1-0.4-0.2-0.6
	c-0.2-0.3-0.3-0.7-0.4-1.1c-0.1-1,0.2-3.3,0.4-4.6c0.2-1.3,0.5-2.2,1-3.5c0.2-0.4,0.4-0.7,0.7-0.9c0.3-0.2,0.7-0.6,0.7-1
	c0-0.4-0.4-0.7-0.8-0.8c-0.4-0.4-0.3-1.5,0.2-2.4c0.4-0.6,0.8-1.3,1.2-2.1c0.1,0,0.3,0,0.4,0c2,0,3.6-1.6,3.6-3.5
	c0-2-1.6-3.5-3.6-3.5c-2,0-3.6,1.6-3.6,3.5c0,0.7,0.2,1.4,0.6,1.9c-2,2.3-4.2,3.6-6,3.1c-2-0.5-2.9-3-2.5-6.3
	c1.6-0.4,2.8-1.8,2.8-3.4c0-2-1.6-3.5-3.6-3.5c-2,0-3.6,1.6-3.6,3.5c0,1.1,0.5,2.1,1.3,2.7c-1.7,3.4-4.3,5.4-7,5.4
	c-2.5,0-4-2.7-4.8-5.8c-0.1-0.5-0.1-1.1-0.2-1.6c1.2-0.6,1.9-1.8,1.9-3.1C153.8,26.6,152.2,25.1,150.3,25z M120.8,33
	c0.9,0.1,1.6,0.9,1.5,1.7c-0.1,0.9-0.9,1.5-1.8,1.5c-0.9-0.1-1.6-0.9-1.5-1.7C119.1,33.5,119.9,32.9,120.8,33z M149.4,64.1
	c-8.3,2.4-16.7,4.3-25.2,5.3c-5.5,0.7-10.9,0.9-16.5,0.9v30.1c0,14,0,28.1,0,42.1c0,7.5,13.6,13.2,19.3,15.6
	c5.2,2.2,10.6,4.1,15.8,6.4c1.8,0.8,4.8,2.1,6.6,3.9c1.9-1.8,5-3.2,6.8-3.9c5.3-2.3,10.8-4.2,16.1-6.4c5.7-2.4,19.8-8.1,19.8-15.6
	c0-14,0-28.1,0-42.1V70.3c-6,0-12-0.2-18-0.8C165.7,68.7,157.5,66.9,149.4,64.1 M149.5,171.7c0-7.3-43.4-13.8-43.4-29.2
	c0-12.2,0-18.2,0-42.1V68.2c10.7,0,22.6-0.3,43.4-6.3c17.9,6.3,33.7,6.3,44.4,6.3v32.2c0,23.9,0,30,0,42.1
	C193.9,157.9,149.5,164.4,149.5,171.7z M135.2,85.9c4.4-2.9,9.7-3.4,14.2-0.7c6.9,4.1,7.1,13.5,6.1,20.6c-0.9,6-3.5,10.9-8.7,16.2
	c-0.1,0.8,0.2,1.3,0.1,2.1c5.1-3.4,7.9-4.9,11.2-10.4c1.6-2.8,2.9-6,3.9-9.6c0.9-5.1,0.8-9.3-0.3-12.8c-3.9-12.7-19.2-13.7-29-6.9
	c-5.7,4-9,8.2-11.2,14.6c-1,2.9-1.5,5.7-1.6,8.5c-0.5,12.2,7.2,20,20,18.9c0.1-0.8,0.2-1.6,0.3-2.5c-3-0.2-5.6-1.3-8.1-3
	c-3.2,0.7-4.7-1-6.1-2.9c-2-5.4-1.1-9.2,0.9-12.3C127.1,95.7,130.1,89.3,135.2,85.9 M153.6,97.4c-5.9-0.7-11.8,0.1-17.9,2.6
	c-2.6,1.3-4.9,3.2-6.7,5.8c-2.5,3.6-3.8,7.4-1.6,11.5c3.1,5.7,9.2-1.8,2.6-3.3c-1.2-5.5,1.9-9.4,6.9-11.7c3.5-1.4,6.9-2.1,10.1-2
	c-0.7,6.5-1.7,13.2-3.8,20.5c-1.5,5.2-3.8,11-7.8,14.9c-4,3.9-7.8,1.8-10.3,1.5c-3.5-0.5-5.2,6.4,4.2,4.9c4-0.7,9.9-4.9,13.5-13.2
	c3.3-9,5.1-15.7,6.2-25.2c0,0.6,0.8-0.6,0.8,0c0.2,3.2,0.2,8.2,0.4,11.5c1.8-2,2.8-4.8,3.6-8.3C153.8,103.6,153.5,100.5,153.6,97.4
	 M150.8,124.2c0.2,5.8,0.5,11.2,0.7,17c7.2-12.5,14.9-25.1,22.6-33.9c-3.1,10.5-6.4,22.8-9.5,33.3l15.9-0.4c0.2-0.5-0.3-1.4-0.1-2
	l-9.1,0.2c3.9-14.2,7.7-28.8,11.6-43c-8.9,6.6-17.8,18.6-27.3,33.3c-0.2-2.9-0.2-5.6-0.4-8.5C153.9,122,152.3,123.4,150.8,124.2
	 M221.7,173.8c2.4-0.4,4.6-0.9,6.3-1.4l-2.9,16.6c-0.4,0.1-0.9,0.3-1.4,0.4c-0.8,0.2-1.9,0.5-3.1,0.8c-6,1.4-15.3,2.9-18.6,0
	c-0.3-0.3-0.6-0.6-0.8-0.8c0-0.1,0-0.1,0-0.2c-0.2-0.4-0.2-0.9-0.1-1.2c0.1-0.5,0.4-0.9,0.8-1.3c0.5-0.4,1.1-0.7,1.8-1
	c1.5-0.5,3.2-0.7,4.8-0.4c3.6,0.7,7.5,0.4,9.8-1.3c0.5-0.4,0.9-0.8,1.3-1.3c0.4-0.5,0.6-1,0.8-1.7c0-0.1,0-0.1,0-0.2
	c0,0,0-0.1,0-0.1L221.7,173.8z M78.3,173.8c-2.4-0.4-4.6-0.9-6.3-1.4l2.9,16.6c0.4,0.1,0.9,0.3,1.4,0.4c0.8,0.2,1.9,0.5,3.1,0.8
	c6,1.4,15.3,2.9,18.6,0c0.3-0.3,0.6-0.6,0.8-0.8c0-0.1,0-0.1,0-0.2c0.2-0.4,0.2-0.9,0.1-1.2c-0.1-0.5-0.4-0.9-0.8-1.3
	c-0.4-0.4-1.1-0.7-1.8-1c-1.5-0.5-3.3-0.7-4.8-0.4c-3.6,0.7-7.5,0.4-9.8-1.3c-0.5-0.4-0.9-0.8-1.3-1.3c-0.4-0.5-0.6-1-0.8-1.7
	c0-0.1,0-0.1,0-0.2c0,0,0-0.1,0-0.1L78.3,173.8z M218.6,181.2c-0.1,0.2-0.2,0.4-0.4,0.6c-0.3,0.4-0.6,0.7-0.9,0.9
	c-2,1.5-5.4,1.7-8.6,1.1c-1.9-0.3-4-0.2-5.7,0.5c-0.8,0.3-1.6,0.7-2.2,1.3l0.5-4.8C206.5,179.8,212.1,179.7,218.6,181.2z
	 M215.8,161.9c-12.8-1.8-24,1.8-35.4,5.7c-9.6,3.2-19.3,6.5-30.3,6.6c-10.9-0.1-20.6-3.4-30.3-6.6c-9.3-3.1-18.5-6.1-28.5-6.2
	c-4.9,0-8.8,0.6-13.4,1.8l3.1,16.5c13.4-3.1,25,0.5,35.8,4.3c9.5,3.4,17.8,7,33.3,7h0c15.4-0.1,25.6-4.1,35-7.4
	c10.8-3.9,20.5-7,34-4l3.1-16.5C220,162.6,217.9,162.2,215.8,161.9z M89.2,160c11.1-0.4,21.1,2.9,31.2,6.3
	c9.5,3.2,19.1,6.4,29.8,6.5c10.7-0.1,20.3-3.3,29.8-6.5c11.5-3.9,22.9-7.6,35.9-5.9c2.5,0.3,4.9,0.8,7.4,1.5
	c0.3,0.2,0.7,0.4,0.6,0.9l-1.8,9.4c2.7-0.5,5.1-1.1,6.6-1.8c0.6-0.3,1.2,0.2,1.1,0.8l-3.2,18.5c0,0.2-0.3,0.5-0.5,0.6l0,0
	c-0.4,0.1-1,0.3-1.9,0.6c-0.9,0.3-2,0.5-3.1,0.8c-6.3,1.5-16.2,3-20-0.3c-1-0.9-1.5-1.6-1.8-2.5c-0.2-0.8-0.2-1.7-0.1-2.8l0.5-5.1
	c-18.1,3.9-28.7,11.6-49.7,11.6c-21.7-0.1-31.2-7.6-49.7-11.6l0.5,5.1c0.1,1.1,0.2,2,0,2.8c-0.2,0.9-0.7,1.6-1.8,2.5
	c-3.8,3.3-13.7,1.8-20,0.3c-1.2-0.3-2.2-0.5-3.2-0.8c-0.9-0.3-1.6-0.4-2-0.6v0c-0.2-0.1-0.5-0.4-0.5-0.6l-3.2-18.5
	c-0.1-0.6,0.5-1.1,1.1-0.8c1.5,0.7,3.9,1.3,6.6,1.8l-1.8-9.4c-0.1-0.4,0.2-0.8,0.6-0.9C81,160.7,84.8,160.1,89.2,160z M81.4,181.2
	c0.1,0.2,0.2,0.4,0.4,0.6c0.3,0.4,0.6,0.7,0.9,0.9c2,1.5,5.4,1.7,8.6,1.1c1.9-0.3,4-0.2,5.7,0.5c0.9,0.3,1.6,0.7,2.2,1.3l-0.5-4.8
	C93.5,179.8,87.9,179.7,81.4,181.2z M91.1,164.2c2.7-0.1,4,1.8,4.1,5.6c0.1,3.8-1,5.9-3.8,6c-2.8,0.1-4-1.9-4.1-5.8
	C87.1,166,88.3,164.2,91.1,164.2 M91,163.3c-4.1,0.1-6.1,3.5-6,6.8c0.1,3.4,1.9,6.6,6.3,6.5c4.4-0.1,6.1-3.1,6-6.8
	C97.2,166,95.1,163.2,91,163.3z M102.5,164.7l-0.3,0.7l1.4,0.9l-2.1,9.8l-1.7,0.3l0,0.8l9,1.9l0.7-3.3l-0.7-0.3l-1.6,2.4l-3.9-0.8
	l2.3-10.3l1.7-0.3l0-0.8L102.5,164.7z M116.8,181.9c4.4,1.5,7.4-0.6,8.5-4c1.1-3.3,0-6.6-4.3-8l-4.8-1.6l-0.4,0.7l1.3,1.1l-3.2,9.5
	l-1.7,0.1l-0.1,0.8L116.8,181.9z M120.7,170.6c3,1,3.6,3.7,2.6,6.6c-1,2.9-3.2,5-6.2,4l-1.5-0.5l3.6-10.6L120.7,170.6z M145.4,178.3
	l-0.6,9.3l-1.6,0.4l0,0.8l4.8,0.7l0.2-0.7l-1.5-0.8l0.7-10l1.7-0.4l0-0.8l-3.4-0.5l-5.7,10l0.2-1.3l-1.8-9.8l-3.3-0.5l-0.2,0.7
	l1.5,0.8l-2.6,9.7l-1.7,0.4l0,0.8l3.6,0.5l0.2-0.7l-1.5-0.8l2.3-8.6l2,10.9l0.9-0.2L145.4,178.3z M156.7,177.4l0.1,0.9l2.5,5.1
	l-4.2,0.5L156.7,177.4z M156.1,176l-2.7,11.8l-1.5,0.8l0.2,0.7l4.2-0.5l0-0.8l-2-0.4l0.7-3l4.8-0.6l1.4,2.8l-1.5,0.8l0.2,0.7l5-0.6
	l0-0.8l-1.6-0.4l-5.6-11L156.1,176z M168,174.4l1.6-0.5c1.9-0.5,3,0.3,3.4,1.9c0.4,1.3-0.3,2.9-1.9,3.4l-0.8,0.2l0.2,0.7l4.4,3.9
	l0.1,0.8l3.4-1l-0.1-0.8l-1.7-0.1l-3.4-3.1l-1.1-0.2c2-0.6,3.4-2.3,2.8-4.4c-0.6-2.1-2.2-3-4.8-2.3l-5.6,1.6l0.1,0.8l1.7,0.1
	l2.8,9.6l-1.3,1l0.3,0.7l4.7-1.3l-0.1-0.8l-1.7-0.1L168,174.4z M183.3,169.7l0.3,0.9l3.4,4.5l-4,1.3L183.3,169.7z M182.5,168.5
	l-0.5,12.1l-1.3,1.1l0.4,0.7l4-1.3l-0.1-0.8l-2,0l0.1-3.1l4.6-1.5l1.9,2.5l-1.3,1.1l0.4,0.7l4.8-1.5l-0.1-0.8l-1.7-0.1l-7.6-9.8
	L182.5,168.5z M195.4,176.7l0.3,0.7l3.6-0.5l0-0.8l-1.6-0.4l-1.4-9.6l8.9,10.2l1-0.5l-1.7-11.2l1.5-0.8l-0.2-0.7l-3.6,0.5l0,0.8
	l1.7,0.4l1.3,8.5l-7.7-8.9l-3.5,0.5l0,0.8l1.7,0.4l1.5,9.9L195.4,176.7z M214.2,165.2l1.7-0.4l-0.1-0.8l-4.9-0.5l-0.2,0.7l1.6,0.7
	l-1,9.9l-1.7,0.4l0.1,0.8l4.9,0.5l0.2-0.7l-1.6-0.8L214.2,165.2z"/>
</svg>
