<svg id="Layer_1" data-name="Layer 1" xmlns="http://www.w3.org/2000/svg" viewBox="0 0 100 100">
  <defs>
    <style>
      .cls-1, .cls-3 {
        fill: #fff;
      }

      .cls-1, .cls-2, .cls-5 {
        fill-rule: evenodd;
      }

      .cls-2 {
        fill: #8fd400;
      }

      .cls-4, .cls-5 {
        fill: #b49949;
      }

      .cls-6 {
        fill: #95d600;
      }
    </style>
  </defs>
  <title>Artboard 1</title>
  <path class="cls-1" d="M50.00053.84125A49.15869,49.15869,0,1,1,.84123,49.99953,49.15857,49.15857,0,0,1,50.00053.84125Z"/>
  <path class="cls-2" d="M79.33706,89.44751C63.86428,69.28067,26.64485,71.80459,16.37265,63.03407c2.01163,5.48392.97109,14.57241.16821,22.97485a49.15471,49.15471,0,0,0,62.79619,3.43859Z"/>
  <path class="cls-3" d="M68.2044,95.67566q-.30594.12073-.61194.23772l.00981-.026.90707-1.9986c1.06986-2.1702,2.6627-4.60055,1.71544-7.155l.02389-.04778c1.00584,2.70837-.24853,5.25063-1.35524,7.48917l-.689,1.5005ZM56.41862,98.7409c-.20618.02733-.41446.051-.62169.075a8.20769,8.20769,0,0,1,1.09585-5.52936c-.47088-.5731-1.83155-2.35687-1.74908-3.98318l.22674-1.47573c.52409-2.8864,1.62-8.89435-2.18638-12.50629l.153-.04357C57.3268,79.06364,56.538,84.96529,56.002,87.91991l-.2192,1.42889a5.90011,5.90011,0,0,0,1.40191,3.49057,9.83028,9.83028,0,0,1,.68355-.89738l1.07418-1.2129c1.80124-2.014,3.93547-3.82174,4.79272-5.70738-.74657,1.9965-2.43053,3.95164-4.26208,6.00129l-1.07313,1.20764a7.72875,7.72875,0,0,0-1.98131,6.51026Zm-8.101.38538c-.24525-.00876-.49045-.01624-.73465-.02827l-.3178-.4307c-.91362-.25735-9.71674-2.75837-11.82713-3.92478l-2.80048-1.43975a68.29279,68.29279,0,0,1-7.94476-4.40956l-1.78056-1.299c-1.799-1.29233-3.35168-2.40559-3.74342-3.12926l5.83,4.26541a69.221,69.221,0,0,0,7.83186,4.29356l2.95789,1.32586c2.00841,1.111,10.17343,3.47211,11.03062,3.71731-2.54226-3.41558-6.03178-7.89254-8.1531-9.723a18.9433,18.9433,0,0,1-1.85217-1.88471c-.60873-.0229-5.36774-.23223-7.76352-1.71544-3.37668-2.09532-5.9461-3.26722-7.23948-3.30413l.05315-.039c1.47684.03808,3.97892.7433,7.56937,2.96864C31.3409,85.55217,35.07024,85.87,36.394,85.94818a24.54042,24.54042,0,0,1-1.85544-2.54658,36.81156,36.81156,0,0,0-3.202-4.22289c-.51539-.05315-6.60582-.72391-9.44-2.70288l.08253.02056c2.73647,1.9097,8.76714,2.07021,8.83343,2.07792a103.78688,103.78688,0,0,0-9.96731-9.59945c3.82694,1.82057,7.39239,5.58695,10.38825,9.25543a5.4615,5.4615,0,0,1,.16383-1.722c.28205-1.06232.42427-3.93646-.153-4.65265l.01524-.013c.62286.7725.74213,3.625.45027,4.71877a5.57563,5.57563,0,0,0-.12365,2.09089h-.0087c1.28684,1.59512,2.47387,3.16068,3.50471,4.51808a53.253,53.253,0,0,0,3.43415,4.25022,14.90665,14.90665,0,0,1,.369-4.18819c.587-2.4578.9364-9.09165-.2018-10.72906l.03031-.02932C39.941,74.2395,40.11791,80.816,39.507,83.34622a14.85718,14.85718,0,0,0-.30267,4.7516,59.31257,59.31257,0,0,1,6.18154,7.12763c.56959-.96466,3.20309-5.62164,2.67467-8.50676a26.42151,26.42151,0,0,1-.14327-5.49361c.08031-1.88038.49582-3.31266.14211-4.36517l-.41119-1.53543a4.62026,4.62026,0,0,0-2.35022-3.3463c1.83155.58268,2.23515,1.89031,2.75276,3.55038l.28427.88745a15.87651,15.87651,0,0,1,.21915,4.85253,25.933,25.933,0,0,0,.13574,5.4067c.614,3.35822-2.71159,8.764-2.85375,8.99189l-.16167-.06507c.96572,1.25857,1.876,2.48023,2.64319,3.52421Z"/>
  <path class="cls-4" d="M50.00053.34326a49.65991,49.65991,0,1,1-35.11219,14.545A49.50118,49.50118,0,0,1,50.00053.34326ZM84.40861,15.59145A48.6618,48.6618,0,1,0,98.66078,49.99953,48.50686,48.50686,0,0,0,84.40861,15.59145Z"/>
  <path class="cls-5" d="M33.48061,40.2328a.97833.97833,0,0,0-.31359-.19088,1.066,1.066,0,0,0-.37328-.06285H30.63235V50.25875h1.12412V45.55388h.88v4.70487h1.12523V45.89031a1.01607,1.01607,0,0,0-.025-.21809,1.137,1.137,0,0,0-.07377-.22137.3469.3469,0,0,0-.17038-.16272,1.23206,1.23206,0,0,0-.37428-.10513l.00105-.12815a1.22242,1.22242,0,0,0,.204-.04124.67633.67633,0,0,0,.15192-.06518.58969.58969,0,0,0,.11384-.08551.46935.46935,0,0,0,.07815-.09766.701.701,0,0,0,.0521-.11413.53877.53877,0,0,0,.026-.11915c.00543-.04451.00981-.08808.01192-.1271.00222-.03785.00438-.077.00438-.11506V40.82868a.74882.74882,0,0,0-.06945-.319.86314.86314,0,0,0-.21161-.27685ZM39.09577,50.2577h1.14036V39.97908H39.09577V50.2577ZM37.7427,40.2328a.83643.83643,0,0,0-.31786-.18983,1.34271,1.34271,0,0,0-.43187-.0639H35.88071a1.32425,1.32425,0,0,0-.42527.0639.93024.93024,0,0,0-.32662.18983.83086.83086,0,0,0-.2105.28865.93007.93007,0,0,0-.06945.36458v8.46564a.99557.99557,0,0,0,.06945.382.75419.75419,0,0,0,.20939.28316.96938.96938,0,0,0,.32662.18118,1.40347,1.40347,0,0,0,.42638.05969H36.993a1.42773,1.42773,0,0,0,.43292-.05969.86886.86886,0,0,0,.31786-.18013.74872.74872,0,0,0,.19748-.28328.99924.99924,0,0,0,.0684-.38292V44.65439H36.58277v.89948h.30162v3.81941H35.973V40.86337h.9114v2.361h1.12523V40.886a.9537.9537,0,0,0-.06729-.36552.82409.82409,0,0,0-.19964-.28772Zm-15.95458,0a.83622.83622,0,0,0-.31791-.18983,1.34246,1.34246,0,0,0-.43187-.0639H19.92508a1.3222,1.3222,0,0,0-.42422.0639.92909.92909,0,0,0-.32668.18983.81845.81845,0,0,0-.2105.28865.91158.91158,0,0,0-.06939.36458v8.46564a.97615.97615,0,0,0,.06939.382.75388.75388,0,0,0,.20951.28316.9529.9529,0,0,0,.32767.18118,1.39383,1.39383,0,0,0,.42422.05969h1.11325a1.42813,1.42813,0,0,0,.433-.05969.879.879,0,0,0,.31786-.18013.74807.74807,0,0,0,.19748-.28328,1.02114,1.02114,0,0,0,.06729-.38292V44.65439H20.62825v.89948h.30162v3.81941H20.0173V40.86337h.91256v2.361h1.12406V40.886a.9537.9537,0,0,0-.06729-.36552.80583.80583,0,0,0-.19853-.28772Zm7.48468,0a.90138.90138,0,0,0-.32008-.18983,1.30431,1.30431,0,0,0-.42206-.0639H27.46513a1.30381,1.30381,0,0,0-.42206.0639.87516.87516,0,0,0-.32013.18983.81126.81126,0,0,0-.20507.28772.93761.93761,0,0,0-.0684.36552v8.46564a1.00412,1.00412,0,0,0,.0684.38292.76236.76236,0,0,0,.20291.28328.93675.93675,0,0,0,.32229.18013,1.33745,1.33745,0,0,0,.42206.06074h1.06554a1.34281,1.34281,0,0,0,.42206-.06074.92215.92215,0,0,0,.32118-.18013.7493.7493,0,0,0,.204-.28328,1.00414,1.00414,0,0,0,.06834-.38292V40.886a.9376.9376,0,0,0-.06834-.36552.82458.82458,0,0,0-.20507-.28772Zm-.83436,9.14153h-.86485v-8.511h.86485v8.511ZM44.21937,40.2328a.96846.96846,0,0,0-.31359-.18983,1.05461,1.05461,0,0,0-.37545-.0639h-1.1924a1.06242,1.06242,0,0,0-.37334.06285.98419.98419,0,0,0-.31464.19088.85569.85569,0,0,0-.20939.279.781.781,0,0,0-.06945.332v9.415h1.123V45.55388h.88v4.70487h1.12523v-9.415a.7926.7926,0,0,0-.06951-.33082.8833.8833,0,0,0-.2105-.28012Zm-.84522,4.42159h-.88v-3.791h.88v3.791ZM23.09236,50.25875H25.601v-.88546H24.21642V45.55388h1.16109v-.89948H24.21642V40.86431H25.601v-.88523H23.09236V50.25875Zm44.61288-.88546h-.84843V39.97908H65.73269v9.37259a1.02114,1.02114,0,0,0,.06729.38292.76176.76176,0,0,0,.19637.28445.89889.89889,0,0,0,.319.179,1.4272,1.4272,0,0,0,.43292.05969h1.06554a1.37032,1.37032,0,0,0,.42211-.05969.917.917,0,0,0,.32113-.18013.74948.74948,0,0,0,.20291-.28328.98311.98311,0,0,0,.06945-.38292V39.97908H67.70524v9.39421Zm-5.88635-8.50991h.92343V50.2577h1.21956V40.86337h.92232v-.8843h-3.0653v.8843Zm10.94494-.63057a.95814.95814,0,0,0-.31359-.18983,1.04442,1.04442,0,0,0-.37434-.0639H69.91557V50.25875h1.12307V45.55388h.881v4.70487h1.12523V45.89031a1.06251,1.06251,0,0,0-.025-.21693,1.18955,1.18955,0,0,0-.07371-.22253.347.347,0,0,0-.17043-.16272,1.23206,1.23206,0,0,0-.37428-.10513l.00111-.12815a1.23281,1.23281,0,0,0,.20291-.04124.68544.68544,0,0,0,.153-.06518.61879.61879,0,0,0,.11284-.08457.478.478,0,0,0,.07815-.09859.67506.67506,0,0,0,.05315-.11413.54547.54547,0,0,0,.026-.11915c.00537-.04451.00975-.08586.01186-.12488.00327-.03913.00438-.07815.00438-.11728V40.82868a.75274.75274,0,0,0-.06939-.319.88016.88016,0,0,0-.21161-.27685Zm-.84423,4.42159h-.881v-3.791h.881v3.791Zm5.05853-4.42159a.96156.96156,0,0,0-.31254-.18983,1.03375,1.03375,0,0,0-.37317-.0639H75.09886a1.068,1.068,0,0,0-.37434.06285.97808.97808,0,0,0-.31353.19088.87117.87117,0,0,0-.20951.279.78092.78092,0,0,0-.06939.332v9.415h1.123V45.55388h.88v4.70487H77.2592v-9.415a.77941.77941,0,0,0-.06945-.33082.85537.85537,0,0,0-.21161-.28012Zm-.84306,4.42159h-.88v-3.791h.88v3.791Zm3.33544,4.71889V39.97908h-1.123V50.2577h2.42936v-.88441Zm-28.40884-9.199a.93361.93361,0,0,0-.32008-.14637,1.74029,1.74029,0,0,0-.43514-.04883H49.23988a1.76437,1.76437,0,0,0-.43724.04883.92862.92862,0,0,0-.319.14637.56545.56545,0,0,0-.19315.242.94136.94136,0,0,0-.06612.36879v2.60312q0,.08463.00648.15957a1.12726,1.12726,0,0,0,.01741.14415.58605.58605,0,0,0,.04445.14322,1.27693,1.27693,0,0,0,.09655.17592L50.04281,46.499c.02716.039.051.0771.06951.10957a1.11531,1.11531,0,0,1,.04988.1021v.002a.58772.58772,0,0,1,.026.10981.77547.77547,0,0,1,.00975.127v2.42486h-.84954v-2.361H48.22434v2.43806a.94662.94662,0,0,0,.06612.37.57475.57475,0,0,0,.19315.24309.92276.92276,0,0,0,.319.14322,1.7182,1.7182,0,0,0,.43724.05h1.06659a1.69481,1.69481,0,0,0,.43514-.05.92777.92777,0,0,0,.32008-.14322.58252.58252,0,0,0,.19321-.24309.9257.9257,0,0,0,.06618-.37V47.0198c0-.06612-.00111-.12032-.00222-.16494-.00105-.05093-.00327-.09964-.00537-.14415-.00333-.04135-.00765-.07932-.01419-.11623a.6051.6051,0,0,0-.02278-.09766l-.00111-.00105c-.00975-.03131-.0205-.064-.03353-.09649s-.02716-.06308-.04129-.09439c-.01513-.03049-.03475-.06507-.05858-.10315a1.30582,1.30582,0,0,0-.0792-.11506l-1.5592-2.34916a1.12524,1.12524,0,0,1-.06185-.10186c-.01735-.03364-.03364-.06729-.04778-.10093a.52924.52924,0,0,1-.03469-.11495.73828.73828,0,0,1-.01081-.13037v-2.426H50.198v2.35991h1.12307V40.78511a.92368.92368,0,0,0-.06618-.36879.573.573,0,0,0-.19321-.242Zm9.67655.05852a.97922.97922,0,0,0-.31365-.19088,1.06779,1.06779,0,0,0-.37434-.06285H58.85773a1.04454,1.04454,0,0,0-.37428.0639.96192.96192,0,0,0-.31248.18983.8588.8588,0,0,0-.2105.279.78092.78092,0,0,0-.06939.332v9.415H59.0152V45.55388h.87886v4.70487h1.12412v-9.415a.77944.77944,0,0,0-.06951-.33082.8669.8669,0,0,0-.21044-.28012Zm-.84417,4.42159H59.0152v-3.791h.87886v3.791Zm-4.19924.49261v.8475l-1.2966-6.01543H53.4043V50.2577h1.10788V44.94632L54.51,44.87156v-.55009l1.29987,5.93623h.99282V39.97908H55.69483V45.147Zm-9.83052-3.68472h.59459l-.013.20069-.01192.10852-.01513.11284c-.00549.0368-.01092.07383-.01963.11168l-.02494.10957c-.00975.03481-.01951.07056-.03037.10327-.01086.03364-.02278.06612-.03469.09637q-.01963.04573-.03907.08808l-.00327.00642c-.01413.02722-.02926.0542-.0434.078-.01519.02395-.03148.05011-.04877.07383l-.00111.0021q-.02777.0361-.05537.06845a.85046.85046,0,0,1-.06074.064.68513.68513,0,0,1-.06512.05981c-.02488.01951-.04877.03785-.07266.0542-.025.01507-.04994.03131-.07593.04661-.02611.01413-.05321.02827-.08037.04112l.26909.50149.00654-.00327c.04556-.02184.09117-.04789.13568-.075.04772-.02827.09217-.05736.13229-.08679.04229-.03037.08358-.06285.12266-.09649.038-.03364.07488-.06845.10852-.10315a1.4241,1.4241,0,0,0,.10093-.11179c.03137-.03785.06291-.07908.09217-.12137s.05642-.08586.08253-.13037c.027-.04556.05093-.09112.07371-.13773.01635-.03469.03148-.07278.04562-.11179.013-.03913.026-.08142.038-.12686l.00105-.00234c.01086-.04439.02284-.09217.03364-.14532.00975-.051.01951-.10513.02827-.16378.00759-.06191.01513-.12266.02056-.17908.00654-.0618.012-.127.01519-.19532.00438-.06939.00864-.14111.01086-.21377.00216-.06612.00216-.142.00216-.22686V39.97908H45.86431v1.48321ZM32.63644,44.65439h-.88v-3.791h.88v3.791Z"/>
  <path class="cls-5" d="M69.9557,35.31766H54.6912c-1.20986,0-1.94119-.357-1.94119-1.76228V31.0241a.17054.17054,0,0,1,.16389-.17149.16167.16167,0,0,1,.128.063,4.03421,4.03421,0,0,0,3.16834,1.55821,4.32042,4.32042,0,0,0,4.19807-4.43141,4.5842,4.5842,0,0,0-.80837-2.616,4.57592,4.57592,0,0,0,.80837-2.614v-.05315c0-.06729,0-.1334-.00216-.20069H60.403a4.60086,4.60086,0,0,0-.81929-2.3883,4.58668,4.58668,0,0,0,.82466-2.63992A4.32133,4.32133,0,0,0,56.21028,13.098c-1.60592,0-2.38818.6683-3.40168,1.82712a1.58419,1.58419,0,0,1-.18439.18889.3217.3217,0,0,1-.18667.06191.34844.34844,0,0,1-.33421-.36038c0-.1952.1129-.26914.23976-.371a7.46872,7.46872,0,0,0,1.00917-.86268,4.17775,4.17775,0,0,0,1.03183-2.8885,4.45195,4.45195,0,1,0-8.90165,0,4.1784,4.1784,0,0,0,1.03294,2.8885,7.40774,7.40774,0,0,0,1.00905.86268c.12587.10186.23877.17581.23877.371a.34845.34845,0,0,1-.33427.36038.32166.32166,0,0,1-.18661-.06191,1.57442,1.57442,0,0,1-.1834-.18889A4.06319,4.06319,0,0,0,43.65731,13.098a4.32166,4.32166,0,0,0-4.20023,4.43234,4.56613,4.56613,0,0,0,.82787,2.63992,4.55412,4.55412,0,0,0-.82028,2.3883h-.00216c-.00333.06729-.00543.1334-.00543.20069v.05315a4.56887,4.56887,0,0,0,.80942,2.614,4.57713,4.57713,0,0,0-.80942,2.616,4.32075,4.32075,0,0,0,4.20023,4.43141,4.03154,4.03154,0,0,0,3.16723-1.55821.16455.16455,0,0,1,.127-.063.17231.17231,0,0,1,.166.17149v2.53128c0,1.40529-.73465,1.76228-1.94335,1.76228H26.24872l-.00648,1.67958H45.21867c2.02045-.01192,3.51779-.74318,3.69681-3.05333h.01413V32.044c0-.58595.02494-1.14246,0-1.63519a1.694,1.694,0,0,0-2.82116-1.5137c-.76608.585-1.04059,1.58215-2.45115,1.58215a2.43945,2.43945,0,0,1,0-4.87192c1.99761,0,1.74044,2.0257,3.70218,2.0257a2.21513,2.21513,0,0,0,.23982-4.41493h-.47959c-1.71982.191-1.57339,1.979-3.46242,1.979a2.41216,2.41216,0,0,1,0-4.81982c1.99761,0,1.74044,2.02582,3.70218,2.02582a2.21513,2.21513,0,0,0,.23982-4.41493h-.47959c-1.71982.192-1.57339,1.97909-3.46242,1.97909a2.43952,2.43952,0,0,1,0-4.872c1.99761,0,1.74044,2.027,3.70218,2.027a2.33075,2.33075,0,0,0,2.26447-2.3925,2.12824,2.12824,0,0,0-1.046-1.93587h.00111a2.58107,2.58107,0,0,1-1.01665-2.07453,2.37442,2.37442,0,1,1,4.7405,0,2.577,2.577,0,0,1-1.01554,2.07453h.00216a2.12816,2.12816,0,0,0-1.0493,1.93587,2.33325,2.33325,0,0,0,2.26675,2.3925c1.96175,0,1.70458-2.027,3.70324-2.027a2.43964,2.43964,0,0,1,0,4.872c-1.8902,0-1.7426-1.787-3.46347-1.97909h-.47848a2.21507,2.21507,0,0,0,.23871,4.41493c1.96175,0,1.70458-2.02582,3.70324-2.02582a2.41221,2.41221,0,0,1,0,4.81982c-1.8902,0-1.7426-1.788-3.46347-1.979h-.47848a2.21507,2.21507,0,0,0,.23871,4.41493c1.96175,0,1.70458-2.0257,3.70324-2.0257a2.43957,2.43957,0,0,1,0,4.87192c-1.4095,0-1.68618-.99714-2.45115-1.58215a1.68854,1.68854,0,0,0-2.8124,1.5137c-.02389.49273,0,1.04924,0,1.63519v1.89989H50.963c.17791,2.31015,1.65364,3.04141,3.67292,3.05333h18.7855L73.42787,35.31H69.9557v.00771Z"/>
  <path class="cls-5" d="M80.944,40.73523h.20291a.33045.33045,0,0,0,.19748-.04334.13722.13722,0,0,0,.05315-.114.13453.13453,0,0,0-.0271-.08014.146.146,0,0,0-.06945-.05444.56087.56087,0,0,0-.1671-.01729H80.944v.30921Zm-.16494.57952h0V40.286h.35261a.90861.90861,0,0,1,.26476.02722.2758.2758,0,0,1,.178.25057.28141.28141,0,0,1-.08037.19765.32521.32521,0,0,1-.21482.09334.26838.26838,0,0,1,.08679.05409,1.27323,1.27323,0,0,1,.15192.20513l.12587.20081h-.2018l-.09223-.16179a.80637.80637,0,0,0-.17476-.24087.20763.20763,0,0,0-.13235-.03364H80.944v.43631Zm.41989-1.3282h0a.811.811,0,0,0-.39273.10408.74061.74061,0,0,0-.29952.29531.80064.80064,0,0,0-.00216.79738.75323.75323,0,0,0,.29619.29531.79982.79982,0,0,0,.79645,0,.74764.74764,0,0,0,.29408-.29531.79252.79252,0,0,0,.10519-.39706.80764.80764,0,0,0-.1063-.40033.7477.7477,0,0,0-.29946-.29531.81371.81371,0,0,0-.39174-.10408Zm0-.1584h0a.98188.98188,0,0,1,.47088.12382.88373.88373,0,0,1,.35816.3536.969.969,0,0,1,.001.957.87537.87537,0,0,1-.35366.35477.96589.96589,0,0,1-.95374,0,.8753.8753,0,0,1-.35378-.35477.95548.95548,0,0,1-.12692-.47626.9762.9762,0,0,1,.128-.4807.893.893,0,0,1,.35915-.3536.97918.97918,0,0,1,.47088-.12382Z"/>
  <path class="cls-4" d="M80.944,40.73523h.20291a.33045.33045,0,0,0,.19748-.04334.13722.13722,0,0,0,.05315-.114.13453.13453,0,0,0-.0271-.08014.146.146,0,0,0-.06945-.05444.56087.56087,0,0,0-.1671-.01729H80.944v.30921Zm-.16494.57952h0V40.286h.35261a.90861.90861,0,0,1,.26476.02722.2758.2758,0,0,1,.178.25057.28141.28141,0,0,1-.08037.19765.32521.32521,0,0,1-.21482.09334.26838.26838,0,0,1,.08679.05409,1.27323,1.27323,0,0,1,.15192.20513l.12587.20081h-.2018l-.09223-.16179a.80637.80637,0,0,0-.17476-.24087.20763.20763,0,0,0-.13235-.03364H80.944v.43631Zm.41989-1.3282h0a.811.811,0,0,0-.39273.10408.74061.74061,0,0,0-.29952.29531.80064.80064,0,0,0-.00216.79738.76089.76089,0,0,0,.29619.29531.79982.79982,0,0,0,.79645,0,.75521.75521,0,0,0,.29408-.29531.79252.79252,0,0,0,.10519-.39706.80764.80764,0,0,0-.1063-.40033.7477.7477,0,0,0-.29946-.29531.81371.81371,0,0,0-.39174-.10408Zm0-.1584h0a.98188.98188,0,0,1,.47088.12382.88373.88373,0,0,1,.35816.3536.969.969,0,0,1,.001.957.87537.87537,0,0,1-.35366.35477.96589.96589,0,0,1-.95374,0,.8753.8753,0,0,1-.35378-.35477.95548.95548,0,0,1-.12692-.47626.9762.9762,0,0,1,.128-.4807.893.893,0,0,1,.35915-.3536.97918.97918,0,0,1,.47088-.12382Z"/>
  <path class="cls-5" d="M61.78747,15.41016h.20174a.33236.33236,0,0,0,.19748-.04229.14382.14382,0,0,0,.02716-.19415.14385.14385,0,0,0-.06945-.0542.51954.51954,0,0,0-.167-.01846h-.18988v.30909Zm-.16605.58046h0V14.96193h.35372a.905.905,0,0,1,.26371.02722.25288.25288,0,0,1,.12908.09988.26243.26243,0,0,1,.04883.15081.276.276,0,0,1-.08031.19648.32586.32586,0,0,1-.21477.09427.27331.27331,0,0,1,.08679.05432,1.10479,1.10479,0,0,1,.15186.20384l.12593.20186h-.20186l-.09223-.16156a.75652.75652,0,0,0-.1747-.24087.20017.20017,0,0,0-.13241-.03364h-.0976v.43607Zm.42095-1.328h0a.80674.80674,0,0,0-.39273.10291.74023.74023,0,0,0-.30051.29624.80625.80625,0,0,0-.10747.40044.81824.81824,0,0,0,.10525.39717.77083.77083,0,0,0,.2973.29519.79709.79709,0,0,0,.7954,0,.75741.75741,0,0,0,.29508-.29519.80108.80108,0,0,0-.00216-.79762.73484.73484,0,0,0-.29841-.29624.815.815,0,0,0-.39174-.10291Zm0-.15852h0a.97232.97232,0,0,1,.46989.12266.86714.86714,0,0,1,.3581.35477.97039.97039,0,0,1,.0021.9559.88211.88211,0,0,1-.35483.35594.96456.96456,0,0,1-.95263,0,.88847.88847,0,0,1-.35477-.35594.955.955,0,0,1-.127-.47521.97335.97335,0,0,1,.12809-.4807.89553.89553,0,0,1,.35921-.35477.9801.9801,0,0,1,.47188-.12266Z"/>
  <path class="cls-4" d="M61.78747,15.41016h.20174a.33236.33236,0,0,0,.19748-.04229.14382.14382,0,0,0,.02716-.19415.14385.14385,0,0,0-.06945-.0542.51954.51954,0,0,0-.167-.01846h-.18988v.30909Zm-.16605.58046h0V14.96193h.35372a.905.905,0,0,1,.26371.02722.25288.25288,0,0,1,.12908.09988.26243.26243,0,0,1,.04883.15081.276.276,0,0,1-.08031.19648.32586.32586,0,0,1-.21477.09427.27331.27331,0,0,1,.08679.05432,1.10479,1.10479,0,0,1,.15186.20384l.12593.20186h-.20186l-.09223-.16156a.75652.75652,0,0,0-.1747-.24087.20017.20017,0,0,0-.13241-.03364h-.0976v.43607Zm.42095-1.328h0a.80674.80674,0,0,0-.39273.10291.74023.74023,0,0,0-.30051.29624.80625.80625,0,0,0-.10747.40044.81824.81824,0,0,0,.10525.39717.77083.77083,0,0,0,.2973.29519.79709.79709,0,0,0,.7954,0,.75741.75741,0,0,0,.29508-.29519.80108.80108,0,0,0-.00216-.79762.73484.73484,0,0,0-.29841-.29624.815.815,0,0,0-.39174-.10291Zm0-.15852h0a.97232.97232,0,0,1,.46989.12266.86714.86714,0,0,1,.3581.35477.97039.97039,0,0,1,.0021.9559.88211.88211,0,0,1-.35483.35594.96456.96456,0,0,1-.95263,0,.88847.88847,0,0,1-.35477-.35594.955.955,0,0,1-.127-.47521.97335.97335,0,0,1,.12809-.4807.89553.89553,0,0,1,.35921-.35477.9801.9801,0,0,1,.47188-.12266Z"/>
  <g>
    <path class="cls-6" d="M41.23119,59.61183l5.22125-.0033a3.01271,3.01271,0,0,1-.22784.49707,2.92584,2.92584,0,0,1-.52191.65863,4.08383,4.08383,0,0,1-.67822.51984,3.7368,3.7368,0,0,1-.753.3559,5.363,5.363,0,0,1-.77258.21265,4.00694,4.00694,0,0,1-.69446.07147,3.72624,3.72624,0,0,1-.87561-.14648,4.75358,4.75358,0,0,1-.89624-.3689,4.09438,4.09438,0,0,1-.816-.56519,4.15071,4.15071,0,0,1-.65857-.75531,3.1768,3.1768,0,0,1-.42981-.89624,3.67151,3.67151,0,0,1-.14417-1.03613,3.47512,3.47512,0,0,1,.07153-.67285,4.13693,4.13693,0,0,1,.19971-.68127,3.95427,3.95427,0,0,1,.75946-1.211,3.59935,3.59935,0,0,1,.54688-.48822,3.8992,3.8992,0,0,1,.6554-.38092,3.73388,3.73388,0,0,1,.74866-.25171,3.73386,3.73386,0,0,1,1.47577-.0542,4.32662,4.32662,0,0,1,.64117.14539,3.89943,3.89943,0,0,1,.60114.23761,4.03415,4.03415,0,0,1,.54688.33093,2.9463,2.9463,0,0,1,.45673.41333,2.99139,2.99139,0,0,1,.356.49274l.07275.1236h1.63623l-.15845-.35046a4.46118,4.46118,0,0,0-.36566-.65759,4.26452,4.26452,0,0,0-.47522-.58594,5.28965,5.28965,0,0,0-.5567-.49146,4.94039,4.94039,0,0,0-.62384-.40369,5.45484,5.45484,0,0,0-.6662-.306,5.96624,5.96624,0,0,0-.6955-.22021,5.89276,5.89276,0,0,0-1.44861-.17462,5.32448,5.32448,0,0,0-.9364.09985,5.75039,5.75039,0,0,0-.9212.26691,5.24143,5.24143,0,0,0-.88.43085,5.42652,5.42652,0,0,0-.79205.58374,4.83764,4.83764,0,0,0-.6814.74628,5.26529,5.26529,0,0,0-.52625.88654,4.77377,4.77377,0,0,0-.344,1.03088,5.94293,5.94293,0,0,0-.12372,1.13922,4.9487,4.9487,0,0,0,.10638,1.02869,4.85883,4.85883,0,0,0,.319.97,5.21653,5.21653,0,0,0,.50232.8822,5.03624,5.03624,0,0,0,.6673.765,5.51905,5.51905,0,0,0,1.68732,1.10132,5.28523,5.28523,0,0,0,.9743.30151,5.21107,5.21107,0,0,0,1.007.10419,6.04471,6.04471,0,0,0,.9494-.07593,5.62872,5.62872,0,0,0,.9104-.22357A5.1804,5.1804,0,0,0,46.32,62.11183a4.55073,4.55073,0,0,0,.68475-.67816,5.31523,5.31523,0,0,0,.95917-1.812,6.51679,6.51679,0,0,0,.22888-1.09595l.03473-.27759-6.99634.00305Z"/>
    <path class="cls-6" d="M34.8684,59.473a2.86513,2.86513,0,0,0,.752-.33643A3.0583,3.0583,0,0,0,36.241,58.619a3.27223,3.27223,0,0,0,.47308-.67273,3.38622,3.38622,0,0,0,.29181-.7757,3.58607,3.58607,0,0,0,.09772-.8335l-.07922-.587a4.73747,4.73747,0,0,0-.13776-.53491,2.59951,2.59951,0,0,0-.24414-.52179,3.052,3.052,0,0,0-.37329-.49274A2.59166,2.59166,0,0,0,35.718,53.757a4.00019,4.00019,0,0,0-.72266-.33972,4.63425,4.63425,0,0,0-.92548-.22028,8.02765,8.02765,0,0,0-1.11877-.07153H30.13982l.00323,9.78394.001.24835,1.44745-.00214L31.58831,54.498h1.67316a3.16657,3.16657,0,0,1,.6109.05865,3.08266,3.08266,0,0,1,.57617.17358,2.3073,2.3073,0,0,1,.49481.2843,2.06108,2.06108,0,0,1,.38849.38843,1.58546,1.58546,0,0,1,.24072.47089,2.0247,2.0247,0,0,1,.00549,1.11768,1.57974,1.57974,0,0,1-.22461.46106,1.68769,1.68769,0,0,1-.36462.37115,2.06383,2.06383,0,0,1-.50562.27332,3.29879,3.29879,0,0,1-.64447.17688,4.66931,4.66931,0,0,1-.75848.05865H31.78472c1.2077,1.60693,2.40881,3.22375,3.62622,4.82306h1.81854L34.506,59.55006Z"/>
    <path class="cls-6" d="M28.39281,55.58308A5.30314,5.30314,0,0,0,25.167,53.14937a5.48349,5.48349,0,0,0-1.38556-.17474,5.33514,5.33514,0,0,0-1.08838.10864,4.765,4.765,0,0,0-1.0036.32428,5.42338,5.42338,0,0,0-.89636.50671,5.07045,5.07045,0,0,0-.766.65765,5.45475,5.45475,0,0,0-.62177.77472,5.13575,5.13575,0,0,0-.46.86145,5.25532,5.25532,0,0,0-.29077.91473,4.8082,4.8082,0,0,0-.10742.931,5.47277,5.47277,0,0,0,.10846,1.11536,4.86457,4.86457,0,0,0,.3299,1.022,5.32493,5.32493,0,0,0,.50781.8974,5.0776,5.0776,0,0,0,.66943.76935,5.53052,5.53052,0,0,0,.78564.61292,5.38712,5.38712,0,0,0,.87885.458,5.54055,5.54055,0,0,0,.92987.293,5.0442,5.0442,0,0,0,.9505.116,5.53711,5.53711,0,0,0,.97766-.091,5.64506,5.64506,0,0,0,.9657-.27136,5.80225,5.80225,0,0,0,.90924-.44049,5.65276,5.65276,0,0,0,.81812-.5946,5.1074,5.1074,0,0,0,.701-.74316,5.23715,5.23715,0,0,0,.54254-.877,4.58414,4.58414,0,0,0,.35583-.98956,4.98187,4.98187,0,0,0,.12915-1.074,5.45989,5.45989,0,0,0-.17908-1.39758A5.10734,5.10734,0,0,0,28.39281,55.58308Zm-.7356,2.64856a4.69942,4.69942,0,0,1-.13025.88538,3.47374,3.47374,0,0,1-.2854.76068,3.70131,3.70131,0,0,1-.41772.6369,3.33483,3.33483,0,0,1-.51648.5058,3.86784,3.86784,0,0,1-.58813.385,3.93216,3.93216,0,0,1-.64124.27362,4.8543,4.8543,0,0,1-.65643.16364,4.03756,4.03756,0,0,1-.6369.061,3.6466,3.6466,0,0,1-.6217-.05444,4.23943,4.23943,0,0,1-.64783-.16479,3.56958,3.56958,0,0,1-.62933-.27991,4.30609,4.30609,0,0,1-.59247-.40686,3.16177,3.16177,0,0,1-.50885-.53186,3.91539,3.91539,0,0,1-.41016-.68359,3.67783,3.67783,0,0,1-.27234-.8147,5.18171,5.18171,0,0,1-.10742-.96259,2.94174,2.94174,0,0,1,.07373-.63373,3.50656,3.50656,0,0,1,.21918-.64655,4.14914,4.14914,0,0,1,1.39972-1.66675,4.26658,4.26658,0,0,1,.66309-.37427,3.39912,3.39912,0,0,1,.70844-.23212,3.54889,3.54889,0,0,1,.74872-.07812,3.83214,3.83214,0,0,1,.9549.12042,4.02774,4.02774,0,0,1,.91351.36224,3.76326,3.76326,0,0,1,.803.58386,3.96585,3.96585,0,0,1,.6347.78766,3.59553,3.59553,0,0,1,.40692.94086A4.071,4.071,0,0,1,27.65721,58.23164Z"/>
    <path class="cls-6" d="M68.24895,53.11561c0,3.342-.00977,6.68732.00427,10.0293h1.44855c-.0141-3.34314-.00427-6.68829-.00427-10.03131Z"/>
    <path class="cls-6" d="M79.19823,60.15761l-.076.10419a4.25783,4.25783,0,0,1-.42645.50452,3.7757,3.7757,0,0,1-.48175.40686,3.96827,3.96827,0,0,1-1.06982.54272,4.27876,4.27876,0,0,1-.56854.13867,4.08038,4.08038,0,0,1-.5697.05762,3.94045,3.94045,0,0,1-.93964-.12909,4.00768,4.00768,0,0,1-.8974-.36133,3.74336,3.74336,0,0,1-.78448-.57074,3.82683,3.82683,0,0,1-.61523-.76489,3.51882,3.51882,0,0,1-.40143-.90161,3.851,3.851,0,0,1-.14435-1.01465,4.0122,4.0122,0,0,1,.07813-.80408,3.37685,3.37685,0,0,1,.23-.7301,3.8956,3.8956,0,0,1,.37225-.65228,3.54642,3.54642,0,0,1,.47961-.54681,3.92273,3.92273,0,0,1,.57507-.43945,3.92516,3.92516,0,0,1,2.07568-.58923,3.861,3.861,0,0,1,1.11.164,3.829,3.829,0,0,1,.53918.21381,3.87682,3.87682,0,0,1,.50995.29822,3.99559,3.99559,0,0,1,.47858.395,3.95445,3.95445,0,0,1,.41125.46448l.07483.09869h1.6026l-.20392-.36786a5.70418,5.70418,0,0,0-.41455-.64551,4.998,4.998,0,0,0-.48065-.561,5.29023,5.29023,0,0,0-.53174-.46552,4.91245,4.91245,0,0,0-.575-.3808,5.02369,5.02369,0,0,0-1.24573-.49823,5.40586,5.40586,0,0,0-.651-.12463,5.61185,5.61185,0,0,0-.67493-.04126,5.42022,5.42022,0,0,0-2.37512.54462,5.0401,5.0401,0,0,0-1.89124,1.56592,4.6293,4.6293,0,0,0-.6098,1.10449,5.07455,5.07455,0,0,0-.30273,1.2608l-.04236.66724a5.42809,5.42809,0,0,0,.10962,1.09821,5.00356,5.00356,0,0,0,.3255,1.01007,5.09,5.09,0,0,0,.51318.90277,4.90293,4.90293,0,0,0,.676.76178,5.4287,5.4287,0,0,0,.79749.60767,5.3277,5.3277,0,0,0,.894.44806,5.24414,5.24414,0,0,0,3.67517.06732,4.84488,4.84488,0,0,0,.817-.38318,5.25381,5.25381,0,0,0,.75629-.53906,5.38792,5.38792,0,0,0,.6814-.69775,6.83478,6.83478,0,0,0,.58374-.84528l.22034-.37335Z"/>
    <path class="cls-6" d="M65.33885,53.11451,65.342,60.4507l-4.95862-7.3338H58.71459c0,3.3429-.00977,6.68817.00433,10.03119h1.44745l-.0033-7.81464,5.2962,7.8125h1.33136c-.01416-3.343-.00439-6.68835-.00439-10.03143Z"/>
    <path class="cls-6" d="M52.699,53.12013l-.16272.001c-1.44965,3.33551-2.8764,6.686-4.30658,10.03021H49.803l1.37482-3.19653,4.082-.00208,1.405,3.19641,1.567-.0022L53.92186,53.11885Zm1.99866,5.46527-2.948.00128,1.47894-3.47656Z"/>
  </g>
</svg>
