<?xml version="1.0" encoding="utf-8"?>
<!-- Generator: Adobe Illustrator 22.1.0, SVG Export Plug-In . SVG Version: 6.00 Build 0)  -->
<svg version="1.1" id="Layer_1" xmlns="http://www.w3.org/2000/svg" xmlns:xlink="http://www.w3.org/1999/xlink" x="0px" y="0px"
	 viewBox="0 0 300 300" style="enable-background:new 0 0 300 300;" xml:space="preserve">
<style type="text/css">
	.st0{fill-rule:evenodd;clip-rule:evenodd;fill:#D2AB67;}
</style>
<path class="st0" d="M149.9,281.6c-3.8,0-6.9,3-6.9,6.7c0,3.7,3.1,6.7,6.9,6.7c3.8,0,6.9-3,6.9-6.7
	C156.8,284.6,153.7,281.6,149.9,281.6 M141.2,267.3c-3.8,0-6.9,3-6.9,6.7c0,3.7,3.1,6.7,6.9,6.7c3.8,0,6.9-3,6.9-6.7
	C148.1,270.3,145,267.3,141.2,267.3z M158.5,267.3c-3.8,0-6.9,3-6.9,6.7c0,3.7,3.1,6.7,6.9,6.7c3.8,0,6.9-3,6.9-6.7
	C165.4,270.3,162.3,267.3,158.5,267.3z M132.6,253.1c-3.8,0-6.9,3-6.9,6.7c0,3.7,3.1,6.7,6.9,6.7c3.8,0,6.9-3,6.9-6.7
	C139.5,256.1,136.4,253.1,132.6,253.1z M149.9,253.1c-3.8,0-6.9,3-6.9,6.7c0,3.7,3.1,6.7,6.9,6.7s6.9-3,6.9-6.7
	C156.8,256.1,153.7,253.1,149.9,253.1z M167.2,253.1c-3.8,0-6.9,3-6.9,6.7c0,3.7,3.1,6.7,6.9,6.7c3.8,0,6.9-3,6.9-6.7
	C174.1,256.1,171,253.1,167.2,253.1z M178.9,253.7c6.8,5.2,4.3,16.7-5.3,18.3c10,2.7,16-2.8,16.2-7c10,6.3,15.7,11.4,37.7,11.1
	C199.7,269.7,196.4,258,178.9,253.7 M121.1,253.7c-6.8,5.2-4.3,16.7,5.3,18.3c-10,2.7-16-2.8-16.2-7c-10,6.3-15.7,11.4-37.7,11.1
	C100.3,269.7,103.6,258,121.1,253.7z M108.6,236.5c-55.4,15-67.9,4.8-91.6-34.1c1.4-1.5,2.9-3.2,4.5-5c1.6-1.8,2.7-3.1,3.4-3.8
	c0.7-0.8,1.6-1.7,2.6-2.7c2.2-2.1,3.8-3.7,4.9-5c1.1-1.3,1.9-2.7,2.2-4.3c0-1.8-0.6-2.7-1.8-2.7h-1.7v-3.1h1.6c0.4,0,0.9,0,1.6,0.1
	c0.7,0.1,1.2,0.1,1.6,0.1c0.3,0,1,0.1,2,0.3c1.1,0.1,1.9,0.2,2.6,0.2c0.9,0,1.5,0,1.8-0.1c0.3-0.1,0.7-0.1,1.2-0.3
	c0.5-0.1,1-0.2,1.6-0.3c0.5-0.1,1.4-0.1,2.6-0.1h1.7v3.1h-1.1c-1,0-1.9,0.2-2.8,0.5c-0.9,0.3-2.2,1.1-3.8,2.2
	c-1.6,1.2-3.7,3-6.2,5.4c-2.6,2.4-5.9,5.8-10.1,10.2c-1.4,1.5-2.3,2.4-2.9,2.9c2.2,0.8,4.2,2.1,5.9,3.8c1.8,1.7,3.5,3.8,5.1,6.2
	c17.9,26.8,31.3,32.4,72.3,26C107,235.9,107.8,236.1,108.6,236.5 M279.4,193.6L279.4,193.6c-0.1,0.4-0.3,1.3-0.7,2.7
	c-0.4,1.3-1.6,5-3.5,10.9c0.1,0,0.2,0,0.3,0c0.1,0,0.2,0,0.3,0.1c0.6,0.1,1.2,0.1,1.8,0.2c0.6,0,1.3,0.1,2.1,0.1
	c0.7,0,1.3,0,1.8-0.1c0.5,0,1.1-0.1,1.6-0.2c0.1,0,0.2-0.1,0.3-0.1c0.1,0,0.2,0,0.3,0c-0.8-2.6-1.6-4.9-2.4-6.7
	c-0.8-1.9-1.3-3.6-1.7-5.3c-0.1-0.3-0.1-0.6-0.2-0.8C279.5,194.1,279.5,193.8,279.4,193.6z M262.9,222.1V220h1.1
	c0.8,0,1.4-0.2,2-0.7c0.5-0.5,1-1,1.3-1.7c0.2-0.2,0.3-0.5,0.5-0.8c0.1-0.3,0.2-0.5,0.3-0.7c0.5-1.1,1.3-2.9,2.2-5.2
	c0.9-2.4,1.9-4.9,2.8-7.6c0.1-0.4,0.3-0.8,0.4-1.2c0.1-0.4,0.3-0.8,0.4-1.2c1.1-3.2,2.1-6.2,3-9.1c0.9-2.9,1.5-4.9,1.8-6.2
	c0.7-0.1,1.4-0.3,2.1-0.5c0.7-0.2,1.4-0.4,2-0.7h0.5c0.2,1,0.9,3,1.9,6c1,3.1,3.1,9,6.2,17.7c1.4,3.9,2.5,6.7,3.2,8.3
	c0.8,1.6,1.5,2.7,2.1,3.1c0.4,0.2,0.7,0.3,1,0.4c0.3,0,0.7,0.1,1.2,0.1h0.2h0.2h0.5v2h-0.5h-1.3c-0.3,0-0.6,0-0.9-0.1
	c-0.3,0-0.6-0.1-0.9-0.2c-0.1,0-0.3,0-0.5-0.1c-0.2,0-0.3-0.1-0.5-0.1c-0.2,0-0.4-0.1-0.7-0.1c-0.2,0-0.5-0.1-0.7-0.1
	c-0.2,0-0.5-0.1-0.7-0.1h-0.7c-0.6,0-1.2,0-1.8,0.1c-0.5,0-1,0.1-1.4,0.1c-0.1,0-0.3,0.1-0.4,0.1c-0.1,0-0.3,0-0.4,0
	c-0.3,0-0.6,0.1-0.9,0.1c-0.3,0-0.6,0.1-0.8,0.1c-0.4,0-0.7,0-1.1,0c-0.4,0-0.9,0-1.4,0h-0.5v-2h1.2c0.8,0,1.3-0.2,1.5-0.6
	c0.2-0.4,0.4-0.9,0.4-1.4v-0.2v-0.2v-0.4v-0.3v-0.1v-0.2c0-0.6-0.2-1.4-0.6-2.3c-0.4-0.9-1-2.5-1.8-4.6c-0.2,0-0.4,0-0.6,0
	c-0.2,0-0.5,0-0.8,0c-0.4,0-0.9,0.1-1.3,0.1c-0.5,0-0.9,0-1.4,0h-0.5h-0.5h-0.5h-0.6c-0.2,0-0.3,0-0.5-0.1c-0.4,0-0.8,0-1.2-0.1
	c-0.5,0-1.2-0.1-2.1-0.1c-0.1,0.2-0.1,0.4-0.2,0.6c-0.1,0.2-0.1,0.3-0.1,0.5c0,0,0,0.1,0,0.1c0,0.1,0,0.1-0.1,0.1
	c-0.1,0.2-0.1,0.4-0.2,0.6c-0.1,0.2-0.2,0.5-0.3,0.7c-0.1,0.2-0.2,0.5-0.3,1c-0.1,0.4-0.3,0.9-0.4,1.4c0,0.1-0.1,0.2-0.1,0.3
	c0,0.1-0.1,0.3-0.1,0.4c-0.2,0.6-0.3,1.2-0.5,1.8c-0.1,0.6-0.2,1-0.2,1.3c0,0.7,0.2,1.1,0.6,1.4c0.4,0.2,0.9,0.4,1.5,0.4
	c0.2,0,0.4,0,0.6,0c0.2,0,0.4,0,0.6-0.1h0.5v2h-0.5h-1c-0.2,0-0.5,0-0.9-0.1c-0.3-0.1-0.7-0.1-1.1-0.2c-0.4,0-0.8-0.1-1.3-0.1
	c-0.5-0.1-1-0.1-1.6-0.1c-0.6,0-1.1,0-1.5,0.1c-0.4,0-0.8,0.1-1.1,0.1c-0.1,0-0.2,0.1-0.3,0.1c-0.1,0-0.2,0-0.3,0
	c-0.1,0-0.3,0.1-0.4,0.1c-0.1,0-0.3,0-0.4,0.1c-0.3,0-0.6,0.1-0.9,0.1h-1.1L262.9,222.1z M234.7,188.1c0,0.5-0.1,1.2-0.1,2.2
	c0,1,0,2.1-0.1,3.4c0,0.4,0,0.8,0,1.2c0,0.4,0,0.9,0,1.3c0,1.7-0.1,3.3-0.1,4.8c0,1.5-0.1,2.6-0.1,3.2v1.4v1.3v1.4v1.4
	c0,3.8,0.2,6.6,0.8,8.2c0.6,1.7,2,2.5,4.4,2.6c3.7-0.1,6.8-1.5,9.3-4.3c2.5-2.8,3.8-7.1,3.8-12.9c0-5.3-1.1-9-3.4-11.2
	c-2.3-2.2-4.7-3.6-7.4-4.1c-0.5-0.1-1.1-0.2-1.6-0.2c-0.5-0.1-1.1-0.1-1.6-0.1c-0.7,0-1.4,0-2.1,0.1
	C235.9,187.9,235.3,188,234.7,188.1z M223.2,185.9h1.7c0.2,0,0.4,0,0.7,0c0.2,0,0.5,0,0.7,0c0.2,0,0.4,0.1,0.7,0.1
	c0.2,0,0.5,0,0.7,0h0.8h0.8c0.3,0,0.6,0,0.8,0c0.3,0,0.5,0,0.8,0c0.8,0,1.4-0.1,2-0.1c0.5,0,1.1-0.1,1.5-0.1c0.1,0,0.3,0,0.4,0
	c0.1,0,0.3,0,0.4,0c0.3,0,0.6-0.1,0.9-0.1c0.3,0,0.7,0,1-0.1c0.9-0.1,1.7-0.1,2.5-0.2c0.8-0.1,1.6-0.1,2.4-0.1h0.5
	c4.8,0,9,1.5,12.6,4.5c3.7,3,5.5,7.6,5.5,13.6c0,5-1.8,9.5-5.3,13.3c-3.5,3.8-8.1,5.7-13.7,5.7l-0.5,0.1c-1,0-2-0.1-2.9-0.2
	c-0.9-0.1-1.8-0.2-2.7-0.2c-0.1,0-0.2-0.1-0.2-0.1H235c-0.4,0-0.8-0.1-1.1-0.1c-0.4,0-0.7-0.1-1.1-0.1c-0.2,0-0.5-0.1-0.7-0.1
	c-0.2,0-0.5,0-0.7,0c-0.2,0-0.4-0.1-0.7-0.1H230c-0.8,0-1.5,0-1.8,0.1c-0.4,0-0.7,0.1-0.9,0.1c0,0,0,0.1,0,0.1h0
	c-0.2,0-0.5,0.1-0.8,0.1c-0.3,0-0.8,0.1-1.5,0.1h-0.5H223V220h0.5c0.1,0,0.1,0,0.2,0c0,0,0.1,0,0.2,0c0,0,0.1,0,0.1,0
	c0.1,0,0.1,0,0.1,0c1.3-0.2,2.1-1.1,2.4-2.7c0.3-1.6,0.5-3.6,0.5-5.9v-1.5v-1.5c0-0.1-0.1-0.3-0.1-0.5v-0.5v-1v-1v-1.4v-1.4v-1.4
	v-1.4v-0.6v-0.6v-0.6v-0.6v-0.5v-0.5c0-2.1-0.2-4.1-0.4-5.8c-0.2-1.7-1.1-2.6-2.5-2.6h-1.4v-2H223.2z M202.9,187.9v-2h0.5
	c1.3,0,2.2,0,2.6,0.1c0.4,0.1,0.7,0.1,0.9,0.1c0,0,0,0.1,0,0.1h0c0.2,0.1,0.5,0.1,0.9,0.2c0.4,0,1.2,0.1,2.6,0.1
	c1.3,0,2.2,0,2.6-0.1c0.4,0,0.7-0.1,0.9-0.2h0c0,0,0,0,0-0.1c0.2,0,0.5-0.1,0.9-0.1c0.4-0.1,1.3-0.1,2.6-0.1h0.5v2h-1.1
	c-1.2,0-2,1-2.3,2.9c-0.3,2-0.5,6.2-0.4,12.6v1v1v0.7v0.8v1.1c0,0.4,0,0.7-0.1,1.1v0.3v0.3c0,0.5,0,0.9,0,1.4c0,0.5,0,0.9,0,1.3
	c0,2,0.2,3.7,0.5,5.2c0.4,1.5,1.1,2.3,2.3,2.4c0.1,0,0.1,0,0.2,0c0.1,0,0.1,0,0.1,0c0.1,0,0.1,0,0.2,0c0.1,0,0.1,0,0.1,0h0.5v2h-0.5
	h-2c-0.4,0-0.7,0-1.1-0.1c-0.4-0.1-0.7-0.1-1.1-0.2c-0.1,0-0.1,0-0.2,0c-0.1,0-0.2,0-0.3-0.1c-0.3,0-0.6-0.1-1-0.1
	c-0.4,0-0.9-0.1-1.4-0.1c-0.5,0-1,0-1.4,0.1c-0.4,0-0.7,0.1-1,0.1c-0.1,0-0.2,0.1-0.3,0.1c-0.1,0-0.2,0-0.2,0
	c-0.2,0-0.5,0.1-0.7,0.1c-0.3,0.1-0.5,0.1-0.8,0.1c-0.1,0-0.2,0.1-0.3,0.1h-0.4h-0.5h-1.9v-2h0.5h0.1h0.1c0,0,0,0.1,0,0.1h0.1
	c0.9,0,1.5-0.4,2.1-1.2c0.5-0.8,0.8-1.8,0.9-3.2c0-0.7,0.1-1.4,0.1-2.1c0-0.6,0-1.3,0-1.9c0-0.8,0.1-1.5,0.1-2.2
	c0-0.7,0.1-1.4,0.1-2.1c0-0.3,0-0.6,0-0.9c0-0.3,0-0.6,0-0.9c0-0.5,0.1-1,0.1-1.5v-1.4V202v-0.7c0-0.2-0.1-0.4-0.1-0.6v-0.6v-0.8
	v-0.8c0-0.3-0.1-0.5-0.1-0.8v-0.7c0-2.7-0.2-4.9-0.5-6.5c-0.3-1.6-1-2.4-2.3-2.4H202.9z M168.3,199.3v2.6c1.1,0.1,2.3,0.3,3.7,0.3
	c1.3,0.1,3.4,0.1,6,0.1c1.7,0,3.2,0,4.4-0.1c1.2-0.1,2.2-0.1,3.1-0.2c0.4,0,0.7-0.1,0.9-0.1c0.3,0,0.5,0,0.8-0.1v-1.8v-1.7
	c0-2.9-0.1-5.3-0.3-7.4c-0.2-2.1-1-3.1-2.5-3.1h-1.1v-2h0.5h1.8c0.2,0,0.4,0,0.7,0c0.2,0,0.5,0,0.7,0.1c0.1,0,0.2,0,0.3,0
	c0.1,0,0.2,0,0.3,0c0.1,0,0.3,0.1,0.4,0.1c0.1,0,0.2,0,0.3,0c0.4,0,0.9,0.1,1.3,0.1c0.4,0.1,0.9,0.1,1.3,0.1c0.2,0,0.4,0,0.6,0
	c0.2,0,0.4,0,0.7,0c0.2,0,0.4-0.1,0.6-0.1c0.2,0,0.4,0,0.6-0.1c0.1,0,0.2,0,0.3,0c0.1,0,0.2,0,0.4-0.1c0.1,0,0.2,0,0.3,0
	c0.1,0,0.2,0,0.3,0c0.2,0,0.4-0.1,0.7-0.1c0.2,0,0.5,0,0.7,0h0.5h1.8v2h-1.1c-1.5,0-2.4,1.1-2.6,3.4c-0.2,2.3-0.3,5.2-0.2,8.8v2.6
	v2.8v0.9v0.9v0.4v0.4v1.3v1.3v0.6v0.7v1.3c0,0.4,0,0.9,0.1,1.3c0,1.4,0.2,2.7,0.6,3.8c0.4,1.2,1.1,1.8,2.2,1.8h1.1v2H198h-0.2h-0.2
	h-0.2h-0.2c-0.4,0-0.8,0-1.1,0c-0.3,0-0.6-0.1-1-0.1c-0.1,0-0.3,0-0.4,0c-0.1,0-0.3,0-0.4-0.1c-0.5-0.1-1-0.2-1.6-0.3
	c-0.6-0.1-1.2-0.1-1.9-0.1c-0.7,0-1.3,0-1.9,0.1c-0.6,0.1-1.1,0.2-1.6,0.3c-0.1,0-0.3,0.1-0.4,0.1c-0.1,0-0.3,0-0.4,0
	c-0.3,0.1-0.6,0.1-1,0.1c-0.3,0-0.7,0-1.2,0h-0.5h-0.3h-0.3v-2h1.1c0.8,0,1.4-0.3,1.7-0.9c0.4-0.6,0.6-1.2,0.7-1.9
	c0-0.3,0.1-0.6,0.1-0.9c0-0.3,0.1-0.5,0.1-0.8c0-0.6,0.1-1.2,0.1-1.8c0-0.5,0-1,0.1-1.5c0-0.9,0.1-1.8,0.1-2.8c0-1,0-2.2,0-3.8v-1.4
	c-1,0.1-2.2,0.1-3.4,0.2c-1.2,0-3,0.1-5.2,0.1h-0.5H177h-1.1h-1.1h-1.1c-1.2,0-2.3-0.1-3.1-0.1c-0.9-0.1-1.7-0.1-2.3-0.1
	c0,0.3,0,0.7-0.1,1.1c0,0.4-0.1,0.9-0.1,1.4c0,0.6-0.1,1.3-0.1,2c0,0.7-0.1,1.5-0.1,2.2v0.1v0.2c0,2.1,0.3,4.1,0.7,5.9
	c0.4,1.8,1.2,2.7,2.4,2.7h1.1v2h-0.5h-0.3H171c-0.4,0-0.8,0-1.1,0c-0.3,0-0.6-0.1-1-0.1c-0.1,0-0.3,0-0.4,0c-0.1,0-0.3,0-0.4-0.1
	c-0.5-0.1-1-0.2-1.6-0.3c-0.6-0.1-1.2-0.1-1.9-0.1c-0.7,0-1.3,0-1.9,0.1c-0.6,0.1-1.1,0.2-1.6,0.3c-0.1,0-0.3,0.1-0.4,0.1
	c-0.1,0-0.3,0-0.4,0c-0.3,0.1-0.7,0.1-1,0.1c-0.3,0-0.7,0-1.2,0h-0.5h-0.3H157v-2h1.1c1.1,0,1.8-0.6,2.2-1.8
	c0.4-1.2,0.6-2.5,0.6-3.9c0-0.5,0.1-1,0.1-1.5v-1.4v-0.4v-0.4v-1.2v-1.1v-0.1v-0.1c0-0.4-0.1-0.8-0.1-1.2v-1.4V204v-1.2v-0.1v-0.1
	c0-0.4,0.1-0.9,0.1-1.3v-1.5v-2.1v-2v-0.5v-0.5c0-1.7-0.1-3.2-0.3-4.6c-0.2-1.4-1-2.1-2.4-2.1h-1.1v-2h0.5h1.8c0.2,0,0.4,0,0.7,0
	c0.2,0,0.5,0,0.7,0.1c0.1,0,0.2,0,0.3,0c0.1,0,0.2,0,0.3,0c0.1,0,0.3,0.1,0.4,0.1c0.1,0,0.2,0,0.3,0c0.4,0,0.9,0.1,1.3,0.1
	c0.4,0.1,0.9,0.1,1.3,0.1c0.2,0,0.4,0,0.6,0c0.2,0,0.4,0,0.7,0c0.2,0,0.4-0.1,0.6-0.1c0.2,0,0.4,0,0.6-0.1c0.1,0,0.2,0,0.3,0
	c0.1,0,0.2,0,0.4-0.1c0.1,0,0.2,0,0.3,0c0.1,0,0.2,0,0.3,0c0.2,0,0.4-0.1,0.7-0.1c0.2,0,0.5,0,0.7,0h0.5h1.8v2h-1.1
	c-1.4,0-2.3,1-2.5,3c-0.2,2-0.4,4.1-0.3,6.5v0.2v0.2v0.8V199.3z M118.2,187.9v-2h0.5h1.8c0.2,0,0.4,0,0.6,0c0.2,0,0.4,0,0.7,0.1
	c0.1,0,0.2,0,0.3,0c0.1,0,0.2,0,0.3,0c0.1,0,0.2,0.1,0.3,0.1c0.1,0,0.2,0,0.3,0c0.2,0,0.4,0.1,0.6,0.1c0.2,0,0.4,0,0.7,0.1
	c0.2,0,0.4,0,0.6,0c0.2,0,0.4,0,0.6,0c0.5,0,0.9,0,1.4-0.1c0.4-0.1,0.9-0.1,1.3-0.1c0.1,0,0.2,0,0.3,0c0.1,0,0.2,0,0.3-0.1
	c0.1,0,0.2,0,0.3,0c0.1,0,0.2,0,0.4,0c0.2,0,0.4-0.1,0.6-0.1c0.2,0,0.4,0,0.6,0h0.5h1.8v2h-1.1c-1.4,0-2.2,1-2.4,2.9
	c-0.2,1.9-0.3,4.5-0.3,7.6v0.8v0.8v0.7v0.7v0.7v0.7v3.4v0.9v0.1v0.1c0,0.1-0.1,0.4-0.1,0.9v2.5v0.5v0.6v1.3v1.4
	c0.1,1.4,0.3,2.7,0.7,3.8c0.4,1.2,1.1,1.8,2.2,1.8h1.1v2h-0.5h-0.3h-0.3c-0.4,0-0.8,0-1.1,0c-0.3,0-0.6-0.1-1-0.1
	c-0.1,0-0.3,0-0.4,0c-0.1,0-0.3,0-0.4-0.1c-0.5-0.1-1-0.2-1.6-0.3c-0.6-0.1-1.2-0.1-1.9-0.1c-0.7,0-1.3,0-1.9,0.1
	c-0.6,0.1-1.1,0.2-1.6,0.3c-0.1,0-0.3,0.1-0.4,0.1c-0.1,0-0.3,0-0.4,0c-0.3,0.1-0.6,0.1-1,0.1c-0.3,0-0.7,0-1.2,0h-0.5h-0.3h-0.3v-2
	h1.1c1.1,0,1.9-0.6,2.3-1.8c0.4-1.2,0.6-2.5,0.7-4c0-0.5,0-1.1,0-1.6c0-0.5,0-1,0-1.4V211v-0.2c0-0.4,0-0.9,0-1.3c0-0.4,0-0.9,0-1.3
	v-1.3v-1.3V205v-0.6v-0.5v-0.5v-0.6v-0.6c0-5.2-0.1-8.9-0.3-11.1c-0.2-2.2-1-3.3-2.4-3.3H118.2z M139.8,187.9v-2
	c0.2,0,0.4-0.1,0.6-0.1h0.5h0.5c0.2,0,0.5,0,0.7,0c0.2,0,0.4,0,0.6,0.1c0.2,0,0.3,0,0.5,0c0.2,0,0.3,0,0.5,0.1
	c0.4,0,0.8,0.1,1.2,0.1c0.5,0.1,1,0.1,1.7,0.1c0.4,0,0.9,0,1.4-0.1c0.5,0,1.1-0.1,1.8-0.2c0.4,0,0.9-0.1,1.3-0.1c0.5,0,1,0,1.5-0.1
	h0.5v2h-0.5c0,0-0.1,0-0.1,0c-0.1,0-0.1,0-0.1,0h-0.2H152c-0.7,0-1.4,0.1-2,0.3c-0.6,0.2-1.2,0.5-1.8,0.8c-1.6,1-3.3,2.5-5.2,4.7
	c-1.9,2.2-4.8,4.9-8.6,8.1c2,0.7,3.7,1.9,5.1,3.5c1.4,1.6,2.7,3.4,3.8,5.2c0.6,1.1,1.2,2.1,1.8,3.1c0.6,1,1.1,2,1.7,2.8
	c0.6,1,1.3,1.7,1.9,2.4c0.7,0.6,1.4,1,2.1,1c0.2,0,0.4-0.1,0.5-0.1c0.2,0,0.4-0.1,0.6-0.1c0.1,0,0.2-0.1,0.3-0.1
	c0.1,0,0.2-0.1,0.3-0.1c0.2-0.1,0.4-0.1,0.6-0.2c0.2-0.1,0.3-0.1,0.4-0.2h0.5v2.1c-0.8,0.3-1.5,0.5-2,0.7c-0.5,0.2-1,0.3-1.5,0.4
	c-0.2,0.1-0.5,0.1-0.7,0.1c-0.2,0-0.5,0-0.8,0l-0.5,0.1c-1.2,0-2.2-0.3-3.1-0.7c-0.9-0.4-1.8-1-2.6-1.9c-1.5-1.5-3.1-3.6-5-6.4
	c-1.8-2.8-4.5-6.2-8-10.2c5.1-5.3,8.4-9,10-11c1.5-2,2.3-3.2,2.3-3.6c0-0.2-0.2-0.4-0.5-0.6c-0.3-0.1-0.7-0.2-1.1-0.3
	c0,0-0.1,0.1-0.1,0.1h-0.2H139.8z M112.7,213.7h2c-0.2,1.1-0.4,2.1-0.6,2.9c-0.2,0.8-0.4,1.6-0.6,2.2c-0.6,1.8-1.2,2.9-1.9,3.3
	c-0.7,0.4-1.9,0.6-3.6,0.6l-0.5,0.1c-1.2,0-2.2-0.1-2.9-0.1c-0.7-0.1-1.5-0.1-2.1-0.2c-0.3,0-0.6,0-0.8-0.1c-0.3,0-0.6-0.1-0.9-0.1
	c-0.1,0-0.2,0-0.3,0c-0.1,0-0.3,0-0.4,0c-0.1,0-0.3-0.1-0.4-0.1c-0.1,0-0.2,0-0.3,0c-0.3,0-0.5,0-0.7,0c-0.2,0-0.5,0-0.7-0.1
	c-0.2,0-0.5,0-0.7,0c-0.2,0-0.5,0-0.7-0.1c-0.4-0.1-0.9-0.1-1.3-0.2c-0.4,0-0.9-0.1-1.4-0.1c-0.2,0-0.4,0-0.6,0c-0.2,0-0.4,0-0.6,0
	c-0.2,0-0.4,0.1-0.6,0.1c-0.2,0-0.4,0-0.6,0.1c-0.4,0-0.9,0.1-1.3,0.1c-0.4,0.1-0.9,0.1-1.3,0.1H88h-1.7v-2h1.2
	c1.2,0,1.9-0.6,2.3-1.9c0.3-1.3,0.5-2.6,0.5-4.1v-0.2v-0.2v-0.8V212c0-0.2-0.1-0.5-0.1-0.7v-0.7v-1.4V208c0-0.4-0.1-0.9-0.1-1.3
	v-1.3v-2.1c0-0.3,0-0.6,0.1-0.7v-0.7v-2.1v-0.1v-0.1v-0.8v-0.9c0-2.6-0.1-4.9-0.3-7c-0.2-2-1.1-3-2.5-3h-1.1v-2h0.5h1.8
	c0.2,0,0.4,0,0.6,0c0.2,0,0.4,0,0.7,0.1c0.1,0,0.2,0,0.3,0c0.1,0,0.2,0,0.3,0c0.1,0,0.2,0.1,0.3,0.1c0.1,0,0.2,0,0.3,0
	c0.4,0,0.9,0.1,1.3,0.1c0.4,0.1,0.9,0.1,1.3,0.1c0.2,0,0.4,0,0.6,0c0.2,0,0.4,0,0.7,0c0.2,0,0.4-0.1,0.6-0.1c0.2,0,0.4,0,0.6-0.1
	c0.1,0,0.2,0,0.3,0c0.1,0,0.2,0,0.4-0.1c0.1,0,0.2,0,0.3,0c0.1,0,0.2,0,0.3,0c0.2,0,0.4-0.1,0.7-0.1c0.2,0,0.5,0,0.7,0h0.5h1.8v2
	h-1.1c-1.4,0-2.1,0.6-2.4,1.9c-0.2,1.3-0.3,2.8-0.3,4.7v0.6v0.6v1v1v1v1c0,1.7,0,3,0,3.8c0,0.8,0,1.5,0,2.1v0.2v0.2c0,0.5,0,1,0,1.5
	c0,0.6,0,1.4,0,2.4v0.9v0.9c0,3.6,0.3,5.9,1,6.9c0.7,1,2.9,1.5,6.8,1.5c1.3,0,2.5-0.5,3.6-1.3c1.2-0.8,2.2-2.5,3.1-5.1H112.7z
	 M53.2,203.6c0,4.6,1,8.3,2.9,11c1.9,2.8,4.1,4.5,6.4,5.3c0.4,0.1,0.8,0.3,1.2,0.3c0.4,0.1,0.8,0.1,1.2,0.1c0.4,0,0.9-0.1,1.4-0.2
	c0.5-0.1,1-0.3,1.5-0.5c1.7-0.7,3.2-2.3,4.6-4.6c1.4-2.3,2.1-5.9,2.1-10.7c0-4.9-1-8.7-3-11.5c-2-2.8-4.1-4.6-6.5-5.2
	c-0.3-0.1-0.6-0.1-0.8-0.2c-0.3-0.1-0.5-0.1-0.8-0.1c-2.5,0.1-4.8,1.4-6.9,3.9C54.2,193.9,53.2,198,53.2,203.6z M45.2,203.2
	c0.1-5.6,2.1-10,5.8-13.2c3.8-3.2,8.2-4.8,13.2-4.8h0.5c4.5,0,8.6,1.7,12.3,5c3.7,3.3,5.6,8.1,5.6,14.3c0,5.6-1.8,10-5.4,13.3
	c-3.6,3.3-7.8,4.9-12.5,4.9l-0.5,0.1c-5.3,0-9.7-1.9-13.4-5.5c-3.7-3.6-5.5-8.2-5.5-13.8v-0.1v-0.1v-0.1V203.2z M0.2,175.7h2.5
	c0.5,0,1.7,0.1,3.7,0.4c1.9,0.2,3.4,0.3,4.2,0.3c0.8,0,2.2-0.1,4.1-0.3c2-0.3,3.3-0.4,3.7-0.4h2.6v3.1h-1.6c-1.2,0-2.1,0.5-2.7,1.4
	c-0.6,1-0.9,2.2-1.1,3.6c-0.1,1.4-0.2,3.4-0.2,5.9v27.9c0,6.7,1.3,10.1,4,10.1h1.5v3.1h-2.8c-0.7,0-1.8-0.2-3.1-0.6
	c-1.6-0.3-3.1-0.4-4.7-0.4c-1.6,0-3.1,0.1-4.7,0.4c-1.4,0.4-2.4,0.6-3.1,0.6H0v-3.1h1.5c2.8,0,4.2-3.4,4.2-10.1v-27.9
	c0-2.5-0.1-4.5-0.2-5.9c-0.1-1.4-0.5-2.6-1.1-3.6c-0.6-1-1.5-1.4-2.7-1.4H0.2V175.7z M155.2,120.2L155.2,120.2
	c-0.7,0.2-0.4,0.7-0.6,1.5c-0.3,1.6-2.2,2.3-2.6,3.7c-0.4,1.5,0.4,2.3,1.3,2.6c0.3,0.1,0.6,0.1,0.9,0.2c0.3,0.1,0.5,0.5,1.1,0.4
	c0.7-0.1,1-1.1,1.2-2.5c0.2-1.1,0.5-2.3,0.6-3.2c0-0.4,0-1,0-1.3C156.8,120.9,155.7,120,155.2,120.2 M176.6,82.7L176.6,82.7
	c-0.4,0.5-0.6,1.1-0.9,1.5c-0.9,1-2.1,1.6-2.8,2.8c1.3-0.2,2.6,0.3,3,1.1c0.2,0.4,0.1,0.8,0.2,1.3c0.3,1.6,1.5,2.4,2.7,3.1
	c0.4-1.7-0.3-3.5-0.3-5.5c0-2.3,0.2-4.8,0.6-6.7C178.3,81.1,177.3,81.8,176.6,82.7z M198.5,76.9L198.5,76.9c0.9-1.6,2.5-2.5,3.8-3.6
	c0.2-0.1-0.1-0.4,0.1-0.5c0.6,0.5,0.8-0.2,1.6-0.1c-0.1-1.2,0.4-2,0.2-3.2c-1.5-0.3-2.4-1.3-3.1-2.5c-0.1,0.6,0.4,0.9,0.6,1.3
	c0.1,0.2,0,0.4,0.1,0.5c0.1,0.3,0.4,0.6,0.4,0.9c0.1,0.7-0.1,1.6-0.4,2.1c-0.3,0.6-0.9,0.9-1.4,1.5c-0.5,0.7-0.8,1.4-1.2,2
	c0,0.3,0.1,0.3,0.1,0.5C198.9,76.1,198.5,76.5,198.5,76.9z M195.7,72.1L195.7,72.1c-0.4-0.8-1.3-1-1.6-1.9c-0.1-0.3,0-0.7-0.1-1.2
	c-0.1-0.4-0.3-0.7-0.3-1.1c-0.1-0.6,0-1.2,0.1-1.8c-3.7,2.1-5.7,6-8.9,8.6c-0.3,1.5,0.9,2.1,0.9,3.3c0,0.4-0.2,0.8-0.2,1.3
	c0.1,1.1,1.2,2.3,1.9,2.8c0.3,0.2,0.8,0.3,1.1,0.5c1.2,0.9,0.4,2.6-0.2,3.7c-0.6,1.1-1.3,2-2.4,2.4c0.3,0.8,1.2,1,1.6,1.7
	c0.5,0.7,0.4,1.7,0.9,2.6c0.5-2,2.2-2.8,4.2-3.3c0.4-1.1,0.8-2.4,0.7-3.7c-0.1-1.4-1.4-3.4-2.3-3.8c-0.3-0.1-0.6-0.1-0.8-0.2
	c-0.8-0.4-1.7-1.4-1.8-2.4c-0.2-1,0.3-1.9,0.4-2.7c0.3-2.3-0.4-4.2-0.3-6.1c1.3,0.2,1.3,1.6,1.6,2.7c0.3,1.2,0.5,2.6,0.4,3.9
	c-0.1,0.9-0.6,1.7-0.4,2.6c0.2,1.1,1.2,1,2,1.4c2,1.1,3.5,4.5,2.6,7.4c1-0.7,2.2-0.5,3.1-1.3c1.1-1,1-3.2,0.6-4.9
	c-1.1-0.4-2.3-1.3-2.8-3.1c-0.2-0.9-0.4-1.5-0.8-2.1c-0.4-0.6-1-1.1-1.2-1.7C192.6,73.6,195.1,73.4,195.7,72.1z M151,56.4L151,56.4
	c1-0.4,1.8-1.1,2.8-1.7c1.5-0.8,3.2-1.2,3.8-2.9c0.1-0.4,0.1-0.9,0.1-1.4c0.3-2.6,2.1-3.7,3.6-5.3c-0.6,0.6-1.3,1-2.1,1.4
	c-1.6,0.8-3.3,1.8-5.7,1.7C153,51.4,151,53.1,151,56.4z M164.3,148.7L164.3,148.7c-0.7-0.7-1.6-1.4-1.9-2c-0.4-0.8,0-2.2-0.5-2.6
	c-0.4-0.3-1.2-0.3-1.8-0.1c-0.4,0.1-0.5,0.7-1,1c-0.2,0.1-0.5,0.1-0.7,0.2c-0.4,0.3-1.1,1.4-1.3,2.4c-0.4,1.5-0.1,3.4,0.5,4.5
	c0.2,0.4,0.7,0.8,1.1,1.2c0.3,0.3,0.9,1,1.5,0.9c0.5-0.1,0.8-0.8,0.8-1.4c0.1-1.9-2.2-2.9-1.3-5.4c0.1,0.5,0.2,0.8,0.4,1.3
	c0.3,0.5,1.1,0.8,1.3,1.3c0.3,0.7-0.1,1.7,0.7,2c0.3,0.1,0.6,0.1,1,0c0.9,1,3.1,0.9,2.9-0.9C165.9,150.1,165,149.4,164.3,148.7z
	 M176.6,143.7L176.6,143.7c-0.6-0.4-1.5-0.4-2.3-1c-0.3-0.3-0.6-0.8-0.9-1c-0.5-0.4-1-0.5-1.6-0.8c-0.8-0.4-2-1.3-2.2,0.1
	c-0.1,1,1.1,1.7,0.4,2.7c-0.7-0.3-1.3-0.6-2-0.4c-0.4,0.1-0.4,0.3-0.8,0.6c-0.6,0.5-1.2,0.8-1.5,1.5c-0.6,1.4,0.4,2.3,1.3,2.8
	c0.4,0.2,1.3,0.5,2.1,0.6c1,0.1,2.2,0.4,3,0.1c0.5-0.2,0.6-0.7,1.2-1c1.3-0.5,2.7,0.4,3.8-0.2c0.6-0.3,1.2-1.4,0.8-2.6
	C177.8,144.8,177,144,176.6,143.7z M147.3,143L147.3,143c-0.7,1.2-0.2,3.3,1.1,3.6c-0.2-1.8,0.9-2.4,2.4-2.2
	c0.3,1.4,1.9,1.6,3.6,1.6c0.8-1.5-0.1-3.2-1-3.8c0.2-1.1-0.8-1.5-1-2.5c-0.1-0.3,0-0.7-0.1-0.9c-0.5-1-2.2-0.6-1.9,1
	c-0.6,0.7-1.2,1.7-2.1,2.5C147.9,142.5,147.5,142.7,147.3,143z M183.1,139.9L183.1,139.9c-0.3-0.1-0.6-0.3-0.9-0.3
	c-0.4-0.1-0.8-0.1-1.1-0.2c-1-0.5-2.4-2.9-4.1-2.1c-1.1,0.5-3.5,0.9-2.7,3c0.1,0.3,0.5,0.5,0.7,0.7c0.3,0.3,0.4,0.6,0.7,0.8
	c0.4,0.4,1.1,0.7,1.6,1c0.8,0.5,1.9,1.5,2.4,0.2c0.7,0.8,3,1.8,3.7,0.4c1.2,0.2,1.8-0.3,1.8-1.1c0-0.5-0.3-0.8-0.5-1.2
	C184.2,140.1,184.2,140.1,183.1,139.9z M157.8,143.5L157.8,143.5c0.6,0.1,1.7,0.1,2.1-0.2c0.8-0.8-0.3-1.7-0.8-2.1
	c-0.6-0.4-1.2-0.7-1.6-1.2c-1.2-1.3-1-2.8-0.7-5.1c-0.4-0.8-1.5-0.3-1.8,0.2c-1,1.4-0.8,5.6,0.1,7
	C155.4,142.7,156.8,143.3,157.8,143.5z M157.2,153.1L157.2,153.1c-0.6-1.1-2.3-1.8-2.4-3.6c-0.1-0.8,0.1-1.7,0.3-2.6
	c-2.1,0.3-3.8-0.3-5.2-1c-0.1,0.7,0.3,2-0.4,2.4c-1.7-0.2-3.4-1.3-3.8-2.6c-0.8-2.5,1.2-4.2,2.4-5.6c1.1-1.3,2.2-2.5,2.4-4.3
	c-0.4-0.5-0.2-1.7-0.6-2.1c-0.6,0.6-1,1.3-1.8,1.8c-0.6,0.8-0.9,2.3-1.9,2.9c-0.1,0.1-0.4,0.1-0.6,0.2c-0.5,0.3-0.7,0.9-1.2,1
	c-0.3,0-0.6-0.1-0.8-0.1c-0.6,0.1-0.9,1.2-1.7,0.6c0-0.4-0.2-0.9-0.5-1c-0.9-0.2-1.6,1.1-2,2.1c-0.8,2-1,6.2,0.9,6.7
	c0.1,0.4,0.2,0.8,0.4,1.2c0.3-1.1,1.1-1.7,2.4-1.8c0.2-0.4,0.5-0.9,0.4-1.4c2.4-0.2,1.2,4-0.6,2.5c-0.8,0.6-0.3,2.9-1.4,3.1
	c-0.5,0.1-1.4-0.5-1.7-0.7c-0.8-0.7-0.9-2.1-1.3-3.4c-0.3-1-0.7-2-0.7-3c-0.1-1.7,0.2-3.4,0.2-4.9c-0.2,0.1-0.5,0.3-0.8,0.4
	c-0.7,0.3-2.3,0.2-2.9,0.6c-1.5,0.9-2.9,2.9-3.5,4.8c-0.2,0.6-0.6,1.8-0.4,2.4c0.1,0.3,0.9,1,1.3,1.5c1.4,1.5,3.4,2.5,4.9,3.7
	c1.2,0.9,2.5,1.4,3.7,2c1.8,0.8,4.1,1,6.5,0.7c-0.4-0.8-1.4-1.5-1.1-2.7c1.8-0.1,2.9,0.9,4.2,1.4c1.3,0.6,2.8,0.8,4.4,1.2
	c0.1,0-0.1-0.3,0.1-0.3c0.5,0.1,1.4,0.2,1.8,0.3c-0.3-0.6-1-1.3-0.7-2.2C156.2,153,156.7,153.1,157.2,153.1z M186.9,136L186.9,136
	c-0.1-1-2-0.6-2.3-1.6c-0.1-1.1,0.6-2-0.1-2.6c-0.2-0.2-0.9-0.4-1.5-0.2c-0.4,0.1-0.6,0.9-1.1,1.5c-0.5,0.6-2.1,1.4-2.2,2.1
	c-0.2,1.2,0.9,0.7,1.5,0.9c0.4,0.1,0.5,0.7,0.7,1c0.2,0.3,0.5,0.8,0.9,1.1c0.8,0.7,4.4,1.1,4.3-0.5c0-0.5-0.6-0.8-0.6-1
	C186.5,136.6,187,136.5,186.9,136z M162.2,142.9L162.2,142.9c0.2,0.1,0.6,0.1,1,0.3c0.5,0.2,0.6,0.4,0.9,0.4c0.2,0,0.5-0.3,0.7-0.3
	c0.8-0.3,1.6-0.1,2-0.6c0.1-0.2,0.3-1,0.1-1.4c-0.4-0.7-2.2-1.1-3-1.6c-0.9-0.7-1.8-2.5-2.3-3.7c-0.6-1.5-1-3.4-1.8-4.1
	c-0.1-0.1-0.7-0.3-0.9-0.3c-1,0.1-0.6,1.1-0.7,2.1c-0.1,2-0.2,5,0.5,6.3c0.3,0.5,0.9,0.8,1.3,1.1c0.4,0.4,0.9,0.6,1.4,1
	C161.8,142.2,162,142.7,162.2,142.9z M194.4,129.6L194.4,129.6c0,0-0.1,0-0.1,0c-0.7,0.3-1.4,0.5-2.5,0.7c-0.6,0.2-1.3,0.5-1.7,0.5
	c-0.2,0-0.5-0.1-0.8-0.1c-0.9,0-2,0.5-2.3,1.3c-0.2,0.5-0.3,1.6-0.1,2.2c0.4,1,2.1,0.5,2.8,0.3c0.3-0.1,0.6,0,0.8-0.2
	c0.5-0.3,0.2-0.9,0.7-1.6c0.3-0.4,1.1-0.4,1.7-0.6c0.3-0.1,0.8-0.5,1.2-0.7c0.8-0.3,1.4-0.5,1.3-1.3
	C195.3,129.8,195,129.5,194.4,129.6z M175.9,136.3L175.9,136.3c0.7,0.1,1.4-0.7,2.1-1.3c0.9-0.7,2-1.4,2.4-2.4
	c0.5-1.3,0.1-2.2-0.6-2.8c-0.6-0.5-1.6-1.4-2.4-1.3c-1,0.1-1,1.1-1.1,2.1c-0.1,0.9-0.5,2.6-0.8,3.3
	C175.3,134.7,174.7,136.2,175.9,136.3z M171.7,137.9L171.7,137.9c0.7-0.2,1.9-1.7,2.2-2.4c0.3-0.7,0.6-1.8,0.8-2.6
	c0.5-2.1,0.7-6-1.7-5.4c-1.3,0.3-1,2.2-1.2,3.6c-0.1,0.8-0.3,1.8-0.7,2.6c-0.3,0.7-1,1.3-1.3,1.9C169.2,137,170.1,138.4,171.7,137.9
	z M169.3,132.8L169.3,132.8c0.4-1.3,0.8-2.6,0.9-3.7c0.1-0.7,0.2-1.7,0-2.6c-0.2-0.7-0.8-0.8-1.6-1.1c-0.7-0.3-1.4-0.9-2.1-0.7
	c-0.8,0.3-0.3,2.2-0.4,3.2c-0.1,0.5-0.4,1.4-0.7,1.9c-0.3,0.5-1.5,1.2-1.7,2c-0.4,1.5,0.5,2.1,1.3,2.8c0.5,0.4,1.2,1.2,1.6,1.3
	C168.5,136.2,169,134,169.3,132.8z M134.6,138.7L134.6,138.7c0-0.7,0.3-0.9,0.6-1.3c0.2-0.3,0.3-0.6,0.5-0.7
	c0.2-0.2,0.6-0.2,0.8-0.4c0.2-0.2,0.4-0.6,0.7-0.9c0.2-0.3,0.6-0.6,0.7-0.9c0.4-0.9,0.1-2.2,0.1-3.5c0.5,0,0.9-0.3,1.4-0.1
	c0.4,1.2,0.4,2.8,0.4,4.2c0.6-0.1,1.2-0.1,1.5,0c1,0.4,0.2,2.8,0.9,3.3c0.7,0.5,1.6-0.2,2-0.5c0.3-0.2,0.7-0.3,0.9-0.5
	c0.7-0.5,0.9-1.7,1.5-2.5c0.4-0.5,0.8-0.8,1.2-1.2c0.1,0.1,0.4,0,0.6,0.1c2.7-1.1,2.1-6.7,0.1-8.2c-0.2,0.4-0.3,1.3-0.9,1.3
	c-0.5,0.1-0.8-0.5-0.8-0.6c-0.1-0.3,0-0.6-0.2-1c-0.7-1.5-3.3-1.7-3.9-0.5c-0.6,1.2,0.3,2.4,1.3,2.5c0.7,2,2.2,6.3-0.3,7.5
	c-0.6-1.6-0.4-3.6-1.2-5c-0.3-0.6-0.9-1.2-1.3-1.8c-0.4-0.5-0.9-1.5-1.8-1c-0.3,0.3,0,1.3-0.4,1.5c-1.2,0-1.6-1.3-2.6-1.6
	c-0.3-0.1-0.7,0-1.1-0.1c-0.4-0.1-0.9-0.3-1.3-0.2c-0.4,0.1-0.7,0.5-0.8,0.9c-0.2,1,0.5,1.1,0.8,1.6c0.6,0.9,0.2,3.4-0.1,4.2
	c-0.3,0.8-1,1.4-0.9,2.5c0,1.2,1,2.2,0.3,3.1c-1.8-0.4-3.1-1.8-2.9-4.2c0.1-1.2,0.7-1.9,0.9-2.8c0.2-1-0.2-3.7-0.9-3.6
	c-0.3,0-0.7,1-0.8,1.3c-0.2,0.6-0.4,1.3-0.4,1.8c0,0.7,0.2,1.5-0.3,1.8c-0.6-0.1-1.1-0.1-1.4-0.7c-0.3-0.5-0.2-1.3-0.3-1.9
	c-0.2-0.7-0.5-1.5-1.2-1.6c-1-0.1-1.6,1.2-0.9,2.1c-0.8,4.6,3.1,5.7,4.9,7.6c-1.6-0.3-2.6-0.6-3.8-1.2c-1.3-0.7-3.3-1.6-3.6-3.3
	c-0.2-1.2,0.2-2.3,0.3-3.2c0.1-0.6,0.1-1.4-0.1-1.8c-0.5-0.9-1.5,0-1.8,0.5c-0.5,0.8-0.5,1.9-0.6,3.1c-0.1,0.7-0.2,1.4-0.2,2
	c0,2.3,0.9,3.8,2.1,4.8c0.9,0.7,1.8,1.6,2.3,2.6c0.4,0.8,0.5,1.8,0.9,2.6c0.2,0.3,0.5,0.5,0.7,0.9c0.1,0.3,0,0.4,0.1,0.7
	c0.1,0.3,0.5,0.7,0.8,1c0.6,0.7,1.7,1.2,2.1,0.2c0.1-0.2,0-0.4,0.1-0.7c0-0.1,0.1-0.2,0.2-0.3c0-0.1,0-0.3,0.1-0.4
	C130,142.3,131.4,139.8,134.6,138.7z M190.9,128L190.9,128c1.7,0.1,2.3-0.7,3.4-1c-1-1.9-4-2.3-4.6-4.9c-1.6-0.2-2.1,0.7-2.7,1.6
	c-0.6,0.9-1.1,1.8-1,3.3c0.6,0.4,1.5,0.4,2.3,0.6C189.3,127.7,190.2,128,190.9,128z M184.5,127.8L184.5,127.8
	c-0.7-1.2-0.7-4.1-0.2-5.7c-3.1-0.6-5.3,0.8-5.9,3.3c0.5,0.2,0.9,0.8,1.4,1c0.3,0.1,0.7,0.1,0.9,0.2
	C181.9,126.9,183,127.9,184.5,127.8z M176.2,121.4L176.2,121.4c-0.6,0-1-0.3-1.7-0.2c-0.7,0.1-2.4,1.2-2.4,1.9c0,0.8,1,1,1.7,1.3
	c0.8,0.3,1.3,0.7,2.3,0.6C176,123.7,176,122.4,176.2,121.4z M108.3,123L108.3,123c-0.2-1.8-2.4-2.8-4.3-2.2
	c-1.7,0.5-3.4,1.8-5.1,2.9c-1.6,1-3.2,2.5-5,3c-1.8,0.6-4.8,0.5-5.5,2.2c-0.5,1.5,0.5,2.2,2.1,2.1c1.7-0.1,3.1-1,4.7-1.3
	c1.7-0.3,3.4-1.7,4.9-2.3c1.6-0.6,2.9-0.9,4.2-1.6c1.4-0.7,3.1-0.4,5-0.4c1,0,2,0.2,1.9-1C111.3,123.2,109.4,123.4,108.3,123z
	 M161.7,130.7L161.7,130.7c0.3-0.1,0.7-0.3,1-0.6c1.5-1.6,1.6-8,0.2-9.7c-0.2-0.2,0.2-0.2,0-0.5c-0.7-0.3-1.1-1.2-1.8-1.5
	c-0.7-0.3-1.5,0-2.5-0.1c-0.9,0.8-0.2,2.2-0.2,3.3c0,1.1-0.3,1.9-0.4,3c-0.1,0.9-0.2,1.9-0.4,2.5c-0.1,0.4-0.5,0.6-0.4,0.9
	C159.8,127.9,160.6,129.4,161.7,130.7z M199.8,120.3L199.8,120.3c-1-0.5-1.5-1.5-2.3-2.2c-0.6,0.1-1.4,0.2-2,0.5
	c-0.3,0.2-0.4,0.5-0.7,0.8c-0.3,0.2-0.6,0.3-0.8,0.5c-0.5,0.7-0.2,1.7,0,2.7c0.1,0.7,0.2,1.4,0.4,1.8c0.2,0.4,0.7,0.5,1,0.9
	c0.2,0.3,0.5,0.9,0.8,1c0.3,0.1,0.7,0,1,0c3.2,0.1,6.6-0.2,7.7-2.6c-1.3-1.1-2.9-2.4-4.5-3.2C200.5,120.5,200.1,120.5,199.8,120.3z
	 M170.6,117.3L170.6,117.3c-0.1-0.8-2.8-0.7-3.4-0.3c-0.5,0.3-1.7,1.9-1.6,2.6c0.1,0.6,1.3,1.1,1.9,1.4c0.7,0.4,1.3,0.9,2.2,1.1
	c-0.1-1.3-0.2-2.9,0.2-3.9C170.2,117.9,170.7,117.7,170.6,117.3z M204.6,114.4L204.6,114.4c-1.9,0.3-3.2,2-2.8,4.7
	c0.7,0.6,1.6,1.2,2.5,1.8c1.3,0.8,2,1.9,4,1.9c1.3,0,2.4-0.4,3.7-1c1.6-0.8,2.9-1.5,3.1-3.3c-1.7-0.5-3.4-1.5-5.2-2.1
	C208,115.8,206.2,115.3,204.6,114.4z M177.5,119L177.5,119c1.1-0.7,3-0.3,4.5-0.2c-1-1.3-1.9-3.9-1.3-6.3c-1.4-0.4-2.8-0.5-3.7,0.2
	c-0.5,0.4-0.8,1.1-1.1,1.8c-0.3,0.9-0.8,2.2-0.4,3.1C176.3,117.9,176.7,118.6,177.5,119z M164.6,112.5L164.6,112.5
	c-0.6-0.5-2.1-0.6-2.6-0.2c-0.3,0.3-0.4,1.1-0.3,1.7c0,0.6,0.3,2.1,0.4,2.6c0.3,0.7,1.2,1.1,1.7,1.5c0-2,0.6-3.4,1.4-4.7
	C164.9,113.2,164.9,112.8,164.6,112.5z M185.5,119.4L185.5,119.4c0.9-0.4,2.2-0.9,3.6-0.6c0.3,0.1,0.5,0.4,0.8,0.2
	c-0.5-0.8-1.5-1.3-1.9-2.3c-0.5-1.4,0.2-3.2,0.1-4.6c0,0,0-0.1-0.1-0.1c-2.1,0.5-3.1,1.6-3.8,3.1c-0.4,0.7-0.5,1.7-1.1,2.2
	c0.3,0.2,0.5,0.5,0.6,0.9c0.4,0.2,0.9,0.3,1.2,0.5C185.2,118.8,185.2,119.1,185.5,119.4z M197.3,115.7L197.3,115.7
	c-0.1-0.4-0.5-0.4-0.8-0.6c-1.3-1.1-2.2-2.8-3.1-4.4c0,0,0-0.1-0.1-0.1c-2.1,0.9-2.9,3-3.4,5.5c0.3,0.5,0.8,0.8,1,1.4
	c0.5-0.3,1.2-0.5,1.8-0.6c0.7-0.1,1.2-0.4,1.8-0.6C195.4,116,196.4,116.1,197.3,115.7z M174.1,109.4L174.1,109.4
	c-0.4-0.2-1.1-0.3-1.8-0.2c-1.6,0.9-3.3,1.9-3.9,3.9c2.1,0.5,3.6,1.6,4,3.9c0.2,0,0.3,0.1,0.6,0.1c-0.5-1.2-0.2-3.1,0.1-4.7
	C173.3,111.2,173.7,110.2,174.1,109.4z M212.1,108L212.1,108c-1.3,0.4-2.9,0.7-3.6,1.9c-0.6,1-1,3.4,0.1,4.1
	c0.3,0.2,0.9,0.2,1.3,0.3c1.8,0.5,3.6,2,5.5,2.2c1.8,0.2,2.6-0.6,3.7-1.3c1.9-1.2,4.4-2.4,4.7-4.9c-3.4-0.1-6-1-8.7-1.7
	C214.2,108.4,212.7,107.8,212.1,108z M198.1,113.9L198.1,113.9c1.3-1.2,3.4-1.5,5.2-2.1c-0.9-0.8-2-1.4-3-2.1
	c-1.1-0.7-2.1-1.6-3-2.4c-0.4,1.3-1.9,2.9-1.2,4.6C196.5,112.9,197.5,113.1,198.1,113.9z M91.9,121.9L91.9,121.9
	c0.7-0.8,1.3-1.7,2.1-2.4c1.5-1.3,3.8-1.7,5.7-2.6c1.8-0.9,3.2-2.2,4.5-3.6c0.5-0.5,1-1.1,1.4-1.7c0.5-0.7,2-4,0.3-4.5
	c-0.4-0.1-0.7,0.1-1.2,0.2c-1.2,0.1-3.4-0.4-4.1-0.3c-1.5,0.2-1.9,1.8-3.2,2.6c-0.4,0.3-1.2,0.9-1.9,0.9c-0.5,0-1-0.4-1.5-0.4
	c-1.1-0.1-1.7,0.2-2.4,0.6c-0.4,0.2-1,0.4-1.2,0.6c-0.5,0.5-0.7,1.4-0.9,2.5c-0.5,3-1.2,5.5-2.5,7.6c-1,1.6-2.8,3.1-4.3,4
	c-0.8,0.5-2.4,1.1-2.2,2.2c0.1,0.9,1.4,1,2.4,0.6c1-0.4,1.7-0.7,2.4-1.1c1.7-0.8,3.3-1.5,4.5-2.6C90.6,123.7,91.2,122.7,91.9,121.9z
	 M209.1,106.2L209.1,106.2c0.1,0,0.2-0.4,0-0.4C209.2,106,208.9,106.2,209.1,106.2z M208.3,106.5L208.3,106.5
	c-3-0.3-4.4-2.4-5.6-4.5c-2.2,0.3-3,2.7-2.7,5.2c1.1,1.1,2.6,1.8,3.8,2.8C205.1,108.5,206.6,107.4,208.3,106.5z M166.6,112.2
	L166.6,112.2c-0.1-3.5,1.5-5.4,3.7-6.6c-0.3-1.5-2-2-2.8-3c-0.3-0.4-0.3-0.9-0.7-1c-0.3-0.2-1.1-0.1-1.6-0.2c-0.7,0-1.2-0.1-1.7-0.1
	c-0.9,0.1-2.9,0.4-3.2,0.9c-0.4,0.7-0.1,2.6,0.1,3.1c0.3,0.7,1.3,1,1.2,2c-0.1,0.7-1.2,1.2-1.7,1.8c-0.2,0.2-0.2,0.5-0.4,0.8
	c-0.2,0.3-0.4,0.5-0.5,0.8c-0.2,0.7,0.1,1.6,0,2.3c-0.1,0.3-0.5,0.6-0.6,1c-0.1,0.2,0,0.5,0,0.8c-0.1,0.5-0.4,0.8-0.4,1.2
	c0,0.5,0.4,1,0.6,1.5c0.7,0,1.2,0.1,1.9,0.1c-0.6-2.2-1.2-5.1,0.4-6.5C162.6,109.4,166,110.5,166.6,112.2z M83.1,122.5L83.1,122.5
	c1.3-1.8,2.9-4.3,3.3-6.7c0.2-1,0-2.1,0.2-3c0-0.3,0.2-0.5,0.3-0.9c0.1-0.4,0-0.8,0.1-1.1c0.1-0.5,0.4-1.1,0.5-1.6
	c0.3-2.3-1-2.4-2.8-3c-1.1-0.4-2.1-0.7-3.1-1.1c-0.3-0.1-0.7-0.5-1-0.6c-0.5-0.2-1.3-0.4-1.8-0.5c-2.4-0.3-3.3,0.7-4.7,1.2
	c0-1.8-1-2.9-2.3-3.3c-0.5-0.1-1,0.1-1.5-0.1c-0.4-0.1-0.6-0.6-1.1-0.6c-0.6,0-1.2,0.9-1.5,1.4c-1.8,2.5-2.9,6.2-4.1,9.2
	c-0.6,1.6-1.3,4.1-1,6.4c0.3,2.3,2.7,3.8,5.2,3.4c1.8-0.3,2.9-2.7,4.1-3.7c0.7-0.6,2.2-1.5,3.4-1.1c1.1,0.4,1.1,2.9,0.5,3.9
	c-0.9,1.4-3.1,1.7-5.6,2.2c-0.3,0.6,0.4,1.4,0.8,1.9c0.8,1,4.7,1.8,6.4,1.4c0.7-0.2,1.6-0.6,2.3-0.9c0.8-0.3,1.6-0.7,2.1-1.1
	C82.3,123.9,82.7,123.1,83.1,122.5z M183.5,108.8L183.5,108.8c1.2-0.1,2.6-0.6,3.8-0.3c0.6,0.2,1.1,0.7,1.7,0.7
	c0.3-0.1,0.9-0.5,1.3-0.8c-0.2-0.6-0.8-0.8-1.3-1.3c-0.5-0.5-0.7-1.2-1.2-1.7c-0.4-0.4-1-0.7-1.5-1.1c-1-0.9-1.6-2.1-2.3-3.3
	c-1.3-0.5-2-1.5-3.2-2c0,0.1,0,0.2,0.1,0.2c0.4,1.3,1.6,1.8,1.7,3.3c0.1,0.9,0,2.1-0.4,2.8c-0.2,0.3-0.8,0.5-0.8,0.9
	c-0.1,0.5,0.4,1.1,0.7,1.4C182.5,108,183.1,108.4,183.5,108.8z M230.8,98.7L230.8,98.7c-1.7,0.7-3.7,1.3-5.8,1.7
	c-0.7,0.1-1.3,0.3-2,0.5c-2.3,0.4-4.6-0.3-6.7-0.6c-0.9,1.2-1.7,3-1.1,4.8c0.3,0.8,1.1,2,1.8,2.3c0.6,0.3,1.4,0.3,2,0.5
	c1.8,0.4,4.5,1.1,6.4,0.4c2.5-0.9,4.6-3.3,5.2-6.2c0.2-1,0.6-2.1,0.3-3.2C230.8,98.8,230.8,98.7,230.8,98.7z M213.5,99.1L213.5,99.1
	c-2.9,0-5-0.8-6.8-2c-0.7,1.3-1.5,3.6-0.7,5.3c0.1,0.3,0.4,0.5,0.6,0.8c0.3,0.5,0.4,1,0.8,1.2c0.3,0.2,0.9,0.2,1.3,0.4
	c0.2,0.1,0.3,0.5,0.6,0.5C209.9,102.3,211.9,100.9,213.5,99.1z M185.8,101.2L185.8,101.2c0.4,0.5,1.1,0.8,1.7,1.3
	c0.6,0.6,0.8,1.4,1.4,1.5c0.6-1.4-0.4-2.2-0.9-3.2c-0.8-1.5-0.7-2.8-0.2-4.6c0,0,0-0.1-0.1-0.1c-1,0.6-3.2,1.8-2.9,3.3
	c0.1,0.3,0.5,0.6,0.7,1C185.6,100.7,185.7,101,185.8,101.2z M122.1,124.4L122.1,124.4c2.8-0.7,5.7,0,8.6-0.1c1.3-0.1,2.7-0.3,4-0.5
	c1.3-0.2,2.7-0.3,4-0.6c2.6-0.5,5-1.1,7.3-1.7c2.3-0.6,4.5-1.5,6.2-2.9c0.7-0.5,1.2-1.3,1.8-2c0.6-0.7,1.5-1.4,1.9-2
	c0.3-0.5,0.9-1.6,0.7-2.4c-0.1-0.6-1.3-0.7-1.4-1.4c-0.2-0.6,0-1.6-0.1-2.4c-0.1-0.7-0.3-1.5-0.4-2.2c-0.3-3.5,0.2-7.4,0.2-10.7
	c-0.8,1.2-1.3,3.4-1.4,5.6c-0.1,1.9-0.4,3.9-0.3,5.6c0.1,1.1,0.5,2.1,0.4,3.2c0,0.2-0.2,0.6-0.2,0.9c0,0.4,0,0.7-0.1,1
	c-0.2,0.7-0.9,1.5-1.4,2.1c-1.7,2-4.2,3.5-6.8,4.4c-0.7,0.2-1.2,0.6-1.8,0.7c-1.7,0.5-3.3,0.8-5,1.3c-0.5,0.1-1.1,0.4-1.6,0.5
	c-0.8,0.2-1.7,0.2-2.6,0.3c-2.6,0.4-5.6,0.3-8.3,0.6c-1.7,0.2-3.4,0.7-5,1c-0.4,0.1-0.9,0-1.3,0.1c-0.3,0.1-0.7,0.3-1.1,0.5
	c-0.4,0.1-0.9,0.2-1.3,0.3c-1.1,0.4-2.5,1.1-2.9,1.8c-0.1,0.2-0.1,0.5-0.2,1c-0.1,0.3-0.3,0.6-0.3,0.9c-0.2,1.4,0.1,2.9,0.6,3.8
	c0.2,0.5,0.7,0.9,0.9,1.4c0.4,1,0.6,2.3,1.2,3c0.2,0.2,0.5,0.4,0.7,0.6c0.3,0.2,0.4,0.5,0.6,0.5c0.1-0.8-0.3-1.4-0.4-2.2
	c-0.1-0.5-0.1-1.1-0.2-1.6c-0.2-0.8-0.6-1.4-0.6-2.1c-0.1-0.8,0.2-1.7,0.5-2.5C117.7,126.3,120.2,124.8,122.1,124.4z M202.1,99.4
	L202.1,99.4c0.1-1.4,0.2-2.5,0.8-3.3c0.3-0.4,0.9-0.5,1-1c-1.5-0.2-2.8,0.5-4.2,0.5c-0.3,0-0.7-0.2-1.1-0.1c-1,0.2-1.2,1.7-2.3,1.9
	c-1.6,0.3-1.8-1.6-2.3-3c-0.2,0.3-0.8-0.2-1,0.1c-0.3,2.4-0.5,5,1.4,5.7c0.3,0.1,0.6,0,0.8,0.1c1,0.3,1.6,1.2,2.5,1.6
	C198.8,100.6,200,99.5,202.1,99.4z M158.4,94.2L158.4,94.2c-0.4,0.1-1.1,0.7-1.2,1.1c0,0.3,0.2,0.6,0.4,1c0.1,0.3,0.1,0.7,0.2,0.9
	c0.3,0.7,0.8,1.3,0.9,2.3c0.1,1.1,0.2,1.9,0.8,2.1c0.8,0.2,1.2-0.5,1.8-0.6c1.2-0.2,3.2,0.5,3.4-0.7c0.1-0.7-0.4-0.8-0.7-1.3
	c-0.3-0.5-0.7-1.1-0.9-1.4c-0.3-0.6-0.5-1.3-1-1.6c-0.8-0.4-2.2,0.2-2.6-0.6C159.4,94.6,159.1,94.1,158.4,94.2z M135.5,94L135.5,94
	c-0.4,0.4-0.4,0.8-0.7,1.1c-0.2,0.2-0.5,0.2-0.7,0.3c-0.4,0.3-0.5,0.8-0.9,1.1c-0.7,0.7-1.8,1.1-2.6,1.6c-3.6,1.8-8.3,3-13,2.1
	c-0.9-0.2-1.8-0.5-2.7-0.6c-0.4,0-1,0-1.4,0.1c-0.7,0.3-1.2,1.7-1.7,2.4c-0.8,1.1-2,2.4-3.1,3.2c-0.4,0.3-1,0.4-1,1
	c1.4-0.4,2.5-0.8,3.6-1.6c1.5-1,2.5-3,4.7-3.2c0.7-0.1,1.6,0.2,2.4,0.3c0.9,0.1,1.6,0.3,2.3,0.4c5.8,0.7,10.7-1,13.2-3.9
	c0.3-0.3,0.4-0.7,0.8-1.2c0.2-0.3,0.8-0.8,0.8-1.2c0-0.3-0.2-0.5-0.2-0.8C135.2,94.7,135.7,94.4,135.5,94z M219,93.1L219,93.1
	c-0.1,0.2-0.5,0.3-0.3,0.5C218.8,93.4,219.2,93.3,219,93.1z M192.4,107.9L192.4,107.9c0.4-0.1,0.9-0.1,1.3-0.2
	c0.3-1,0.8-1.9,1.5-2.6c0.3-0.3,0.9-0.6,1-0.9c0.1-0.3,0.1-0.9,0.1-1.2c-0.1-2.3-3.1-1.5-4.4-2.7c-1.7-1.6-1-4.2-0.9-7.2h-0.1
	c-0.2,0.1-0.2,0.3-0.4,0.3c0.2,1.4-1.3,1.9-1.3,3c0,0.3,0.2,0.6,0.3,1c0.1,0.4,0.1,0.8,0,1.2c-0.1,0.4-0.3,0.7-0.3,1.1
	c0.1,0.5,0.8,1,1,1.6c0.1,0.2,0.1,0.5,0.2,0.8c0.1,0.3,0.4,0.5,0.4,0.8c0.2,0.9-0.1,1.7-0.6,2.6c0.3,0.4,0.8,0.7,0.9,1.3
	C191.7,107,192.1,107.4,192.4,107.9z M178.2,108.1L178.2,108.1c0.4,0.2,0.6,0.8,1.1,1.1c0.3,0.2,0.7,0.3,0.9,0.5
	c0.3,0.3,0.5,0.8,0.9,0.9c0.2-0.1,0.3-0.4,0.5-0.6c-0.4-0.4-0.4-0.8-0.9-1.3c-0.9-0.8-2.5-0.8-2.3-2.5c0.4-0.9,1.8-1.5,2-2.9
	c0.1-1.3-0.3-2.6-1.3-2.8c-0.3,2.2-3,1.9-4,0.6c-0.4-0.5-0.5-1.2-0.8-1.8c-0.3-0.7-0.5-1.4-0.6-2.1c-0.6-0.3-1.2-0.3-1.5-0.9
	c-0.1-0.3-0.1-0.8-0.2-1.3c-0.1-0.4-0.3-0.7-0.3-1c0-0.3,0.1-0.6,0-0.9c-0.1-0.3-0.3-0.5-0.4-0.9c-0.1-0.4,0-0.7-0.1-1.1h-0.1
	c0,0,0,0,0,0c-0.6,0.7-1.3,1-1.7,2c-0.3,0.9,0.1,1.9,0.1,3.1c0.1,0.9-0.1,1.8-0.1,2.5c0,0.2,0.1,0.5,0.1,0.7
	c-0.1,0.5-1.1,0.8-1.1,1.5c0,0.6,1.1,1.1,1.4,1.6c0.3,0.4,0.5,0.9,0.8,1.3c0.7,0.8,1.7,1.2,2.2,2.2c1.2,0.4,2,1.2,2.8,1.9
	C176.7,107.7,177.6,107.8,178.2,108.1z M118.5,118.1L118.5,118.1c2.6,0.2,5.3,0.5,8,0.8c3,0.4,5.5,0.1,8-0.5
	c3.6-0.7,6.7-2.2,9.7-3.6c1-0.5,2.1-0.9,3-1.5c1.1-0.7,1.8-1.6,2.4-2.6c0.9-1.3,1.6-2.4,1.8-4.4c0.1-1.8,0.3-3.6,0.6-5.1
	c0.2-0.8,0.2-1.5,0.4-2.2c0.2-0.9,1.1-1.9,0.7-3.2c-0.1-0.4-0.6-0.8-1.1-1.2c-0.9-0.9-1.7-1.2-2.8-1.8c-0.6-0.3-1-0.7-1.5-0.9
	c-0.5-0.2-1.5-0.1-2.2-0.3c-0.5-0.2-0.6-0.4-1.1-0.3c-1.5,0.2-3.3,2.1-4,3c-1.1,1.5-1.6,3.4-2.9,4.7c-0.9,0.9-2.4,1.7-3.5,2.4
	c-1.1,0.7-2.5,1.6-3.8,2.1c-1.1,0.4-2.5,0.7-3.6,0.9c-2.3,0.2-4.7-0.6-6.4,0.5c-0.5,0.3-1,0.9-1.3,1.4c-1.1,1.8-0.7,4.7-1.8,6.3
	c-0.2,0.3-0.6,0.4-1,0.7c-0.4,0.3-0.7,0.6-1,0.8c-0.4,0.2-0.9,0.3-1.4,0.5c-0.4,0.2-0.9,0.5-1.3,0.6c-0.9,0.3-2.1,0.9-1.9,2
	c0.1,1.3,2.4,1.1,3.6,1C115.5,118,117.3,118,118.5,118.1z M216.7,93L216.7,93c-3.3-0.1-5.5-1.3-8.3-2v0.2c0,0.4,0,0.9,0,1.3
	c0.1,2,1.3,3.9,2.7,4.4c1,0.4,2.4,0.1,3.6,0.5C215,95.5,215.9,94.3,216.7,93z M182.6,98.4L182.6,98.4c0.2-1.5,0.8-2.8,1.9-3.3
	c0.7-0.3,1.6-0.2,2.1-0.9c0.2-1.3,0.2-3-0.5-3.7c-0.4,0-0.6-0.2-1.1-0.1c-0.8,0.8-1.7,1.4-2.8,1.9c-0.7,1.3-1.7,2.4-2.1,4.1
	c0.4,0.2,0.8,0.4,1.2,0.7C181.4,97.8,181.9,98.2,182.6,98.4z M120.1,96c2.4,1.4,7.2,1,9.1,0c0.4-0.2,0.8-0.6,1.2-0.9
	c0.4-0.3,0.9-0.5,1.2-0.8c0.3-0.3,0.7-1,1-1.4c0.3-0.5,0.7-1,0.9-1.5c0.3-0.8,0.2-1.9-0.8-1.7c-0.6,0.1-0.9,0.9-1.3,1.4
	c-0.4,0.5-1.1,0.9-1.7,1.4C125.3,95.7,125.7,95.3,120.1,96z M177.3,93.4L177.3,93.4c-1.2,0.2-1.5-0.9-2.3-1.3
	c-0.5-0.8-0.7-2-1.2-2.8c-0.1,0-0.1,0-0.1-0.1c-0.1,0.1-0.3,0.1-0.4,0.2c0,1.2-0.1,2.5,0.1,3.6c0.1,0.2,0.4,0.1,0.4,0.2
	c0.1,0.8,0.2,1.8,0.3,2.7c0.4-0.2,1.1-0.2,1.4,0c0.3,1.9,0.8,3.7,1.9,4.7c0.4-0.3,0.7-0.9,1-1.3c0.3-0.4,0.7-0.5,0.5-1.4
	c-0.9-0.6-1.1-2.4-0.7-3.7C177.9,94,177.6,93.7,177.3,93.4z M159.5,93.7L159.5,93.7c0.4,0.4,1,0.2,1.4,0.2c1.7,0,3.2,0,4.1,0.7
	c1.1,0.8,0.4,2.2,0.6,3.7c0.1,1.1,0.7,1.6,1.4,2.1c0.1-0.7,0.9-1.2,1-2c0.1-0.7-0.2-1.3-0.3-2c-0.1-1.3,0-3,0.5-3.9
	c0.2-0.3,0.5-0.6,0.8-1c0.6-0.8,1.1-1.6,2.2-1.8c-0.1-0.6,0.2-1.1,0.1-1.6c-0.7,0.7-1.7,1.3-2.6,1.9c-0.9,0.6-1.9,1-2.9,1.4
	c-1.1,0.4-2.2,0.6-3.3,0.9c-0.5,0.2-1.1,0.3-1.7,0.5C160.4,93,159.7,93,159.5,93.7z M235.8,86.7L235.8,86.7
	c-1.9,1.5-4.3,2.7-6.8,3.8c-2.2,0.9-4,2.1-6.5,2.5c-0.4,0.1-0.8-0.1-1.2,0.1c-0.5,0.1-0.9,0.8-1.3,1.2c-0.5,0.5-1.1,0.8-1.3,1.3
	c-0.4,0.9-0.3,2.6,0.2,3.1c0.7,0.5,2.7,0.5,4.1,0.3c1.4-0.1,2.8-0.6,3.7-0.9c2.3-0.6,5-1.3,6.6-2.5c0.8-0.6,2.4-2.7,2.8-3.7
	c0.6-1.5,0.2-3.6-0.1-5.2H235.8z M118.2,87.4c-3.4,2.1-7,4.1-7.3,7.9c0.2,0.3,0.2,0.7,0.6,0.8c1.6-5.9,12.4-11.3,19.3-7
	c0.7-0.2,1,0.4,1.4,0.4c0-0.4,0-0.8-0.1-1.1c-0.2-0.5-1.5-1.5-2.1-1.7c-0.2-0.1-0.6,0-0.8-0.1c-0.5-0.1-0.8-0.5-1.3-0.5
	C124.6,85.8,121.9,85.3,118.2,87.4z M218.9,84.7L218.9,84.7c-2.7,0.9-5.7-0.1-8.5-0.3c-0.7,1.1-1.1,2.9-0.8,4.7
	c0.7,0.7,1.8,0.8,2.8,1.2c1.4,0.4,2.9,1.1,4.6,0.7C217,88.2,218,86.5,218.9,84.7z M204.5,85.3L204.5,85.3c-0.4-0.4-0.8-1-1.3-1.1
	c-0.8-0.1-0.9,0.7-1.3,1.3c-0.4,0.5-0.8,0.7-1,1c-0.1,0.3-0.1,0.6-0.2,0.9c-0.4,1.2-1.2,2.8-2.7,2.9c-0.7,0.1-1.2-0.1-1.9,0
	c-1.1,0.1-1.7,0.8-2.7,1.4c0.1,0.2,0.1,0.4,0.2,0.6c1.7-0.1,2.7,0.6,3.2,1.8c1.5-0.7,3.8-0.4,5.8-0.5c0.8-0.5,1.2-1.5,2.6-1.5
	c0.1-0.7,0.2-1.6,0.6-2.1c0.3-0.4,0.8-0.6,1.1-0.9c-0.1-1,0-1.8,0-2.8C205.8,86.1,205.1,85.9,204.5,85.3z M218.5,76.4L218.5,76.4
	c-2.5,1-6,0.3-9,0.2c-0.8,2,0.1,4.3,1.3,5.3c0.9,0.9,3,1.1,4.8,1.1c0.9,0,1.8,0.1,2.5-0.2c-0.2-2.1,0.2-4.3,0.4-6
	C218.6,76.8,218.8,76.5,218.5,76.4z M180.2,83.7L180.2,83.7c0.1,2-0.1,4.1,0.3,6.2c0.6-0.9,1.1-2.3,2.9-1.8c1.6-0.9,2.5-2.4,3.3-4.1
	c-0.3-0.1-0.7-0.3-0.9-0.5c-0.7-0.7-1.8-2.6-1.9-4c-0.1-0.9,0.4-1.3,0.3-2.1c-0.1-0.6-0.6-1.1-0.8-1.6c0,0,0-0.1-0.1-0.1
	c-0.6,0.6-1.4,1-1.9,1.7c0.5,1.8-1.3,2.5-1.5,4.1C179.9,82.4,180.1,83,180.2,83.7z M236,74.4L236,74.4c-0.2,0-0.1,0.1-0.2,0.2
	c-0.5,0.5-0.8,1.1-1.2,1.6c-1.3,1.6-2.9,2.6-4.7,3.7c-2.3,1.4-4.3,3.2-7,4.3c-0.4,0.9-1,1.3-1.4,2.1c-0.4,0.6-0.6,1.1-0.9,1.8
	c0.2,0.4,0,0.9,0.1,1.4c1.5,0.3,1.6,1.5,3.1,1.4c1.1-0.1,2.2-1,3.3-1.4c2.3-1,4.5-1.9,6.4-3.1c2.5-1.7,4-3.2,4.1-7.4
	C237.4,77.5,237.3,74.6,236,74.4z M208,83.3L208,83.3c-2.3-1.1-1.7-5.3-0.7-7.4c-1.6-0.1-2.5-1-3.1-2.2c-0.5,1.1-1.2,1.8-2.1,2.4
	c-0.2,0.1-0.6,0.2-0.8,0.4c-0.4,0.3-0.6,0.8-1,1.2c-0.5,0.6-1,1.1-0.8,2.1c0.2,1.4,1.3,2.6,1.8,3.7c0.8-0.4,2.1-0.5,2.8-0.2
	c1,0.5,1.4,2.4,2.8,1.8C207.4,84.6,207.6,83.9,208,83.3z M215.9,66.8L215.9,66.8c-2,1.7-5,2.5-8.3,2.9c-0.9,0.3-0.8,2.1-0.4,3
	c0.3,0.8,1.3,1.7,2,2c0.7,0.3,1.7,0.2,2.6,0.2c2.5,0.1,6.1,0.6,7.1-1.2C217.2,72.2,217.1,68.9,215.9,66.8z M160.4,85.4L160.4,85.4
	c0.8-1,1.8-2,3-2.8c1.6-1.1,3.4-2.3,5.2-3.3c0.5-0.3,2.3-1.1,1.2-1.9c1.2-0.7,2.5-1.4,3.7-2.1c0.4-0.2,1-0.4,0.9-1.1
	c-2.3-1.1-5.1,0.3-7.5,0.5c2.6-2.5,5.9-4.5,9.1-6.3c1.1-0.6,2.3-1.1,3.2-2c-0.3-0.2-0.6-0.3-1-0.2c-1.3,0.1-2.6,1.2-3.6,1.8
	c-1.2,0.7-2.4,1.3-3.6,1.9c-1.7,0.9-3.3,2.2-4.8,3.4c-0.5,0.3-1.4,0.9-1.4,1.4c0,0.5,0.4,0.8,0.6,1.2c1.4,0.6,3.3,0,4.6-0.3
	c-0.9,0.8-2.1,1.2-3,2c0,0.3,0.3,0.4,0.3,0.7c-2.4,1.3-4.7,2.6-6.6,4.4c-1.5,1.3-2.5,3.1-3.8,4.5c-0.4,0.5-1,0.9-1.1,1.6
	c0.5,0,1.8,0,2.2-0.2C158.8,88,159.6,86.6,160.4,85.4z M124.9,65.6L124.9,65.6c0.9,0.6,1.3,1.3,1.8,2.3c0.4,0.7,1,1.8,0.6,2.9
	c-0.3,0.9-1.5,1-1.3,2.2c0.2,1.4,2.3,0.5,3.6,0.6c0.8,0.3,0.7,1.8,1.9,1.6c1.2-0.2,0.3-3.1,0.6-4.3c0.7-2.3,5.1-0.2,6.8-0.8
	c0.5-0.2,1.1-0.8,0.9-1.5c-0.2-1-1.7-0.5-2.8-0.6c-3.4-0.5-6.2-4.6-10.4-3.6C125.9,63.8,124.7,64.3,124.9,65.6z M159.5,80L159.5,80
	c0-0.4-0.2-0.5-0.2-0.8c-1.1-0.5-2.3-0.8-3.6-1.1c0.2-0.8,1-1.2,1.4-1.8c0.1-0.2,0.2-0.5,0.3-0.8c0.6-1,1.8-1.9,2.7-2.6
	c1-0.9,1.8-1.7,2.8-2.5c1.6-1.2,3-2.4,5-3c0.7-0.2,1.4-0.3,2.1-0.6c0.3-0.1,0.6-0.4,1-0.6c0.9-0.4,2.3-0.3,3.5-0.4
	c2.5-0.2,4.9-0.2,7.2-0.6c0.9-0.2,2.4-0.2,2.6-1.4h-0.1c-1.1,0.6-3.4,0.5-4.9,0.5c-3.4-0.1-7-0.3-9.7,0.3c-1.4,0.3-2.4,0.9-3.6,1.5
	c-1.1,0.6-2.3,1.1-3.3,1.8c-0.5,0.3-1,0.7-1.5,1c-0.6,0.3-1.2,0.5-1.7,0.9c-0.3,0.3-0.6,0.6-0.9,0.9c-0.3,0.3-0.7,0.5-1.1,0.7
	c-2.1,1.4-4.6,3-7.6,3.4c-1,0.1-2.1,0.3-3.2,0.4c-2.4,0.2-4.6,0.2-6.3,0.9c-0.8,0.4-1.8,0.6-2.1,1.7c2.4-0.6,4.7-0.8,6.6,0.3
	c0.4,0.2,0.7,0.6,1.1,0.8c1.6,0.7,3.7,0.2,5.6,0.7c-0.7,0.5-1.5,1-2.2,1.6c-0.7,0.5-1.3,1.2-2,1.8c-0.8,0.6-1.8,1-2.8,1.5
	c-0.3-0.5-1-0.8-1.8-0.6c-0.3-0.3-0.8-0.4-1.3-0.6c0.4-1.1,1.2-1.8,1.4-3.1c-1.4,0-2,1.6-3.4,1.8c-0.4,0.1-0.8-0.1-1.2,0
	c-0.5,0.1-0.8,0.7-1.3,0.7c-0.5,0-0.9-0.4-1.4-0.4c-0.4,0-0.5,0.3-0.9,0.5c-0.4-0.5-1-0.8-1.3-1.4c0.8-1.1,2.1-2.3,1.6-4.4
	c-0.7,0.7-1.2,2.2-2.3,2.7c-1.1-0.2-1.6,0.7-3,0.5c-0.6-0.4-1.5-1.1-1.2-2.4c0.1-0.6,0.8-0.7,0.8-1.4c0-0.4-0.3-0.9-0.7-1
	c-0.4-0.1-0.7,0.2-1.1,0.2c-1.2,0.2-2.3,0.3-3.3,0.6c-1,0.3-1.9,0.8-2.5,1.5c-0.4,0.4-0.4,0.9-0.7,1.4c-1.5,2.8-5.4,3.9-7.8,5.8
	c-3.4,2.6-5.5,6.7-8,10.3c-0.7,0.9-1.5,1.6-2.1,2.5c-0.2,0.3-0.2,0.6-0.4,0.9c-0.6,0.9-1.8,1.7-2.6,2.7c-0.9,1-1.7,2-2.6,2.8
	c-1.4,1.3-2.7,2.7-4.3,3.6c-0.6,0.3-1.2,0.5-1.6,1.1c1.3,0,2.4-0.9,3.4-1.6c3-2.1,5.6-4.8,8.2-7.2c0.9-0.8,1.6-1.8,2.5-2.6
	c1.8-1.7,3.1-3.8,4.6-5.7c0.8-0.9,1.7-1.7,2.6-2.6c0.9-0.9,1.8-1.5,3.1-2.1c1.2-0.5,2.3-1.1,3.6-1.6c2.6-1,5.4-1.5,8.6-0.7
	c1.4,0.3,2.9,0.5,4,1.2c1,0.6,1.9,1.4,3.1,2.1c1.9,1,4.2,0.8,6.5,0.5c0.6-0.1,1.4-0.5,2.1-0.1c-1.3,0.1-2.1,0.7-2.8,1.5
	c-0.5,0.5-1.1,1.2-0.9,1.8c1.1-0.7,1.9-1.5,3.2-2c1.3-0.5,2.9-0.5,4.2-1c0.4-0.2,0.9-0.5,1.4-0.8c0.5-0.3,1.1-0.5,1.5-0.7
	c0.5-0.3,0.8-0.9,1.3-1.2c0.5-0.4,1-0.6,1.4-1.1c0-0.3-0.2-0.4-0.1-0.7c1.6-1.3,3.2-2.9,5.5-3.4C158.5,80.4,159.1,80.4,159.5,80z
	 M221.8,74.7L221.8,74.7c0.1,1.4-0.9,2.3-0.5,3.6c0.2,0.6,1,1.2,0.7,2.2c0.2,0.2,0.5,0.3,0.7,0.5c2.1,0.3,3-0.8,4.2-1.6
	c1.8-1.2,3.9-2.1,5.4-3.6c2.2-2,3.6-5.4,3.3-8.8c-0.2-1.9-1-3.5-2.8-3.8c-2.9,2.7-4.9,6.4-7.7,9.1C224,73.4,222.9,73.8,221.8,74.7z
	 M212.9,63.7L212.9,63.7c-0.2-0.3-0.6-0.4-0.8-0.7c-1.2-1.3-2.2-3.4-2-5.9c0,0,0-0.1-0.1-0.1c-2,2.4-4.2,4.6-7.5,5.7
	c0.5,0.8,0.8,1.9,1.6,2.6c0.4,0.4,1,0.5,1.6,0.9c0.6,0.4,1.1,1,1.7,1c2.6,0.3,5.2-0.7,7-1.6C213.5,65.3,213.4,64.3,212.9,63.7z
	 M175.1,58.6L175.1,58.6c-2.9-0.4-6.4-0.7-9.6-0.5c-2.1,0.2-4.6,0.7-6.5,1.3c-0.7,0.2-1.6,0.3-1.9,0.6c-0.2,0.1-0.3,0.5-0.6,0.6
	c-0.4,0.3-1,0.3-1.3,0.7c1.6,0.1,2.9-0.2,4.2-0.3c1.7-0.2,3.3-0.3,4.7-0.6c0.8-0.1,1.6-0.2,2.4-0.3c0.7-0.1,1.3-0.4,2-0.5
	C170.8,59.3,172.9,59,175.1,58.6z M171.3,81.9L171.3,81.9c0.3-0.4,0.7-0.9,0.7-1.4c0-0.5-0.3-0.6-0.3-0.9c1.6-3.1,4.4-4.9,6.9-7
	c-0.4,0-1.2,0.1-1.6-0.2c-1-0.7,0.1-2.9,0.7-3.5c0.2-0.3,0.7-0.5,1-0.8c0.8-0.7,2.7-2.8,3.9-2.5c0.6,0.2,0.7,1.2,1.3,1.4
	c0.7,0.3,1.8,0,2.2-0.2c1.6-0.8,3.2-2.6,4.3-3.7c-1.4-0.1-2.2-0.7-3.6-0.9c-0.6-0.1-1.1-0.1-1.8-0.2c-0.6-0.1-1.2-0.2-1.7-0.3
	c-3-0.3-7.2-1.1-10.6-0.4c-1.6,0.3-3.4,1.2-5,1.8c-1.7,0.6-3.2,1.3-4.7,2.1c-2.1,1.2-3.6,3.2-6.1,4.1c-0.8,0.3-1.8,0.7-2.6,0.7
	c-0.9,0.1-2.2,0.1-2.6-0.3c-0.7-0.8-0.1-2.4,0.2-3.2c-0.8,0.2-1.5,0.6-2.3,0.6c-0.3,0-0.6-0.2-0.8-0.2c-0.5,0-1.5,0.5-1.9,0.7
	c-0.5,0.4-1,0.9-1.6,1.5c-0.5,0.5-1.1,1.3-1.7,1.3c-0.4,0-0.7-0.3-0.7-0.6c-0.1-0.8,0.9-1.9,1.5-2.5c0.7-0.8,1.5-1.3,2.1-1.9
	c0.2-0.2,0.4-0.6,0.5-0.7c0.5-0.6,1.2-1,1.9-1.6c0.6-0.5,1.3-1,1.8-1.6c1.3-1.2,2.6-1.9,4.2-2.6c3.3-1.4,7.1-2.1,11.1-2.6
	c1.1-0.1,2.3,0,3.4,0c2.7,0,4.9,0.4,7.2,0.7c2.8,0.3,5.1,0.6,7.4,1.4c0.5,0.2,1.1,0.4,1.6,0.6c0.5,0.2,0.9,0.5,1.4,0.7
	c0.9,0.4,2,0.5,3,0.9c1.2,0.5,2.4,0.7,3.8,1c0.4,0.1,0.8,0.4,1.3,0.3c-0.2,0.4-0.5,0.8-0.8,1.2c-0.5,0.6-1.1,1.3-1.6,1.7
	c-0.3,0.3-0.7,0.4-1.1,0.7c-0.9,0.8-1.8,1.5-2.7,2.4c-1.1,1.1-2,2.4-3.2,3.7c-1.7,1.8-3.8,2.9-5.6,4.7c-0.6,0.6-0.9,1.2-1.4,2
	c-0.9,1.2-2.4,2.1-3.3,3.3c-0.4,0.5-0.6,1-0.9,1.5c-0.3,0.3-0.7,0.6-1.1,1c-0.7,0.7-1.3,1.4-2.1,2.1c-0.8,0.8-1.6,1.6-2.7,2.2
	c-0.6,0.3-1.2,0.8-1.7,1.1c-0.9,0.5-2,0.8-3.1,1c-1,0.2-2,0.7-3.1,0.7c0.1-0.6,0.8-0.8,1.3-1c1.3-0.8,2.8-1.5,4.1-2.5
	c0.7-0.6,1.7-1.5,2.4-2.2c0.3-0.4,0.5-0.9,0.9-1.3C170.2,83.6,170.6,82.9,171.3,81.9z M223.4,59.4L223.4,59.4
	c-1.2,1.7-2.8,3.3-4.3,4.8c-0.3,0.3-1.4,1.1-1.5,1.6c0,0.4,0.3,1,0.4,1.5c0.4,1.2,0.8,1.2,1.7,1.8c0.4,0.2,0.6,0.5,0.9,0.6
	c0.9,0.3,3.2,0.4,4.2,0c0.9-0.4,1.9-1.9,2.7-2.8c0.7-0.9,1.6-2.2,2.4-3.1c0.7-0.9,1.7-1.4,2-2.2c0.5-1.3,0.2-4.3-0.3-5.5
	c-0.3-0.8-1.2-2.2-1.7-2.7c-0.2-0.2-0.6-0.4-0.9-0.7c-0.3-0.3-0.7-1.3-1.2-1.2c-0.2,0.2-0.4,0.8-0.6,1.3c-0.5,1.1-1,2.1-1.6,3
	C224.8,56.7,224.2,58.2,223.4,59.4z M95.8,103L95.8,103c0.8-0.6,1.6-1.8,2.4-2.7c0.8-0.9,1.6-2,2.3-2.9c1.6-2,3.2-3.7,4.6-5.7
	c2.2-3.2,4.3-6,7.1-8.3c0.9-0.8,2.1-1.2,3.1-2c1-0.8,1.6-1.9,2.3-3c0.7-1,1.3-2.5,2.2-3.2c0.5-0.4,1.3-0.6,1.8-1
	c0.6-0.4,1.2-1.1,1.6-1.8c0.7-1.2,1.6-3,1-4.9c-0.2-0.7-0.8-1-1.2-1.5c-0.2-0.2-0.4-0.6-0.6-0.8c-0.3-0.3-0.6-0.4-0.7-0.7
	c-0.2-0.8,0-1.6-0.1-2.2c-0.4-3.5-2.3-4.2-4.8-5.6c-0.4-1.5-2-2-3.4-2.4c-0.6-0.1-1.2,0-1.9-0.1c-1-0.1-2.3-1.2-2.6-1.9
	c-0.1-0.3-0.1-0.7-0.3-1c-0.2-0.2-0.7-0.4-1.1-0.3c-0.5,0.1-0.7,0.7-1.1,0.9c-0.3,0.2-0.7,0.2-1,0.3c-0.7,0.4-1.2,1.3-1.9,1.7
	c-0.4,0.2-1,0.1-1.4,0.3c-0.3,0.2-0.4,0.6-0.7,1c-0.5,0.7-1.4,1.2-2,1.9c-0.6,0.7-1,1.7-1.6,2.4c-0.5,0.7-1.4,1.1-1.9,1.8
	c-0.6,0.8-1.2,2.1-1.6,3.1c-0.3,0.8-0.3,1.5-0.5,2.2c-0.2,0.7-0.6,1.3-0.9,2c-0.3,0.6-0.6,1.4-0.9,2c-0.5,1-1.2,1.9-1.9,2.9
	c-1,1.6-2.1,3.2-3.1,4.7c-2.6,3.6-5.9,6.4-8.1,10.3c-0.4,0.6-0.8,1.4-1.1,2c-0.6,1.3-1.2,5.1-0.6,6.6c0.1,0.3,0.5,0.7,0.8,1
	c0.4,0.4,1.1,0.5,1.6,0.8c0.5,0.4,0.9,1.3,1.4,1.9c0.4,0.6,1,1.2,1.7,1.7c0.7,0.5,1.8,0.7,2.4,1.2c0.5,0.4,0.7,1,1.1,1.3
	c0.4,0.3,0.9,0.5,1.4,0.6c-0.1,2.3,2,1.1,2.9,0.5c0.8-0.5,1.5-1.1,2.3-1.4C93.9,103.9,94.9,103.6,95.8,103z M203.6,52.1L203.6,52.1
	c-0.1-0.2-0.1-0.6-0.2-0.8c-0.3-0.6-1.1-1-1.6-1.3c-0.2,0.6-0.3,1.3-0.6,1.8c-0.3,0.6-1,1-1.5,1.6c-1.5,1.4-3.3,2.8-5.3,3.4
	c0.5,0.6,0.7,1.9,1.5,2.3c0.3,0.2,0.9,0.1,1.4,0.2c1.2,0.2,2.8,0.7,4.1,0.6c0.6-0.1,1.2-0.4,1.7-0.5c0.7-0.1,1.2-0.1,1.8-0.3
	c1.5-0.5,2.6-1.8,3.4-3c-0.6,0-0.8-0.3-1.3-0.4C205.8,54.3,204.2,53.8,203.6,52.1z M183.3,44.4L183.3,44.4c-0.5,3.6-3.3,4.8-4.7,7.5
	c2.9-0.6,6.3-0.5,8.5-2c0.8-0.5,1.5-1.6,1.9-2.5c0.3-0.6,0.2-1.4,0.1-2C187,45.1,184.7,45.2,183.3,44.4z M188.3,51.1L188.3,51.1
	c-0.3,0.2-0.5,0.5-0.8,0.8c-0.4,0.4-1.6,1-1.7,1.5c0,0.2,0,0.5,0,0.7c2,1,5,0.6,7.4,0.3c0.9-0.1,1.8-0.1,2.5-0.3
	c1-0.4,1.8-1.3,2.5-2c0.8-0.8,1.7-1.5,1.8-2.7c-1.3-0.5-2.6-1.6-4.1-2.1c-0.5-0.1-1-0.1-1.4-0.3c-1.2-0.5-1.9-1.6-2.4-2.8
	c-0.4,0.4-1.3,0.5-1.4,1.1c-0.1,0.4,0.1,1,0.1,1.3c0,0.4-0.2,0.9-0.3,1.3C190.1,49.2,189.2,50.3,188.3,51.1z M176,44.1L176,44.1
	c-1.6,0-3.3-0.1-4.3-0.4c-0.1,3.6-3.2,4.2-3.5,7.6c1,0.4,2.1-0.1,3.1-0.3c2.4-0.5,4.2-0.8,5.9-2c2.2-1.4,4.7-2.4,4.3-6
	c-0.1,0-0.1,0-0.1-0.1C180.4,44.2,178.3,44.1,176,44.1z M169.6,42.6L169.6,42.6c-1.5,1.3-3,2.9-6,2.5c0,0.3-0.1,0.4-0.1,0.6
	c-1.7,1.9-4.5,2.8-4,6.8c1.5-0.3,2.9-0.4,4.1-0.9c2.5-0.9,3.6-3.3,5.1-5.3c0.3-0.4,0.8-1,1-1.6C169.8,44.1,170.2,43.2,169.6,42.6
	C169.6,42.6,169.6,42.6,169.6,42.6z M128.6,44.5L128.6,44.5c-0.7,1.2-1.3,2.2-1.6,3.6c-0.7,3.1-0.4,6.5,0.7,8.9
	c0.1,0.3,0.5,0.7,0.7,1.1c0.2,0.4,0.4,0.9,0.6,1.2c0.5,0.9,1.5,1.4,2.4,2.2c0.7,0.7,1.8,1.8,2.9,1.6c0.7-0.1,1.4-1.5,1.8-2.2
	c0.7-1,1.3-1.6,1.7-2.4c0.8-1.5,0.8-3.8,0.6-5.7c-0.2-1.7-0.4-3.2-1-4.7c-0.2-0.4-0.5-0.7-0.7-1.2c-0.2-0.3-0.2-0.7-0.3-1
	c-0.2-0.4-0.8-0.8-1.1-1.2c-0.4-0.4-0.7-0.8-1.1-1.2c-0.8-0.8-1.8-1.9-3-1.8C130,42,129.1,43.5,128.6,44.5z M211.8,55.3L211.8,55.3
	c0.4,0.6-0.1,1.4,0.1,2c0.1,0.5,0.5,0.6,0.6,1.1c1.4,1,2.5,2.3,4.8,2.1c1.2-0.1,2.9-0.5,3.8-1.1c0.6-0.4,1.2-1.6,1.7-2.5
	c0.5-0.9,0.9-1.8,1.5-2.8c1.2-2,2-4,2.1-6.4c0.1-2.5-0.8-3.7-1.7-5.3c-0.5-0.9-1-1.8-1.7-2.4c-0.5-0.4-2.6-1.7-3.7-1.1
	c-0.3,0.1-0.5,1.8-0.6,2.4c-0.6,2.5-1.7,4.4-2.7,6.3C214.5,50.5,213.4,53.1,211.8,55.3z M116.7,37.9L116.7,37.9
	c0.6-0.2,0.9-0.6,1.3-1c-0.2-1.1,0.2-2.5-0.1-3.4c-2.7,0.7-4.9,2.1-5.2,5.3c0.5-0.1,0.7-0.5,1.2-0.7
	C114.8,37.7,115.8,38.2,116.7,37.9z M71.3,99.9L71.3,99.9c0.5-0.1,0.6-0.4,0.9-0.7c0.4,0.5,1,0.9,1.7,1.3c0.7,0.4,1.1,1.1,1.9,1.1
	c1.4-0.1,0.8-1.4,0.5-2.2c-0.5-1.3-0.7-2.3-0.7-4.1c0-0.8-0.1-1.7-0.1-2.4c0-0.3,0.3-0.7,0.4-1.2c0.3-0.9,0.6-1.7,0.9-2.5
	c0.2-0.4,0.3-0.8,0.5-1.2c0.5-1.2,1.5-2.3,2.4-3.3c0.4-0.5,0.8-1,1.3-1.6c0.5-0.5,0.8-1.1,1.2-1.7c0.3-0.4,0.7-0.8,1.1-1.2
	c0.3-0.4,0.6-0.9,0.9-1.3c0.3-0.3,0.7-0.6,1-0.9c0.3-0.4,0.6-0.9,0.9-1.3c0.3-0.4,0.7-0.8,1-1.2c0.7-0.8,1.3-1.7,1.9-2.5
	c1.4-2.1,2.2-4.8,3.3-7.2c0.3-0.7,0.6-1.6,0.9-2.3c0.4-0.9,1.4-1.8,2.1-2.7c0.7-0.9,1.2-2.1,1.8-2.9c0.8-1,1.9-2,2.9-2.9
	c1.1-1,2.1-2.1,3.1-2.8c0.9-0.7,2-1.2,2.9-2c0.9-0.7,1.9-1.6,2.3-2.6c0.1-0.3,0.1-0.6,0.2-0.9c0.4-1.1,1.1-1.9,1.8-2.5
	c-0.6,1.8-0.7,4.7,0.8,5.6c0.7,0.4,2,0.6,2.9,0.1c0-0.5-0.5-0.8-0.7-1.4c-0.8-2.1-0.3-6.8,1.6-7.1c-1.1,2.8-0.4,6,1.2,8
	c0.3,0.4,0.8,0.7,1,1.3c-0.4-1.6-0.2-3.8,0-5.7c0.1-1.4,0.5-2.9,1.4-3.3c-0.6,1.9-0.8,4.8-0.1,6.8c0.2,0.6,0.6,1.3,0.8,1.9
	c0.4,1.8,0.2,3.7,1,4.9c0.4,0.7,1.9,2.2,2.8,2.2c0.7,0.1,1.1-0.4,1.4-0.9c0.1-1.2-0.4-1.9-0.9-2.6c-0.3-0.5-0.7-0.9-0.9-1.5
	c-1.3-3.1,0.1-6.8,1.4-9.1c0.3-0.6,0.6-1.2,1-1.7c1-1.2,3-1.5,4.8-1.7c0.5-0.4,0.3-1.5,0.4-2.2c0.3-2.4,2-4.1,2.7-6
	c-0.8-0.5-1.5-0.7-2.4-0.6c-0.9,0.1-1.4,0.7-2,1.1c-0.5,0.3-0.6,0.5-1.1,0.9c-0.3,0.2-0.6,0.3-0.8,0.5c-0.6,0.5-1.1,1.2-1.7,1.7
	c-0.3,0.3-0.7,0.5-1,0.8c-0.8,0.7-1.5,1.5-2.4,1.8c-0.7,0.3-1.4-0.1-2.2,0.1c-0.3,0.1-0.6,0.4-0.9,0.6c-0.9,0.3-2,0.3-3,0.5
	c-1.3,0.3-2.6,0.8-3.5,1.3c-0.3,0.1-0.6,0.2-0.9,0.3c-0.4,0.3-1.1,0.8-1.6,1.3c-0.5,0.4-1,1-1.4,1.5c-0.6,0.8-1,1.9-1.6,2.8
	c-0.3,0.4-0.8,1.4-1.2,1.9c-2.2,2.1-3.9,3.1-5.9,5.4c-1,1.2-3.8,3.7-4.6,5c-1.7,2.6-2.7,3.4-4.4,6c-0.4,0.7-0.9,2.2-1.2,3
	c-0.3,0.8-0.6,1.2-1,2c-0.9,1.8-1.4,2.7-2.6,4.2c-0.3,0.4-1.6,1.4-2,1.8c-0.4,0.4-1,0.4-1.3,0.9c-0.7,0.8-1.5,1.6-2.1,2.6
	c-0.6,0.9-1.3,1.9-2,2.6c-0.7,0.8-1.5,1.7-2,2.6c-0.3,0.6-0.5,1.2-0.7,1.8c-0.8,1.8-1.8,3.4-2.5,5.3c-0.4,1.2-1,2.3-1.6,3.6
	c-0.2,0.5-0.4,1.1-0.8,1.8c-0.3,0.7-0.7,1.5-0.6,2C70.2,99.6,70.7,100,71.3,99.9z M132.1,39.9L132.1,39.9c5.1,2.8,7.9,8,10.5,13.4
	c0.7,0.3,1.8,0.4,2.7,0.3c0.6-0.9,1.2-1.6,1.7-2.5c0.2-0.5,0.4-1.1,0.7-1.7c0.2-0.6,0.5-1.1,0.7-1.7c0.8-2.4,0-5.7-0.8-7.4
	c-0.6-1.2-1.5-2.2-2.2-3.2c-1.4-2.1-2.7-5.2-4.9-5.9c-2.1-0.7-4.8,0.8-5.9,2c-0.7,0.7-1.2,1.9-1.7,2.9
	C132.4,37.2,131.9,38.4,132.1,39.9z M120,32.3L120,32.3c0.1,1.6-0.4,2.7-0.2,4.1h1.2c1.4-0.8,2.9-2.4,4.2-3.5
	c0.5-0.4,1.1-0.8,1.4-1.2c0.3-0.6,0.4-1.7,0.6-2.5c0.1-0.2,0.5-0.8,0-0.6C124.7,29.8,121.4,30.1,120,32.3z M205.1,50.6L205.1,50.6
	c1,0.1,1.4,0.8,2.2,1c0.9,0.2,2.2,0.1,3-0.2c1.9-0.7,3.1-2.6,4-4.5c1-2.1,2.8-4.8,3-7.4c0.1-2-0.2-2.9-0.9-4.3
	c-0.5-0.9-0.8-1.8-1.2-2.4c-0.4-0.6-1.2-1.1-1.7-1.6c-0.6-0.5-1-1.2-1.6-1.6c-0.3-0.2-0.6-0.2-0.9-0.4c-0.3-0.2-0.5-0.6-0.8-0.8
	c-0.4-0.3-0.9-0.4-1.4-0.6c-0.2,0.4-0.4,0.6-0.6,1c-0.2,0.8,0.1,1.8,0.1,2.7c0,0.5-0.2,1-0.2,1.5c-0.1,1.7,0,3.2-0.4,4.7
	c-0.4,1.4-0.6,2.7-1.1,4.1c-0.8,2.6-1.9,5-3.1,7.1C204.3,49.3,204.7,49.9,205.1,50.6z M153.3,25.5L153.3,25.5
	c-0.7-0.8-1.9-1.2-3.5-1.1c-3.8,0.3-7.2,1.9-8.3,5.2c2.9,1.7,4.1,4.6,6,7.4c1.4,2,2.7,4,3.7,6.3c0.3,0.7,0.5,1.9,0.9,2.5
	c0.6,0.7,2.3,0.7,3.2,0.4c1.7-2,3.7-3.8,3.7-7.2c0-2.8-1-5.2-2.2-7.4C155.6,29.4,154.7,27,153.3,25.5z M142,23.8L142,23.8
	c-0.7,1.3-1.8,2.1-3.3,2.6c-1.8,0.6-3.7,0.7-4.1,2.5c-0.2,0.7,0.1,1.5,0.6,1.6c0.6,0.1,1.2-0.5,1.6-0.7c0.9-0.3,1.9-0.3,2.9-0.5
	c0.9-2.6,2.8-4.3,5.1-5.5C143.6,23.7,143,24.2,142,23.8z M123.3,28L123.3,28c1.8-0.6,4-0.8,5.3-1.8c0.8-0.6,1-1.6,1.7-2.5
	c-0.6-0.3-1.3-0.1-1.9-0.2c-0.3-0.1-0.6-0.3-0.8-0.3c-0.4,0-0.7,0-1.1,0.1c-2.9,0.3-5,1.1-6.6,3c-0.7,0.9-1.6,1.6-2.3,2.6
	c-0.7,1-1.2,2.1-1.6,3.2c0.6-0.4,1.5-0.4,2.4-0.5C119.6,29.9,121.1,28.7,123.3,28z M135.1,23.3L135.1,23.3c-0.6,0.1-1.7,0.2-2.3,0.4
	c-0.5,0.2-1.3,1.5-1.6,2c-0.5,0.7-1,1.4-1.6,2c0.1,1.1-0.5,1.5-0.7,2.4c0.9-0.5,2.6-0.6,3.8-0.3c-0.1-1.9,0.6-2.9,1.6-3.6
	c1.4-1.1,3.5-1,5-1.9c0.8-0.5,1.6-2.1,1.7-3.3c0,0,0-0.1-0.1-0.1C139.3,22.2,137.4,22.8,135.1,23.3z M194.1,39.3L194.1,39.3
	c-0.1,0.9-0.5,1.8-0.5,2.5c0,1,0.4,1.9,0.7,2.8c1.5,0.5,2.7,0.7,4.5,0.3c1.4-0.3,2.4-0.3,3.3-0.8c1-0.6,2.4-1.8,2.8-2.7
	c0.5-1,0.6-2.4,0.9-3.7c0.3-1.3,0.4-2.7,0.5-4.1c0.2-2.9,0.2-5.9-0.8-8.1c-0.4-0.9-1.9-1.9-2.7-2.5c-1.1-0.7-2.3-1.2-3.2-1.8
	c-0.5-0.3-1-0.9-1.4-1.1c-0.6-0.2-1.8-0.3-2.3-0.2c0,0.3,0.2,0.5,0.3,0.7c1.7,3.2,0.1,7.8-0.6,11.3
	C195.2,34.4,194.5,36.8,194.1,39.3z M152.9,22.9L152.9,22.9c0.5,0.5,0.8,0.5,1.2,0.8c1,0.7,1.9,2.4,2.6,3.7c0.8,1.3,1.4,2.9,2.1,4.2
	c0.7,1.4,1.3,2.8,1.8,4.5c0.5,1.6,1.1,3.4,1.3,5.1c0.1,0.7,0,1.6,0.3,1.7c0.4,0.1,1-0.6,1.4-0.9c0.3-0.2,0.8-0.3,1.1-0.5
	c2.9-1.9,4.6-6.6,4.4-11.7c-0.1-2.4-0.8-4.8-1.6-6.6c-0.4-0.8-0.9-1.6-1.4-2.6c-0.5-0.8-1-2.1-1.7-2.4c-0.4-0.2-1.3-0.1-1.9,0
	c-3.1,0.3-5.6,1.3-7.5,2.7C154.3,21.5,153.3,22,152.9,22.9z M191.8,18L191.8,18c-0.4-0.3-1.1-0.6-1.8-0.8c-1.8-0.6-4.2-1.6-6.6-1.3
	c-0.7,0.1-1.3,0-1.7,0.5c0.3,1.9,1.3,3.1,1.9,5.2c0.6,2.1,0.3,4.9,0.3,7.5c0,2.7,0.1,5.4-0.3,7.6c-0.2,1.2-0.9,2.4-0.8,3.7
	c0.1,1.9,1.5,2.6,3.1,2.8c2.2-0.5,3.3-1.8,4.6-3.3c0.8-1,1.8-2.1,2.3-3c0.8-1.7,0.9-4.1,1.3-6.3c0.5-2.3,1.2-4.1,1.2-6.3
	c0-2.4-0.9-3.7-2.1-4.8C192.7,18.9,192.3,18.3,191.8,18z M167.2,16.9L167.2,16.9c-0.1,0.4-0.2,0.8-0.4,1c1,1.9,2.3,3.8,3.1,6.2
	c0.6,1.8,1,3.5,1.2,5.7c0.1,0.7,0.3,1.3,0.3,2c0.3,3,0,6.3-0.7,9c1,1.2,2,1,3.5,0.6c1.8-0.5,3.5-1.1,4.9-2c0.7-0.4,1.6-1.9,1.9-2.6
	c0.2-0.5,0.3-1.2,0.5-1.8c0.2-0.6,0.4-1.2,0.5-1.8c0.3-1.6,0-3.8,0-5.7c0-1.7,0.2-3.5,0-4.9c-0.2-1.1-0.8-2.2-1.3-3.3
	c-0.4-1-0.7-2.6-1.5-3c-0.6-0.3-1.9-0.1-2.8-0.2C173.4,16.1,169,15.2,167.2,16.9z M152.8,16.7L152.8,16.7c-1.5,0.6-3.5,0.2-5,0.9
	c-0.4,0.2-0.8,0.6-1.2,0.8c-1.2,0.7-2.5,0.9-3.7,1.6c-0.1,0.5-0.1,1.2-0.2,1.7c1.5,0,2.9,0,4.3,0.1c1.3,0.1,3.4,0.2,4.3-0.2
	c0.3-0.1,0.6-0.5,0.9-0.8c1-0.8,2.1-1.5,3-2.2c-0.4-0.7-0.2-2.5-0.1-3.2C154.4,15.7,153.6,16.4,152.8,16.7z M133,21.8L133,21.8
	c2.3-0.4,4.3-0.8,6-1.8c0.8-0.5,1.6-1,2.4-1.4c0.9-0.4,1.8-0.6,2.7-1.1c-0.9-0.6-1.5-1.5-2.5-2.1c-0.9-0.6-2-1.2-3.2-1.3
	c-0.3,0-0.7,0.1-1.1,0.1c-0.8,0-1.5-0.3-2.2-0.2c-1,0.1-2.1,0.6-3,1c-0.9,0.4-1.8,1-2.5,1.6c-1.6,1.1-3.3,2.2-4.2,3.9
	C128.3,19.9,131.3,20.6,133,21.8z M165.4,16.7L165.4,16.7c0.2-1.1,1.2-1.5,1.9-2.1c-0.6-0.4-1.2-0.4-2.1-0.6
	c-0.9-0.1-1.6-0.5-2.4-0.6c-0.9-0.1-2,0-2.8,0.1c-1.2,1.2-3.7,1.5-3.1,4.3C159.4,17.1,162.4,15.7,165.4,16.7z M180.3,15.1
	L180.3,15.1c0.8-0.9,2.4-1,4.1-1c3.5,0,6.1,1.2,8.2,2.3c-0.5-0.9-1.4-1.5-2.4-2.1c-0.9-0.5-1.8-1.2-2.8-1.6c-1.9-0.8-5.3-1.1-8-0.7
	c-0.5,0.1-0.8,0-1,0.3c-0.4,0.5-0.1,1.6,0.1,2.1C179.3,14.4,179.9,14.7,180.3,15.1z M169.8,14.1L169.8,14.1c2.2-0.1,4.7-0.1,6.6,0.2
	c-0.3-1.3,0.1-2.6,0.5-3.4c-0.7-0.4-1.5-0.4-2.3-0.3c-2.7,0.2-5.9,0.7-7.7,1.8C167.9,13,169.1,13.3,169.8,14.1z M146.5,16.3
	L146.5,16.3c1.2-0.9,3-0.9,4.6-1.1c1.2-0.1,2.2-1,3-1.4c0.7-0.4,1.4-0.7,1.9-1.1c-2.8-1.8-6.2-4.3-10.9-3.9
	c-2.1,0.2-4.1,0.9-5.1,2.4C142.6,12.5,145.1,13.9,146.5,16.3z M156.4,7.2c-0.9-0.3-1.7-0.4-2.7-0.8c1.7-1.4,4.2-1.6,7.1-1.2
	c1,0.1,2.1,0.2,3.1,0.3c0.9,0.1,1.9,0.6,2.8,0.8c2.3,0.6,5,1.8,7.1,2.6c-3.4,0.5-6.8,0.9-8.9,2.6c-0.9-0.3-1.8-0.7-2.6-1.1
	c-0.8-0.4-1.5-1-2.3-1.4c-0.4-0.2-0.9-0.3-1.3-0.5C157.8,8.2,157.2,7.5,156.4,7.2z M116,90.2c2.1-2.2,5.8-3.7,8.7-3
	C125.9,93.6,119,94.9,116,90.2"/>
</svg>
