<?xml version="1.0" encoding="utf-8"?>
<!-- Generator: Adobe Illustrator 21.0.1, SVG Export Plug-In . SVG Version: 6.00 Build 0)  -->
<svg version="1.1" id="Layer_1" xmlns="http://www.w3.org/2000/svg" xmlns:xlink="http://www.w3.org/1999/xlink" x="0px" y="0px"
	 viewBox="0 0 60 80" style="enable-background:new 0 0 60 80;" xml:space="preserve">
<style type="text/css">
	.st0{fill-rule:evenodd;clip-rule:evenodd;fill:#FFFFFF;}
	.st1{fill:#FFFFFF;}
</style>
<path class="st0" d="M0,0h10.9v5.5h38.1V0H60v80H49.1v-5.5H10.9V80H0v-5.5v-3.5V41.8v-3.5V9V5.5V0L0,0z M52.7,9h3.7v3.7h-3.7V9
	L52.7,9z M52.7,74.4h3.7v3.7h-3.7V74.4L52.7,74.4z M52.7,67.1h3.7v3.7h-3.7V67.1L52.7,67.1z M52.7,59.9h3.7v3.7h-3.7V59.9L52.7,59.9
	z M52.7,52.6h3.7v3.7h-3.7V52.6L52.7,52.6z M52.7,45.3h3.7v3.7h-3.7V45.3L52.7,45.3z M52.7,38.1h3.7v3.7h-3.7V38.1L52.7,38.1z
	 M52.7,30.8h3.7v3.7h-3.7V30.8L52.7,30.8z M52.7,23.5h3.7v3.7h-3.7V23.5L52.7,23.5z M52.7,16.3h3.7V20h-3.7V16.3L52.7,16.3z
	 M52.7,1.7h3.7v3.7h-3.7V1.7L52.7,1.7z M3.6,9h3.7v3.7H3.6V9L3.6,9z M3.6,74.4h3.7v3.7H3.6V74.4L3.6,74.4z M3.6,67.1h3.7v3.7H3.6
	V67.1L3.6,67.1z M3.6,59.9h3.7v3.7H3.6V59.9L3.6,59.9z M3.6,52.6h3.7v3.7H3.6V52.6L3.6,52.6z M3.6,45.3h3.7v3.7H3.6V45.3L3.6,45.3z
	 M3.6,38.1h3.7v3.7H3.6V38.1L3.6,38.1z M3.6,30.8h3.7v3.7H3.6V30.8L3.6,30.8z M3.6,23.5h3.7v3.7H3.6V23.5L3.6,23.5z M3.6,16.3h3.7
	V20H3.6V16.3L3.6,16.3z M3.6,1.7h3.7v3.7H3.6V1.7L3.6,1.7z M49.1,9H10.9v29.3h38.1V9L49.1,9z M49.1,41.8H10.9v29.1h38.1V41.8
	L49.1,41.8z"/>
</svg>
