<?xml version="1.0" encoding="utf-8"?>
<!-- Generator: Adobe Illustrator 21.1.0, SVG Export Plug-In . SVG Version: 6.00 Build 0)  -->
<svg version="1.1" id="Layer_1" xmlns="http://www.w3.org/2000/svg" xmlns:xlink="http://www.w3.org/1999/xlink" x="0px" y="0px"
	 viewBox="0 0 298.9 84.7" style="enable-background:new 0 0 298.9 84.7;" xml:space="preserve">
<style type="text/css">
	.st0{fill:#4A494A;}
	.st1{fill:#B82025;}
	.st2{fill:url(#SVGID_1_);}
	.st3{fill:url(#SVGID_2_);}
	.st4{fill:url(#SVGID_3_);}
	.st5{fill:url(#SVGID_4_);}
	.st6{fill:url(#SVGID_5_);}
	.st7{fill:url(#SVGID_6_);}
	.st8{fill:#FFFFFF;}
</style>
<g>
	<path class="st0" d="M152,71.5c0,1.8-0.3,3.3-1,4.6c-0.6,1.3-1.5,2.3-2.6,3.1c-1.1,0.8-2.3,1.4-3.7,1.8s-2.9,0.6-4.4,0.6
		c-1.7,0-3.3-0.3-4.7-0.8s-2.7-1.3-3.7-2.2c-1-0.9-1.9-2.1-2.4-3.4c-0.6-1.3-0.9-2.7-0.9-4.2c0-1.1,0-2.1,0.1-2.9s0.3-1.5,0.5-2.2
		s0.6-1.3,1-1.9s0.9-1.2,1.6-1.9l4.7,1.9c-0.4,0.5-0.7,1-0.9,1.5s-0.4,1-0.5,1.5s-0.2,1.1-0.2,1.8c0,0.7,0,1.4,0,2.2
		c0,1.5,0.4,2.7,1.3,3.5c0.9,0.8,2.3,1.2,4.1,1.2c1.7,0,3-0.4,4-1.2c1-0.8,1.5-1.9,1.5-3.2V49.9c0-1.2-0.4-2.1-1.2-2.8
		s-1.9-1.1-3.3-1.1c-1.4,0-2.6,0.4-3.5,1.1s-1.3,1.7-1.3,2.9c0,0.5,0,0.9,0.1,1.4c0,0.5,0.2,1,0.5,1.7l-4.9,1.8
		c-0.3-0.4-0.6-0.8-0.8-1.2c-0.2-0.3-0.4-0.7-0.5-1s-0.2-0.7-0.3-1.1c-0.1-0.4-0.1-0.9-0.1-1.5c0-1.5,0.3-2.8,0.8-4s1.2-2.2,2.1-3.1
		c0.9-0.9,2-1.5,3.3-2s2.8-0.7,4.4-0.7c1.6,0,3,0.2,4.4,0.6c1.3,0.4,2.5,1,3.5,1.9c1,0.8,1.8,1.8,2.3,3.1c0.6,1.2,0.9,2.6,0.9,4.2
		v21.4H152z"/>
	<path class="st0" d="M181.4,69.9c0,1.8-0.3,3.4-0.8,4.8c-0.6,1.4-1.3,2.6-2.4,3.6c-1,1-2.2,1.8-3.6,2.3c-1.4,0.5-3,0.8-4.7,0.8
		c-1.9,0-3.6-0.3-5.1-0.9s-2.7-1.5-3.7-2.6s-1.8-2.4-2.3-3.9s-0.8-3.1-0.8-4.8V64c0-1.4,0.3-2.9,0.8-4.3c0.5-1.4,1.3-2.8,2.3-3.9
		c1-1.2,2.2-2.1,3.7-2.9c1.5-0.7,3.2-1.1,5.1-1.1c0.9,0,1.8,0.1,2.7,0.3s1.9,0.7,2.8,1.4v-4.4c0-0.5-0.2-0.9-0.5-1.3
		c-0.3-0.4-0.7-0.7-1.2-1s-1.1-0.5-1.7-0.6c-0.6-0.1-1.3-0.2-1.9-0.2c-1.6,0-2.7,0.2-3.5,0.6c-0.8,0.4-1.2,0.9-1.2,1.5v2.1h-6.3
		v-2.1c0-1,0.3-2.1,0.9-3c0.6-1,1.5-1.8,2.5-2.5s2.2-1.3,3.5-1.7s2.7-0.7,4.1-0.7c1.5,0,2.9,0.2,4.2,0.6c1.4,0.4,2.6,1,3.6,1.8
		s1.9,1.7,2.5,2.8s0.9,2.3,0.9,3.6L181.4,69.9z M175.1,63.9c0-1.1-0.1-2.1-0.4-2.9c-0.3-0.8-0.7-1.5-1.1-2c-0.5-0.5-1.1-0.9-1.7-1.1
		c-0.7-0.2-1.4-0.4-2.1-0.4c-0.9,0-1.7,0.2-2.4,0.6c-0.7,0.4-1.3,0.9-1.7,1.5c-0.5,0.6-0.8,1.3-1,2.1s-0.4,1.5-0.4,2.3v5.3
		c0,1,0.1,1.9,0.4,2.7c0.3,0.8,0.6,1.5,1.1,2c0.5,0.6,1.1,1,1.8,1.3s1.5,0.5,2.4,0.5c1.7,0,3-0.6,3.9-1.7s1.3-2.7,1.3-4.8v-5.4
		H175.1z"/>
	<path class="st0" d="M196.7,40.2c0,0.6,0.1,1.2,0.3,1.6c0.2,0.4,0.4,0.8,0.7,1.1s0.6,0.6,0.9,0.8c0.3,0.2,0.7,0.4,1,0.6
		c0.5,0.3,1,0.5,1.5,0.8s0.9,0.6,1.3,1c0.4,0.4,0.7,0.8,1,1.3c0.2,0.5,0.4,1.1,0.4,1.7c0,0.9-0.1,1.6-0.2,2.2
		c-0.1,0.6-0.3,1.2-0.6,1.8c1.2,0.5,2.3,1.2,3.3,2c0.9,0.9,1.7,1.8,2.4,2.8c0.6,1,1.1,2.1,1.4,3.2c0.3,1.1,0.5,2.2,0.5,3.2l0.1,5.6
		c0,0.8-0.1,1.6-0.3,2.5s-0.6,1.7-1,2.6s-1,1.7-1.7,2.5s-1.4,1.5-2.3,2.1c-0.9,0.6-1.8,1.1-2.9,1.4c-1.1,0.4-2.2,0.5-3.5,0.5
		c-1.9,0-3.6-0.4-5.1-1.1s-2.7-1.6-3.7-2.7s-1.7-2.4-2.2-3.7c-0.5-1.4-0.7-2.7-0.7-4.1v-5.5c0-1.2,0.2-2.5,0.5-3.7
		c0.3-1.3,0.9-2.4,1.7-3.5s1.8-2,3-2.8s2.7-1.4,4.5-1.7c0.2-0.4,0.3-0.8,0.4-1.1c0.1-0.3,0.2-0.6,0.2-0.8c0.1-0.3,0.1-0.5,0.1-0.7
		s0-0.5,0-0.8c-0.1-0.1-0.3-0.3-0.6-0.5c-0.4-0.2-0.8-0.4-1.3-0.7c-0.6-0.3-1.2-0.6-1.8-1s-1.2-0.8-1.7-1.4
		c-0.5-0.6-0.9-1.3-1.2-2.2s-0.5-1.9-0.5-3.2L196.7,40.2L196.7,40.2z M193.5,69.3c0,0.8,0.1,1.6,0.3,2.4s0.5,1.4,1,2
		c0.4,0.6,1,1.1,1.7,1.4c0.7,0.4,1.5,0.5,2.5,0.5s1.8-0.2,2.5-0.6s1.2-0.9,1.7-1.5c0.4-0.6,0.7-1.3,0.9-2s0.3-1.4,0.3-2.1v-5.1
		c0-0.7-0.1-1.5-0.3-2.2c-0.2-0.8-0.6-1.5-1-2.1s-1-1.1-1.7-1.5s-1.5-0.6-2.4-0.6c-1,0-1.8,0.2-2.5,0.5c-0.7,0.4-1.2,0.8-1.7,1.4
		c-0.4,0.6-0.8,1.3-0.9,2.1c-0.2,0.8-0.3,1.7-0.3,2.5v4.9H193.5z"/>
	<path class="st0" d="M239.7,64.9c0,1.8-0.2,3.6-0.4,5.4c-0.3,1.8-0.7,3.5-1.4,5.1s-1.6,2.9-2.8,4s-2.8,1.9-4.8,2.4l-0.6-6.1
		c1.2,0,2.2-0.9,2.8-2.8s0.9-4.5,0.9-7.9v-9.4c0-1.5-0.1-2.9-0.2-4.1c-0.2-1.2-0.4-2.2-0.8-3.1c-0.4-0.8-0.9-1.5-1.6-1.9
		c-0.7-0.4-1.5-0.7-2.6-0.7c-1.2,0-2.1,0.2-2.8,0.7s-1.3,1.1-1.7,1.9c-0.4,0.8-0.7,1.9-0.9,3.1c-0.2,1.2-0.2,2.6-0.2,4.1v9.2
		c0,1.7,0,3.2,0.1,4.5s0.2,2.4,0.4,3.4c0.2,0.9,0.5,1.6,0.9,2.1s0.8,0.7,1.4,0.7l-0.1,6.1c-1.4-0.3-2.6-0.7-3.5-1.3
		c-1-0.6-1.8-1.4-2.5-2.2c-0.7-0.9-1.2-1.8-1.6-2.9c-0.4-1.1-0.7-2.2-0.9-3.3c-0.2-1.1-0.3-2.3-0.4-3.5c-0.1-1.2-0.1-2.4-0.1-3.5
		v-9.1c0-1.2,0.1-2.4,0.2-3.7c0.1-1.2,0.4-2.5,0.7-3.6c0.3-1.2,0.8-2.3,1.3-3.3c0.6-1,1.3-1.9,2.1-2.7c0.9-0.8,1.9-1.4,3.1-1.8
		c1.2-0.4,2.6-0.7,4.2-0.7c2.5,0,4.5,0.4,6,1.3c1.5,0.8,2.7,2,3.6,3.4c0.8,1.4,1.4,3.1,1.7,5s0.4,3.8,0.4,5.9L239.7,64.9z"/>
	<path class="st0" d="M269.7,68.7c0,1.8-0.3,3.6-0.9,5.1c-0.6,1.6-1.4,2.9-2.4,4.1c-1,1.1-2.3,2-3.7,2.7c-1.4,0.6-3,1-4.7,1
		s-3.3-0.3-4.7-0.8s-2.7-1.3-3.7-2.4s-1.8-2.5-2.4-4.1c-0.6-1.6-0.9-3.6-0.9-5.8V40.2h6.3v28.2c0,1.3,0.1,2.5,0.4,3.4
		c0.3,0.9,0.6,1.7,1.1,2.3c0.5,0.6,1,1,1.7,1.3c0.7,0.3,1.4,0.4,2.2,0.4c0.9,0,1.7-0.2,2.4-0.5c0.7-0.4,1.2-0.9,1.7-1.5
		s0.8-1.4,1-2.3s0.3-1.9,0.3-3V67c0-1.2-0.2-2.3-0.6-3.4s-1-2.1-1.7-3c-0.4-0.5-0.7-1-1.1-1.5s-0.7-1-0.9-1.5
		c-0.3-0.5-0.5-1-0.7-1.5s-0.3-1-0.3-1.6c0-0.4,0-0.8,0.1-1.3c0.1-0.4,0.2-0.9,0.3-1.3c0.2-0.5,0.4-1,0.6-1.5c0.3-0.5,0.6-1.1,1-1.7
		l6.5,1.8c-0.2,0.2-0.3,0.4-0.5,0.6c-0.2,0.2-0.3,0.4-0.5,0.6c-0.1,0.2-0.3,0.3-0.4,0.5c-0.1,0.1-0.2,0.2-0.2,0.3
		c-0.3,0.4-0.5,0.8-0.7,1.1s-0.2,0.6-0.2,1c0,0.6,0.2,1.2,0.7,1.9s1,1.4,1.7,2.1l0,0c0.9,1.1,1.7,2.2,2.3,3.5s0.9,2.8,0.9,4.5
		L269.7,68.7L269.7,68.7z"/>
	<path class="st0" d="M298.8,64.9c0,1.8-0.2,3.6-0.4,5.4c-0.3,1.8-0.7,3.5-1.4,5.1c-0.7,1.6-1.6,2.9-2.8,4c-1.2,1.1-2.8,1.9-4.8,2.4
		l-0.6-6.1c1.2,0,2.2-0.9,2.8-2.8c0.6-1.9,0.9-4.5,0.9-7.9v-9.4c0-1.5-0.1-2.9-0.2-4.1c-0.2-1.2-0.4-2.2-0.8-3.1
		c-0.4-0.8-0.9-1.5-1.6-1.9s-1.5-0.7-2.6-0.7c-1.2,0-2.1,0.2-2.8,0.7c-0.7,0.5-1.3,1.1-1.7,1.9c-0.4,0.8-0.7,1.9-0.9,3.1
		c-0.2,1.2-0.2,2.6-0.2,4.1v9.2c0,1.7,0,3.2,0.1,4.5s0.2,2.4,0.4,3.4c0.2,0.9,0.5,1.6,0.9,2.1s0.8,0.7,1.4,0.7l-0.1,6.1
		c-1.4-0.3-2.6-0.7-3.5-1.3c-1-0.6-1.8-1.4-2.5-2.2c-0.7-0.9-1.2-1.8-1.6-2.9s-0.7-2.2-0.9-3.3c-0.2-1.1-0.3-2.3-0.4-3.5
		s-0.1-2.4-0.1-3.5v-9.1c0-1.2,0.1-2.4,0.2-3.7c0.1-1.2,0.4-2.5,0.7-3.6c0.3-1.2,0.8-2.3,1.3-3.3c0.6-1,1.3-1.9,2.1-2.7
		c0.9-0.8,1.9-1.4,3.1-1.8c1.2-0.4,2.6-0.7,4.2-0.7c2.5,0,4.5,0.4,6,1.3c1.5,0.8,2.7,2,3.6,3.4c0.8,1.4,1.4,3.1,1.7,5
		c0.3,1.9,0.4,3.8,0.4,5.9L298.8,64.9z"/>
</g>
<g>
	<path class="st1" d="M108.5,65.8L108.5,65.8c0.5-2.3,0.4-4.5-0.8-6l0,0l-31.3-52c-2-3.8-3.9-6-6-7c-1.4-0.7-2.3-0.6-3.8-0.6
		c-4-0.1-8.7-0.1-23.4,0.3c-0.4,0-0.7,0-1.1,0.1c-1.4,0.3-2.6,1.2-3.7,3.2l0.1-0.1c-0.4,0.6-0.9,1.3-1.4,2L4,53.2
		c-3.7,5-4.4,8.5-3.1,10.8c3.6,6.3,9.3,13.5,13.5,19.4c0.9,0.9,2.1,1.2,3.9,1.3h0h0.6h75.1c2.3,0,3.6-0.4,4.6-1.6
		c1.1-1.1,2.5-3.2,3.4-4.6C104.1,75.4,107.4,70.2,108.5,65.8L108.5,65.8z"/>
	
		<linearGradient id="SVGID_1_" gradientUnits="userSpaceOnUse" x1="46.1873" y1="33.9343" x2="91.6021" y2="33.9343" gradientTransform="matrix(1 0 0 -1 0 86)">
		<stop  offset="0" style="stop-color:#A01C1F;stop-opacity:0"/>
		<stop  offset="1" style="stop-color:#A01C1F"/>
	</linearGradient>
	<path class="st2" d="M59.2,19.4c0,0,9.2,14.5,17.1,29.4C82.1,59.4,87.8,69.7,90.3,74c2.3,4,1.7,8.1-2.9,9.9
		c-1.9,0.8-3.7,0.8-5.4,0.8c-6.4,0-28.9,0-35.8,0L59.2,19.4z"/>
	
		<linearGradient id="SVGID_2_" gradientUnits="userSpaceOnUse" x1="52.1064" y1="82.7301" x2="28.657" y2="42.1145" gradientTransform="matrix(1 0 0 -1 0 86)">
		<stop  offset="0" style="stop-color:#A01C1F"/>
		<stop  offset="1" style="stop-color:#A01C1F;stop-opacity:0"/>
	</linearGradient>
	<path class="st3" d="M62.6,14.4c-4.2-6-12.1-14.6-18.9-14c-2.4,0.2-3.4,0.8-5.7,4L18.1,32.8l19.6,16.3L62.6,14.4z"/>
	
		<linearGradient id="SVGID_3_" gradientUnits="userSpaceOnUse" x1="56.0156" y1="19.967" x2="56.0156" y2="28.9763" gradientTransform="matrix(1 0 0 -1 0 86)">
		<stop  offset="0.2651" style="stop-color:#A01C1F"/>
		<stop  offset="1" style="stop-color:#A01C1F;stop-opacity:0"/>
	</linearGradient>
	<polygon class="st4" points="26.2,65.8 85.9,66 80.9,57.1 32.4,57 	"/>
	
		<linearGradient id="SVGID_4_" gradientUnits="userSpaceOnUse" x1="22.1293" y1="1.2887" x2="22.1293" y2="59.6314" gradientTransform="matrix(1 0 0 -1 0 86)">
		<stop  offset="0" style="stop-color:#A01C1F"/>
		<stop  offset="1" style="stop-color:#A01C1F;stop-opacity:0"/>
	</linearGradient>
	<path class="st5" d="M0.8,59.1c-0.6,2-0.6,3.5,0.1,4.8c0.7,1.2,1.6,2.6,2.4,3.8c2.3,3.6,4.4,6.3,9.9,13.9c0.5,0.7,1.1,1.6,1.4,1.9
		c0.1,0.2,0.6,0.5,0.9,0.6c0.5,0.2,0.9,0.3,1.2,0.4c1.3,0.2,3.6,0.1,5,0.1c-0.8-0.3-2.4-0.7-3.6-1.5c-1.5-1.5-1.5-3.4-0.5-5.2
		l26.4-37V26.4H23L4.2,53C2.5,55.3,1.3,57.4,0.8,59.1"/>
	
		<linearGradient id="SVGID_5_" gradientUnits="userSpaceOnUse" x1="2.3262" y1="19.086" x2="50.87" y2="47.1128" gradientTransform="matrix(1 0 0 -1 0 86)">
		<stop  offset="0" style="stop-color:#A01C1F"/>
		<stop  offset="1" style="stop-color:#A01C1F;stop-opacity:0"/>
	</linearGradient>
	<path class="st6" d="M0.5,59.1c-0.6,2-0.6,3.5,0.1,4.8c0.7,1.2,1.6,2.6,2.4,3.8c2.3,3.6,4.4,6.3,9.9,13.9c0.5,0.7,1.1,1.6,1.4,1.9
		c0.1,0.2,0.6,0.5,0.9,0.6c0.5,0.2,0.9,0.3,1.2,0.4c1.3,0.2,3.6,0.1,5,0.1c-0.8-0.3-2.4-0.7-3.6-1.5c-1.5-1.5-1.5-3.4-0.5-5.2
		l26.4-37V26.4H22.7L3.9,53C2.2,55.3,1.1,57.4,0.5,59.1"/>
	
		<linearGradient id="SVGID_6_" gradientUnits="userSpaceOnUse" x1="73.1667" y1="85.84" x2="73.1667" y2="7.7108" gradientTransform="matrix(1 0 0 -1 0 86)">
		<stop  offset="0" style="stop-color:#A01C1F"/>
		<stop  offset="0.541" style="stop-color:#E81E24"/>
		<stop  offset="1" style="stop-color:#A01C1F;stop-opacity:0"/>
	</linearGradient>
	<path class="st7" d="M92.3,78.3l9.8-10.6c3-0.3,5.9-4.7,5.6-7.9l-31.3-52c-2-3.8-4-6-6-7c-1.4-0.7-2.3-0.6-3.8-0.6
		c-4-0.1-8.7-0.1-23.4,0.3c-0.4,0-0.7,0-1.1,0.1c-1.4,0.3-2.6,1.2-3.7,3.2c0.3-0.4,0.9-1,1.2-1.3c0.4-0.4,0.7-0.6,1.1-0.7
		c1.8-0.3,4.7-0.8,8,1.9C51.9,6.2,68.7,36.4,80,55.9C86.1,66.3,90.2,74.2,92.3,78.3"/>
	<path class="st8" d="M35.6,42.6v19h-5.4h-2.5v-4.8h-0.2l-0.9,1.3l-1.2,1.9l-1.2-1.9l-0.9-1.3H23v4.8h-0.1h-3.7h-4.4v-19h7.6
		l2.8,4.6l2.7-4.6H35.6z M46.9,53.3c1.5,0,2.2,0.7,2.2,2c0,0.7-0.2,1.2-0.6,1.4c-0.4,0.3-1.1,0.4-2,0.4h-0.3v-3.9L46.9,53.3
		L46.9,53.3z M46.9,46.8c1.4,0,2.1,0.6,2.1,1.7c0,0.6-0.2,1.1-0.6,1.3c-0.4,0.3-1,0.4-1.8,0.4h-0.2v-3.5H46.9z M47.5,61.7
		c2.9,0,4.7-0.6,5.6-1.7c0.9-1.1,1.3-2.4,1.3-3.8c0-2.4-1.2-3.8-3.7-4.4c1.1-0.3,1.9-0.8,2.4-1.6c0.5-0.8,0.8-1.6,0.8-2.6
		c0-1.3-0.5-2.5-1.4-3.5c-0.9-1-2.4-1.5-4.4-1.5h-9.7v19L47.5,61.7L47.5,61.7z M70.6,42.7c-0.5-0.1-4.1-0.1-4.6-0.1
		c-3,0-5.5,0.9-7.4,2.7c-2,1.8-2.9,4.1-2.9,6.9c0,2.6,0.9,4.9,2.8,6.7c1.9,1.8,4.4,2.7,7.5,2.7c0.5,0,4.1,0,4.6-0.1v-8.2
		c-0.2,0-3.5,0-3.7,0c-0.9,0-1.6-0.1-2.1-0.4c-0.5-0.3-0.7-0.6-0.7-1.1c0-0.9,0.9-1.4,2.6-1.4c0.3,0,3.6,0,3.9,0L70.6,42.7
		L70.6,42.7z M108,60.2c-0.1-0.2-1.2-2-1.9-3.2c-13,5.3-23.4,15.3-29,27.7h4.1C86.6,73.7,96.2,64.9,108,60.2"/>
</g>
</svg>
