<svg width="72" height="72" viewBox="0 0 72 72" fill="none" xmlns="http://www.w3.org/2000/svg">
<path d="M22.4638 23.5756L37.7156 38.8274C38.0616 35.072 38.7681 21.3296 31.5358 14.0972C29.0796 11.6411 25.8316 10.0645 22.4638 9.06189V23.5756ZM3.70535 10.1863C3.5269 12.8795 3.27036 20.9048 5.80654 27.905H21.4241L3.70535 10.1863ZM18.6669 19.7792V8.16203C13.3666 7.19319 8.39766 7.36861 6.38987 7.50162L18.6669 19.7792ZM25.2205 31.7019H7.55361C8.31843 33.0262 9.22462 34.2558 10.3009 35.3321C15.7096 40.7406 24.7578 41.7096 30.5484 41.7096C32.5017 41.7096 34.0833 41.5988 35.0311 41.5119L25.2205 31.7019ZM64.9879 18.6668C65.9568 13.3665 65.7808 8.39756 65.6483 6.38977L53.3708 18.6668H64.9879ZM45.2451 21.424L62.9638 3.70525C60.2704 3.5268 52.245 3.27026 45.2451 5.80644V21.424ZM49.5744 22.4637L41.5703 30.4678C41.7854 33.4301 41.7132 36.0464 41.5994 37.8356C47.2216 37.5231 54.453 36.1349 59.0523 31.5357C61.5083 29.0795 63.0854 25.8315 64.0881 22.4637H49.5744ZM40.978 25.6911L41.4482 25.2209V7.55351C40.1237 8.31795 38.8942 9.22452 37.8174 10.3008C36.9928 11.1255 36.2734 12.0356 35.643 13.0047C37.2652 15.0237 38.5793 17.4442 39.5596 20.2296C40.1533 21.917 40.6276 23.7447 40.978 25.6911ZM12.6889 55.1944H17.4978C18.3204 55.1944 18.795 55.9854 18.795 56.8397C18.795 57.5675 18.3837 58.4218 17.4978 58.4218H12.6889V64.7805H21.6422C22.4648 64.7805 22.9394 65.6348 22.9394 66.6157C22.9394 67.47 22.5281 68.3876 21.6422 68.3876H10.379C9.46192 68.3876 8.57598 67.9446 8.57598 67.0903V46.5575C8.57598 45.7033 9.46192 45.2603 10.379 45.2603H21.6422C22.5281 45.2603 22.9394 46.1779 22.9394 47.0322C22.9394 48.0125 22.4648 48.8668 21.6422 48.8668H12.6888L12.6889 55.1944ZM34.1392 48.6899C32.0193 48.6899 30.8174 49.8601 30.8174 52.328V61.1548C30.8174 63.6227 32.0193 64.7934 34.2025 64.7934C37.0813 64.7934 37.3344 62.7368 37.4293 61.4079C37.4926 60.4275 38.3785 60.1111 39.4543 60.1111C40.8782 60.1111 41.5426 60.5225 41.5426 62.1356C41.5426 65.9641 38.4102 68.4 33.981 68.4C29.9948 68.4 26.7042 66.4382 26.7042 61.1548V52.328C26.7042 47.0446 30.0264 45.0828 34.0126 45.0828C38.4102 45.0828 41.5426 47.4242 41.5426 51.0941C41.5426 52.7394 40.8782 53.1191 39.486 53.1191C38.3153 53.1191 37.461 52.771 37.4293 51.8218C37.366 50.8409 37.1446 48.6899 34.1392 48.6899ZM45.6549 61.1548V52.328C45.6549 47.0446 48.8822 45.0828 53.0583 45.0828C57.2343 45.0828 60.4928 47.0446 60.4928 52.328V61.1548C60.4928 66.4382 57.2343 68.4 53.0583 68.4C48.8822 68.4 45.6549 66.4382 45.6549 61.1548ZM56.38 52.328C56.38 49.8284 55.1144 48.6899 53.0583 48.6899C50.97 48.6899 49.7676 49.8284 49.7676 52.328V61.1548C49.7676 63.6544 50.97 64.7934 53.0583 64.7934C55.1144 64.7934 56.38 63.6544 56.38 61.1548V52.328Z" fill="#3669B3"/>
</svg>
