<svg width="72" height="72" viewBox="0 0 72 72" fill="none" xmlns="http://www.w3.org/2000/svg">
<g clip-path="url(#clip0_703_121)">
<path d="M22.5003 45.4129C19.006 45.4129 16.1742 48.2436 16.1742 51.7383C16.1742 55.2331 19.006 58.0638 22.5003 58.0638C25.9958 58.0638 28.8269 55.2331 28.8269 51.7383C28.8269 48.2436 25.9958 45.4129 22.5003 45.4129ZM22.5003 54.4883C20.9813 54.4883 19.7504 53.2573 19.7504 51.7383C19.7504 50.2186 20.9813 48.9882 22.5003 48.9882C24.0195 48.9882 25.2512 50.2186 25.2512 51.7383C25.2512 53.2573 24.0195 54.4883 22.5003 54.4883ZM55.8589 45.4129C52.3645 45.4129 49.5329 48.2436 49.5329 51.7383C49.5329 55.2331 52.3645 58.0638 55.8589 58.0638C59.3546 58.0638 62.1855 55.2331 62.1855 51.7383C62.1855 48.2436 59.3546 45.4129 55.8589 45.4129ZM55.8589 54.4883C54.3399 54.4883 53.1092 53.2573 53.1092 51.7383C53.1092 50.2186 54.3399 48.9882 55.8589 48.9882C57.3782 48.9882 58.6099 50.2186 58.6099 51.7383C58.6099 53.2573 57.3782 54.4883 55.8589 54.4883ZM29.6172 25.9761C29.6172 26.8625 28.8919 27.5877 28.0057 27.5877H5.76667C4.88026 27.5877 4.15527 26.8625 4.15527 25.9761V25.0092C4.15527 24.123 4.88044 23.3978 5.76667 23.3978H28.0057C28.8921 23.3978 29.6172 24.123 29.6172 25.0092V25.9761Z" fill="#3669B3"/>
<path d="M68.2545 35.4114C65.9349 34.8084 64.6076 34.4292 63.6968 32.6702L60.6511 26.5038C59.74 24.7448 57.3735 23.3054 55.3931 23.3054H51.2274C51.2274 23.3054 50.667 23.3171 50.667 22.7532V17.5814C50.667 15.5766 49.5325 13.9362 47.1191 13.9362H13.1693C9.71415 13.9362 8.07373 15.5768 8.07373 17.5814V20.8225C8.07373 20.8225 8.07373 21.7864 9.00669 21.7864H28.0052C29.7824 21.7864 31.2283 23.2321 31.2283 25.0094V25.9763C31.2283 27.7535 29.7824 29.1993 28.0052 29.1993H9.00669C9.00669 29.1993 8.07373 29.1217 8.07373 30.1289V31.2434C8.07373 32.1298 9.28865 32.1293 9.28865 32.1293H22.0775C23.8547 32.1293 25.3006 33.5752 25.3006 35.3523V36.3192C25.3006 38.0965 23.8547 39.5422 22.0775 39.5422H9.49043C9.49043 39.5422 8.07373 39.516 8.07373 40.644V48.4755C8.07373 50.4802 9.71415 52.1208 11.719 52.1208H13.7326C14.1892 52.1208 14.2565 51.8664 14.2565 51.7386C14.2565 47.1935 17.9547 43.4962 22.5 43.4962C27.0457 43.4962 30.7437 47.1938 30.7437 51.7386C30.7437 51.8669 30.7072 52.1208 31.0565 52.1208H47.306C47.6281 52.1208 47.615 51.8492 47.615 51.7386C47.615 47.1935 51.3131 43.4962 55.8586 43.4962C60.4041 43.4962 64.1021 47.1938 64.1021 51.7386C64.1021 51.8669 64.0989 52.1208 64.3005 52.1208H68.3973C70.3788 52.1208 71.9996 50.5 71.9996 48.5187V41.6752C71.9998 35.9119 70.18 35.9119 68.2545 35.4114ZM61.3999 35.0908H51.1467C50.7231 35.0908 50.6668 34.6784 50.6668 34.6784V26.1374C50.6668 26.1374 50.6429 25.8094 51.1869 25.8094H54.1125C55.8752 25.8094 57.9808 27.0902 58.7912 28.6554L61.5015 34.1423C61.6074 34.3495 61.7301 34.5478 61.8682 34.7351C61.9645 34.8639 61.8031 35.0908 61.3999 35.0908Z" fill="#3669B3"/>
<path d="M23.6891 36.3192C23.6891 37.2056 22.964 37.9308 22.0777 37.9308H1.61139C0.724986 37.9308 0 37.2056 0 36.3192V35.3523C0 34.466 0.725163 33.7409 1.61139 33.7409H22.0777C22.9641 33.7409 23.6891 34.466 23.6891 35.3523V36.3192Z" fill="#3669B3"/>
</g>
<defs>
<clipPath id="clip0_703_121">
<rect width="72" height="72" fill="white"/>
</clipPath>
</defs>
</svg>
