<svg width="72" height="73" viewBox="0 0 72 73" fill="none" xmlns="http://www.w3.org/2000/svg">
<g clip-path="url(#clip0_101_707)">
<path d="M22.5 46.2914C19.0057 46.2914 16.1739 49.1221 16.1739 52.6168C16.1739 56.1116 19.0057 58.9424 22.5 58.9424C25.9956 58.9424 28.8267 56.1116 28.8267 52.6168C28.8267 49.1221 25.9956 46.2914 22.5 46.2914ZM22.5 55.3668C20.981 55.3668 19.7502 54.1358 19.7502 52.6168C19.7502 51.0971 20.981 49.8668 22.5 49.8668C24.0192 49.8668 25.251 51.0971 25.251 52.6168C25.251 54.1358 24.0192 55.3668 22.5 55.3668ZM55.8586 46.2914C52.3643 46.2914 49.5327 49.1221 49.5327 52.6168C49.5327 56.1116 52.3643 58.9424 55.8586 58.9424C59.3543 58.9424 62.1852 56.1116 62.1852 52.6168C62.1852 49.1221 59.3543 46.2914 55.8586 46.2914ZM55.8586 55.3668C54.3396 55.3668 53.1089 54.1358 53.1089 52.6168C53.1089 51.0971 54.3396 49.8668 55.8586 49.8668C57.378 49.8668 58.6097 51.0971 58.6097 52.6168C58.6097 54.1358 57.378 55.3668 55.8586 55.3668ZM29.617 26.8546C29.617 27.7411 28.8916 28.4662 28.0054 28.4662H5.76642C4.88002 28.4662 4.15503 27.7411 4.15503 26.8546V25.8877C4.15503 25.0015 4.88019 24.2763 5.76642 24.2763H28.0054C28.8918 24.2763 29.617 25.0015 29.617 25.8877V26.8546Z" fill="#5EC5F1"/>
<path d="M68.2547 36.2899C65.9352 35.6869 64.6078 35.3078 63.697 33.5488L60.6514 27.3823C59.7402 25.6233 57.3737 24.1839 55.3933 24.1839H51.2276C51.2276 24.1839 50.6673 24.1956 50.6673 23.6317V18.46C50.6673 16.4551 49.5327 14.8147 47.1193 14.8147H13.1696C9.7144 14.8147 8.07397 16.4553 8.07397 18.46V21.701C8.07397 21.701 8.07397 22.6649 9.00693 22.6649H28.0054C29.7827 22.6649 31.2286 24.1107 31.2286 25.8879V26.8548C31.2286 28.6321 29.7827 30.0778 28.0054 30.0778H9.00693C9.00693 30.0778 8.07397 30.0003 8.07397 31.0074V32.122C8.07397 33.0084 9.28889 33.0078 9.28889 33.0078H22.0777C23.855 33.0078 25.3009 34.4537 25.3009 36.2308V37.1978C25.3009 38.975 23.855 40.4207 22.0777 40.4207H9.49067C9.49067 40.4207 8.07397 40.3945 8.07397 41.5225V49.354C8.07397 51.3587 9.7144 52.9993 11.7193 52.9993H13.7328C14.1895 52.9993 14.2567 52.745 14.2567 52.6172C14.2567 48.072 17.9549 44.3747 22.5002 44.3747C27.0459 44.3747 30.7439 48.0724 30.7439 52.6172C30.7439 52.7455 30.7075 52.9993 31.0567 52.9993H47.3062C47.6284 52.9993 47.6153 52.7278 47.6153 52.6172C47.6153 48.072 51.3133 44.3747 55.8588 44.3747C60.4043 44.3747 64.1023 48.0724 64.1023 52.6172C64.1023 52.7455 64.0992 52.9993 64.3008 52.9993H68.3976C70.3791 52.9993 71.9998 51.3785 71.9998 49.3972V42.5537C72 36.7905 70.1803 36.7905 68.2547 36.2899ZM61.4001 35.9694H51.1469C50.7234 35.9694 50.6671 35.557 50.6671 35.557V27.0159C50.6671 27.0159 50.6432 26.6879 51.1871 26.6879H54.1127C55.8754 26.6879 57.981 27.9687 58.7915 29.5339L61.5017 35.0208C61.6077 35.2281 61.7303 35.4263 61.8684 35.6136C61.9647 35.7425 61.8033 35.9694 61.4001 35.9694Z" fill="#5EC5F1"/>
<path d="M23.6891 37.1978C23.6891 38.0842 22.964 38.8094 22.0777 38.8094H1.61139C0.724986 38.8094 0 38.0842 0 37.1978V36.2308C0 35.3446 0.725163 34.6194 1.61139 34.6194H22.0777C22.9641 34.6194 23.6891 35.3446 23.6891 36.2308V37.1978Z" fill="#5EC5F1"/>
</g>
<defs>
<clipPath id="clip0_101_707">
<rect width="72" height="72" fill="white" transform="translate(0 0.87854)"/>
</clipPath>
</defs>
</svg>
