<svg width="72" height="73" viewBox="0 0 72 73" fill="none" xmlns="http://www.w3.org/2000/svg">
<path d="M22.4637 24.4541L37.7155 39.7059C38.0615 35.9505 38.768 22.2081 31.5357 14.9757C29.0795 12.5196 25.8315 10.943 22.4637 9.9404V24.4541ZM3.70523 11.0648C3.52678 13.758 3.27024 21.7834 5.80642 28.7835H21.424L3.70523 11.0648ZM18.6668 20.6577V9.04054C13.3665 8.07171 8.39754 8.24712 6.38975 8.38014L18.6668 20.6577ZM25.2203 32.5804H7.55349C8.31831 33.9048 9.22449 35.1343 10.3008 36.2106C15.7094 41.6191 24.7576 42.5881 30.5483 42.5881C32.5016 42.5881 34.0831 42.4773 35.031 42.3904L25.2203 32.5804ZM64.9878 19.5454C65.9566 14.245 65.7807 9.27608 65.6482 7.26829L53.3706 19.5454H64.9878ZM45.2449 22.3025L62.9637 4.58377C60.2703 4.40532 52.2449 4.14878 45.2449 6.68496V22.3025ZM49.5743 23.3422L41.5702 31.3463C41.7852 34.3086 41.7131 36.9249 41.5993 38.7141C47.2215 38.4017 54.4529 37.0134 59.0521 32.4142C61.5082 29.958 63.0853 26.7101 64.0879 23.3422H49.5743ZM40.9779 26.5696L41.4481 26.0994V8.43203C40.1236 9.19647 38.894 10.103 37.8172 11.1793C36.9927 12.004 36.2733 12.9141 35.6429 13.8832C37.265 15.9023 38.5791 18.3228 39.5595 21.1082C40.1532 22.7955 40.6274 24.6232 40.9779 26.5696ZM12.6888 56.0729H17.4976C18.3203 56.0729 18.7949 56.864 18.7949 57.7183C18.7949 58.446 18.3836 59.3003 17.4976 59.3003H12.6888V65.659H21.642C22.4647 65.659 22.9393 66.5133 22.9393 67.4942C22.9393 68.3485 22.528 69.2661 21.642 69.2661H10.3789C9.4618 69.2661 8.57586 68.8231 8.57586 67.9688V47.4361C8.57586 46.5818 9.4618 46.1388 10.3789 46.1388H21.642C22.528 46.1388 22.9393 47.0564 22.9393 47.9107C22.9393 48.891 22.4647 49.7453 21.642 49.7453H12.6886L12.6888 56.0729ZM34.1391 49.5684C32.0192 49.5684 30.8173 50.7386 30.8173 53.2066V62.0333C30.8173 64.5012 32.0192 65.672 34.2024 65.672C37.0812 65.672 37.3343 63.6153 37.4292 62.2864C37.4925 61.306 38.3784 60.9896 39.4542 60.9896C40.878 60.9896 41.5425 61.401 41.5425 63.0141C41.5425 66.8427 38.4101 69.2785 33.9809 69.2785C29.9947 69.2785 26.704 67.3168 26.704 62.0333V53.2066C26.704 47.9231 30.0263 45.9614 34.0125 45.9614C38.4101 45.9614 41.5425 48.3028 41.5425 51.9726C41.5425 53.6179 40.878 53.9976 39.4858 53.9976C38.3151 53.9976 37.4608 53.6495 37.4292 52.7003C37.3659 51.7194 37.1444 49.5684 34.1391 49.5684ZM45.6548 62.0333V53.2066C45.6548 47.9231 48.8821 45.9614 53.0582 45.9614C57.2342 45.9614 60.4927 47.9231 60.4927 53.2066V62.0333C60.4927 67.3168 57.2342 69.2785 53.0582 69.2785C48.8821 69.2785 45.6548 67.3168 45.6548 62.0333ZM56.3799 53.2066C56.3799 50.7069 55.1143 49.5684 53.0582 49.5684C50.9699 49.5684 49.7675 50.7069 49.7675 53.2066V62.0333C49.7675 64.5329 50.9699 65.672 53.0582 65.672C55.1143 65.672 56.3799 64.5329 56.3799 62.0333V53.2066Z" fill="#5EC5F1"/>
</svg>
