<svg width="72" height="72" viewBox="0 0 72 72" fill="none" xmlns="http://www.w3.org/2000/svg">
<path fill-rule="evenodd" clip-rule="evenodd" d="M28.2772 38.0237C27.2287 38.0237 26.3788 38.8735 26.3788 39.9221V47.1362C26.3788 48.1818 27.2317 49.0351 28.2772 49.0351H43.8449C44.8906 49.0351 45.7434 48.1823 45.7434 47.1362V39.9221C45.7434 38.8735 44.8936 38.0237 43.8449 38.0237H38.1309V39.8979C38.1309 40.946 37.281 41.7964 36.2325 41.7964C35.1839 41.7964 34.334 40.946 34.334 39.8979V38.0237H28.2772ZM32.4563 52.832H28.4681V54.7304C28.4681 55.779 27.6182 56.6289 26.5697 56.6289C25.5211 56.6289 24.6712 55.779 24.6712 54.7304V52.832H20.6831C19.6374 52.832 18.7847 53.6848 18.7847 54.7304V66.5013C18.7847 67.5498 19.6344 68.3997 20.6831 68.3997H32.4563C33.502 68.3997 34.3548 67.5469 34.3548 66.5013V54.7304C34.3548 53.6848 33.502 52.832 32.4563 52.832ZM51.7818 52.832H47.8144V54.7304C47.8144 55.779 46.9646 56.6289 45.916 56.6289C44.8674 56.6289 44.0176 55.779 44.0176 54.7304V52.832H40.0501C39.0044 52.832 38.1516 53.6848 38.1516 54.7304V66.5013C38.1516 67.5469 39.0044 68.3997 40.0501 68.3997H51.7818C52.8304 68.3997 53.6802 67.5498 53.6802 66.5013V54.7304C53.6802 53.6848 52.8275 52.832 51.7818 52.832Z" fill="#A62525"/>
<path fill-rule="evenodd" clip-rule="evenodd" d="M67.4662 18.4164L52.3167 8.04473C52.2732 8.01511 51.7383 7.77832 51.7383 7.77768L36.4873 3.66454C36.1572 3.57595 35.8094 3.57857 35.4807 3.67213L20.2565 7.77781C20.0211 7.84041 19.8 7.94808 19.6055 8.09485L4.42664 18.486C3.85572 18.8761 3.56501 19.5232 3.60348 20.1669L3.60411 66.5012C3.60411 67.5453 4.45107 68.3922 5.49521 68.3922V68.3996H13.0889C14.1375 68.3996 14.9879 67.5498 14.9879 66.5012V31.9482H57.0074V66.5012C57.0074 67.5498 57.8579 68.3996 58.9059 68.3996H66.5001C67.5487 68.3996 68.3985 67.5498 68.3985 66.5012V20.0513C68.399 19.3552 68.0243 18.7472 67.4662 18.4164ZM49.034 21.9497H22.9608C21.9126 21.9497 21.0624 21.0995 21.0624 20.0513C21.0624 19.0027 21.9126 18.1524 22.9608 18.1524H49.034C50.0827 18.1524 50.9324 19.0029 50.9324 20.0513C50.9329 21.0995 50.0827 21.9497 49.034 21.9497Z" fill="#A62525"/>
</svg>
