<svg width="72" height="73" viewBox="0 0 72 73" fill="none" xmlns="http://www.w3.org/2000/svg">
<path fill-rule="evenodd" clip-rule="evenodd" d="M28.2772 38.9022C27.2287 38.9022 26.3788 39.7521 26.3788 40.8007V48.0147C26.3788 49.0604 27.2317 49.9137 28.2772 49.9137H43.8449C44.8906 49.9137 45.7434 49.0609 45.7434 48.0147V40.8007C45.7434 39.7521 44.8936 38.9022 43.8449 38.9022H38.1309V40.7765C38.1309 41.8245 37.281 42.6749 36.2325 42.6749C35.1839 42.6749 34.334 41.8245 34.334 40.7765V38.9022H28.2772ZM32.4563 53.7105H28.4681V55.609C28.4681 56.6575 27.6182 57.5074 26.5697 57.5074C25.5211 57.5074 24.6712 56.6575 24.6712 55.609V53.7105H20.6831C19.6374 53.7105 18.7847 54.5633 18.7847 55.609V67.3798C18.7847 68.4284 19.6344 69.2782 20.6831 69.2782H32.4563C33.502 69.2782 34.3548 68.4255 34.3548 67.3798V55.609C34.3548 54.5633 33.502 53.7105 32.4563 53.7105ZM51.7818 53.7105H47.8144V55.609C47.8144 56.6575 46.9646 57.5074 45.916 57.5074C44.8674 57.5074 44.0176 56.6575 44.0176 55.609V53.7105H40.0501C39.0044 53.7105 38.1516 54.5633 38.1516 55.609V67.3798C38.1516 68.4255 39.0044 69.2782 40.0501 69.2782H51.7818C52.8304 69.2782 53.6802 68.4284 53.6802 67.3798V55.609C53.6802 54.5633 52.8275 53.7105 51.7818 53.7105Z" fill="#5EC5F1"/>
<path fill-rule="evenodd" clip-rule="evenodd" d="M67.466 19.2949L52.3165 8.92327C52.2731 8.89365 51.7381 8.65686 51.7381 8.65622L36.4871 4.54308C36.1571 4.45449 35.8092 4.45711 35.4806 4.55067L20.2564 8.65635C20.021 8.71895 19.7999 8.82662 19.6054 8.97339L4.42652 19.3645C3.8556 19.7546 3.56488 20.4017 3.60336 21.0454L3.60399 67.3797C3.60399 68.4239 4.45095 69.2707 5.49508 69.2707V69.2782H13.0888C14.1374 69.2782 14.9878 68.4283 14.9878 67.3797V32.8267H57.0073V67.3797C57.0073 68.4283 57.8578 69.2782 58.9057 69.2782H66.5C67.5485 69.2782 68.3984 68.4283 68.3984 67.3797V20.9299C68.3989 20.2338 68.0242 19.6258 67.466 19.2949ZM49.0339 22.8283H22.9607C21.9125 22.8283 21.0622 21.978 21.0622 20.9299C21.0622 19.8813 21.9125 19.0309 22.9607 19.0309H49.0339C50.0826 19.0309 50.9323 19.8814 50.9323 20.9299C50.9328 21.978 50.0826 22.8283 49.0339 22.8283Z" fill="#5EC5F1"/>
</svg>
