<?xml version="1.0" encoding="utf-8"?>
<!-- Generator: Adobe Illustrator 20.1.0, SVG Export Plug-In . SVG Version: 6.00 Build 0)  -->
<svg version="1.1" id="Layer_1" xmlns="http://www.w3.org/2000/svg" xmlns:xlink="http://www.w3.org/1999/xlink" x="0px" y="0px"
	 viewBox="0 0 25 17" style="enable-background:new 0 0 25 17;" xml:space="preserve">
<style type="text/css">
	.st0{fill:#F0004F;}
</style>
<path class="st0" d="M25,7.1v3.5H14.3V17h-3.6v-6.4H0V7.1h10.7V0h3.6v7.1H25z M4.5,5.7h0.9V3.9h1.8V3H5.4V1.3H4.5V3H2.7v0.9h1.8V5.7
	z M19.6,5.7h0.9V3.9h1.8V3h-1.8V1.3h-0.9V3h-1.8v0.9h1.8V5.7z M5.4,11.5H4.5v1.7H2.7v0.9h1.8v1.8h0.9v-1.8h1.8v-0.9H5.4V11.5z
	 M20.5,11.5h-0.9v1.7h-1.8v0.9h1.8v1.8h0.9v-1.8h1.8v-0.9h-1.8V11.5z"/>
</svg>
