<?xml version="1.0" encoding="utf-8"?>
<!-- Generator: Adobe Illustrator 21.0.0, SVG Export Plug-In . SVG Version: 6.00 Build 0)  -->
<svg version="1.1" id="Layer_1" xmlns="http://www.w3.org/2000/svg" xmlns:xlink="http://www.w3.org/1999/xlink" x="0px" y="0px"
	 viewBox="0 0 80 80" style="enable-background:new 0 0 80 80;" xml:space="preserve">
<style type="text/css">
	.st0{fill:#FFFFFF;}
</style>
<path class="st0" d="M48.9,79.2c-1.6,0.3-3,0.5-4.4,0.8c-0.8-2.4-2-4.2-4.6-4.1c-2.5,0.1-3.8,1.7-4.4,4.1c-1.8-0.3-3.5-0.6-5.3-1
	c0.1-2.5-0.5-4.7-3.1-5.5c-2.3-0.7-4,0.3-5.3,2.3c-1.4-0.8-2.6-1.5-4.1-2.4c0.9-2.4,1.2-4.7-1.2-6.3c-1.9-1.4-3.8-0.9-5.7,0.4
	c-1.1-1.3-2.1-2.5-3.2-3.9c1.7-1.8,2.6-3.8,1.2-6.2c-1.3-2.1-3.3-2.3-5.6-1.7c-0.5-1.4-1-2.8-1.6-4.3c2.4-1.2,3.8-3,3.1-5.6
	c-0.6-2.1-2.2-3-4.7-3.2c0-1.3-0.1-2.6,0-3.8c0-0.4,0.5-1,0.8-1.1c2.1-0.5,3.5-1.5,3.8-3.8c0.4-2.4-1-3.8-2.9-5c0,0-0.1-0.1-0.2-0.4
	c0.2-0.7,0.5-1.6,0.8-2.4c0.5-1.4,0.8-2.6,3-2.3c3.3,0.4,5.3-3.5,3.7-6.4c-0.3-0.5-0.7-1-1.2-1.6c1-1.2,1.9-2.3,3-3.6
	c2.2,1.3,4.4,1.9,6.4-0.1c1.6-1.6,1.5-3.6,0.5-5.7c1.4-0.8,2.8-1.7,4.3-2.6c1.5,2,3.4,3.3,5.9,2.2c2.2-0.9,2.8-2.8,2.6-5.3
	c1.2-0.2,2.2-0.6,3.3-0.6c0.6,0,1.4,0.4,1.7,0.9c0.9,1.9,2.2,2.9,4.4,2.8c2-0.1,3.2-1.3,3.9-3.1c0.1-0.2,0.2-0.5,0.4-1
	c1.6,0.3,3.3,0.6,5.1,0.8c0,2.5,0.5,4.8,3.3,5.5C54.8,6.9,56.4,6,57.7,4c1,0.6,1.9,1.1,2.9,1.6c1.3,0.6,2,1.3,1.3,3
	c-0.6,1.6,0.1,3.3,1.6,4.4c1.9,1.4,3.7,1.1,5.7-0.4c1,1.2,2,2.4,3.1,3.6c-1.6,1.8-2.6,3.7-1.2,6c1.3,2.2,3.4,2.3,5.7,1.9
	c0.6,1.6,1.1,3.1,1.5,4.3c-1.1,1.3-2.3,2.2-2.8,3.3c-1,2.2,0.2,5.1,2.5,5.5c2.1,0.4,2.1,1.5,2,3c0,0.7-0.1,1.4-0.1,2.1
	c-2.3,0.4-4.2,1.2-4.6,3.8c-0.4,2.5,0.8,4,3.2,5.2c-0.7,1.9-1.4,3.7-2.1,5.6c-2.5-0.7-4.5-0.4-5.8,1.7c-1.3,2.2-0.6,4.1,1.2,5.9
	c-1.1,1.3-2.2,2.5-3.3,3.8c-2-1.3-4-2-6.1-0.3c-2,1.6-1.8,3.7-1,6c-1.3,0.8-2.6,1.5-4,2.3c-1.4-2-3.1-3.2-5.5-2.4
	C49.4,74.6,48.7,76.7,48.9,79.2z M40.2,15c-13.7-0.2-25,11-25.1,24.7C14.9,53.5,26,64.9,39.6,65C53.4,65.2,64.7,54.2,65,40.3
	C65.2,26.5,54.1,15.2,40.2,15z M62.5,40.1c0,12.5-10.1,22.6-22.5,22.6c-12.4,0-22.5-10.1-22.5-22.6c0-12.6,10.1-22.7,22.6-22.7
	C52.6,17.4,62.5,27.6,62.5,40.1z M40,29.9c-5.6,0-10.1,4.5-10.1,10.1c0,5.6,4.6,10.2,10.1,10.2C45.5,50.2,50,45.6,50,40
	C50,34.4,45.6,29.9,40,29.9z"/>
</svg>
