<?xml version="1.0" encoding="utf-8"?>
<!-- Generator: Adobe Illustrator 21.0.2, SVG Export Plug-In . SVG Version: 6.00 Build 0)  -->
<svg version="1.1" id="Layer_1" xmlns="http://www.w3.org/2000/svg" xmlns:xlink="http://www.w3.org/1999/xlink" x="0px" y="0px"
	 viewBox="0 0 440 500" style="enable-background:new 0 0 440 500;" xml:space="preserve">
<path d="M300,249.4c0.4,45.9-36.4,83.9-82.3,84.8c-45.9,0.9-83.5-35.5-83.9-81.4c-0.4-45.9,36.4-83.8,82.3-84.8
	S299.6,203.5,300,249.4z"/>
<path d="M83.2,186.7L0,122.2L8,112l29.9,23.2c-1.9-9,0-17.1,5.7-24.4c3.5-4.4,7.3-7.6,11.6-9.5c4.3-1.9,8.6-2.4,12.7-1.4
	c4.2,1,9.3,3.8,15.1,8.4l38.2,29.6l-8,10.2l-38.1-29.6c-5.1-3.9-9.7-5.7-13.7-5.4c-4,0.4-7.6,2.6-10.7,6.6c-2.3,3-3.8,6.4-4.3,10.3
	s0.2,7.4,2,10.6c1.8,3.2,5.1,6.6,9.8,10.3l32.9,25.5L83.2,186.7L83.2,186.7z M119.9,92.6c4.8,11.9,11.5,19.8,20.1,23.7
	c8.7,3.9,17.9,3.9,27.9-0.1c6.2-2.5,11.3-6.2,15.4-11.1c4.1-5,6.5-10.6,7.1-16.9c0.7-6.3-0.8-14-4.5-23
	c-4.5-11.2-11.1-18.8-19.8-22.6c-8.7-3.9-18-3.9-27.7,0c-8.8,3.5-15.2,9.1-19.2,16.7C114.5,68.4,114.7,79.6,119.9,92.6L119.9,92.6z
	 M132.2,87.7c-3.6-9-4.3-16.5-2.2-22.6c2.2-6.1,6.3-10.3,12.3-12.7c5.9-2.4,11.8-2.1,17.6,0.8c5.8,2.9,10.4,8.7,13.9,17.4
	c3.7,9.2,4.5,16.9,2.3,23s-6.2,10.3-12.2,12.7c-6,2.4-11.9,2.1-17.7-0.8C140.5,102.8,135.8,96.8,132.2,87.7L132.2,87.7z
	 M229.2,105.4l-11.9-2.3L237.2,0l12.7,2.4l-7.1,36.8c6.7-5.6,14.1-7.7,22.5-6.1c4.6,0.9,8.8,2.6,12.6,5.3c3.8,2.6,6.6,5.9,8.7,9.8
	c2,3.9,3.3,8.3,3.9,13.3s0.4,10.2-0.7,15.6c-2.5,12.8-7.6,22.1-15.2,27.8c-7.7,5.8-16,7.8-24.9,6.1c-8.8-1.7-15.1-6.7-18.7-15
	L229.2,105.4L229.2,105.4z M236.3,67.5c-1.7,8.9-1.7,15.6-0.1,20.1c2.7,7.3,7.5,11.6,14.3,12.9c5.6,1.1,10.8-0.4,15.8-4.4
	s8.4-10.8,10.2-20.3c1.9-9.7,1.3-17.3-1.6-22.7c-3-5.4-7.2-8.6-12.7-9.7c-5.6-1.1-10.8,0.4-15.8,4.4
	C241.5,51.8,238.1,58.4,236.3,67.5L236.3,67.5z M305.9,133.3l-8.3-8.8l76.8-71.9l8.9,9.4l-27.4,25.7c8.7-0.7,16,2.1,21.8,8.2
	c3.2,3.4,5.6,7.3,7.1,11.6c1.5,4.3,1.9,8.7,1.3,13c-0.7,4.3-2.2,8.7-4.7,13.1c-2.4,4.4-5.7,8.5-9.7,12.2
	c-9.5,8.9-19.1,13.5-28.7,13.6c-9.6,0.2-17.5-3-23.7-9.6c-6.2-6.5-8.3-14.2-6.3-23.1L305.9,133.3L305.9,133.3z M334,106.8
	c-6.7,6.2-10.6,11.6-11.9,16.2c-2.1,7.5-0.7,13.8,4,18.8c3.9,4.1,9,6,15.4,5.6s13.1-3.8,20.2-10.5c7.3-6.8,11.3-13.2,12-19.3
	c0.7-6.1-0.8-11.2-4.6-15.3c-3.9-4.1-9-6-15.4-5.6C347.4,97.1,340.8,100.4,334,106.8L334,106.8z M322.6,193.5l11.3-4.2
	c-0.1,2.9,0.1,5.4,0.6,7.5c0.7,2.8,1.7,4.9,3,6.4s3,2.5,4.9,3.2c1.5,0.5,4.9,1,10.3,1.6c0.7,0.1,1.9,0.2,3.3,0.4l67.9-45.7l3.2,13.4
	l-39.3,25.6c-4.9,3.3-10.2,6.4-15.9,9.4c6,0.1,12,0.5,18,1.2l47.1,5.6l3,12.5l-82.3-10.2c-8.9-1.1-15-2.1-18.5-3.1
	c-4.7-1.3-8.3-3.1-10.9-5.5s-4.4-5.7-5.3-9.7C322.4,199.5,322.3,196.7,322.6,193.5L322.6,193.5z M388.4,261.6l-1.6,12.8
	c-5.1-0.7-9.5,0.1-13,2.5s-6.1,6.4-7.7,12.1s-1.7,10.3-0.2,13.7c1.5,3.4,3.9,5.6,7,6.5c2.8,0.8,5.4,0.2,7.7-1.8
	c1.6-1.4,4.2-5.3,7.9-11.5c4.9-8.4,8.7-14.1,11.4-17.2c2.7-3,5.8-5,9.3-6s7-0.9,10.6,0.1c3.3,0.9,6.1,2.6,8.4,4.8
	c2.3,2.3,4.1,5,5.2,8.1c0.9,2.3,1.3,5.3,1.3,8.9s-0.5,7.3-1.6,11.1c-1.7,5.7-3.9,10.5-6.9,14.4c-2.9,3.9-6.1,6.4-9.5,7.7
	c-3.4,1.2-7.7,1.6-12.6,1l1.8-12.6c4,0.6,7.4-0.2,10.3-2.2s5-5.4,6.4-10.2c1.6-5.7,1.9-10,0.7-13c-1.2-3-3.1-4.8-5.6-5.5
	c-1.6-0.5-3.2-0.4-4.8,0.3c-1.6,0.6-3.2,1.9-4.7,3.8c-0.8,1.1-2.9,4.4-6.3,10c-4.9,8.1-8.6,13.6-11,16.7c-2.5,3.1-5.5,5.1-8.9,6.3
	c-3.4,1.2-7.2,1.2-11.5-0.1c-4.1-1.2-7.7-3.5-10.6-7c-3-3.5-4.8-7.8-5.5-12.9s-0.2-10.6,1.5-16.3c2.7-9.5,6.8-16.2,12.2-20
	C373.5,262.2,380.2,260.7,388.4,261.6L388.4,261.6z M331.7,358.1l-10.1-5.6c1.6-3.3,3.3-6.1,5.1-8.4c2.9-3.7,5.7-6.1,8.5-7.2
	s5.4-1.4,8-0.7c2.6,0.7,6.9,3.4,13,8.1l34.7,26.9l5.9-7.5l7.9,6.1l-5.9,7.5l14.9,11.6l-1.8,14.9l-21-16.3l-8,10.2l-7.9-6.1l8-10.2
	L347.7,354c-2.9-2.3-4.9-3.6-6.1-3.8c-1.1-0.3-2.2-0.2-3.4,0.2c-1.1,0.4-2.3,1.4-3.4,2.9C333.9,354.5,332.9,356.1,331.7,358.1
	L331.7,358.1z M271,386.1l-10.4,5.2l34.2,68.1l11.6-5.8l-18.3-36.4c-2.9-5.8-4.5-10.5-4.8-14.2s0.7-7.2,2.8-10.5
	c2.1-3.3,4.9-5.8,8.4-7.5s6.8-2.3,10-1.7c3.2,0.5,6,2.1,8.2,4.8c1.5,1.8,3.8,5.8,6.8,11.8l18.9,37.7l11.6-5.8l-21.2-42.1
	c-2.5-4.9-4.5-8.4-6.1-10.4c-2.4-3-5-5.3-7.9-6.8s-6.4-2.1-10.7-1.9c-4.3,0.2-8.4,1.3-12.4,3.3c-9.1,4.5-14.4,12-15.8,22.4
	L271,386.1L271,386.1z M191,395.1l-0.6,9.6c5.3-7.2,12.7-10.5,22-9.9c6.1,0.4,11.5,2.4,16.4,6.1c4.9,3.6,8.5,8.6,10.9,14.7
	c2.4,6.2,3.3,13.1,2.8,20.9c-0.5,7.6-2.2,14.3-5.1,20.3s-7.1,10.5-12.3,13.4c-5.3,3-11,4.2-17.3,3.8c-4.6-0.3-8.6-1.5-12.1-3.7
	c-3.4-2.2-6.2-4.9-8.2-8.1L185,500l-12.9-0.8l6.8-104.8L191,395.1L191,395.1z M229.3,435.7c0.6-9.7-0.9-17.1-4.8-22.2
	c-3.8-5.1-8.5-7.8-14.1-8.1c-5.7-0.4-10.6,1.6-14.9,5.9c-4.2,4.3-6.7,11.2-7.3,20.6c-0.7,10.3,0.8,18.1,4.6,23.2
	c3.7,5.1,8.5,7.9,14.4,8.2c5.8,0.4,10.7-1.6,14.9-6C226.3,452.9,228.7,445.7,229.3,435.7L229.3,435.7z M120.9,466.9l-6.3,13.2
	l-11.7-5.5l6.3-13.2L120.9,466.9L120.9,466.9z M159.8,385.3L127,454.1l-11.7-5.5l32.8-68.8L159.8,385.3L159.8,385.3z M105.1,400.7
	c9.4-8.8,14.3-17.9,14.8-27.3c0.5-9.5-2.9-18.1-10.2-25.9c-4.5-4.8-9.9-8.3-16-10.2c-6.1-2-12.3-2.1-18.4-0.4s-12.7,5.9-19.9,12.5
	c-8.8,8.2-13.5,17.1-13.9,26.6c-0.5,9.5,2.9,18.1,10.1,25.7c6.5,6.9,14,10.8,22.6,11.7C84.5,414.6,94.9,410.3,105.1,400.7
	L105.1,400.7z M96.1,391c-7.1,6.6-13.9,10-20.3,10.2c-6.5,0.2-11.9-2.1-16.3-6.8c-4.4-4.6-6.2-10.2-5.6-16.6s4.3-12.8,11.2-19.3
	c7.3-6.8,14.2-10.3,20.7-10.5c6.5-0.2,11.9,2,16.3,6.7c4.4,4.7,6.3,10.3,5.7,16.7C107.1,377.8,103.2,384.4,96.1,391z"/>
</svg>
