<?xml version="1.0" encoding="utf-8"?>
<!-- Generator: Adobe Illustrator 21.0.0, SVG Export Plug-In . SVG Version: 6.00 Build 0)  -->
<svg version="1.1" id="Layer_1" xmlns="http://www.w3.org/2000/svg" xmlns:xlink="http://www.w3.org/1999/xlink" x="0px" y="0px"
	 viewBox="0 0 62 80" style="enable-background:new 0 0 62 80;" xml:space="preserve">
<style type="text/css">
	.st0{fill-rule:evenodd;clip-rule:evenodd;fill:#FFFFFF;}
</style>
<path class="st0" d="M22.4,0C13-0.2,0,3,0,16.7v46.5C0,77,13,80.2,22.4,80c-2.3-7.5-4.5-14.9-6.8-22.4c-4.3-1.2-7-5.2-7-10V32.4
	c0-4.7,2.7-8.7,7-10C17.9,14.9,20.2,7.5,22.4,0L22.4,0z M42.9,28.4c2.4,4.1,3.6,8.6,3.6,13.2c0,4.9-1.4,9.7-4.1,14l-3.6-3.7
	c1.8-3.2,2.7-6.7,2.7-10.3c0-3.3-0.8-6.5-2.3-9.5L42.9,28.4L42.9,28.4z M53.6,17.6L50,21.2c4.6,5.8,7,13,7,20.1
	c0,7.5-2.6,15.1-7.8,21.1l3.5,3.6c6.1-7,9.2-15.8,9.2-24.7C62,32.9,59.2,24.5,53.6,17.6L53.6,17.6z M48.3,22.9l-3.6,3.6
	c3,4.5,4.5,9.7,4.5,14.9c0,5.6-1.7,11.1-5.2,15.8l3.6,3.6c4.4-5.7,6.6-12.5,6.6-19.4C54.3,35,52.3,28.4,48.3,22.9L48.3,22.9z
	 M26.8,79.9l2.3-0.7c0.3-0.1,0.5-0.4,0.4-0.8l-6.5-21.5c-0.1-0.3-0.4-0.5-0.8-0.4l-2.3,0.7c-0.3,0.1-0.5,0.4-0.4,0.8L26,79.5
	C26.1,79.8,26.4,80,26.8,79.9L26.8,79.9z M26.8,0.1L29,0.8c0.3,0.1,0.5,0.4,0.4,0.8l-6.5,21.5c-0.1,0.3-0.4,0.5-0.8,0.4l-2.3-0.7
	c-0.3-0.1-0.5-0.4-0.4-0.8L26,0.5C26.1,0.2,26.4,0,26.8,0.1L26.8,0.1z"/>
</svg>
