<svg width="41" height="41" viewBox="0 0 41 41" fill="none" xmlns="http://www.w3.org/2000/svg">
<path fill-rule="evenodd" clip-rule="evenodd" d="M20.4998 0.791016C9.61546 0.791016 0.791504 9.61497 0.791504 20.4993C0.791504 31.3837 9.61546 40.2077 20.4998 40.2077C31.3842 40.2077 40.2082 31.3837 40.2082 20.4993C40.2082 9.61497 31.3842 0.791016 20.4998 0.791016ZM27.1415 16.3911C27.4679 16.0531 27.6485 15.6006 27.6444 15.1308C27.6403 14.661 27.4519 14.2117 27.1197 13.8795C26.7875 13.5473 26.3382 13.3588 25.8684 13.3548C25.3986 13.3507 24.946 13.5313 24.6081 13.8576L20.4998 17.9659L16.3915 13.8576C16.2263 13.6865 16.0286 13.55 15.81 13.4561C15.5914 13.3622 15.3563 13.3128 15.1184 13.3107C14.8805 13.3087 14.6446 13.354 14.4244 13.4441C14.2042 13.5342 14.0041 13.6672 13.8359 13.8354C13.6677 14.0037 13.5347 14.2037 13.4446 14.4239C13.3545 14.6441 13.3092 14.88 13.3112 15.1179C13.3133 15.3558 13.3627 15.5909 13.4566 15.8095C13.5505 16.0281 13.687 16.2258 13.8581 16.3911L17.9664 20.4993L13.8581 24.6076C13.687 24.7729 13.5505 24.9706 13.4566 25.1892C13.3627 25.4078 13.3133 25.6429 13.3112 25.8808C13.3092 26.1187 13.3545 26.3546 13.4446 26.5748C13.5347 26.795 13.6677 26.995 13.8359 27.1633C14.0041 27.3315 14.2042 27.4645 14.4244 27.5546C14.6446 27.6447 14.8805 27.69 15.1184 27.688C15.3563 27.6859 15.5914 27.6365 15.81 27.5426C16.0286 27.4487 16.2263 27.3122 16.3915 27.1411L20.4998 23.0328L24.6081 27.1411C24.946 27.4674 25.3986 27.648 25.8684 27.6439C26.3382 27.6398 26.7875 27.4514 27.1197 27.1192C27.4519 26.787 27.6403 26.3377 27.6444 25.8679C27.6485 25.3981 27.4679 24.9456 27.1415 24.6076L23.0333 20.4993L27.1415 16.3911Z" fill="#2C609C"/>
</svg>
