<svg width="32" height="32" viewBox="0 0 32 32" fill="none" xmlns="http://www.w3.org/2000/svg">
<rect x="0.5" y="0.5" width="31" height="31" rx="3.5" stroke="white"/>
<g clip-path="url(#clip0_349_815)">
<path d="M11.2713 16.652H13.4636V25.6774C13.4636 25.763 13.4976 25.845 13.5581 25.9055C13.6186 25.966 13.7007 26 13.7862 26H17.5034C17.5889 26 17.671 25.966 17.7315 25.9055C17.792 25.845 17.826 25.763 17.826 25.6774V16.6945H20.3462C20.4254 16.6945 20.5018 16.6654 20.5609 16.6127C20.62 16.56 20.6576 16.4874 20.6667 16.4088L21.0494 13.0861C21.0546 13.0409 21.0502 12.9951 21.0365 12.9518C21.0228 12.9085 21 12.8685 20.9698 12.8345C20.9395 12.8006 20.9025 12.7734 20.861 12.7548C20.8195 12.7362 20.7745 12.7266 20.7291 12.7266H17.8261V10.6438C17.8261 10.0159 18.1641 9.6975 18.831 9.6975H20.7291C20.8146 9.6975 20.8967 9.66351 20.9571 9.60302C21.0176 9.54252 21.0516 9.46047 21.0516 9.37492V6.32498C21.0516 6.23943 21.0176 6.15738 20.9571 6.09688C20.8967 6.03639 20.8146 6.0024 20.7291 6.0024H18.1132C18.0733 6.00067 18.0334 5.99988 17.9934 6.00002C17.5396 6.00002 15.962 6.08911 14.7158 7.23556C13.335 8.50602 13.5269 10.0272 13.5728 10.2909V12.7265H11.2713C11.1858 12.7265 11.1037 12.7605 11.0432 12.821C10.9827 12.8815 10.9487 12.9636 10.9487 13.0491V16.3294C10.9487 16.3717 10.9571 16.4137 10.9733 16.4528C10.9895 16.492 11.0132 16.5275 11.0432 16.5575C11.0731 16.5875 11.1087 16.6112 11.1478 16.6275C11.187 16.6437 11.2289 16.652 11.2713 16.652Z" fill="white"/>
</g>
<defs>
<clipPath id="clip0_349_815">
<rect width="20" height="20" fill="white" transform="translate(6 6)"/>
</clipPath>
</defs>
</svg>
