<svg width="32" height="32" viewBox="0 0 32 32" fill="none" xmlns="http://www.w3.org/2000/svg">
<g clip-path="url(#clip0_349_820)">
<path d="M21.8136 9.70068C21.5459 9.70068 21.328 9.91854 21.328 10.1862C21.328 10.4539 21.5459 10.6718 21.8136 10.6718C22.0813 10.6718 22.2991 10.454 22.2991 10.1862C22.2991 9.9185 22.0813 9.70068 21.8136 9.70068ZM15.9998 11.6954C13.6263 11.6954 11.6953 13.6264 11.6953 15.9999C11.6953 18.3735 13.6263 20.3045 15.9998 20.3045C18.3734 20.3045 20.3044 18.3735 20.3044 16C20.3044 13.6265 18.3734 11.6954 15.9998 11.6954Z" fill="white"/>
<path d="M20.5173 6H11.4827C8.45953 6 6 8.45953 6 11.4827V20.5173C6 23.5405 8.45953 26 11.4827 26H20.5173C23.5405 26 26 23.5405 26 20.5173V11.4827C26 8.45953 23.5405 6 20.5173 6ZM16 21.4856C12.9752 21.4856 10.5144 19.0248 10.5144 16C10.5144 12.9752 12.9752 10.5145 16 10.5145C19.0248 10.5145 21.4856 12.9752 21.4856 16C21.4856 19.0248 19.0248 21.4856 16 21.4856ZM21.8137 11.853C20.8947 11.853 20.1471 11.1053 20.1471 10.1863C20.1471 9.26734 20.8947 8.51965 21.8137 8.51965C22.7327 8.51965 23.4804 9.2673 23.4804 10.1863C23.4804 11.1053 22.7327 11.853 21.8137 11.853Z" fill="white"/>
</g>
<rect x="0.5" y="0.5" width="31" height="31" rx="3.5" stroke="white"/>
<defs>
<clipPath id="clip0_349_820">
<rect width="20" height="20" fill="white" transform="translate(6 6)"/>
</clipPath>
</defs>
</svg>
