<svg width="32" height="32" viewBox="0 0 32 32" fill="none" xmlns="http://www.w3.org/2000/svg">
<mask id="mask0_349_826" style="mask-type:luminance" maskUnits="userSpaceOnUse" x="9" y="9" width="14" height="14">
<path d="M23 9H9V23H23V9Z" fill="white"/>
</mask>
<g mask="url(#mask0_349_826)">
<path fill-rule="evenodd" clip-rule="evenodd" d="M9.54346 22.6615H12.4463V13.0024H9.54346V22.6615Z" fill="white"/>
<path fill-rule="evenodd" clip-rule="evenodd" d="M23.0885 17.2844V22.6616H20.2466V17.5831C20.2466 16.2886 19.7883 15.4919 18.78 15.4919C18.1273 15.485 17.5406 15.9231 17.3133 16.5873C17.2317 16.8422 17.2005 17.1141 17.2216 17.3839V22.6616H14.3799V13.3012H17.2216V14.5957C17.7551 13.6059 18.7332 12.9995 19.7883 13.0025C21.6217 13.0025 23.0885 14.3966 23.0885 17.2844Z" fill="white"/>
<path fill-rule="evenodd" clip-rule="evenodd" d="M11.0359 9.14432C10.2905 9.06232 9.62554 9.65341 9.55009 10.4626C9.54595 10.504 9.54429 10.5446 9.54346 10.586C9.54429 11.3852 10.1412 12.0313 10.8758 12.0295C10.9015 12.0295 10.9273 12.0295 10.953 12.0277C11.6983 12.1088 12.3633 11.5195 12.4387 10.7094C12.442 10.668 12.4445 10.6275 12.4454 10.586C12.4719 9.8147 11.918 9.16774 11.2092 9.13801C11.1511 9.13621 11.0931 9.13801 11.0359 9.14432Z" fill="white"/>
</g>
<rect x="0.5" y="0.5" width="31" height="31" rx="3.5" stroke="white"/>
</svg>
