<svg width="64" height="64" viewBox="0 0 64 64" fill="none" xmlns="http://www.w3.org/2000/svg">
<g clip-path="url(#clip0_101_211)">
<path d="M31.9984 63.9969C25.6697 63.9969 19.4832 62.1202 14.2211 58.6042C8.95895 55.0881 4.85763 50.0907 2.43575 44.2437C0.0138641 38.3968 -0.619811 31.9629 0.614855 25.7559C1.84952 19.5488 4.89708 13.8472 9.37214 9.37214C13.8472 4.89708 19.5488 1.84952 25.7559 0.614854C31.9629 -0.619812 38.3968 0.0138676 44.2437 2.43575C50.0907 4.85764 55.0881 8.95895 58.6042 14.2211C62.1202 19.4832 63.9969 25.6697 63.9969 31.9984C63.9877 40.4821 60.6135 48.6157 54.6146 54.6146C48.6157 60.6135 40.4821 63.9877 31.9984 63.9969ZM31.9984 0.599294C25.7889 0.599294 19.7188 2.44064 14.5558 5.89047C9.39272 9.34031 5.36861 14.2437 2.99233 19.9806C0.616038 25.7174 -0.00570736 32.0301 1.20571 38.1203C2.41713 44.2106 5.40731 49.8048 9.79812 54.1956C14.1889 58.5864 19.7832 61.5766 25.8734 62.788C31.9636 63.9994 38.2763 63.3777 44.0132 61.0014C49.75 58.6251 54.6534 54.601 58.1032 49.438C61.5531 44.2749 63.3944 38.2048 63.3944 31.9953C63.3844 23.6719 60.0733 15.6924 54.1875 9.80715C48.3017 3.92193 40.3218 0.611633 31.9984 0.602451V0.599294Z" fill="#010101"/>
<path d="M31.9984 52.4275C27.2611 52.4275 22.6302 51.0228 18.6913 48.3909C14.7523 45.7589 11.6823 42.0181 9.86941 37.6414C8.05652 33.2647 7.58219 28.4487 8.50639 23.8024C9.43059 19.1561 11.7118 14.8882 15.0616 11.5384C18.4114 8.18863 22.6793 5.9074 27.3256 4.9832C31.9719 4.05899 36.7879 4.53333 41.1646 6.34622C45.5413 8.15911 49.2821 11.2291 51.9141 15.1681C54.546 19.107 55.9507 23.7379 55.9507 28.4753C55.9457 34.8263 53.4206 40.9157 48.9297 45.4065C44.4389 49.8974 38.3495 52.4225 31.9984 52.4275ZM31.9984 5.11593C27.3822 5.11593 22.8695 6.48482 19.0312 9.0495C15.1929 11.6142 12.2013 15.2594 10.4347 19.5243C8.66815 23.7892 8.20594 28.4822 9.10653 33.0098C10.0071 37.5374 12.2301 41.6963 15.4943 44.9605C18.7585 48.2247 22.9174 50.4477 27.445 51.3482C31.9726 52.2488 36.6655 51.7866 40.9304 50.02C45.1953 48.2535 48.8406 45.2619 51.4053 41.4236C53.97 37.5853 55.3388 33.0726 55.3388 28.4563C55.3272 22.2705 52.864 16.3416 48.4891 11.9684C44.1142 7.59528 38.1843 5.13457 31.9984 5.12539V5.11593Z" fill="#931E28"/>
<path d="M31.9985 50.8916C44.3787 50.8916 54.4148 40.8555 54.4148 28.4753C54.4148 16.0952 44.3787 6.05908 31.9985 6.05908C19.6184 6.05908 9.58228 16.0952 9.58228 28.4753C9.58228 40.8555 19.6184 50.8916 31.9985 50.8916Z" fill="#BF2126"/>
<path d="M5.89826 42.1579L4.0815 42.6531L3.99949 42.3376L4.22028 41.8267C4.00434 41.6832 3.82066 41.4963 3.68093 41.2779C3.52294 41.0376 3.40472 40.7735 3.33082 40.4956C3.21194 40.086 3.18501 39.6552 3.25197 39.234C3.3261 38.8113 3.48488 38.4079 3.71878 38.0481C3.94073 37.6839 4.22718 37.3633 4.56408 37.1018C4.89428 36.8488 5.27177 36.6643 5.67432 36.5593C6.06997 36.4478 6.48394 36.4168 6.89181 36.4679C7.31852 36.5266 7.73103 36.6624 8.1093 36.8684C8.49093 37.0619 8.82986 37.3301 9.10599 37.6569C9.37198 37.9832 9.56454 38.363 9.67058 38.7703C9.81153 39.2735 9.79279 39.808 9.61696 40.3001L10.0238 40.5493L10.109 40.8647L8.44678 41.3599L8.35532 41.0287C8.75081 40.764 9.07564 40.4067 9.30155 39.9878C9.4639 39.624 9.48746 39.2134 9.36778 38.8334C9.33778 38.6385 9.25399 38.4558 9.12583 38.3059C8.99767 38.156 8.83023 38.0449 8.64234 37.985C8.28908 37.8998 7.4974 38.0228 6.2673 38.3603C5.63648 38.5369 5.13497 38.6757 4.81956 38.7798C4.58693 38.8486 4.36101 38.9383 4.14458 39.0479C3.90306 39.1671 3.70945 39.3652 3.59577 39.6093C3.50943 39.8683 3.50943 40.1483 3.59577 40.4073C3.71414 40.8457 3.99793 41.2211 4.38745 41.4545C4.80228 41.7179 5.29181 41.8386 5.78156 41.7983L5.89826 42.1579Z" fill="#010101"/>
<path d="M9.55062 46.6871C9.86507 46.4145 10.2322 46.2094 10.6293 46.0847C11.4757 45.8284 12.387 45.8947 13.1873 46.2708C13.573 46.4622 13.9154 46.7306 14.1935 47.0593C14.4764 47.3831 14.6909 47.7608 14.8243 48.1696C14.9535 48.5942 15.0016 49.0393 14.9662 49.4817C14.9409 49.9182 14.834 50.3462 14.6508 50.7433C14.4712 51.1187 14.2156 51.4528 13.9001 51.7242C13.5822 52.0002 13.2106 52.2074 12.8088 52.333C12.3926 52.4606 11.956 52.5088 11.5219 52.4749C11.085 52.4523 10.6565 52.3451 10.2603 52.1595C9.48572 51.7565 8.89446 51.0728 8.60754 50.2481C8.47746 49.8269 8.42823 49.385 8.46245 48.9455C8.49094 48.5076 8.60337 48.0793 8.79363 47.6838C8.97619 47.304 9.23368 46.9649 9.55062 46.6871ZM10.8123 48.1412C10.2046 48.6669 9.79454 49.039 9.58216 49.2577C9.41402 49.4176 9.27336 49.6041 9.16582 49.8097C9.06417 50.0125 9.03309 50.2433 9.0775 50.4657C9.15322 50.7201 9.28712 50.9534 9.46861 51.147C9.6366 51.3583 9.85297 51.526 10.0994 51.6359C10.3139 51.7104 10.5473 51.7104 10.7618 51.6359C10.9886 51.5491 11.2012 51.429 11.3926 51.2795C11.6513 51.0934 12.0708 50.7496 12.6543 50.2544C13.2378 49.7592 13.6226 49.3997 13.8465 49.1694C14.0253 48.9978 14.1755 48.7987 14.2912 48.5796C14.3938 48.3782 14.4238 48.1477 14.3764 47.9267C14.2076 47.4187 13.8448 46.9981 13.3671 46.7565C13.1528 46.6805 12.919 46.6805 12.7047 46.7565C12.4871 46.8281 12.2826 46.9347 12.0991 47.0719C11.8373 47.2643 11.421 47.6176 10.806 48.1412H10.8123Z" fill="#010101"/>
<path d="M16.783 57.7108L16.9028 57.4237L17.3381 57.6067C17.3871 57.6311 17.4411 57.6438 17.4958 57.6438C17.5505 57.6438 17.6045 57.6311 17.6535 57.6067C17.7591 57.5426 17.8385 57.4431 17.8774 57.326L19.8898 52.5191L19.0981 52.1879L19.2085 51.923L21.7665 52.9922L21.4132 56.7771L23.9144 53.9006L26.3399 54.9131L26.2295 55.1812L25.4631 54.8658L23.2741 60.0984L24.0153 60.4138L23.8955 60.7009L20.8833 59.4203L21.0032 59.1333L21.8043 59.4676L23.9617 54.3075H23.9459L19.9371 59.0229L19.6217 58.8935L20.202 52.6705L18.2086 57.4332C18.1426 57.5523 18.1234 57.6918 18.155 57.8243C18.1838 57.8824 18.2245 57.9338 18.2745 57.9752C18.3245 58.0165 18.3827 58.0468 18.4452 58.064L18.8363 58.228L18.7164 58.5151L16.783 57.7108Z" fill="#010101"/>
<path d="M30.0713 61.3127L30.8536 61.2843L30.6643 55.607L29.8853 55.6322V55.3452L33.2065 55.2348C33.8984 55.1637 34.597 55.2724 35.2346 55.5502C35.4502 55.663 35.6301 55.8338 35.7538 56.0433C35.8775 56.2529 35.9402 56.4928 35.9348 56.7361C35.9569 56.99 35.9099 57.245 35.7989 57.4743C35.6878 57.7037 35.5168 57.8987 35.304 58.0388C34.8561 58.3374 34.178 58.5024 33.2696 58.534L32.4022 58.5624L32.4905 61.2118L33.4021 61.1834V61.4988L30.0903 61.6092L30.0713 61.3127ZM32.2792 55.5628L32.3707 58.3321L33.2728 58.3006C33.4026 58.3141 33.5338 58.2988 33.657 58.2557C33.7803 58.2126 33.8925 58.1429 33.9856 58.0514C34.0991 57.8968 34.1433 57.49 34.1212 56.8339C34.1023 56.2409 34.0329 55.8719 33.9099 55.73C33.8031 55.6431 33.6786 55.5806 33.5451 55.5468C33.4117 55.5131 33.2724 55.5088 33.1371 55.5344L32.2792 55.5628Z" fill="#010101"/>
<path d="M40.9026 60.3664L40.7795 60.0794L41.1423 59.9249C41.1881 59.9073 41.2299 59.8807 41.2651 59.8465C41.3004 59.8124 41.3283 59.7714 41.3473 59.7261C41.391 59.5865 41.4081 59.44 41.3977 59.294L41.218 53.2697L41.5712 53.1183L46.1857 57.7643L46.7093 57.5404L46.8323 57.8274L43.9715 59.0512L43.8485 58.7673L44.5676 58.4519L43.4731 57.3259L41.6753 58.0955L41.7068 59.2467C41.7017 59.2759 41.7017 59.3058 41.7068 59.335C41.7068 59.3729 41.7352 59.417 41.7573 59.4675C41.7674 59.4908 41.7835 59.5111 41.804 59.526C41.8245 59.541 41.8487 59.5502 41.874 59.5527C41.9471 59.5568 42.02 59.5416 42.0853 59.5085L42.6121 59.2846L42.7351 59.5716L40.9026 60.3664ZM41.6532 57.7801L43.2524 57.0925L41.6059 55.405L41.6532 57.7801Z" fill="#010101"/>
<path d="M51.737 54.4052L51.5099 54.1939L51.8473 53.828C51.8841 53.7967 51.9141 53.7581 51.9352 53.7147C51.9564 53.6713 51.9684 53.6239 51.9704 53.5757C51.9403 53.4662 51.8749 53.3697 51.7843 53.3013L48.1633 49.9579C48.1323 49.9208 48.0938 49.8907 48.0503 49.8695C48.0068 49.8483 47.9594 49.8365 47.911 49.8349C47.7997 49.8765 47.7024 49.9486 47.6303 50.0431L47.3622 50.3333L47.1509 50.1377L48.9203 48.2452L53.4086 48.6963L51.3143 46.7533C51.2269 46.6527 51.1079 46.5849 50.9768 46.5609C50.8505 46.5983 50.7397 46.6758 50.6614 46.7817L50.3807 47.0971L50.1694 46.9016L51.5666 45.3939L51.778 45.5895L51.5225 45.867C51.4768 45.9067 51.4393 45.9549 51.4122 46.0091C51.3852 46.0632 51.369 46.1221 51.3648 46.1824C51.3952 46.3095 51.4702 46.4214 51.5761 46.4979L55.7301 50.349L55.5471 50.5414L48.5513 49.7876L52.1028 53.0805C52.1344 53.1156 52.1735 53.1432 52.2171 53.1612C52.2608 53.1792 52.308 53.1872 52.3552 53.1846C52.4528 53.1716 52.5419 53.122 52.6043 53.0458L52.9954 52.6231L53.2225 52.8345L51.737 54.4052Z" fill="#010101"/>
<path d="M59.7704 42.7854L59.4771 42.6908L59.72 41.937L57.1778 41.1264L53.7429 41.9874L53.5505 42.5899L53.2761 42.5015L54.2728 39.4263L54.5441 39.5146L54.3012 40.2653L57.2124 39.5556L55.6354 37.8808C55.5597 37.8019 55.4998 37.7452 55.4619 37.7105C55.4315 37.6815 55.3963 37.6581 55.3578 37.6411C55.331 37.6314 55.3019 37.6295 55.274 37.6356C55.2461 37.6418 55.2205 37.6557 55.2001 37.6758C55.143 37.7386 55.1018 37.8144 55.0803 37.8965L54.91 38.4264L54.6355 38.3381L55.2664 36.3636L55.5408 36.452L55.4588 36.7043C55.4085 36.845 55.4085 36.9988 55.4588 37.1396C55.5597 37.3441 55.6964 37.5289 55.8625 37.6852L57.5846 39.5083L60.2436 40.3694L60.4864 39.6187L60.7829 39.7133L59.7704 42.7854Z" fill="#010101"/>
<path d="M32.1499 39.2119H20.5301C18.0069 39.2119 16.0093 38.6862 14.5373 37.6348C13.8382 37.1678 13.2689 36.531 12.8828 35.7841C12.4966 35.0373 12.3063 34.2046 12.3295 33.3642C12.3011 32.6595 12.4441 31.9584 12.7462 31.3211C13.0484 30.6838 13.5006 30.1294 14.0642 29.7054C15.2249 28.8201 16.9523 28.2818 19.2464 28.0905V27.8192C17.2383 27.5312 15.7233 26.9865 14.7014 26.1854C14.2154 25.8229 13.8231 25.3495 13.557 24.8047C13.2909 24.26 13.1588 23.6595 13.1716 23.0534C13.153 22.3259 13.3195 21.6057 13.6555 20.9602C13.9915 20.3147 14.4859 19.7651 15.0925 19.3631C16.373 18.4547 18.1183 18.0005 20.3283 18.0005H32.172V18.972H29.8915V38.1615H32.172L32.1499 39.2119ZM24.58 18.9688H22.7443C20.9507 18.9688 19.8383 19.1917 19.4073 19.6375C18.9762 20.0833 18.7659 21.2892 18.7765 23.2552C18.7765 25.0636 19.0214 26.2327 19.5114 26.7626C20.0013 27.2925 21.0211 27.5585 22.5709 27.5606H24.5958L24.58 18.9688ZM24.58 28.469H22.1892C20.5848 28.469 19.5166 28.7844 18.9846 29.4152C18.4526 30.046 18.1866 31.3371 18.1866 33.2884C18.1866 35.3702 18.4095 36.7012 18.8553 37.2815C19.3032 37.8619 20.2652 38.1489 21.7413 38.1489H24.58V28.469Z" fill="#010101"/>
<path d="M29.6328 38.1584H32.2129V18.9688H29.6328V17.9973H40.5019C41.8434 17.9728 43.1824 18.1223 44.4855 18.4421C45.5762 18.7333 46.6031 19.2254 47.5134 19.893C48.838 20.848 49.8948 22.1274 50.5824 23.6085C51.3153 25.1755 51.6934 26.885 51.6896 28.615C51.6858 30.3449 51.3002 32.0527 50.5603 33.6165C49.8442 35.1174 48.759 36.4121 47.4062 37.3793C46.485 38.0235 45.4533 38.4928 44.3625 38.764C43.0536 39.0817 41.7098 39.2322 40.3631 39.2119H29.6328V38.1584ZM37.5528 38.1584H40.2622C41.158 38.1971 42.0546 38.1058 42.9242 37.8872C43.4694 37.7143 43.9519 37.3853 44.312 36.9409C44.8437 36.2291 45.1914 35.397 45.3245 34.5186C45.5561 32.9728 45.6543 31.4099 45.6178 29.8473V28.3491C45.6478 26.674 45.5814 24.9985 45.4191 23.3309C45.3349 22.4903 45.1055 21.6707 44.741 20.9086C44.4221 20.2589 43.8992 19.7316 43.2522 19.4072C42.6403 19.1234 41.6437 18.9783 40.2622 18.9783H37.5528V38.1584Z" fill="#010101"/>
</g>
<defs>
<clipPath id="clip0_101_211">
<rect width="64" height="64" fill="white"/>
</clipPath>
</defs>
</svg>
