<svg width="64" height="64" viewBox="0 0 64 64" fill="none" xmlns="http://www.w3.org/2000/svg">
<path d="M32 64C25.671 64 19.4841 62.1232 14.2218 58.607C8.95939 55.0908 4.85788 50.0931 2.43588 44.2459C0.0138755 38.3986 -0.619845 31.9645 0.614882 25.7571C1.84961 19.5497 4.89732 13.8479 9.3726 9.3726C13.8479 4.89732 19.5497 1.84961 25.7571 0.614884C31.9645 -0.619843 38.3986 0.0138683 44.2459 2.43587C50.0931 4.85788 55.0908 8.95939 58.607 14.2218C62.1232 19.4841 64 25.671 64 32C63.9908 40.4841 60.6165 48.6181 54.6173 54.6173C48.6181 60.6164 40.4841 63.9908 32 64ZM32 0.599324C25.7902 0.599324 19.7198 2.44076 14.5565 5.89076C9.39318 9.34076 5.36888 14.2444 2.99248 19.9815C0.616072 25.7187 -0.00569448 32.0317 1.20579 38.1222C2.41727 44.2127 5.40759 49.8072 9.79861 54.1982C14.1896 58.5893 19.7841 61.5796 25.8747 62.7911C31.9652 64.0026 38.2782 63.3808 44.0153 61.0044C49.7525 58.628 54.6561 54.6037 58.1061 49.4404C61.5561 44.2771 63.3975 38.2067 63.3975 31.9968C63.3875 23.6731 60.0763 15.6931 54.1902 9.80763C48.3041 3.92212 40.3238 0.611663 32 0.602481V0.599324Z" fill="#231F20"/>
<path d="M31.9999 52.4302C27.2623 52.4302 22.6312 51.0253 18.692 48.3933C14.7529 45.7612 11.6827 42.0202 9.86976 37.6433C8.05678 33.2664 7.5824 28.4501 8.50665 23.8036C9.4309 19.1571 11.7122 14.889 15.0622 11.539C18.4122 8.18909 22.6803 5.90774 27.3268 4.98349C31.9733 4.05924 36.7895 4.5336 41.1665 6.34658C45.5434 8.15957 49.2844 11.2297 51.9165 15.1689C54.5485 19.108 55.9533 23.7392 55.9533 28.4767C55.9483 34.828 53.4231 40.9178 48.932 45.4088C44.4409 49.8999 38.3512 52.4252 31.9999 52.4302ZM31.9999 5.11624C27.3833 5.11624 22.8705 6.4852 19.032 9.05C15.1935 11.6148 12.2018 15.2602 10.4351 19.5254C8.66843 23.7905 8.2062 28.4837 9.10684 33.0115C10.0075 37.5393 12.2305 41.6984 15.4949 44.9627C18.7593 48.2271 22.9183 50.4502 27.4462 51.3508C31.974 52.2515 36.6672 51.7892 40.9323 50.0225C45.1974 48.2559 48.8428 45.2641 51.4076 41.4256C53.9724 37.5871 55.3414 33.0743 55.3414 28.4578C55.3297 22.2717 52.8665 16.3424 48.4914 11.9691C44.1162 7.59571 38.186 5.13487 31.9999 5.1257V5.11624Z" fill="#2B5DAB"/>
<path d="M31.9999 50.8941C44.3806 50.8941 54.4172 40.8575 54.4172 28.4767C54.4172 16.096 44.3806 6.05939 31.9999 6.05939C19.6191 6.05939 9.58252 16.096 9.58252 28.4767C9.58252 40.8575 19.6191 50.8941 31.9999 50.8941Z" fill="#3669B3"/>
<path d="M13.8378 54.2975L14.4687 54.7202L17.6009 49.9888L16.97 49.5693L17.1277 49.3296L19.8372 51.1212C20.4279 51.4593 20.9196 51.9466 21.2629 52.5343C21.3685 52.752 21.4122 52.9944 21.3894 53.2353C21.3666 53.4761 21.2781 53.7061 21.1336 53.9001C21.0052 54.1188 20.8203 54.2989 20.5983 54.4216C20.3764 54.5443 20.1254 54.6049 19.8719 54.5972C19.3452 54.5972 18.708 54.3417 17.9794 53.8496L17.2602 53.3796L15.7966 55.5876L16.541 56.0765L16.3675 56.3352L13.6675 54.5499L13.8378 54.2975ZM18.9225 50.8594L17.3958 53.1714L18.1308 53.6572C18.227 53.7418 18.3411 53.8036 18.4645 53.838C18.5879 53.8724 18.7175 53.8786 18.8436 53.8559C19.0203 53.796 19.2915 53.49 19.6543 52.9412C19.9697 52.446 20.1369 52.1053 20.1243 51.9192C20.1116 51.7331 19.9445 51.5344 19.6227 51.3231L18.9225 50.8594Z" fill="#010101"/>
<path d="M24.25 59.9909L24.3068 59.6755L24.9376 59.7954L25.9659 54.2155L25.3351 54.0988L25.3887 53.8149L28.4641 54.3827L28.4136 54.6634L27.5557 54.5057L26.5274 60.0856L27.4327 60.2527C27.8611 60.3574 28.3133 60.2918 28.6944 60.0698C29.1075 59.753 29.4269 59.33 29.6186 58.8459L29.9151 58.8996L29.4672 60.9435L24.25 59.9909Z" fill="#010101"/>
<path d="M35.3875 59.1266L34.4886 54.9346L33.7694 55.0892L33.7095 54.8085L36.7786 54.1492L36.8385 54.43L36.0373 54.6034L36.93 58.7639C36.9809 59.1726 37.1727 59.5508 37.4725 59.8332C37.6216 59.9339 37.7913 60 37.9692 60.0268C38.1471 60.0535 38.3287 60.0402 38.5008 59.9878C38.7138 59.9444 38.9184 59.8667 39.1064 59.7575C39.2758 59.6567 39.422 59.5212 39.5354 59.3601C39.6581 59.1896 39.7322 58.989 39.7499 58.7797C39.7573 58.4169 39.7138 58.0548 39.6206 57.7041L39.6016 57.6126L38.9329 54.4867C38.9177 54.3459 38.8606 54.213 38.7689 54.1051C38.6393 54.0591 38.4979 54.0591 38.3683 54.1051L38.0529 54.1713L37.9929 53.8906L39.9391 53.4742L39.9991 53.7549L39.6836 53.818C39.5303 53.8326 39.3867 53.8994 39.2767 54.0073C39.2185 54.1388 39.2117 54.2874 39.2578 54.4236L39.9707 57.6284C40.0527 57.9592 40.1023 58.2973 40.1189 58.6377C40.1212 58.8352 40.0814 59.0309 40.0022 59.2118C39.871 59.5174 39.6512 59.7766 39.3714 59.9562C39.015 60.178 38.6202 60.331 38.2074 60.4073C37.5778 60.5878 36.907 60.5624 36.2928 60.3347C36.0544 60.223 35.8472 60.0544 35.6893 59.8437C35.5315 59.6331 35.4278 59.3868 35.3875 59.1266Z" fill="#010101"/>
<path d="M46.8565 57.007L45.7966 55.4961L46.1121 55.2848C46.475 55.5968 46.9191 55.7992 47.3927 55.8683C47.8153 55.9073 48.2374 55.7894 48.5787 55.5371C48.8821 55.3329 49.1051 55.0296 49.2096 54.6792C49.2577 54.5251 49.2693 54.362 49.2436 54.2027C49.2179 54.0434 49.1555 53.8923 49.0613 53.7613C48.9766 53.6299 48.8606 53.5215 48.7238 53.4458C48.5797 53.3838 48.423 53.3568 48.2664 53.367C47.9 53.4169 47.5436 53.5233 47.2098 53.6824L46.7934 53.8496C46.3365 54.0571 45.83 54.1304 45.333 54.0609C44.9063 53.9544 44.5376 53.6864 44.3047 53.3134C44.1454 53.1045 44.0304 52.8652 43.967 52.6102C43.9035 52.3553 43.8929 52.0901 43.9356 51.8309C43.9872 51.5732 44.0904 51.3285 44.2389 51.1117C44.3874 50.8949 44.5782 50.7103 44.7999 50.5692C44.9863 50.4329 45.1927 50.3265 45.4118 50.2537C45.6255 50.1894 45.8479 50.1586 46.0711 50.1623L46.1909 49.7396L46.4401 49.5661L47.4211 50.9004L47.1624 51.0833C46.8484 50.7859 46.4512 50.5911 46.0238 50.525C45.634 50.4805 45.242 50.5878 44.9292 50.8246C44.666 50.994 44.4664 51.2458 44.3615 51.5407C44.3168 51.6614 44.3024 51.7912 44.3194 51.9187C44.3365 52.0463 44.3845 52.1677 44.4592 52.2725C44.6863 52.5879 45.1942 52.5879 45.9891 52.2725L46.2319 52.1715C46.7887 51.9 47.4107 51.7907 48.0267 51.8561C48.5295 51.9869 48.9616 52.3081 49.2316 52.7519C49.4063 52.9846 49.5328 53.2498 49.6037 53.532C49.6747 53.8142 49.6886 54.1076 49.6448 54.3953C49.6026 54.6758 49.5018 54.9443 49.3491 55.1834C49.1964 55.4225 48.9952 55.6268 48.7585 55.7831C48.535 55.9471 48.2884 56.0768 48.0267 56.168C47.7894 56.2439 47.5409 56.2791 47.2918 56.2721L47.1498 56.8241L46.8565 57.007Z" fill="#010101"/>
<path d="M32.1514 39.2138H20.5311C18.0077 39.2138 16.01 38.6881 14.538 37.6367C13.839 37.1694 13.2699 36.5326 12.8838 35.7857C12.4976 35.0388 12.3071 34.2063 12.33 33.3658C12.3023 32.6608 12.4459 31.9596 12.7486 31.3224C13.0513 30.6851 13.5041 30.1307 14.068 29.7068C15.2267 28.8216 16.9531 28.2832 19.2473 28.0919V27.8206C17.2412 27.5325 15.7272 26.9879 14.7052 26.1867C14.2192 25.8241 13.8269 25.3508 13.5608 24.806C13.2947 24.2612 13.1625 23.6607 13.1754 23.0545C13.1568 22.327 13.3233 21.6067 13.6593 20.9612C13.9953 20.3157 14.4898 19.7661 15.0963 19.364C16.377 18.4556 18.1223 18.0014 20.3324 18.0014H32.1767V18.9729H29.8772V38.1634H32.1577L32.1514 39.2138ZM24.5812 18.9697H22.7486C20.9549 18.9697 19.8424 19.1926 19.4114 19.6384C18.9803 20.0842 18.77 21.2902 18.7805 23.2564C18.7805 25.0648 19.0244 26.234 19.5123 26.7639C20.0002 27.2938 21.0211 27.5598 22.5751 27.5619H24.597L24.5812 18.9697ZM24.5812 28.4704H22.1903C20.5879 28.4704 19.5207 28.7858 18.9887 29.4167C18.4567 30.0475 18.1907 31.3386 18.1907 33.2901C18.1907 35.3719 18.4136 36.703 18.8594 37.2834C19.3073 37.8638 20.2693 38.1508 21.7455 38.1508H24.5843L24.5812 28.4704Z" fill="#010101"/>
<path d="M29.6311 38.1603H32.2144V18.9698H29.6311V17.9982H40.5039C41.8454 17.9737 43.1845 18.1232 44.4877 18.443C45.5779 18.7357 46.6046 19.2276 47.5158 19.894C48.8404 20.849 49.8973 22.1285 50.5849 23.6097C51.3179 25.1768 51.6959 26.8863 51.6921 28.6164C51.6883 30.3464 51.3027 32.0543 50.5628 33.6182C49.8456 35.1185 48.7605 36.413 47.4085 37.3812C46.4867 38.0243 45.4551 38.4935 44.3647 38.7659C43.0547 39.0838 41.7097 39.2343 40.3619 39.2138H29.6311V38.1603ZM37.5546 38.1603H40.2641C41.16 38.1988 42.0567 38.1074 42.9263 37.889C43.4706 37.7159 43.952 37.3869 44.3111 36.9427C44.851 36.2287 45.2025 35.3902 45.333 34.5045C45.5677 32.959 45.6669 31.3959 45.6295 29.833V28.3348C45.6595 26.6595 45.5931 24.984 45.4308 23.3163C45.3466 22.4757 45.1171 21.656 44.7526 20.8939C44.4337 20.2442 43.9108 19.7168 43.2638 19.3924C42.6519 19.1085 41.6552 18.9634 40.2736 18.9634H37.5641L37.5546 38.1603Z" fill="#010101"/>
</svg>
