<svg width="64" height="64" viewBox="0 0 64 64" fill="none" xmlns="http://www.w3.org/2000/svg">
<path d="M31.9905 64C25.6619 63.9981 19.476 62.1198 14.2149 58.6024C8.95376 55.0851 4.85371 50.0867 2.43316 44.2393C0.012604 38.3919 -0.619757 31.9581 0.616038 25.7513C1.85183 19.5445 4.90029 13.8436 9.37594 9.36925C13.8516 4.89492 19.5535 1.84815 25.7606 0.614193C31.9677 -0.619767 38.4014 0.0144926 44.2481 2.43677C50.0947 4.85906 55.0919 8.96058 58.6077 14.2227C62.1235 19.4849 64 25.6714 64 32C63.9908 40.4857 60.6151 48.6212 54.6139 54.6206C48.6127 60.6201 40.4763 63.9933 31.9905 64ZM31.9905 0.599321C25.7808 0.599945 19.7108 2.44191 14.5479 5.89229C9.38499 9.34268 5.36118 14.2465 2.98526 19.9837C0.609337 25.7209 -0.0119883 32.0338 1.19985 38.1241C2.41168 44.2145 5.40226 49.8087 9.79341 54.1994C14.1846 58.5901 19.7791 61.5801 25.8695 62.7913C31.9599 64.0025 38.2728 63.3806 44.0097 61.0041C49.7467 58.6276 54.6501 54.6033 58.1 49.4401C61.5499 44.2768 63.3912 38.2066 63.3912 31.9968C63.3804 23.6728 60.0684 15.6928 54.1818 9.80743C48.2952 3.92201 40.3146 0.611659 31.9905 0.602478V0.599321Z" fill="#231F20"/>
<path d="M31.9906 52.4301C27.253 52.4301 22.6219 51.0253 18.6828 48.3933C14.7436 45.7612 11.6735 42.0202 9.86047 37.6433C8.04749 33.2663 7.57313 28.4501 8.49738 23.8036C9.42163 19.1571 11.703 14.889 15.0529 11.539C18.4029 8.18906 22.671 5.90771 27.3175 4.98346C31.964 4.05921 36.7803 4.53357 41.1572 6.34655C45.5341 8.15954 49.2751 11.2297 51.9072 15.1688C54.5392 19.108 55.9441 23.7391 55.9441 28.4767C55.939 34.828 53.4138 40.9177 48.9227 45.4088C44.4317 49.8999 38.3419 52.4251 31.9906 52.4301ZM31.9906 5.11621C27.3741 5.11621 22.8612 6.48516 19.0227 9.04997C15.1842 11.6148 12.1925 15.2602 10.4258 19.5253C8.65916 23.7904 8.19691 28.4836 9.09755 33.0115C9.99819 37.5393 12.2213 41.6983 15.4856 44.9627C18.75 48.2271 22.9091 50.4501 27.4369 51.3508C31.9647 52.2514 36.6579 51.7892 40.923 50.0225C45.1881 48.2559 48.8336 45.2641 51.3984 41.4256C53.9632 37.5871 55.3321 33.0743 55.3321 28.4577C55.3204 22.2716 52.8572 16.3424 48.4821 11.969C44.107 7.59568 38.1767 5.13484 31.9906 5.12567V5.11621Z" fill="#7BBCD2"/>
<path d="M31.9906 50.894C44.3713 50.894 54.4079 40.8574 54.4079 28.4767C54.4079 16.0959 44.3713 6.05933 31.9906 6.05933C19.6098 6.05933 9.57324 16.0959 9.57324 28.4767C9.57324 40.8574 19.6098 50.894 31.9906 50.894Z" fill="#5EC5F1"/>
<path d="M7.28341 44.8506L7.07523 44.2955L6.99953 44.3238C6.72241 44.4426 6.42185 44.4967 6.12069 44.482C5.81954 44.4672 5.52571 44.384 5.26153 44.2387C4.68303 43.876 4.25596 43.3155 4.05976 42.6615C3.9507 42.377 3.8817 42.0787 3.85473 41.7752C3.83176 41.4915 3.8552 41.206 3.92413 40.9299C4.0477 40.3918 4.30356 39.8931 4.66853 39.4789C5.04092 39.0677 5.50894 38.7546 6.03117 38.5673C6.44455 38.4109 6.88646 38.3443 7.32757 38.3718C7.786 38.4026 8.23344 38.526 8.6429 38.7345C9.004 38.9066 9.33016 39.144 9.60495 39.4347C10.0664 39.9395 10.3442 40.5852 10.3935 41.2674C10.4082 41.5261 10.3685 41.7851 10.2768 42.0275L10.7563 42.2357L10.8572 42.507L9.17597 43.1851L9.0498 42.8508C9.44035 42.5744 9.75144 42.2002 9.95192 41.7657C10.1034 41.3936 10.1034 40.9771 9.95192 40.605C9.87224 40.3597 9.73361 40.1376 9.54817 39.9583C9.3799 39.8136 9.16751 39.7302 8.94571 39.7218C8.70438 39.7196 8.46409 39.7536 8.23285 39.8227C7.93635 39.9047 7.35911 40.1045 6.50115 40.422C5.29307 40.8699 4.58336 41.2169 4.37203 41.4692C4.2652 41.6148 4.20121 41.7874 4.18727 41.9674C4.17334 42.1474 4.21002 42.3278 4.29317 42.4881C4.36781 42.734 4.52344 42.9474 4.73477 43.0937C4.82976 43.1487 4.93642 43.1806 5.04604 43.1866C5.15567 43.1926 5.26516 43.1727 5.36562 43.1284L6.47908 42.7152L6.18573 41.9266L6.46646 41.8225L7.54837 44.7402L7.28341 44.8506Z" fill="#010101"/>
<path d="M8.76562 50.79L8.98642 50.5692L9.54157 51.1212L13.5317 47.0964L13.0554 46.6233L13.2573 46.4214L17.0424 50.2065L15.8911 51.3893L15.664 51.1591C15.8524 50.7751 15.9516 50.3535 15.9542 49.9258C15.8968 49.5787 15.7193 49.2627 15.4527 49.0331L14.6641 48.2477L12.8472 50.0772C12.866 50.1013 12.886 50.1245 12.9072 50.1466L13.0018 50.2444C13.0971 50.3531 13.2132 50.4417 13.3432 50.5051C13.4731 50.5684 13.6144 50.6053 13.7588 50.6134C14.0805 50.5838 14.3844 50.4523 14.6262 50.238L14.8565 50.4652L12.9639 52.3577L12.7337 52.1306C12.9724 51.8897 13.1225 51.575 13.1595 51.2379C13.1489 51.0827 13.1072 50.9312 13.0367 50.7924C12.9663 50.6537 12.8686 50.5306 12.7495 50.4305L12.617 50.298L10.6929 52.2631L11.4562 53.0233C11.7591 53.3601 12.1784 53.5698 12.6296 53.61C13.1531 53.5896 13.6607 53.4247 14.0963 53.1337L14.3108 53.3481L12.7873 54.7833L8.76562 50.79Z" fill="#010101"/>
<path d="M19.4746 55.5781C19.6201 55.1873 19.8433 54.83 20.1307 54.5278C20.4324 54.2167 20.7884 53.9634 21.1811 53.7802C21.5839 53.5975 22.017 53.4906 22.4585 53.4648C23.3273 53.4377 24.1724 53.7499 24.8148 54.3353C25.1329 54.6447 25.3907 55.0105 25.575 55.4141C25.7592 55.8109 25.8662 56.239 25.8904 56.6758C25.9152 57.094 25.8533 57.5128 25.7083 57.9058C25.5634 58.2988 25.3386 58.6576 25.0482 58.9595C24.7454 59.2726 24.3857 59.5253 23.9884 59.7039C23.5931 59.8924 23.1641 59.9996 22.7267 60.0193C21.8534 60.0418 21.0047 59.7291 20.3547 59.1456C19.7238 58.5291 19.3429 57.7011 19.2854 56.8209C19.2644 56.3981 19.3288 55.9755 19.4746 55.5781ZM21.2757 56.2437C20.9981 56.9965 20.8194 57.5222 20.7395 57.8208C20.6707 58.0423 20.6377 58.2734 20.6417 58.5053C20.6476 58.7367 20.7322 58.9592 20.8814 59.1361C21.0689 59.3245 21.2995 59.4642 21.5533 59.543C21.7989 59.6477 22.0661 59.6921 22.3324 59.6724C22.5571 59.6367 22.763 59.5254 22.9159 59.3569C23.0792 59.1683 23.2122 58.9555 23.3102 58.7261C23.449 58.4359 23.6488 57.9365 23.9095 57.2278C24.1703 56.5191 24.3437 56.0103 24.43 55.7011C24.5022 55.464 24.5373 55.2172 24.5341 54.9693C24.5299 54.7376 24.4452 54.5145 24.2943 54.3385C23.8987 53.978 23.3783 53.7857 22.8434 53.8023C22.6193 53.8374 22.4143 53.9488 22.263 54.1177C22.1069 54.2863 21.981 54.4805 21.8908 54.6918C21.7583 54.9757 21.5533 55.493 21.2757 56.2437Z" fill="#010101"/>
<path d="M31.038 61.3724L31.7982 61.3156L31.3787 55.6569L30.6185 55.7137L30.5964 55.4266L34.1765 55.1617C34.7606 55.0854 35.3544 55.1637 35.8987 55.3888C36.0885 55.4735 36.2512 55.6091 36.3686 55.7806C36.4861 55.9521 36.5538 56.1527 36.5643 56.3603C36.5839 56.5696 36.5509 56.7806 36.4683 56.9739C36.3857 57.1673 36.256 57.3369 36.0912 57.4674C35.6403 57.796 35.1054 57.9896 34.5487 58.0257V58.1046C35.1034 58.0912 35.6443 58.2782 36.0722 58.6314C36.3877 58.9468 36.5706 59.4672 36.6242 60.2085C36.6214 60.4121 36.668 60.6134 36.7599 60.7952C36.8001 60.8429 36.8522 60.8791 36.9109 60.9002C36.9696 60.9212 37.0329 60.9264 37.0942 60.915C37.1614 60.9101 37.228 60.8985 37.2929 60.8803C37.3703 60.858 37.4462 60.8306 37.52 60.7983L37.6399 61.0507C37.4497 61.154 37.2514 61.2415 37.0469 61.3125C36.6502 61.4533 36.2199 61.4699 35.8136 61.3598C35.611 61.3107 35.4243 61.2108 35.2711 61.0696C34.9998 60.8173 34.8263 60.3189 34.7443 59.5776C34.7443 59.4798 34.7254 59.4041 34.7191 59.3537C34.7152 59.0244 34.5827 58.7097 34.35 58.4768C34.0569 58.3027 33.7116 58.2379 33.3753 58.2939H33.205L33.4227 61.1989L34.2585 61.1358L34.2806 61.4513L31.0664 61.6878L31.038 61.3724ZM33.1766 57.9816L33.9841 57.9216C34.1181 57.9275 34.2518 57.9058 34.3771 57.8581C34.5024 57.8104 34.6166 57.7375 34.7127 57.6441C34.8538 57.3443 34.8968 57.0077 34.8358 56.682C34.7916 56.0732 34.7096 55.7137 34.5929 55.6001C34.3538 55.4645 34.0734 55.4207 33.8043 55.4771L32.9937 55.537L33.1766 57.9816Z" fill="#010101"/>
<path d="M48.289 54.4458L47.7685 54.7296L47.8064 54.799C47.9631 55.057 48.0592 55.3471 48.0876 55.6476C48.116 55.9481 48.076 56.2511 47.9704 56.5339C47.6932 57.1557 47.2018 57.6572 46.5857 57.947C46.3174 58.0903 46.0309 58.1964 45.734 58.2624C45.4568 58.3249 45.1713 58.3419 44.8887 58.3129C44.3396 58.2665 43.8107 58.0844 43.3494 57.783C42.8886 57.4726 42.5116 57.0533 42.2517 56.5623C42.0395 56.1725 41.9106 55.7428 41.8732 55.3006C41.8401 54.8424 41.8991 54.3823 42.0467 53.9474C42.1674 53.5662 42.3566 53.2103 42.605 52.897C43.039 52.3692 43.6378 52.0026 44.3052 51.8561C44.56 51.8024 44.8232 51.8024 45.078 51.8561L45.2167 51.3514L45.4691 51.2126L46.3775 52.7898L46.0621 52.9601C45.7326 52.6136 45.3184 52.3591 44.8603 52.222C44.4714 52.1213 44.0586 52.1755 43.709 52.3734C43.4759 52.4853 43.2751 52.6546 43.1255 52.8655C43.0044 53.0522 42.9531 53.2755 42.9804 53.4963C43.0098 53.7366 43.0768 53.9708 43.1791 54.1903C43.3021 54.471 43.5797 55.0167 44.015 55.8179C44.6311 56.9492 45.078 57.6021 45.3555 57.7767C45.5139 57.8642 45.6941 57.9045 45.8746 57.8927C46.0552 57.881 46.2286 57.8177 46.3743 57.7104C46.6077 57.6039 46.7971 57.4201 46.9106 57.19C46.9521 57.0881 46.9688 56.9778 46.9595 56.8681C46.9502 56.7585 46.915 56.6526 46.8569 56.5591L46.2892 55.5151L45.5511 55.9157L45.4091 55.657L48.1439 54.1682L48.289 54.4458Z" fill="#010101"/>
<path d="M53.6982 52.3481L53.4616 52.1462L53.9758 51.5438L49.6607 47.8628L49.1466 48.4652L48.929 48.276L51.0329 45.8093L51.2505 45.9954L50.7521 46.5979L55.0545 50.2758L55.5687 49.6733L55.8052 49.8752L53.6982 52.3481Z" fill="#010101"/>
<path d="M58.9533 45.0522L58.66 44.9481L58.7925 44.5759C58.812 44.5306 58.8221 44.4818 58.8221 44.4324C58.8221 44.3831 58.812 44.3342 58.7925 44.2889C58.719 44.1675 58.6238 44.0606 58.5117 43.9735L53.9507 40.0338L54.08 39.6679L60.6219 39.4124L60.8112 38.873L61.1045 38.9771L60.0731 41.9138L59.7798 41.8097L60.0384 41.0747L58.4613 41.1189L57.8147 42.9641L58.6821 43.718C58.7042 43.7391 58.7298 43.7562 58.7578 43.7685C58.7997 43.7891 58.8429 43.807 58.8871 43.8221C58.9112 43.8299 58.9369 43.8314 58.9618 43.8264C58.9866 43.8214 59.0098 43.8102 59.029 43.7937C59.081 43.7427 59.12 43.6799 59.1426 43.6107L59.3319 43.0682L59.6252 43.1692L58.9533 45.0522ZM57.556 42.7496L58.1332 41.1063L55.7738 41.1788L57.556 42.7496Z" fill="#010101"/>
<path d="M22.7899 40.1822C22.7426 40.4345 22.4997 41.2799 22.4209 41.5322H18.6357V41.3051C19.3738 41.2326 19.4369 41.1916 19.4369 40.5008V37.2771C19.4369 36.5895 19.3518 36.5485 18.702 36.4854V36.2583H20.8784V36.4854C20.2286 36.5516 20.1403 36.5863 20.1435 37.2834V40.5891C20.1435 41.0812 20.2097 41.1947 20.6734 41.2042H21.3043C21.7175 41.2042 21.8405 41.1537 22.0266 40.9487C22.2391 40.7016 22.4057 40.4185 22.5186 40.1128L22.7899 40.1822Z" fill="#010101"/>
<path d="M28.1928 41.5039V41.2767C28.7196 41.2105 28.7827 41.1285 28.6691 40.8194C28.5556 40.5103 28.401 40.097 28.2275 39.5861H26.4737C26.3444 39.952 26.2246 40.2674 26.111 40.6017C25.9344 41.1285 26.0479 41.1916 26.7135 41.2736V41.5007H24.8398V41.2736C25.3508 41.2074 25.4707 41.1506 25.7609 40.4188L27.4326 36.1542L27.6913 36.1038C28.2086 37.4916 28.7701 39.0246 29.2842 40.4283C29.546 41.1348 29.6185 41.1979 30.1958 41.261V41.4881L28.1928 41.5039ZM27.3696 37.1794C27.1109 37.8765 26.8365 38.6177 26.5968 39.258H28.114L27.3696 37.1794Z" fill="#010101"/>
<path d="M37.7439 36.4317C37.2235 36.4916 37.0532 36.5705 37.0311 36.9459C37.0311 37.2045 37.009 37.5452 37.009 38.3022V41.5574H36.6936L33.2081 37.3181V39.3494C33.2081 40.078 33.2333 40.4439 33.2491 40.6805C33.268 41.0937 33.4699 41.2136 34.0566 41.264V41.4912H32.0852V41.264C32.5899 41.223 32.7854 41.1 32.817 40.7026C32.8391 40.4408 32.8548 40.0717 32.8517 39.3368V37.2676C32.8626 37.1718 32.8536 37.0747 32.8254 36.9824C32.7972 36.8902 32.7503 36.8047 32.6877 36.7314C32.5331 36.5295 32.3722 36.4822 31.9653 36.4412V36.2141H33.1829L36.6336 40.2894V38.3022C36.6336 37.5483 36.6147 37.1982 36.5926 36.9553C36.5674 36.5894 36.3781 36.4759 35.7284 36.438V36.2078H37.7345L37.7439 36.4317Z" fill="#010101"/>
<path d="M42.2735 36.1951C43.4185 36.1951 44.1408 36.419 44.6455 36.8953C44.8745 37.121 45.0544 37.3916 45.1739 37.6902C45.2933 37.9887 45.3497 38.3088 45.3394 38.6302C45.3583 39.0519 45.2766 39.472 45.1011 39.8559C44.9256 40.2398 44.6613 40.5765 44.33 40.8381C43.715 41.3018 42.9264 41.469 41.9297 41.469H40.0371V41.2419C40.7373 41.1756 40.7689 41.1189 40.7657 40.4533V37.2139C40.7657 36.5168 40.6679 36.4853 40.0339 36.4222V36.1951H42.2735ZM41.4628 40.3934C41.4628 41.0022 41.7246 41.1725 42.3334 41.1693C43.7938 41.1693 44.5414 40.1663 44.5414 38.7469C44.5414 37.8605 44.226 37.1887 43.5951 36.8007C43.1699 36.5679 42.6881 36.4586 42.2041 36.4853C41.9873 36.4638 41.7689 36.5032 41.5732 36.5988C41.5007 36.6493 41.4691 36.7376 41.4691 37.0562L41.4628 40.3934Z" fill="#010101"/>
<path d="M39.2678 24.802C41.6493 24.679 43.8857 25.1459 46.2514 24.2532L45.3051 26.805C44.6111 26.6206 43.9048 26.4856 43.1917 26.4013C41.8007 26.3413 40.4065 26.3823 38.6685 26.3823C39.0691 27.1362 39.2741 27.7607 39.6684 28.2213C40.8481 29.5934 42.5072 30.0728 44.2105 30.2747C45.9138 30.4766 47.6203 30.404 49.2195 29.6817C49.7841 29.4293 50.2983 29.0698 50.8534 28.7512C50.7777 30.6059 50.1721 31.3755 48.4719 31.6783C45.1694 32.2713 41.9237 32.1389 38.9208 30.5018C37.9454 29.9625 37.0959 29.2216 36.429 28.3285C35.1957 26.6505 35.7981 24.2879 37.5519 22.8401C39.4665 21.263 41.7281 20.6321 44.1159 20.5059C45.4565 20.4302 46.816 20.711 48.1691 20.8214C48.617 20.8561 49.065 20.8214 49.699 20.8214C50.0144 21.6793 50.3645 22.6761 50.7209 23.6602L50.5317 23.8558C48.2701 21.7582 45.589 21.897 42.9047 22.408C42.166 22.5342 41.4615 22.8121 40.8355 23.2242C40.2096 23.6362 39.6758 24.1735 39.2678 24.802Z" fill="#010101"/>
<path d="M35.1071 28.606C34.7916 29.5176 34.5709 30.2052 34.2838 30.8613C34.1532 31.0871 33.9409 31.2542 33.6908 31.3281C29.7259 32.4857 25.8998 32.1703 22.285 30.1295C21.6363 29.7358 21.0706 29.2194 20.6195 28.6092C19.1812 26.7513 19.4935 24.3541 21.4586 22.8337C24.1397 20.7614 27.2498 20.2094 30.5649 20.6068L33.8454 21.0042C34.0977 21.6919 34.4762 22.6918 34.8421 23.6917L34.6781 23.821C34.4352 23.6317 34.205 23.4236 33.9495 23.2564C32.4436 22.2572 30.6201 21.8536 28.8332 22.124C27.6371 22.2631 26.4637 22.5546 25.3415 22.9914C24.0072 23.556 22.8181 24.4739 22.8181 26.1236C22.7928 27.8521 23.982 28.8552 25.373 29.4703C27.7195 30.5477 30.3884 30.6898 32.836 29.8677C33.5457 29.628 34.1829 29.1422 35.1071 28.606Z" fill="#010101"/>
<path d="M18.156 31.7287H13.1091C14.4749 31.4952 14.1847 30.4669 14.1879 29.5964C14.1879 27.2244 14.1879 24.865 14.1879 22.4835C14.1879 21.7202 14.1879 20.9821 13.2101 20.7297H17.9982C17.0835 21.0452 17.1182 21.7612 17.1214 22.5119C17.1403 24.9754 17.1214 27.4357 17.1214 29.896C17.1497 30.6625 16.9731 31.5394 18.156 31.7287Z" fill="#010101"/>
</svg>
