<svg width="48" height="48" viewBox="0 0 48 48" fill="none" xmlns="http://www.w3.org/2000/svg">
<g clip-path="url(#clip0_386_479)">
<path d="M23.9995 47.9977C19.2533 47.9962 14.6141 46.5875 10.6685 43.9497C6.7228 41.3118 3.64792 37.5632 1.83259 33.1779C0.017265 28.7925 -0.456982 23.9674 0.469819 19.3125C1.39662 14.6577 3.68285 10.3822 7.03942 7.02659C10.396 3.67101 14.6722 1.38605 19.3273 0.460622C23.9824 -0.464802 28.8074 0.0108689 33.1922 1.82749C37.577 3.64411 41.3247 6.7201 43.9614 10.6665C46.5981 14.613 48.0055 19.2526 48.0055 23.9988C47.9986 30.3628 45.4669 36.4641 40.9663 40.9635C36.4656 45.4628 30.3635 47.9926 23.9995 47.9977ZM23.9995 0.449469C19.3425 0.449937 14.7902 1.83134 10.9182 4.419C7.04621 7.00666 4.0285 10.6844 2.24665 14.9871C0.464793 19.2897 -0.00117826 24.0242 0.907655 28.5917C1.81649 33.1592 4.05931 37.3547 7.35251 40.6475C10.6457 43.9404 14.8414 46.1828 19.409 47.0912C23.9766 47.9996 28.711 47.5331 33.0135 45.7508C37.316 43.9685 40.9934 40.9505 43.5807 37.0782C46.168 33.206 47.5489 28.6535 47.5489 23.9965C47.5408 17.7537 45.0569 11.7691 40.6422 7.35521C36.2274 2.94137 30.2423 0.458722 23.9995 0.451837V0.449469Z" fill="white"/>
<path d="M23.9994 39.3207C20.4464 39.3207 16.9732 38.2671 14.019 36.2931C11.0648 34.3192 8.76228 31.5136 7.40261 28.2311C6.04294 24.9485 5.68719 21.3365 6.38034 17.8518C7.07349 14.3671 8.78442 11.1662 11.2968 8.65382C13.8091 6.14148 17.01 4.43055 20.4947 3.7374C23.9795 3.04424 27.5915 3.4 30.874 4.75967C34.1565 6.11933 36.9622 8.42185 38.9361 11.3761C40.91 14.3303 41.9636 17.8035 41.9636 21.3564C41.9598 26.1197 40.066 30.6868 36.6979 34.0549C33.3297 37.423 28.7626 39.3169 23.9994 39.3207ZM23.9994 3.83695C20.5372 3.83695 17.1527 4.86362 14.274 6.78713C11.3952 8.71063 9.15154 11.4446 7.8266 14.6433C6.50167 17.8419 6.155 21.3617 6.83045 24.7574C7.5059 28.1531 9.17311 31.2722 11.6213 33.7204C14.0694 36.1685 17.1886 37.8357 20.5843 38.5112C23.98 39.1866 27.4997 38.84 30.6984 37.515C33.897 36.1901 36.631 33.9464 38.5545 31.0677C40.478 28.1889 41.5047 24.8045 41.5047 21.3422C41.4959 16.7029 39.6486 12.2562 36.3674 8.97632C33.0862 5.69646 28.6387 3.85092 23.9994 3.84405V3.83695Z" fill="white"/>
<path d="M5.46842 33.6361L5.31229 33.2198L5.25552 33.2411C5.04768 33.3302 4.82227 33.3707 4.59642 33.3597C4.37056 33.3486 4.1502 33.2862 3.95208 33.1772C3.51822 32.9052 3.19794 32.4849 3.05079 31.9944C2.969 31.781 2.91725 31.5573 2.89703 31.3297C2.8798 31.1169 2.89738 30.9028 2.94907 30.6957C3.04175 30.2922 3.23363 29.9182 3.50735 29.6075C3.78662 29.2991 4.13762 29.0643 4.52928 28.9239C4.8393 28.8066 5.17071 28.7566 5.50153 28.7772C5.84534 28.8004 6.1809 28.8929 6.48798 29.0493C6.75879 29.1784 7.0034 29.3564 7.20948 29.5744C7.55557 29.953 7.76393 30.4372 7.80088 30.9488C7.81192 31.1429 7.78211 31.3371 7.71335 31.5189L8.07292 31.6751L8.14862 31.8785L6.88776 32.3871L6.79314 32.1363C7.08604 31.929 7.31934 31.6484 7.4697 31.3226C7.5833 31.0435 7.5833 30.7311 7.4697 30.4521C7.40994 30.2681 7.30597 30.1016 7.1669 29.9671C7.0407 29.8586 6.88142 29.796 6.71507 29.7897C6.53408 29.7881 6.35388 29.8136 6.18046 29.8654C5.95809 29.9269 5.52519 30.0767 4.88175 30.3149C3.97573 30.6508 3.44348 30.911 3.28498 31.1002C3.20487 31.2094 3.15687 31.3388 3.14642 31.4738C3.13597 31.6088 3.16348 31.7441 3.22584 31.8643C3.28182 32.0487 3.39854 32.2088 3.55702 32.3185C3.62826 32.3598 3.70825 32.3837 3.79047 32.3882C3.87269 32.3927 3.9548 32.3777 4.03014 32.3445L4.8652 32.0346L4.64519 31.4432L4.85573 31.3652L5.66712 33.5533L5.46842 33.6361Z" fill="white"/>
<path d="M6.58008 38.0905L6.74566 37.9249L7.16201 38.3389L10.1545 35.3204L9.79726 34.9656L9.94866 34.8142L12.7874 37.6529L11.9239 38.54L11.7536 38.3673C11.8949 38.0793 11.9693 37.7631 11.9712 37.4424C11.9282 37.182 11.795 36.9451 11.5951 36.7729L11.0037 36.1839L9.64113 37.5559C9.65524 37.574 9.67024 37.5914 9.68608 37.608L9.75705 37.6813C9.82855 37.7628 9.91558 37.8293 10.0131 37.8768C10.1105 37.9244 10.2165 37.952 10.3248 37.9581C10.5661 37.9359 10.794 37.8373 10.9753 37.6766L11.148 37.8469L9.72867 39.2662L9.55598 39.0959C9.73498 38.9152 9.84754 38.6793 9.87533 38.4264C9.8674 38.31 9.83608 38.1964 9.78324 38.0923C9.7304 37.9883 9.65713 37.896 9.5678 37.8209L9.46845 37.7215L8.02544 39.1953L8.59792 39.7654C8.82507 40.018 9.1395 40.1752 9.47791 40.2054C9.87052 40.1901 10.2512 40.0665 10.5779 39.8482L10.7388 40.009L9.59619 41.0854L6.58008 38.0905Z" fill="white"/>
<path d="M14.6116 41.6816C14.7208 41.3885 14.8882 41.1205 15.1037 40.8939C15.33 40.6606 15.5969 40.4706 15.8914 40.3332C16.1935 40.1962 16.5183 40.116 16.8495 40.0967C17.501 40.0764 18.1348 40.3105 18.6166 40.7496C18.8551 40.9816 19.0485 41.2559 19.1867 41.5586C19.3248 41.8562 19.4051 42.1773 19.4232 42.5048C19.4419 42.8185 19.3954 43.1325 19.2867 43.4273C19.178 43.722 19.0094 43.9911 18.7916 44.2175C18.5645 44.4524 18.2948 44.6418 17.9968 44.7758C17.7004 44.9171 17.3786 44.9976 17.0505 45.0124C16.3956 45.0292 15.7591 44.7947 15.2716 44.3571C14.7985 43.8947 14.5129 43.2738 14.4697 42.6137C14.454 42.2966 14.5023 41.9796 14.6116 41.6816ZM15.9624 42.1808C15.7542 42.7453 15.6202 43.1396 15.5602 43.3636C15.5086 43.5297 15.4839 43.703 15.4869 43.8769C15.4913 44.0504 15.5547 44.2173 15.6667 44.35C15.8073 44.4912 15.9802 44.596 16.1705 44.6552C16.3548 44.7337 16.5551 44.7669 16.7548 44.7521C16.9234 44.7254 17.0778 44.6419 17.1925 44.5156C17.3149 44.3741 17.4147 44.2145 17.4882 44.0425C17.5923 43.8248 17.7421 43.4503 17.9376 42.9188C18.1332 42.3874 18.2633 42.0057 18.328 41.7739C18.3822 41.5961 18.4085 41.4109 18.406 41.2251C18.4029 41.0513 18.3394 40.884 18.2262 40.7519C17.9295 40.4816 17.5393 40.3374 17.1381 40.3498C16.9701 40.3761 16.8163 40.4597 16.7028 40.5864C16.5858 40.7128 16.4913 40.8584 16.4237 41.0169C16.3243 41.2298 16.1705 41.6178 15.9624 42.1808Z" fill="white"/>
<path d="M23.2843 46.0271L23.8544 45.9845L23.5398 41.7407L22.9697 41.7833L22.9531 41.568L25.6381 41.3693C26.0761 41.3121 26.5215 41.3708 26.9297 41.5396C27.072 41.6032 27.194 41.7049 27.2821 41.8335C27.3702 41.9621 27.4209 42.1125 27.4288 42.2682C27.4435 42.4252 27.4188 42.5834 27.3568 42.7284C27.2948 42.8734 27.1976 43.0007 27.074 43.0985C26.7359 43.3449 26.3347 43.4901 25.9172 43.5172V43.5764C26.3332 43.5663 26.7388 43.7066 27.0598 43.9714C27.2963 44.208 27.4335 44.5983 27.4737 45.1542C27.4716 45.3069 27.5066 45.4579 27.5755 45.5942C27.6056 45.63 27.6447 45.6572 27.6887 45.673C27.7328 45.6888 27.7802 45.6926 27.8262 45.6841C27.8766 45.6804 27.9266 45.6717 27.9752 45.6581C28.0333 45.6413 28.0902 45.6208 28.1456 45.5966L28.2355 45.7858C28.0928 45.8633 27.9441 45.929 27.7907 45.9822C27.4932 46.0878 27.1705 46.1002 26.8658 46.0177C26.7139 45.9809 26.5739 45.906 26.4589 45.8C26.2555 45.6108 26.1254 45.237 26.0639 44.6811C26.0639 44.6078 26.0497 44.551 26.0449 44.5132C26.042 44.2662 25.9427 44.0302 25.7682 43.8555C25.5483 43.725 25.2894 43.6764 25.0372 43.7183H24.9095L25.0727 45.897L25.6996 45.8497L25.7161 46.0863L23.3056 46.2637L23.2843 46.0271ZM24.8882 43.4841L25.4938 43.4392C25.5942 43.4435 25.6945 43.4273 25.7885 43.3915C25.8824 43.3557 25.9681 43.3011 26.0402 43.231C26.146 43.0062 26.1783 42.7537 26.1325 42.5095C26.0993 42.0529 26.0378 41.7833 25.9503 41.6981C25.771 41.5964 25.5607 41.5636 25.3589 41.6059L24.751 41.6508L24.8882 43.4841Z" fill="white"/>
<path d="M36.2226 40.8323L35.8323 41.0452L35.8607 41.0973C35.9782 41.2907 36.0503 41.5083 36.0716 41.7337C36.0929 41.959 36.0628 42.1863 35.9837 42.3983C35.7758 42.8647 35.4072 43.2408 34.9452 43.4581C34.744 43.5656 34.5291 43.6451 34.3065 43.6947C34.0986 43.7415 33.8845 43.7543 33.6725 43.7325C33.2607 43.6978 32.864 43.5612 32.5181 43.3351C32.1725 43.1023 31.8898 42.7879 31.6949 42.4196C31.5357 42.1273 31.439 41.8051 31.411 41.4734C31.3862 41.1298 31.4304 40.7847 31.5411 40.4586C31.6316 40.1727 31.7735 39.9057 31.9598 39.6708C32.2853 39.275 32.7344 39.0001 33.2349 38.8902C33.426 38.8499 33.6234 38.8499 33.8144 38.8902L33.9185 38.5117L34.1078 38.4076L34.7891 39.5904L34.5525 39.7181C34.3054 39.4582 33.9947 39.2674 33.6512 39.1646C33.3596 39.089 33.05 39.1297 32.7878 39.2781C32.613 39.362 32.4624 39.489 32.3502 39.6472C32.2594 39.7872 32.2209 39.9547 32.2413 40.1203C32.2634 40.3005 32.3137 40.4761 32.3904 40.6407C32.4826 40.8512 32.6908 41.2605 33.0172 41.8613C33.4793 42.7098 33.8144 43.1995 34.0226 43.3304C34.1414 43.396 34.2765 43.4262 34.4119 43.4174C34.5474 43.4086 34.6774 43.3612 34.7867 43.2807C34.9617 43.2008 35.1038 43.0629 35.1888 42.8904C35.22 42.8139 35.2325 42.7312 35.2256 42.649C35.2186 42.5668 35.1922 42.4873 35.1486 42.4173L34.7228 41.6342L34.1693 41.9347L34.0628 41.7407L36.1138 40.6241L36.2226 40.8323Z" fill="white"/>
<path d="M40.2779 39.2592L40.1005 39.1078L40.4861 38.656L37.25 35.8953L36.8644 36.3472L36.7012 36.2052L38.279 34.3553L38.4422 34.4949L38.0685 34.9467L41.2951 37.705L41.6807 37.2532L41.8581 37.4046L40.2779 39.2592Z" fill="white"/>
<path d="M44.2206 33.7876L44.0006 33.7095L44.0999 33.4304C44.1146 33.3964 44.1221 33.3598 44.1221 33.3228C44.1221 33.2858 44.1146 33.2491 44.0999 33.2151C44.0448 33.1241 43.9734 33.0439 43.8894 32.9786L40.4688 30.024L40.5657 29.7496L45.472 29.558L45.6139 29.1534L45.8339 29.2315L45.0603 31.4339L44.8403 31.3558L45.0343 30.8046L43.8515 30.8377L43.3666 32.2216L44.0171 32.787C44.0337 32.8028 44.0529 32.8156 44.0739 32.8248C44.1053 32.8403 44.1377 32.8538 44.1709 32.865C44.189 32.8709 44.2082 32.872 44.2269 32.8683C44.2455 32.8645 44.2629 32.8561 44.2773 32.8437C44.3163 32.8055 44.3455 32.7584 44.3625 32.7065L44.5044 32.2997L44.7244 32.3754L44.2206 33.7876ZM43.1726 32.0607L43.6055 30.8283L41.8361 30.8827L43.1726 32.0607Z" fill="white"/>
<path fill-rule="evenodd" clip-rule="evenodd" d="M40.8119 21.3565C40.8119 30.6416 33.2848 38.1687 23.9997 38.1687C14.7146 38.1687 7.1875 30.6416 7.1875 21.3565C7.1875 12.0714 14.7146 4.54431 23.9997 4.54431C33.2848 4.54431 40.8119 12.0714 40.8119 21.3565ZM16.8231 31.1476C16.8822 30.9584 17.0644 30.3244 17.0998 30.1352L16.8964 30.0831C16.8117 30.3124 16.6868 30.5247 16.5274 30.71C16.3878 30.8638 16.2956 30.9016 15.9857 30.9016H15.5125C15.1648 30.8945 15.1151 30.8094 15.1151 30.4403V27.9612C15.1128 27.4384 15.179 27.4124 15.6663 27.3627V27.1924H14.0341V27.3627C14.5214 27.41 14.5852 27.4408 14.5852 27.9565V30.3741C14.5852 30.8922 14.5379 30.9229 13.9844 30.9773V31.1476H16.8231ZM21.1515 31.1263V30.956C21.5466 30.9063 21.5939 30.8448 21.5087 30.613L21.4729 30.5156C21.3922 30.2968 21.2902 30.0199 21.1775 29.6881H19.8623C19.8234 29.7982 19.7856 29.9022 19.7488 30.0035L19.7486 30.004L19.7486 30.0041C19.6938 30.155 19.6412 30.2999 19.5902 30.4498C19.4578 30.8448 19.5429 30.8921 20.0421 30.9537V31.124H18.6369V30.9537C19.0201 30.904 19.11 30.8614 19.3277 30.3126L20.5814 27.1143L20.7754 27.0765C21.1606 28.11 21.5785 29.2509 21.9619 30.2975L21.9622 30.2984L21.9623 30.2985L21.9625 30.2991L21.97 30.3197C22.1664 30.8496 22.2208 30.8969 22.6537 30.9442V31.1145L21.1515 31.1263ZM20.5341 27.8831L20.4272 28.1713L20.4272 28.1714L20.4272 28.1714L20.4271 28.1717L20.4266 28.1729C20.2656 28.6069 20.1014 29.0498 19.9545 29.4421H21.0924L20.5341 27.8831ZM27.7796 27.7081C27.7962 27.4266 27.9239 27.3674 28.3142 27.3225L28.3071 27.1545H26.8026V27.3272C27.2899 27.3556 27.4318 27.4408 27.4508 27.7152C27.4673 27.8973 27.4815 28.1599 27.4815 28.7253V30.2156L24.8936 27.1593H23.9805V27.3296C24.2856 27.3604 24.4063 27.3958 24.5222 27.5472C24.5692 27.6022 24.6043 27.6663 24.6255 27.7355C24.6467 27.8047 24.6534 27.8775 24.6452 27.9494V29.5012C24.6476 30.0524 24.6357 30.3292 24.6192 30.5255C24.5955 30.8236 24.4489 30.9158 24.0704 30.9466V31.1169H25.5488V30.9466C25.1089 30.9087 24.9575 30.8188 24.9433 30.5089L24.9427 30.5C24.9308 30.3223 24.9125 30.048 24.9125 29.5107V27.9872L27.5265 31.1666H27.763V28.7253C27.763 28.367 27.7696 28.1331 27.7745 27.9605L27.7745 27.9602C27.7773 27.8595 27.7796 27.7796 27.7796 27.7081ZM31.7108 27.1451C32.5695 27.1451 33.1112 27.313 33.4897 27.6702C33.6615 27.8395 33.7964 28.0424 33.886 28.2663C33.9756 28.4903 34.0178 28.7303 34.0102 28.9713C34.0243 29.2876 33.963 29.6027 33.8314 29.8906C33.6998 30.1785 33.5016 30.431 33.2532 30.6272C32.7919 30.975 32.2005 31.1003 31.453 31.1003H30.0336V30.93C30.5588 30.8803 30.5824 30.8378 30.5801 30.3386V27.9092C30.5801 27.3864 30.5067 27.3627 30.0312 27.3154V27.1451H31.7108ZM31.1029 30.2937C31.1029 30.7502 31.2992 30.878 31.7558 30.8756C32.851 30.8756 33.4117 30.1234 33.4117 29.0588C33.4117 28.3941 33.1751 27.8902 32.702 27.5993C32.3831 27.4247 32.0218 27.3427 31.6588 27.3627C31.4962 27.3466 31.3324 27.3761 31.1857 27.4479C31.1312 27.4857 31.1076 27.552 31.1076 27.7909L31.1029 30.2937ZM31.0575 18.598C30.53 18.5854 29.9983 18.5727 29.4565 18.6006C29.7624 18.1292 30.1628 17.7263 30.6322 17.4173C31.1016 17.1083 31.63 16.8998 32.184 16.8052C34.1971 16.4219 36.2078 16.3179 37.904 17.891L38.0459 17.7443C37.9336 17.4342 37.8221 17.1225 37.7131 16.8175L37.713 16.8173L37.7129 16.8171L37.7125 16.816C37.5622 16.3955 37.4165 15.9879 37.2794 15.6153C37.109 15.6153 36.9565 15.6186 36.8155 15.6217C36.5631 15.6273 36.3476 15.632 36.1321 15.6153C35.8035 15.5885 35.4745 15.5483 35.1455 15.5081C34.4585 15.4242 33.7722 15.3403 33.0924 15.3787C31.3016 15.4733 29.6055 15.9465 28.1696 17.1293C26.8543 18.2151 26.4025 19.9869 27.3274 21.2454C27.8276 21.9152 28.4647 22.4708 29.1963 22.8752C31.4483 24.103 33.8825 24.2023 36.3592 23.7576C37.6343 23.5305 38.0885 22.9533 38.1452 21.5624C38.0105 21.6397 37.879 21.7202 37.7484 21.8002L37.7483 21.8002L37.7483 21.8002L37.7483 21.8003C37.4753 21.9674 37.2063 22.1322 36.9199 22.2602C35.7205 22.8019 34.4407 22.8563 33.1633 22.7049C31.8859 22.5535 30.6416 22.194 29.7569 21.1649C29.5604 20.9354 29.4266 20.6516 29.2708 20.3211C29.1921 20.1542 29.1078 19.9755 29.007 19.7858C29.4002 19.7858 29.77 19.783 30.1233 19.7803H30.1234H30.1235H30.1236C30.9413 19.7741 31.6708 19.7686 32.3993 19.8C32.9341 19.8633 33.4637 19.9645 33.9842 20.1028L34.6939 18.189C33.4579 18.6554 32.269 18.627 31.0575 18.598ZM26.3377 21.4535C26.293 21.5828 26.2508 21.7061 26.2103 21.8244C26.0367 22.3314 25.8949 22.7459 25.7203 23.1449C25.6224 23.3142 25.4632 23.4395 25.2756 23.495C22.3021 24.3631 19.4326 24.1266 16.7217 22.5961C16.2351 22.3008 15.8109 21.9135 15.4726 21.4558C14.3939 20.0625 14.6281 18.2647 16.1019 17.1245C18.1126 15.5703 20.4451 15.1563 22.9313 15.4544L25.3915 15.7524C25.4735 15.976 25.5734 16.2435 25.6825 16.536L25.6828 16.5369L25.6831 16.5376C25.8255 16.9194 25.9838 17.3437 26.139 17.7679L26.016 17.8649C25.9574 17.8192 25.8998 17.7721 25.8423 17.725L25.8422 17.725C25.7208 17.6257 25.5995 17.5265 25.4696 17.4414C24.3402 16.6921 22.9727 16.3895 21.6326 16.5922C20.7355 16.6965 19.8555 16.9152 19.0139 17.2427C18.0133 17.6662 17.1214 18.3546 17.1214 19.5918C17.1025 20.8881 17.9943 21.6404 19.0376 22.1016C20.7973 22.9097 22.7989 23.0163 24.6345 22.3997C25.004 22.2749 25.3473 22.0611 25.7546 21.8075C25.934 21.6959 26.1258 21.5764 26.3377 21.4535ZM9.83984 23.7954H13.6248C12.8539 23.6721 12.8529 23.1594 12.852 22.6499C12.8518 22.5731 12.8517 22.4963 12.8489 22.421C12.8489 21.806 12.8504 21.1911 12.852 20.576C12.8552 19.3457 12.8583 18.1149 12.8489 16.8832C12.8488 16.8649 12.8487 16.8467 12.8486 16.8285C12.8456 16.2857 12.8427 15.7755 13.5065 15.5466H9.91554C10.6489 15.7359 10.6489 16.2894 10.6489 16.8619V16.8619V22.1963C10.6485 22.2943 10.6531 22.395 10.6577 22.4959C10.6839 23.0673 10.7103 23.6466 9.83984 23.7954Z" fill="white"/>
</g>
<defs>
<clipPath id="clip0_386_479">
<rect width="48" height="48" fill="white"/>
</clipPath>
</defs>
</svg>
