<svg width="32" height="32" viewBox="0 0 32 32" fill="none" xmlns="http://www.w3.org/2000/svg">
<g clip-path="url(#clip0_349_844)">
<path d="M18.6743 19.6058C17.8782 20.1366 16.9534 20.4171 16 20.4171C15.0466 20.4171 14.1219 20.1366 13.3258 19.6058L0.213062 10.8638C0.140675 10.8154 0.0696278 10.765 0 10.7127L0 25.0375C0 26.6799 1.33281 27.9833 2.94581 27.9833H29.0541C30.6965 27.9833 31.9999 26.6505 31.9999 25.0375V10.7126C31.9302 10.7651 31.859 10.8156 31.7864 10.864L18.6743 19.6058Z" fill="white"/>
<path d="M1.25313 9.3036L14.3658 18.0457C14.8622 18.3767 15.4311 18.5421 15.9999 18.5421C16.5689 18.5421 17.1378 18.3766 17.6342 18.0457L30.7469 9.3036C31.5316 8.78079 32 7.90579 32 6.96141C32 5.3376 30.6789 4.0166 29.0552 4.0166H2.94481C1.32106 4.01666 1.55007e-06 5.33766 1.55007e-06 6.96298C-0.000485237 7.42623 0.113689 7.8824 0.332342 8.29081C0.550995 8.69922 0.867327 9.04716 1.25313 9.3036Z" fill="white"/>
</g>
<defs>
<clipPath id="clip0_349_844">
<rect width="32" height="32" fill="white"/>
</clipPath>
</defs>
</svg>
