<svg width="32" height="32" viewBox="0 0 32 32" fill="none" xmlns="http://www.w3.org/2000/svg">
<g clip-path="url(#clip0_349_850)">
<path d="M27.3737 13.4283C27.4121 8.91674 23.5695 4.78079 18.808 4.20887C18.7133 4.19764 18.6101 4.18054 18.5009 4.16246C18.2652 4.1234 18.0214 4.08325 17.7754 4.08325C16.7995 4.08325 16.5387 4.76877 16.47 5.17761C16.4032 5.57513 16.4669 5.90894 16.659 6.17021C16.9822 6.60966 17.5509 6.68767 18.0076 6.75018C18.1415 6.76867 18.2678 6.78586 18.3735 6.80961C22.6516 7.76554 24.0921 9.26845 24.7961 13.5101C24.8133 13.6138 24.821 13.7415 24.8293 13.8769C24.86 14.384 24.924 15.4389 26.0581 15.4389H26.0582C26.1526 15.4389 26.2541 15.4307 26.3597 15.4146C27.4158 15.2541 27.3827 14.2899 27.3668 13.8266C27.3623 13.6961 27.3581 13.5726 27.3691 13.4906C27.3721 13.4699 27.3736 13.4491 27.3737 13.4283Z" fill="white"/>
<path d="M17.4985 2.55284C17.6252 2.56199 17.7452 2.57073 17.845 2.58604C24.87 3.66638 28.1007 6.99478 28.996 14.0747C29.0112 14.1951 29.0136 14.3419 29.0161 14.4973C29.0251 15.0504 29.0434 16.2011 30.2792 16.225L30.3176 16.2254C30.7052 16.2254 31.0134 16.1085 31.234 15.8778C31.6187 15.4754 31.5918 14.8776 31.5702 14.3972C31.5649 14.2794 31.5598 14.1683 31.5611 14.0712C31.6505 6.83021 25.3826 0.264149 18.1481 0.0199752C18.1181 0.0189814 18.0895 0.0205714 18.0606 0.024646C18.0322 0.0282274 18.0036 0.0297882 17.9749 0.0293168C17.9028 0.0293168 17.814 0.0230559 17.7199 0.0166957C17.6061 0.0089441 17.4771 0 17.3464 0C16.1943 0 15.9752 0.818882 15.9472 1.30703C15.8826 2.43518 16.974 2.51458 17.4985 2.55284ZM28.6571 23.2251C28.5061 23.1108 28.3566 22.9946 28.2087 22.8765C27.4417 22.2593 26.6257 21.6903 25.8365 21.1401C25.6727 21.0261 25.5091 20.9118 25.3458 20.7973C24.3349 20.0873 23.4261 19.7422 22.5674 19.7422C21.4109 19.7422 20.4027 20.3812 19.5705 21.6412C19.2018 22.1999 18.7545 22.4715 18.2032 22.4715C17.8772 22.4715 17.5069 22.3784 17.1025 22.1949C13.8396 20.7152 11.5096 18.4466 10.1773 15.452C9.53319 14.0047 9.74198 13.0586 10.8755 12.2886C11.5192 11.8517 12.7173 11.0384 12.6324 9.48094C12.5363 7.7123 8.63391 2.39066 6.98968 1.78624C6.29353 1.53024 5.56211 1.52785 4.8118 1.78027C2.92161 2.4157 1.56519 3.53163 0.888813 5.0072C0.235198 6.43299 0.264714 8.10713 0.97418 9.84865C3.02516 14.8838 5.90874 19.2737 9.54511 22.8964C13.1045 26.4426 17.4792 29.3475 22.5477 31.5299C23.0046 31.7265 23.4838 31.8337 23.8337 31.9119C23.953 31.9388 24.0559 31.9616 24.131 31.9822C24.1722 31.9934 24.2147 31.9995 24.2574 31.9999L24.2974 32.0001H24.2976C26.6815 32.0001 29.5439 29.8217 30.423 27.3382C31.1932 25.1636 29.787 24.0887 28.6571 23.2251ZM18.5529 8.3045C18.1448 8.31483 17.2954 8.3359 16.9973 9.20099C16.8579 9.60527 16.8746 9.95627 17.047 10.2443C17.3 10.6668 17.7848 10.7963 18.2258 10.8674C19.8249 11.124 20.6461 12.0082 20.8104 13.65C20.8867 14.4155 21.4022 14.9501 22.0641 14.9501C22.113 14.9501 22.1631 14.9472 22.2128 14.9411C23.0089 14.8464 23.3948 14.2616 23.3599 13.203C23.3726 12.0982 22.7944 10.8439 21.8111 9.84487C20.8243 8.84273 19.6349 8.27836 18.5529 8.3045Z" fill="white"/>
</g>
<defs>
<clipPath id="clip0_349_850">
<rect width="32" height="32" fill="white"/>
</clipPath>
</defs>
</svg>
