<svg width="32" height="32" viewBox="0 0 32 32" fill="none" xmlns="http://www.w3.org/2000/svg">
<path d="M15.9998 0C9.60952 0 4.41064 5.19887 4.41064 11.5891C4.41064 19.5196 14.7818 31.1621 15.2234 31.6538C15.6381 32.1158 16.3623 32.1149 16.7763 31.6538C17.2178 31.1621 27.589 19.5196 27.589 11.5891C27.5889 5.19887 22.3901 0 15.9998 0ZM15.9998 17.4199C12.7847 17.4199 10.1691 14.8043 10.1691 11.5891C10.1691 8.374 12.7848 5.75838 15.9998 5.75838C19.2149 5.75838 21.8305 8.37406 21.8305 11.5892C21.8305 14.8043 19.2149 17.4199 15.9998 17.4199Z" fill="white"/>
</svg>
