<?xml version="1.0" encoding="utf-8"?>
<!-- Generator: Adobe Illustrator 21.0.0, SVG Export Plug-In . SVG Version: 6.00 Build 0)  -->
<svg version="1.1" id="Layer_1" xmlns="http://www.w3.org/2000/svg" xmlns:xlink="http://www.w3.org/1999/xlink" x="0px" y="0px"
	 viewBox="0 0 784 49" style="enable-background:new 0 0 784 49;" xml:space="preserve">
<g transform="matrix( 1, 0, 0, 1, 25.15,25.25) ">
	<g transform="matrix( 1, 0, 0, 1, -23.45,16.4) ">
		<g transform="matrix( 1.3848419189453125, 0, 0, 1, 3.4,11.55) ">
			<g>
				<g id="Symbol_1_0_Layer0_0_FILL">
					<path d="M30.7-10.6c0-1-0.5-1.5-1.5-1.5H-1.4c-1,0-1.5,0.5-1.5,1.5v2.1c0,1,0.5,1.5,1.5,1.5h30.6c1,0,1.5-0.5,1.5-1.5V-10.6z"
						/>
				</g>
			</g>
		</g>
	</g>
	<g transform="matrix( 1, 0, 0, 1, -23.45,-2.55) ">
		<g transform="matrix( 1.3848419189453125, 0, 0, 1, 3.4,11.55) ">
			<g>
				<g id="Symbol_1_0_Layer0_0_FILL_1_">
					<path d="M30.7-10.6c0-1-0.5-1.5-1.5-1.5H-1.4c-1,0-1.5,0.5-1.5,1.5v2.1c0,1,0.5,1.5,1.5,1.5h30.6c1,0,1.5-0.5,1.5-1.5V-10.6z"
						/>
				</g>
			</g>
		</g>
	</g>
	<g transform="matrix( 1, 0, 0, 1, -23.45,-22) ">
		<g transform="matrix( 1.3848419189453125, 0, 0, 1, 3.4,11.55) ">
			<g>
				<g id="Symbol_1_0_Layer0_0_FILL_2_">
					<path d="M30.7-10.6c0-1-0.5-1.5-1.5-1.5H-1.4c-1,0-1.5,0.5-1.5,1.5v2.1c0,1,0.5,1.5,1.5,1.5h30.6c1,0,1.5-0.5,1.5-1.5V-10.6z"
						/>
				</g>
			</g>
		</g>
	</g>
</g>
<g transform="matrix( 1, 0, 0, 1, 25.15,25.25) ">
	<g transform="matrix( 1, 0, 0, 1, -23.45,2.45) ">
		<g transform="matrix( 1.3848419189453125, 0, 0, 1, 3.4,11.55) ">
			<g>
				<g id="Symbol_1_0_Layer0_0_FILL_5_">
					<path d="M136.9-10.7c0-1-0.5-1.5-1.5-1.5h-30.7c-1,0-1.5,0.5-1.5,1.5v2.1c0,1,0.5,1.5,1.5,1.5h30.7c1,0,1.5-0.5,1.5-1.5V-10.7z
						"/>
				</g>
			</g>
		</g>
	</g>
	<g transform="matrix( 1, 0, 0, 1, -23.45,-2.55) ">
		<g transform="matrix( 1.3848419189453125, 0, 0, 1, 3.4,11.55) ">
			<g>
				<g id="Symbol_1_0_Layer0_0_FILL_4_">
					<path d="M136.9-10.7c0-1-0.5-1.5-1.5-1.5h-30.7c-1,0-1.5,0.5-1.5,1.5v2.1c0,1,0.5,1.5,1.5,1.5h30.7c1,0,1.5-0.5,1.5-1.5V-10.7z
						"/>
				</g>
			</g>
		</g>
	</g>
	<g transform="matrix( 1, 0, 0, 1, -23.45,-7.7) ">
		<g transform="matrix( 1.3848419189453125, 0, 0, 1, 3.4,11.55) ">
			<g>
				<g id="Symbol_1_0_Layer0_0_FILL_3_">
					<path d="M136.9-10.7c0-1-0.5-1.5-1.5-1.5h-30.7c-1,0-1.5,0.5-1.5,1.5v2.1c0,1,0.5,1.5,1.5,1.5h30.7c1,0,1.5-0.5,1.5-1.5V-10.7z
						"/>
				</g>
			</g>
		</g>
	</g>
</g>
<g transform="matrix( 1, 0, 0, 1, 25.15,25.25) ">
	<g transform="matrix( 1, 0, 0, 1, -23.45,-0.2) ">
		<g transform="matrix( 1.3848419189453125, 0, 0, 1, 3.4,11.55) ">
			<g>
				<g id="Symbol_1_0_Layer0_0_FILL_8_">
					<path d="M172.3-10.8c0-1-0.5-1.5-1.5-1.5h-30.6c-1,0-1.5,0.5-1.5,1.5v2.1c0,1,0.5,1.5,1.5,1.5h30.6c1,0,1.5-0.5,1.5-1.5V-10.8z
						"/>
				</g>
			</g>
		</g>
	</g>
	<g transform="matrix( 1, 0, 0, 1, -23.45,-2.55) ">
		<g transform="matrix( 1.3848419189453125, 0, 0, 1, 3.4,11.55) ">
			<g>
				<g id="Symbol_1_0_Layer0_0_FILL_7_">
					<path d="M172.3-10.8c0-1-0.5-1.5-1.5-1.5h-30.6c-1,0-1.5,0.5-1.5,1.5v2.1c0,1,0.5,1.5,1.5,1.5h30.6c1,0,1.5-0.5,1.5-1.5V-10.8z
						"/>
				</g>
			</g>
		</g>
	</g>
	<g transform="matrix( 1, 0, 0, 1, -23.45,-4.95) ">
		<g transform="matrix( 1.3848419189453125, 0, 0, 1, 3.4,11.55) ">
			<g>
				<g id="Symbol_1_0_Layer0_0_FILL_6_">
					<path d="M172.3-10.8c0-1-0.5-1.5-1.5-1.5h-30.6c-1,0-1.5,0.5-1.5,1.5v2.1c0,1,0.5,1.5,1.5,1.5h30.6c1,0,1.5-0.5,1.5-1.5V-10.8z
						"/>
				</g>
			</g>
		</g>
	</g>
</g>
<g transform="matrix( 1, 0, 0, 1, 25.15,25.25) ">
	<g transform="matrix( 1, 0, 0, 1, -23.45,-1.85) ">
		<g transform="matrix( 1.3848419189453125, 0, 0, 1, 3.4,11.55) ">
			<g>
				<g id="Symbol_1_0_Layer0_0_FILL_11_">
					<path d="M207.6-10.8c0-1-0.5-1.5-1.5-1.5h-30.6c-1,0-1.5,0.5-1.5,1.5v2.1c0,1,0.5,1.5,1.5,1.5h30.6c1,0,1.5-0.5,1.5-1.5V-10.8z
						"/>
				</g>
			</g>
		</g>
	</g>
	<g transform="matrix( 1, 0, 0, 1, -23.45,-2.55) ">
		<g transform="matrix( 1.3848419189453125, 0, 0, 1, 3.4,11.55) ">
			<g>
				<g id="Symbol_1_0_Layer0_0_FILL_10_">
					<path d="M207.6-10.8c0-1-0.5-1.5-1.5-1.5h-30.6c-1,0-1.5,0.5-1.5,1.5v2.1c0,1,0.5,1.5,1.5,1.5h30.6c1,0,1.5-0.5,1.5-1.5V-10.8z
						"/>
				</g>
			</g>
		</g>
	</g>
	<g transform="matrix( 1, 0, 0, 1, -23.45,-3.25) ">
		<g transform="matrix( 1.3848419189453125, 0, 0, 1, 3.4,11.55) ">
			<g>
				<g id="Symbol_1_0_Layer0_0_FILL_9_">
					<path d="M207.6-10.8c0-1-0.5-1.5-1.5-1.5h-30.6c-1,0-1.5,0.5-1.5,1.5v2.1c0,1,0.5,1.5,1.5,1.5h30.6c1,0,1.5-0.5,1.5-1.5V-10.8z
						"/>
				</g>
			</g>
		</g>
	</g>
</g>
<g transform="matrix( 1, 0, 0, 1, 25.15,25.25) ">
	<g transform="matrix( 1, 0, 0, 1, -23.45,-2.55) ">
		<g transform="matrix( 1.3848419189453125, 0, 0, 1, 3.4,11.55) ">
			<g>
				<g id="Symbol_1_0_Layer0_0_FILL_14_">
					<path d="M243-10.8c0-1-0.5-1.5-1.5-1.5h-30.7c-1,0-1.5,0.5-1.5,1.5v2.1c0,1,0.5,1.5,1.5,1.5h30.7c1,0,1.5-0.5,1.5-1.5V-10.8z"
						/>
				</g>
			</g>
		</g>
	</g>
	<g transform="matrix( 1, 0, 0, 1, -23.45,-2.55) ">
		<g transform="matrix( 1.3848419189453125, 0, 0, 1, 3.4,11.55) ">
			<g>
				<g id="Symbol_1_0_Layer0_0_FILL_13_">
					<path d="M243-10.8c0-1-0.5-1.5-1.5-1.5h-30.7c-1,0-1.5,0.5-1.5,1.5v2.1c0,1,0.5,1.5,1.5,1.5h30.7c1,0,1.5-0.5,1.5-1.5V-10.8z"
						/>
				</g>
			</g>
		</g>
	</g>
	<g transform="matrix( 1, 0, 0, 1, -23.45,-2.55) ">
		<g transform="matrix( 1.3848419189453125, 0, 0, 1, 3.4,11.55) ">
			<g>
				<g id="Symbol_1_0_Layer0_0_FILL_12_">
					<path d="M243-10.8c0-1-0.5-1.5-1.5-1.5h-30.7c-1,0-1.5,0.5-1.5,1.5v2.1c0,1,0.5,1.5,1.5,1.5h30.7c1,0,1.5-0.5,1.5-1.5V-10.8z"
						/>
				</g>
			</g>
		</g>
	</g>
</g>
<g transform="matrix( 1, 0, 0, 1, 25.15,25.25) ">
	<g transform="matrix( 1, 0, 0, 1, -23.45,-2.55) ">
		<g transform="matrix( 1.3848419189453125, 0, 0, 1, 3.4,11.55) ">
			<g>
				<g id="Symbol_1_0_Layer0_0_FILL_17_">
					<path d="M278.4-10.8c0-1-0.5-1.5-1.5-1.5h-30.7c-1,0-1.5,0.5-1.5,1.5v2.1c0,1,0.5,1.5,1.5,1.5h30.7c1,0,1.5-0.5,1.5-1.5V-10.8z
						"/>
				</g>
			</g>
		</g>
	</g>
	<g transform="matrix( 1, 0, 0, 1, -23.45,-2.55) ">
		<g transform="matrix( 1.3848419189453125, 0, 0, 1, 3.4,11.55) ">
			<g>
				<g id="Symbol_1_0_Layer0_0_FILL_16_">
					<path d="M278.4-10.8c0-1-0.5-1.5-1.5-1.5h-30.7c-1,0-1.5,0.5-1.5,1.5v2.1c0,1,0.5,1.5,1.5,1.5h30.7c1,0,1.5-0.5,1.5-1.5V-10.8z
						"/>
				</g>
			</g>
		</g>
	</g>
	<g transform="matrix( 1, 0, 0, 1, -23.45,-2.55) ">
		<g transform="matrix( 1.3848419189453125, 0, 0, 1, 3.4,11.55) ">
			<g>
				<g id="Symbol_1_0_Layer0_0_FILL_15_">
					<path d="M278.4-10.8c0-1-0.5-1.5-1.5-1.5h-30.7c-1,0-1.5,0.5-1.5,1.5v2.1c0,1,0.5,1.5,1.5,1.5h30.7c1,0,1.5-0.5,1.5-1.5V-10.8z
						"/>
				</g>
			</g>
		</g>
	</g>
</g>
<g transform="matrix( 1, 0, 0, 1, 25.15,25.25) ">
	<g transform="matrix( 1, 0, 0, 1, -23.45,-2.55) ">
		<g transform="matrix( 1.3848419189453125, 0, 0, 1, 3.4,11.55) ">
			<g>
				<g id="Symbol_1_0_Layer0_0_FILL_20_">
					<path d="M313.9-10.8c0-1-0.5-1.5-1.5-1.5h-30.6c-1,0-1.5,0.5-1.5,1.5v2.1c0,1,0.5,1.5,1.5,1.5h30.6c1,0,1.5-0.5,1.5-1.5V-10.8z
						"/>
				</g>
			</g>
		</g>
	</g>
	<g transform="matrix( 1, 0, 0, 1, -23.45,-2.55) ">
		<g transform="matrix( 1.3848419189453125, 0, 0, 1, 3.4,11.55) ">
			<g>
				<g id="Symbol_1_0_Layer0_0_FILL_19_">
					<path d="M313.9-10.8c0-1-0.5-1.5-1.5-1.5h-30.6c-1,0-1.5,0.5-1.5,1.5v2.1c0,1,0.5,1.5,1.5,1.5h30.6c1,0,1.5-0.5,1.5-1.5V-10.8z
						"/>
				</g>
			</g>
		</g>
	</g>
	<g transform="matrix( 1, 0, 0, 1, -23.45,-2.55) ">
		<g transform="matrix( 1.3848419189453125, 0, 0, 1, 3.4,11.55) ">
			<g>
				<g id="Symbol_1_0_Layer0_0_FILL_18_">
					<path d="M313.9-10.8c0-1-0.5-1.5-1.5-1.5h-30.6c-1,0-1.5,0.5-1.5,1.5v2.1c0,1,0.5,1.5,1.5,1.5h30.6c1,0,1.5-0.5,1.5-1.5V-10.8z
						"/>
				</g>
			</g>
		</g>
	</g>
</g>
<g transform="matrix( 1, 0, 0, 1, 25.15,25.25) ">
	<g transform="matrix( 1, 0, 0, 1, -23.45,-2.55) ">
		<g transform="matrix( 1.3848419189453125, 0, 0, 1, 3.4,11.55) ">
			<g>
				<g id="Symbol_1_0_Layer0_0_FILL_23_">
					<path d="M349.3-10.8c0-1-0.5-1.5-1.5-1.5h-30.6c-1,0-1.5,0.5-1.5,1.5v2.1c0,1,0.5,1.5,1.5,1.5h30.6c1,0,1.5-0.5,1.5-1.5V-10.8z
						"/>
				</g>
			</g>
		</g>
	</g>
	<g transform="matrix( 1, 0, 0, 1, -23.45,-2.55) ">
		<g transform="matrix( 1.3848419189453125, 0, 0, 1, 3.4,11.55) ">
			<g>
				<g id="Symbol_1_0_Layer0_0_FILL_22_">
					<path d="M349.3-10.8c0-1-0.5-1.5-1.5-1.5h-30.6c-1,0-1.5,0.5-1.5,1.5v2.1c0,1,0.5,1.5,1.5,1.5h30.6c1,0,1.5-0.5,1.5-1.5V-10.8z
						"/>
				</g>
			</g>
		</g>
	</g>
	<g transform="matrix( 1, 0, 0, 1, -23.45,-2.55) ">
		<g transform="matrix( 1.3848419189453125, 0, 0, 1, 3.4,11.55) ">
			<g>
				<g id="Symbol_1_0_Layer0_0_FILL_21_">
					<path d="M349.3-10.8c0-1-0.5-1.5-1.5-1.5h-30.6c-1,0-1.5,0.5-1.5,1.5v2.1c0,1,0.5,1.5,1.5,1.5h30.6c1,0,1.5-0.5,1.5-1.5V-10.8z
						"/>
				</g>
			</g>
		</g>
	</g>
</g>
<g transform="matrix( 1, 0, 0, 1, 25.15,25.25) ">
	<g transform="matrix( 0.971343994140625, -0.2345123291015625, 0.2345123291015625, 0.971343994140625, -23.65,3.05) ">
		<g transform="matrix( 1.3848419189453125, 0, 0, 1, 3.4,11.55) ">
			<g>
				<g id="Symbol_1_0_Layer0_0_FILL_26_">
					<path d="M375.2,104.2c0-1-0.5-1.5-1.5-1.5l-30.6,0c-1,0-1.5,0.5-1.5,1.5v2.1c0,1,0.5,1.5,1.5,1.5l30.6,0c1,0,1.5-0.5,1.5-1.5
						V104.2z"/>
				</g>
			</g>
		</g>
	</g>
	<g transform="matrix( 0.971343994140625, -0.2345123291015625, 0.2345123291015625, 0.971343994140625, -23.65,3.05) ">
		<g transform="matrix( 1.3848419189453125, 0, 0, 1, 3.4,11.55) ">
			<g>
				<g id="Symbol_1_0_Layer0_0_FILL_25_">
					<path d="M375.2,104.2c0-1-0.5-1.5-1.5-1.5l-30.6,0c-1,0-1.5,0.5-1.5,1.5v2.1c0,1,0.5,1.5,1.5,1.5l30.6,0c1,0,1.5-0.5,1.5-1.5
						V104.2z"/>
				</g>
			</g>
		</g>
	</g>
	<g transform="matrix( 0.971343994140625, 0.2345123291015625, -0.2345123291015625, 0.971343994140625, -21.95,-7.95) ">
		<g transform="matrix( 1.3848419189453125, 0, 0, 1, 3.4,11.55) ">
			<g>
				<g id="Symbol_1_0_Layer0_0_FILL_24_">
					<path d="M374.9-125.8c0-1-0.5-1.5-1.5-1.5l-30.6,0c-1,0-1.5,0.5-1.5,1.5v2.1c0,1,0.5,1.5,1.5,1.5l30.6,0c1,0,1.5-0.5,1.5-1.5
						V-125.8z"/>
				</g>
			</g>
		</g>
	</g>
</g>
<g transform="matrix( 1, 0, 0, 1, 25.15,25.25) ">
	<g transform="matrix( 0.9062957763671875, -0.419647216796875, 0.419647216796875, 0.9062957763671875, -22.75,7.65) ">
		<g transform="matrix( 1.3848419189453125, 0, 0, 1, 3.4,11.55) ">
			<g>
				<g id="Symbol_1_0_Layer0_0_FILL_29_">
					<path d="M384.8,215.7c0-1-0.5-1.5-1.5-1.5l-30.6,0c-1,0-1.5,0.5-1.5,1.5v2.1c0,1,0.5,1.5,1.5,1.5l30.6,0c1,0,1.5-0.5,1.5-1.5
						V215.7z"/>
				</g>
			</g>
		</g>
	</g>
	<g transform="matrix( 0.9062957763671875, -0.419647216796875, 0.419647216796875, 0.9062957763671875, -22.75,7.65) ">
		<g transform="matrix( 1.3848419189453125, 0, 0, 1, 3.4,11.55) ">
			<g>
				<g id="Symbol_1_0_Layer0_0_FILL_28_">
					<path d="M384.8,215.7c0-1-0.5-1.5-1.5-1.5l-30.6,0c-1,0-1.5,0.5-1.5,1.5v2.1c0,1,0.5,1.5,1.5,1.5l30.6,0c1,0,1.5-0.5,1.5-1.5
						V215.7z"/>
				</g>
			</g>
		</g>
	</g>
	<g transform="matrix( 0.9062957763671875, 0.419647216796875, -0.419647216796875, 0.9062957763671875, -19.75,-12.05) ">
		<g transform="matrix( 1.3848419189453125, 0, 0, 1, 3.4,11.55) ">
			<g>
				<g id="Symbol_1_0_Layer0_0_FILL_27_">
					<path d="M384.2-237.4c0-1-0.5-1.5-1.5-1.5l-30.6,0c-1,0-1.5,0.5-1.5,1.5v2.1c0,1,0.5,1.5,1.5,1.5h30.6c1,0,1.5-0.5,1.5-1.5
						V-237.4z"/>
				</g>
			</g>
		</g>
	</g>
</g>
<g transform="matrix( 1, 0, 0, 1, 25.15,25.25) ">
	<g transform="matrix( 0.831451416015625, -0.552825927734375, 0.552825927734375, 0.831451416015625, -21.5,11.05) ">
		<g transform="matrix( 1.3848419189453125, 0, 0, 1, 3.4,11.55) ">
			<g>
				<g id="Symbol_1_0_Layer0_0_FILL_32_">
					<path d="M385.4,314.9c0-1-0.5-1.5-1.5-1.5h-30.7c-1,0-1.5,0.5-1.5,1.5v2.1c0,1,0.5,1.5,1.5,1.5l30.7,0c1,0,1.5-0.5,1.5-1.5
						V314.9z"/>
				</g>
			</g>
		</g>
	</g>
	<g transform="matrix( 0.831451416015625, -0.552825927734375, 0.552825927734375, 0.831451416015625, -21.5,11.05) ">
		<g transform="matrix( 1.3848419189453125, 0, 0, 1, 3.4,11.55) ">
			<g>
				<g id="Symbol_1_0_Layer0_0_FILL_31_">
					<path d="M385.4,314.9c0-1-0.5-1.5-1.5-1.5h-30.7c-1,0-1.5,0.5-1.5,1.5v2.1c0,1,0.5,1.5,1.5,1.5l30.7,0c1,0,1.5-0.5,1.5-1.5
						V314.9z"/>
				</g>
			</g>
		</g>
	</g>
	<g transform="matrix( 0.831451416015625, 0.552825927734375, -0.552825927734375, 0.831451416015625, -17.5,-14.85) ">
		<g transform="matrix( 1.3848419189453125, 0, 0, 1, 3.4,11.55) ">
			<g>
				<g id="Symbol_1_0_Layer0_0_FILL_30_">
					<path d="M384.6-336.6c0-1-0.5-1.5-1.5-1.5h-30.6c-1,0-1.5,0.5-1.5,1.5v2.1c0,1,0.5,1.5,1.5,1.5h30.6c1,0,1.5-0.5,1.5-1.5
						V-336.6z"/>
				</g>
			</g>
		</g>
	</g>
</g>
<g transform="matrix( 1, 0, 0, 1, 25.15,25.25) ">
	<g transform="matrix( 0.7660369873046875, -0.6402587890625, 0.6402587890625, 0.7660369873046875, -20.25,13.3) ">
		<g transform="matrix( 1.3848419189453125, 0, 0, 1, 3.4,11.55) ">
			<g>
				<g id="Symbol_1_0_Layer0_0_FILL_35_">
					<path d="M384.9,398c0-1-0.5-1.5-1.5-1.5l-30.6,0c-1,0-1.5,0.5-1.5,1.5v2.1c0,1,0.5,1.5,1.5,1.5h30.6c1,0,1.5-0.5,1.5-1.5V398z"
						/>
				</g>
			</g>
		</g>
	</g>
	<g transform="matrix( 0.7660369873046875, -0.6402587890625, 0.6402587890625, 0.7660369873046875, -20.25,13.3) ">
		<g transform="matrix( 1.3848419189453125, 0, 0, 1, 3.4,11.55) ">
			<g>
				<g id="Symbol_1_0_Layer0_0_FILL_34_">
					<path d="M384.9,398c0-1-0.5-1.5-1.5-1.5l-30.6,0c-1,0-1.5,0.5-1.5,1.5v2.1c0,1,0.5,1.5,1.5,1.5h30.6c1,0,1.5-0.5,1.5-1.5V398z"
						/>
				</g>
			</g>
		</g>
	</g>
	<g transform="matrix( 0.7660369873046875, 0.6402587890625, -0.6402587890625, 0.7660369873046875, -15.65,-16.7) ">
		<g transform="matrix( 1.3848419189453125, 0, 0, 1, 3.4,11.55) ">
			<g>
				<g id="Symbol_1_0_Layer0_0_FILL_33_">
					<path d="M383.9-419.6c0-1-0.5-1.5-1.5-1.5h-30.6c-1,0-1.5,0.5-1.5,1.5v2.1c0,1,0.5,1.5,1.5,1.5l30.6,0c1,0,1.5-0.5,1.5-1.5
						V-419.6z"/>
				</g>
			</g>
		</g>
	</g>
</g>
<g transform="matrix( 1, 0, 0, 1, 25.15,25.25) ">
	<g transform="matrix( 0.72235107421875, -0.6891326904296875, 0.6891326904296875, 0.72235107421875, -19.4,14.6) ">
		<g transform="matrix( 1.3848419189453125, 0, 0, 1, 3.4,11.55) ">
			<g>
				<g id="Symbol_1_0_Layer0_0_FILL_38_">
					<path d="M390.5,463.1c0-1-0.5-1.5-1.5-1.5l-30.6,0c-1,0-1.5,0.5-1.5,1.5v2.1c0,1,0.5,1.5,1.5,1.5H389c1,0,1.5-0.5,1.5-1.5
						V463.1z"/>
				</g>
			</g>
		</g>
	</g>
	<g transform="matrix( 0.72235107421875, -0.6891326904296875, 0.6891326904296875, 0.72235107421875, -19.4,14.6) ">
		<g transform="matrix( 1.3848419189453125, 0, 0, 1, 3.4,11.55) ">
			<g>
				<g id="Symbol_1_0_Layer0_0_FILL_37_">
					<path d="M390.5,463.1c0-1-0.5-1.5-1.5-1.5l-30.6,0c-1,0-1.5,0.5-1.5,1.5v2.1c0,1,0.5,1.5,1.5,1.5H389c1,0,1.5-0.5,1.5-1.5
						V463.1z"/>
				</g>
			</g>
		</g>
	</g>
	<g transform="matrix( 0.72235107421875, 0.6891326904296875, -0.6891326904296875, 0.72235107421875, -14.5,-17.7) ">
		<g transform="matrix( 1.3848419189453125, 0, 0, 1, 3.4,11.55) ">
			<g>
				<g id="Symbol_1_0_Layer0_0_FILL_36_">
					<path d="M389.4-484.7c0-1-0.5-1.5-1.5-1.5h-30.6c-1,0-1.5,0.5-1.5,1.5v2.1c0,1,0.5,1.5,1.5,1.5h30.6c1,0,1.5-0.5,1.5-1.5
						V-484.7z"/>
				</g>
			</g>
		</g>
	</g>
</g>
<g transform="matrix( 1, 0, 0, 1, 25.15,25.25) ">
	<g transform="matrix( 0.7071075439453125, -0.70709228515625, 0.70709228515625, 0.7071075439453125, -19.15,15.1) ">
		<g transform="matrix( 1.3848419189453125, 0, 0, 1, 3.4,11.55) ">
			<g>
				<g id="Symbol_1_0_Layer0_0_FILL_41_">
					<path d="M406.8,508.6c0-1-0.5-1.5-1.5-1.5l-30.6,0c-1,0-1.5,0.5-1.5,1.5v2.1c0,1,0.5,1.5,1.5,1.5l30.6,0c1,0,1.5-0.5,1.5-1.5
						V508.6z"/>
				</g>
			</g>
		</g>
	</g>
	<g transform="matrix( 0.7071075439453125, -0.70709228515625, 0.70709228515625, 0.7071075439453125, -19.15,15.1) ">
		<g transform="matrix( 1.3848419189453125, 0, 0, 1, 3.4,11.55) ">
			<g>
				<g id="Symbol_1_0_Layer0_0_FILL_40_">
					<path d="M406.8,508.6c0-1-0.5-1.5-1.5-1.5l-30.6,0c-1,0-1.5,0.5-1.5,1.5v2.1c0,1,0.5,1.5,1.5,1.5l30.6,0c1,0,1.5-0.5,1.5-1.5
						V508.6z"/>
				</g>
			</g>
		</g>
	</g>
	<g transform="matrix( 0.7071075439453125, 0.70709228515625, -0.70709228515625, 0.7071075439453125, -14.05,-18.1) ">
		<g transform="matrix( 1.3848419189453125, 0, 0, 1, 3.4,11.55) ">
			<g>
				<g id="Symbol_1_0_Layer0_0_FILL_39_">
					<path d="M405.7-530.1c0-1-0.5-1.5-1.5-1.5l-30.6,0c-1,0-1.5,0.5-1.5,1.5v2.1c0,1,0.5,1.5,1.5,1.5h30.6c1,0,1.5-0.5,1.5-1.5
						L405.7-530.1z"/>
				</g>
			</g>
		</g>
	</g>
</g>
<g transform="matrix( 1, 0, 0, 1, 25.15,25.25) ">
	<g transform="matrix( 1, 0, 0, 1, -23.45,10.75) ">
		<g transform="matrix( 1.3848419189453125, 0, 0, 1, 3.4,11.55) ">
			<g>
				<g id="Symbol_1_0_Layer0_0_FILL_44_">
					<path d="M66.1-10.6c0-1-0.5-1.5-1.5-1.5H34c-1,0-1.5,0.5-1.5,1.5v2.1C32.5-7.5,33-7,34-7h30.6c1,0,1.5-0.5,1.5-1.5V-10.6z"/>
				</g>
			</g>
		</g>
	</g>
	<g transform="matrix( 1, 0, 0, 1, -23.45,-2.55) ">
		<g transform="matrix( 1.3848419189453125, 0, 0, 1, 3.4,11.55) ">
			<g>
				<g id="Symbol_1_0_Layer0_0_FILL_43_">
					<path d="M66.1-10.6c0-1-0.5-1.5-1.5-1.5H34c-1,0-1.5,0.5-1.5,1.5v2.1C32.5-7.5,33-7,34-7h30.6c1,0,1.5-0.5,1.5-1.5V-10.6z"/>
				</g>
			</g>
		</g>
	</g>
	<g transform="matrix( 1, 0, 0, 1, -23.45,-16.2) ">
		<g transform="matrix( 1.3848419189453125, 0, 0, 1, 3.4,11.55) ">
			<g>
				<g id="Symbol_1_0_Layer0_0_FILL_42_">
					<path d="M66.1-10.6c0-1-0.5-1.5-1.5-1.5H34c-1,0-1.5,0.5-1.5,1.5v2.1C32.5-7.5,33-7,34-7h30.6c1,0,1.5-0.5,1.5-1.5V-10.6z"/>
				</g>
			</g>
		</g>
	</g>
</g>
<g transform="matrix( 1, 0, 0, 1, 25.15,25.25) ">
	<g transform="matrix( 1, 0, 0, 1, -23.45,6.15) ">
		<g transform="matrix( 1.3848419189453125, 0, 0, 1, 3.4,11.55) ">
			<g>
				<g id="Symbol_1_0_Layer0_0_FILL_47_">
					<path d="M101.5-10.7c0-1-0.5-1.5-1.5-1.5H69.4c-1,0-1.5,0.5-1.5,1.5v2.1c0,1,0.5,1.5,1.5,1.5H100c1,0,1.5-0.5,1.5-1.5V-10.7z"
						/>
				</g>
			</g>
		</g>
	</g>
	<g transform="matrix( 1, 0, 0, 1, -23.45,-2.55) ">
		<g transform="matrix( 1.3848419189453125, 0, 0, 1, 3.4,11.55) ">
			<g>
				<g id="Symbol_1_0_Layer0_0_FILL_46_">
					<path d="M101.5-10.7c0-1-0.5-1.5-1.5-1.5H69.4c-1,0-1.5,0.5-1.5,1.5v2.1c0,1,0.5,1.5,1.5,1.5H100c1,0,1.5-0.5,1.5-1.5V-10.7z"
						/>
				</g>
			</g>
		</g>
	</g>
	<g transform="matrix( 1, 0, 0, 1, -23.45,-11.45) ">
		<g transform="matrix( 1.3848419189453125, 0, 0, 1, 3.4,11.55) ">
			<g>
				<g id="Symbol_1_0_Layer0_0_FILL_45_">
					<path d="M101.5-10.7c0-1-0.5-1.5-1.5-1.5H69.4c-1,0-1.5,0.5-1.5,1.5v2.1c0,1,0.5,1.5,1.5,1.5H100c1,0,1.5-0.5,1.5-1.5V-10.7z"
						/>
				</g>
			</g>
		</g>
	</g>
</g>
</svg>
