<svg width="80" height="80" viewBox="0 0 80 80" fill="none" xmlns="http://www.w3.org/2000/svg">
<g clip-path="url(#clip0_101_124)">
<path d="M39.9979 79.9961C32.0876 79.9937 24.3555 77.6459 17.7795 73.2494C11.2034 68.853 6.07856 62.6053 3.05302 55.2964C0.0274729 47.9875 -0.762939 39.9456 0.781729 32.1876C2.3264 24.4295 6.13678 17.3036 11.7311 11.711C17.3254 6.11835 24.4524 2.31008 32.2109 0.767704C39.9694 -0.77467 48.0111 0.0181149 55.3191 3.04582C62.6271 6.07352 68.8732 11.2002 73.2677 17.7776C77.6622 24.3549 80.0078 32.0877 80.0078 39.998C79.9963 50.6047 75.7769 60.7735 68.2758 68.2724C60.7746 75.7714 50.6046 79.9877 39.9979 79.9961ZM39.9979 0.749115C32.2362 0.749894 24.649 3.05224 18.1957 7.36501C11.7424 11.6778 6.71286 17.8073 3.74311 24.9784C0.773353 32.1496 -0.00326584 40.0403 1.51146 47.6528C3.02618 55.2654 6.76422 62.2578 12.2529 67.7459C17.7416 73.234 24.7343 76.9713 32.347 78.4853C39.9597 79.9993 47.8503 79.2218 55.0212 76.2514C62.1921 73.2809 68.321 68.2508 72.6332 61.797C76.9453 55.3433 79.2469 47.7559 79.2469 39.9941C79.2333 29.5895 75.0936 19.6151 67.7357 12.2587C60.3778 4.90228 50.4025 0.764536 39.9979 0.753061V0.749115Z" fill="white"/>
<path d="M39.998 65.5346C34.0764 65.5346 28.2877 63.7786 23.364 60.4887C18.4404 57.1988 14.6028 52.5228 12.3367 47.0519C10.0706 41.581 9.47767 35.561 10.6329 29.7531C11.7882 23.9452 14.6397 18.6104 18.827 14.4232C23.0142 10.2359 28.3491 7.38437 34.1569 6.22912C39.9648 5.07386 45.9848 5.66678 51.4557 7.9329C56.9266 10.199 61.6026 14.0365 64.8925 18.9602C68.1824 23.8839 69.9384 29.6726 69.9384 35.5942C69.9321 43.533 66.7757 51.1448 61.1621 56.7583C55.5486 62.3719 47.9368 65.5283 39.998 65.5346ZM39.998 6.39504C34.2276 6.39504 28.5869 8.10615 23.789 11.312C18.9911 14.5178 15.2516 19.0744 13.0434 24.4056C10.8351 29.7367 10.2574 35.6029 11.3831 41.2624C12.5088 46.9219 15.2875 52.1205 19.3678 56.2007C23.4481 60.281 28.6467 63.0597 34.3061 64.1854C39.9656 65.3112 45.8319 64.7334 51.163 62.5252C56.4941 60.317 61.0507 56.5775 64.2565 51.7796C67.4624 46.9817 69.1735 41.3409 69.1735 35.5705C69.1589 27.8383 66.08 20.4271 60.6114 14.9607C55.1427 9.49423 47.7303 6.41833 39.998 6.40687V6.39504Z" fill="white"/>
<path d="M9.11541 56.0603L8.85519 55.3664L8.76058 55.4019C8.41419 55.5504 8.0385 55.618 7.66208 55.5995C7.28566 55.5811 6.91839 55.4771 6.58818 55.2954C5.86509 54.8421 5.33128 54.1415 5.08604 53.3241C4.94972 52.9685 4.86347 52.5956 4.82977 52.2162C4.80106 51.8616 4.83035 51.5047 4.91651 51.1596C5.07097 50.4871 5.39077 49.8637 5.84696 49.346C6.31242 48.832 6.89743 48.4406 7.55018 48.2066C8.06688 48.0111 8.61924 47.9278 9.1706 47.9621C9.74361 48.0007 10.3029 48.155 10.8147 48.4155C11.266 48.6307 11.6737 48.9274 12.0172 49.2908C12.594 49.9218 12.9413 50.7288 13.0028 51.5815C13.0213 51.9049 12.9716 52.2286 12.857 52.5316L13.4563 52.7919L13.5824 53.1309L11.481 53.9786L11.3233 53.5607C11.8115 53.2151 12.2003 52.7474 12.4509 52.2044C12.6402 51.7393 12.6402 51.2186 12.4509 50.7535C12.3513 50.4469 12.178 50.1694 11.9462 49.9453C11.7359 49.7643 11.4704 49.6601 11.1932 49.6496C10.8915 49.6468 10.5912 49.6894 10.3021 49.7757C9.93154 49.8782 9.21003 50.1279 8.13763 50.5248C6.6276 51.0847 5.74051 51.5184 5.47635 51.8338C5.34283 52.0158 5.26284 52.2314 5.24542 52.4565C5.22801 52.6815 5.27385 52.9069 5.37779 53.1073C5.47108 53.4146 5.66561 53.6814 5.92975 53.8642C6.04849 53.9331 6.18181 53.9729 6.31883 53.9804C6.45586 53.9879 6.59272 53.963 6.71828 53.9076L8.11004 53.3911L7.74337 52.4055L8.09427 52.2754L9.44659 55.9223L9.11541 56.0603Z" fill="white"/>
<path d="M10.9685 63.4842L11.2445 63.2082L11.9384 63.8982L16.9258 58.8674L16.3305 58.276L16.5828 58.0237L21.314 62.7548L19.8749 64.2333L19.591 63.9455C19.8265 63.4655 19.9505 62.9386 19.9538 62.404C19.882 61.9701 19.6601 61.5752 19.3269 61.2882L18.3412 60.3065L16.0703 62.5932C16.0938 62.6233 16.1188 62.6523 16.1452 62.6799L16.2635 62.8022C16.3826 62.9381 16.5277 63.0488 16.6901 63.1281C16.8526 63.2073 17.0292 63.2533 17.2097 63.2634C17.6118 63.2265 17.9917 63.0621 18.2939 62.7943L18.5817 63.0781L16.2162 65.4437L15.9283 65.1599C16.2267 64.8587 16.4143 64.4654 16.4606 64.0441C16.4474 63.85 16.3952 63.6606 16.3071 63.4872C16.219 63.3138 16.0969 63.1599 15.948 63.0348L15.7825 62.8692L13.3774 65.3254L14.3316 66.2756C14.7102 66.6967 15.2342 66.9587 15.7982 67.0089C16.4526 66.9835 17.0871 66.7774 17.6316 66.4136L17.8997 66.6817L15.9954 68.4756L10.9685 63.4842Z" fill="white"/>
<path d="M24.3537 69.4693C24.5356 68.9808 24.8146 68.5342 25.1738 68.1564C25.5509 67.7676 25.9958 67.451 26.4867 67.222C26.9902 66.9936 27.5315 66.86 28.0834 66.8277C29.1693 66.7939 30.2256 67.1842 31.0286 67.9159C31.4262 68.3025 31.7484 68.7598 31.9787 69.2643C32.209 69.7602 32.3428 70.2954 32.373 70.8413C32.4041 71.364 32.3266 71.8875 32.1454 72.3787C31.9643 72.87 31.6833 73.3184 31.3203 73.6958C30.9418 74.0872 30.4922 74.403 29.9956 74.6263C29.5016 74.8618 28.9653 74.9959 28.4185 75.0205C27.327 75.0486 26.2662 74.6578 25.4537 73.9284C24.6651 73.1578 24.1891 72.1229 24.1171 71.0227C24.091 70.4943 24.1714 69.966 24.3537 69.4693ZM26.6049 70.3012C26.258 71.2422 26.0346 71.8993 25.9347 72.2725C25.8487 72.5494 25.8074 72.8382 25.8125 73.128C25.8199 73.4173 25.9255 73.6954 26.1121 73.9166C26.3464 74.152 26.6347 74.3266 26.9519 74.4252C27.2589 74.5561 27.5929 74.6115 27.9257 74.5868C28.2066 74.5422 28.4639 74.4032 28.6551 74.1926C28.8592 73.9568 29.0255 73.6908 29.1479 73.404C29.3214 73.0413 29.5711 72.4171 29.897 71.5313C30.223 70.6455 30.4398 70.0094 30.5476 69.6231C30.6379 69.3267 30.6818 69.0181 30.6777 68.7084C30.6725 68.4187 30.5666 68.1398 30.378 67.9198C29.8835 67.4693 29.2331 67.2289 28.5644 67.2496C28.2844 67.2935 28.0282 67.4328 27.839 67.6438C27.6439 67.8546 27.4865 68.0973 27.3738 68.3614C27.2082 68.7162 26.9519 69.3628 26.6049 70.3012Z" fill="white"/>
<path d="M38.8073 76.7118L39.7575 76.6409L39.2331 69.5678L38.283 69.6387L38.2554 69.28L42.7303 68.9488C43.4603 68.8534 44.2026 68.9513 44.8829 69.2327C45.1202 69.3386 45.3235 69.5081 45.4703 69.7224C45.6171 69.9367 45.7017 70.1875 45.7148 70.447C45.7394 70.7087 45.6981 70.9723 45.5949 71.214C45.4916 71.4557 45.3295 71.6677 45.1234 71.8308C44.5599 72.2415 43.8913 72.4835 43.1955 72.5287V72.6273C43.8888 72.6105 44.5649 72.8442 45.0998 73.2857C45.494 73.6799 45.7227 74.3305 45.7897 75.257C45.7862 75.5115 45.8444 75.7632 45.9593 75.9903C46.0095 76.05 46.0746 76.0953 46.148 76.1216C46.2214 76.1479 46.3005 76.1543 46.3772 76.1402C46.4612 76.134 46.5444 76.1194 46.6256 76.0968C46.7223 76.0689 46.8172 76.0346 46.9094 75.9943L47.0593 76.3097C46.8215 76.4388 46.5736 76.5482 46.3181 76.6369C45.8222 76.813 45.2844 76.8336 44.7765 76.6961C44.5233 76.6347 44.2899 76.5099 44.0984 76.3333C43.7593 76.0179 43.5424 75.395 43.4399 74.4685C43.4399 74.3462 43.4163 74.2516 43.4084 74.1885C43.4035 73.777 43.238 73.3837 42.9471 73.0925C42.5807 72.8749 42.1492 72.7939 41.7288 72.8638H41.5159L41.788 76.495L42.8328 76.4161L42.8604 76.8104L38.8428 77.1061L38.8073 76.7118ZM41.4804 72.4735L42.4898 72.3986C42.6572 72.4058 42.8243 72.3788 42.981 72.3192C43.1376 72.2595 43.2803 72.1685 43.4005 72.0516C43.5768 71.6769 43.6306 71.2562 43.5543 70.8491C43.4991 70.0882 43.3966 69.6387 43.2507 69.4968C42.9518 69.3273 42.6013 69.2726 42.265 69.343L41.2518 69.418L41.4804 72.4735Z" fill="white"/>
<path d="M60.3696 68.0539L59.7191 68.4087L59.7664 68.4955C59.9623 68.8179 60.0824 69.1806 60.118 69.5561C60.1535 69.9317 60.1034 70.3105 59.9714 70.6639C59.6249 71.4412 59.0107 72.0681 58.2406 72.4302C57.9053 72.6093 57.5472 72.742 57.1761 72.8245C56.8296 72.9026 56.4728 72.9239 56.1195 72.8876C55.4332 72.8296 54.772 72.602 54.1955 72.2252C53.6195 71.8373 53.1482 71.3132 52.8234 70.6994C52.5581 70.2122 52.397 69.6751 52.3503 69.1223C52.3089 68.5497 52.3826 67.9746 52.5672 67.431C52.718 66.9545 52.9545 66.5096 53.265 66.1181C53.8074 65.4584 54.5559 65.0001 55.3901 64.817C55.7086 64.7499 56.0375 64.7499 56.356 64.817L56.5295 64.1862L56.8449 64.0127L57.9804 65.984L57.5861 66.1969C57.1743 65.7638 56.6565 65.4458 56.084 65.2743C55.5979 65.1484 55.0819 65.2163 54.6449 65.4636C54.3535 65.6034 54.1025 65.815 53.9155 66.0786C53.7643 66.312 53.7 66.5912 53.7342 66.8672C53.7709 67.1675 53.8547 67.4603 53.9826 67.7345C54.1363 68.0854 54.4833 68.7675 55.0274 69.7689C55.7975 71.183 56.356 71.9992 56.703 72.2173C56.9009 72.3267 57.1261 72.3771 57.3518 72.3624C57.5776 72.3477 57.7943 72.2686 57.9764 72.1345C58.2681 72.0014 58.5049 71.7716 58.6467 71.484C58.6986 71.3566 58.7195 71.2187 58.7079 71.0817C58.6962 70.9446 58.6523 70.8123 58.5797 70.6955L57.87 69.3904L56.9474 69.8912L56.77 69.5679L60.1883 67.7069L60.3696 68.0539Z" fill="white"/>
<path d="M67.1312 65.4319L66.8355 65.1795L67.4781 64.4265L62.0846 59.8254L61.442 60.5785L61.1699 60.3419L63.7997 57.2588L64.0717 57.4914L63.4488 58.2444L68.8265 62.8416L69.4692 62.0885L69.7649 62.3409L67.1312 65.4319Z" fill="white"/>
<path d="M73.6998 56.3127L73.3331 56.1826L73.4987 55.7174C73.5231 55.6607 73.5357 55.5997 73.5357 55.538C73.5357 55.4763 73.5231 55.4153 73.4987 55.3586C73.4068 55.2068 73.2879 55.0732 73.1478 54.9643L67.4468 50.04L67.6084 49.5827L75.7854 49.2633L76.022 48.5891L76.3887 48.7192L75.0994 52.3898L74.7328 52.2597L75.0561 51.3411L73.0847 51.3963L72.2765 53.7027L73.3607 54.645C73.3883 54.6714 73.4204 54.6927 73.4553 54.7081C73.5077 54.7339 73.5617 54.7563 73.617 54.7751C73.6471 54.7848 73.6793 54.7867 73.7103 54.7805C73.7414 54.7743 73.7703 54.7602 73.7944 54.7396C73.8594 54.6759 73.9081 54.5974 73.9364 54.5109L74.1729 53.8328L74.5396 53.959L73.6998 56.3127ZM71.9532 53.4346L72.6747 51.3805L69.7256 51.4712L71.9532 53.4346Z" fill="white"/>
<path fill-rule="evenodd" clip-rule="evenodd" d="M68.0184 35.594C68.0184 51.0692 55.4733 63.6143 39.9981 63.6143C24.5229 63.6143 11.9778 51.0692 11.9778 35.594C11.9778 20.1188 24.5229 7.57373 39.9981 7.57373C55.4733 7.57373 68.0184 20.1188 68.0184 35.594ZM28.0361 51.9126C28.1347 51.5972 28.4383 50.5406 28.4974 50.2252L28.1584 50.1384C28.0172 50.5205 27.8089 50.8744 27.5433 51.1832C27.3107 51.4395 27.1569 51.5026 26.6404 51.5026H25.8519C25.2724 51.4907 25.1895 51.3488 25.1895 50.7338V46.6019C25.1856 45.7306 25.296 45.6872 26.1082 45.6044V45.3205H23.3878V45.6044C24.2 45.6832 24.3064 45.7345 24.3064 46.594V50.6234C24.3064 51.4868 24.2275 51.5381 23.305 51.6287V51.9126H28.0361ZM35.2512 51.8771V51.5932C35.9096 51.5104 35.9884 51.4079 35.8465 51.0216L35.7868 50.8594C35.6524 50.4947 35.4823 50.0332 35.2945 49.48H33.1024C33.0374 49.6638 32.9744 49.8375 32.9129 50.0066L32.9129 50.0068C32.8216 50.2582 32.7339 50.4997 32.649 50.7495C32.4282 51.4079 32.5702 51.4868 33.4021 51.5893V51.8732H31.0601V51.5893C31.6988 51.5065 31.8487 51.4355 32.2114 50.5208L34.301 45.1904L34.6243 45.1273C35.2667 46.8508 35.9635 48.7533 36.6028 50.4984L36.603 50.4992L36.6153 50.5327C36.9425 51.4158 37.0332 51.4947 37.7547 51.5735V51.8574L35.2512 51.8771ZM34.2221 46.4718L34.0434 46.9536C33.775 47.6773 33.5011 48.4158 33.2562 49.07H35.1526L34.2221 46.4718ZM46.2984 46.18C46.326 45.7108 46.5389 45.6123 47.1895 45.5374L47.1776 45.2574H44.6701V45.5452C45.4823 45.5926 45.7188 45.7345 45.7504 46.1918C45.778 46.4954 45.8016 46.9331 45.8016 47.8753V50.3592L41.4884 45.2653H39.9665V45.5492C40.4751 45.6004 40.6762 45.6596 40.8694 45.9119C40.9477 46.0036 41.0063 46.1104 41.0416 46.2257C41.0769 46.341 41.088 46.4624 41.0744 46.5822V49.1685C41.0784 50.0872 41.0587 50.5484 41.0311 50.8757C40.9916 51.3725 40.7472 51.5262 40.1164 51.5775V51.8613H42.5805V51.5775C41.8472 51.5144 41.5949 51.3646 41.5712 50.8481L41.5702 50.8332C41.5504 50.537 41.5199 50.0799 41.5199 49.1843V46.6452L45.8766 51.9441H46.2708V47.8753C46.2708 47.2784 46.2818 46.8886 46.2899 46.601V46.6009V46.6008V46.6007V46.6006V46.6005V46.6004V46.6003V46.6003C46.2947 46.4323 46.2984 46.2992 46.2984 46.18ZM52.8511 45.2417C54.2823 45.2417 55.1851 45.5216 55.8159 46.1169C56.1023 46.399 56.3271 46.7373 56.4764 47.1104C56.6257 47.4836 56.6961 47.8837 56.6833 48.2854C56.7069 48.8125 56.6048 49.3376 56.3854 49.8175C56.166 50.2974 55.8357 50.7182 55.4217 51.0452C54.6529 51.6248 53.6672 51.8337 52.4213 51.8337H50.0558V51.5499C50.931 51.4671 50.9704 51.3961 50.9665 50.5642V46.5151C50.9665 45.6438 50.8443 45.6044 50.0518 45.5255V45.2417H52.8511ZM51.8378 50.4893C51.8378 51.2502 52.1651 51.4631 52.926 51.4592C54.7514 51.4592 55.6858 50.2054 55.6858 48.4313C55.6858 47.3234 55.2916 46.4836 54.503 45.9987C53.9716 45.7077 53.3693 45.5711 52.7643 45.6044C52.4934 45.5776 52.2204 45.6268 51.9758 45.7463C51.8851 45.8094 51.8457 45.9198 51.8457 46.318L51.8378 50.4893ZM51.7622 30.9965C50.883 30.9754 49.9967 30.9542 49.0938 31.0009C49.6037 30.2152 50.2709 29.5436 51.0533 29.0286C51.8357 28.5136 52.7163 28.1662 53.6396 28.0084C56.9948 27.3697 60.346 27.1962 63.1729 29.8181L63.4095 29.5736C63.2225 29.0575 63.037 28.5386 62.8555 28.031L62.8551 28.0298L62.8546 28.0285L62.8545 28.0282L62.8541 28.0271C62.6035 27.3261 62.3605 26.6466 62.132 26.0253C61.848 26.0253 61.5938 26.0308 61.3588 26.036C60.9382 26.0452 60.579 26.0531 60.2199 26.0253C59.6722 25.9806 59.1237 25.9136 58.5755 25.8466C57.4306 25.7067 56.2867 25.567 55.1536 25.631C52.169 25.7887 49.3421 26.5772 46.949 28.5486C44.7569 30.3582 44.0038 33.3113 45.5454 35.4087C46.379 36.5251 47.4408 37.4511 48.6601 38.1252C52.4134 40.1714 56.4704 40.337 60.5984 39.5958C62.7234 39.2173 63.4804 38.2553 63.5751 35.9371C63.3505 36.0659 63.1312 36.2002 62.9135 36.3335C62.4585 36.6122 62.0101 36.8868 61.5328 37.1001C59.5339 38.003 57.4009 38.0937 55.2719 37.8413C53.1428 37.589 51.069 36.9897 49.5945 35.2747C49.267 34.8922 49.0439 34.4191 48.7842 33.8683L48.7842 33.8683C48.6531 33.5902 48.5126 33.2922 48.3447 32.9761C49.0001 32.9761 49.6164 32.9715 50.2054 32.967H50.2055H50.2055C51.5684 32.9567 52.7843 32.9475 53.9984 32.9998C54.8897 33.1053 55.7725 33.2739 56.64 33.5044L57.8228 30.3149C55.7628 31.0922 53.7812 31.0448 51.7622 30.9965ZM43.681 36.3739L43.681 36.374C43.3917 37.2189 43.1553 37.9098 42.8644 38.5747C42.7011 38.8569 42.4358 39.0657 42.1232 39.1582C37.1673 40.6051 32.3849 40.2109 27.8666 37.66C27.0557 37.1679 26.3486 36.5224 25.7849 35.7596C23.9871 33.4374 24.3774 30.441 26.8336 28.5407C30.1849 25.9504 34.0723 25.2604 38.216 25.7572L42.3164 26.2539C42.4532 26.6269 42.6197 27.0733 42.8018 27.5613L42.8018 27.5613C43.0394 28.198 43.3033 28.9055 43.5622 29.6131L43.3572 29.7747C43.2595 29.6986 43.1635 29.62 43.0675 29.5415L43.0674 29.5415C42.8651 29.376 42.663 29.2107 42.4465 29.069C40.5642 27.8201 38.2849 27.3156 36.0515 27.6536C34.5564 27.8275 33.0897 28.1918 31.687 28.7378C30.0193 29.4435 28.5329 30.5908 28.5329 32.6528C28.5014 34.8134 29.9877 36.0672 31.7264 36.836C34.6593 38.1827 37.9954 38.3603 41.0547 37.3327C41.6706 37.1247 42.2427 36.7685 42.9215 36.3458L42.9216 36.3458C43.2206 36.1596 43.5402 35.9606 43.8934 35.7557C43.8188 35.9712 43.7485 36.1768 43.681 36.3739ZM16.3975 39.6589H22.7057C21.421 39.4533 21.4193 38.5988 21.4177 37.7498C21.4174 37.6217 21.4172 37.4938 21.4125 37.3682C21.4125 36.3433 21.4151 35.3183 21.4178 34.2933C21.423 32.2427 21.4283 30.1915 21.4125 28.1385C21.4124 28.1081 21.4122 28.0777 21.412 28.0474C21.407 27.1427 21.4023 26.2924 22.5086 25.9109H16.5236C17.7459 26.2263 17.7459 27.1489 17.7459 28.103V28.103V36.9937C17.7453 37.1571 17.7529 37.3249 17.7606 37.4931C17.8042 38.4454 17.8483 39.4109 16.3975 39.6589Z" fill="white"/>
</g>
<defs>
<clipPath id="clip0_101_124">
<rect width="80" height="80" fill="white"/>
</clipPath>
</defs>
</svg>
