<svg width="80" height="80" viewBox="0 0 80 80" fill="none" xmlns="http://www.w3.org/2000/svg">
<g clip-path="url(#clip0_101_96)">
<path d="M39.9981 79.9961C32.0872 79.9961 24.354 77.6502 17.7763 73.2552C11.1987 68.8602 6.07204 62.6133 3.04469 55.3046C0.0173302 47.9959 -0.774764 39.9537 0.768569 32.1948C2.3119 24.436 6.12135 17.309 11.7152 11.7152C17.309 6.12135 24.436 2.3119 32.1948 0.768568C39.9537 -0.774765 47.9959 0.0173345 55.3046 3.04469C62.6133 6.07205 68.8602 11.1987 73.2552 17.7763C77.6502 24.354 79.9961 32.0872 79.9961 39.9981C79.9846 50.6027 75.7668 60.7696 68.2682 68.2682C60.7696 75.7668 50.6027 79.9846 39.9981 79.9961ZM39.9981 0.749118C32.2361 0.749118 24.6485 3.0508 18.1947 7.36309C11.7409 11.6754 6.71077 17.8046 3.74041 24.9757C0.770047 32.1468 -0.0071342 40.0376 1.50714 47.6504C3.02142 55.2632 6.75914 62.256 12.2477 67.7445C17.7362 73.233 24.7289 76.9707 32.3417 78.485C39.9545 79.9993 47.8454 79.2221 55.0165 76.2517C62.1875 73.2814 68.3168 68.2513 72.6291 61.7975C76.9414 55.3437 79.243 47.756 79.243 39.9941C79.2305 29.5899 75.0916 19.6155 67.7344 12.2589C60.3771 4.90241 50.4023 0.764542 39.9981 0.753064V0.749118Z" fill="white"/>
<path d="M39.998 65.5346C34.0764 65.5346 28.2877 63.7786 23.364 60.4887C18.4404 57.1988 14.6028 52.5228 12.3367 47.0519C10.0706 41.581 9.47767 35.561 10.6329 29.7531C11.7882 23.9452 14.6397 18.6104 18.827 14.4232C23.0142 10.2359 28.3491 7.38437 34.1569 6.22912C39.9648 5.07386 45.9848 5.66678 51.4557 7.9329C56.9266 10.199 61.6026 14.0365 64.8925 18.9602C68.1824 23.8839 69.9384 29.6726 69.9384 35.5942C69.9321 43.533 66.7757 51.1448 61.1621 56.7583C55.5486 62.3719 47.9368 65.5283 39.998 65.5346ZM39.998 6.39504C34.2276 6.39504 28.5868 8.10615 23.789 11.312C18.9911 14.5178 15.2516 19.0744 13.0434 24.4056C10.8351 29.7367 10.2574 35.6029 11.3831 41.2624C12.5088 46.9219 15.2875 52.1205 19.3678 56.2007C23.4481 60.281 28.6466 63.0597 34.3061 64.1854C39.9656 65.3112 45.8319 64.7334 51.163 62.5252C56.4941 60.317 61.0507 56.5775 64.2565 51.7796C67.4624 46.9817 69.1735 41.3409 69.1735 35.5705C69.1589 27.8383 66.08 20.4271 60.6114 14.9607C55.1427 9.49423 47.7303 6.41833 39.998 6.40687V6.39504Z" fill="white"/>
<path d="M7.37277 52.6973L5.10181 53.3163L4.9993 52.922L5.27529 52.2833C5.00537 52.1039 4.77576 51.8703 4.6011 51.5973C4.40361 51.297 4.25584 50.9669 4.16347 50.6195C4.01486 50.1075 3.9812 49.569 4.0649 49.0425C4.15756 48.5141 4.35604 48.0098 4.64841 47.56C4.92585 47.1049 5.28391 46.7041 5.70504 46.3772C6.11779 46.0609 6.58965 45.8304 7.09284 45.6991C7.58741 45.5598 8.10487 45.5209 8.6147 45.5848C9.14809 45.6583 9.66373 45.8279 10.1366 46.0855C10.6136 46.3274 11.0373 46.6626 11.3824 47.0712C11.7149 47.479 11.9556 47.9537 12.0882 48.4629C12.2643 49.0919 12.2409 49.76 12.0211 50.3751L12.5297 50.6866L12.6362 51.0808L10.5584 51.6998L10.4441 51.2858C10.9385 50.955 11.3445 50.5083 11.6269 49.9848C11.8298 49.53 11.8593 49.0167 11.7097 48.5418C11.6722 48.2981 11.5674 48.0698 11.4072 47.8824C11.247 47.695 11.0377 47.5561 10.8029 47.4812C10.3613 47.3747 9.37169 47.5285 7.83406 47.9504C7.04553 48.1712 6.41865 48.3446 6.02439 48.4747C5.7336 48.5607 5.45121 48.6729 5.18067 48.8099C4.87876 48.9589 4.63675 49.2064 4.49465 49.5116C4.38673 49.8354 4.38673 50.1854 4.49465 50.5091C4.64261 51.0571 4.99736 51.5263 5.48425 51.8181C6.00279 52.1474 6.61471 52.2983 7.22689 52.2478L7.37277 52.6973Z" fill="white"/>
<path d="M11.9383 58.3588C12.3314 58.018 12.7904 57.7616 13.2867 57.6057C14.3447 57.2854 15.4838 57.3682 16.4842 57.8384C16.9663 58.0776 17.3943 58.4131 17.7419 58.824C18.0955 59.2288 18.3637 59.7008 18.5304 60.2118C18.6919 60.7426 18.7521 61.299 18.7078 61.852C18.6762 62.3977 18.5425 62.9326 18.3136 63.429C18.089 63.8983 17.7695 64.3158 17.3752 64.6552C16.9778 65.0001 16.5133 65.2591 16.0111 65.4161C15.4908 65.5757 14.9451 65.6358 14.4025 65.5935C13.8563 65.5652 13.3207 65.4313 12.8254 65.1993C11.8572 64.6956 11.1181 63.8408 10.7595 62.81C10.5969 62.2836 10.5353 61.7311 10.5781 61.1817C10.6137 60.6344 10.7543 60.0989 10.9921 59.6047C11.2203 59.1298 11.5422 58.706 11.9383 58.3588ZM13.5154 60.1763C12.7558 60.8334 12.2432 61.2987 11.9778 61.572C11.7676 61.7719 11.5918 62.005 11.4573 62.262C11.3303 62.5154 11.2914 62.804 11.3469 63.0821C11.4416 63.4 11.609 63.6916 11.8358 63.9337C12.0458 64.1977 12.3163 64.4073 12.6244 64.5448C12.8925 64.6379 13.1842 64.6379 13.4523 64.5448C13.7358 64.4363 14.0016 64.2861 14.2408 64.0993C14.5641 63.8667 15.0885 63.4369 15.8179 62.8179C16.5473 62.1989 17.0283 61.7495 17.3082 61.4616C17.5317 61.2472 17.7194 60.9983 17.8641 60.7244C17.9923 60.4726 18.0298 60.1844 17.9706 59.9082C17.7595 59.2733 17.306 58.7475 16.7089 58.4455C16.4411 58.3505 16.1488 58.3505 15.881 58.4455C15.6089 58.5351 15.3533 58.6682 15.124 58.8398C14.7967 59.0803 14.2763 59.5219 13.5075 60.1763H13.5154Z" fill="white"/>
<path d="M20.9788 72.1383L21.1286 71.7795L21.6727 72.0082C21.7339 72.0387 21.8014 72.0546 21.8698 72.0546C21.9382 72.0546 22.0057 72.0387 22.0669 72.0082C22.1989 71.9281 22.2981 71.8038 22.3469 71.6573L24.8623 65.6487L23.8727 65.2347L24.0106 64.9036L27.2081 66.2401L26.7665 70.9713L29.8931 67.3756L32.9249 68.6412L32.787 68.9763L31.8289 68.582L29.0927 75.1229L30.0192 75.5171L29.8694 75.8759L26.1042 74.2752L26.254 73.9164L27.2554 74.3343L29.9522 67.8842H29.9325L24.9214 73.7784L24.5271 73.6168L25.2526 65.838L22.7608 71.7913C22.6783 71.9402 22.6543 72.1146 22.6938 72.2802C22.7298 72.3529 22.7806 72.4172 22.8432 72.4688C22.9057 72.5204 22.9784 72.5583 23.0565 72.5799L23.5454 72.7849L23.3956 73.1437L20.9788 72.1383Z" fill="white"/>
<path d="M37.5891 76.641L38.5668 76.6055L38.3303 69.5088L37.3564 69.5403V69.1815L41.508 69.0435C42.3729 68.9547 43.2461 69.0905 44.0432 69.4378C44.3127 69.5788 44.5375 69.7923 44.6921 70.0542C44.8468 70.3162 44.9252 70.6161 44.9184 70.9202C44.946 71.2375 44.8873 71.5563 44.7485 71.843C44.6097 72.1296 44.3959 72.3734 44.1299 72.5485C43.57 72.9218 42.7224 73.1281 41.5869 73.1675L40.5027 73.203L40.6131 76.5148L41.7525 76.4793V76.8736L37.6127 77.0116L37.5891 76.641ZM40.3489 69.4536L40.4632 72.9152L41.5908 72.8758C41.7531 72.8927 41.9172 72.8735 42.0712 72.8197C42.2252 72.7658 42.3655 72.6786 42.4819 72.5643C42.6238 72.3711 42.679 71.8625 42.6514 71.0424C42.6278 70.3012 42.541 69.8399 42.3873 69.6625C42.2537 69.5539 42.0981 69.4758 41.9313 69.4336C41.7644 69.3914 41.5904 69.3861 41.4213 69.4181L40.3489 69.4536Z" fill="white"/>
<path d="M51.1281 75.4581L50.9744 75.0993L51.4278 74.9062C51.4851 74.8842 51.5373 74.8509 51.5814 74.8082C51.6254 74.7656 51.6603 74.7144 51.684 74.6578C51.7386 74.4833 51.76 74.3 51.7471 74.1176L51.5224 66.5872L51.964 66.3979L57.732 72.2055L58.3865 71.9255L58.5403 72.2843L54.9643 73.814L54.8105 73.4592L55.7095 73.0649L54.3414 71.6574L52.0941 72.6194L52.1335 74.0585C52.1271 74.095 52.1271 74.1324 52.1335 74.1689C52.1335 74.2162 52.169 74.2714 52.1966 74.3345C52.2091 74.3637 52.2293 74.3889 52.255 74.4077C52.2806 74.4264 52.3108 74.4379 52.3425 74.4409C52.4338 74.4461 52.5249 74.427 52.6066 74.3857L53.265 74.1058L53.4188 74.4646L51.1281 75.4581ZM52.0665 72.2252L54.0654 71.3657L52.0073 69.2564L52.0665 72.2252Z" fill="white"/>
<path d="M64.6711 68.0065L64.3872 67.7424L64.8091 67.285C64.8551 67.2459 64.8925 67.1977 64.9189 67.1434C64.9454 67.0891 64.9603 67.03 64.9628 66.9696C64.9253 66.8327 64.8435 66.7121 64.7302 66.6266L60.2041 62.4474C60.1653 62.401 60.1171 62.3634 60.0628 62.3369C60.0084 62.3104 59.9491 62.2957 59.8887 62.2937C59.7495 62.3456 59.6279 62.4358 59.5378 62.5539L59.2026 62.9166L58.9385 62.6722L61.1503 60.3066L66.7607 60.8704L64.1428 58.4417C64.0335 58.316 63.8847 58.2311 63.7209 58.2012C63.563 58.2479 63.4245 58.3448 63.3266 58.4772L62.9757 58.8715L62.7116 58.627L64.4582 56.7424L64.7223 56.9869L64.403 57.3338C64.3458 57.3834 64.299 57.4437 64.2652 57.5113C64.2313 57.579 64.2112 57.6526 64.2058 57.7281C64.2439 57.8869 64.3376 58.0268 64.47 58.1224L69.6624 62.9363L69.4338 63.1768L60.689 62.2345L65.1284 66.3506C65.1679 66.3946 65.2167 66.429 65.2713 66.4516C65.3259 66.4741 65.3849 66.4841 65.4438 66.4807C65.5659 66.4646 65.6773 66.4025 65.7553 66.3073L66.2442 65.779L66.528 66.0431L64.6711 68.0065Z" fill="white"/>
<path d="M74.7129 53.4818L74.3462 53.3635L74.6498 52.4212L71.472 51.408L67.1785 52.4843L66.938 53.2374L66.595 53.127L67.8408 49.2829L68.1799 49.3933L67.8763 50.3316L71.5154 49.4445L69.5441 47.351C69.4494 47.2524 69.3745 47.1815 69.3272 47.1381C69.2892 47.1019 69.2451 47.0726 69.1971 47.0514C69.1635 47.0393 69.1272 47.0369 69.0923 47.0446C69.0574 47.0522 69.0254 47.0696 69 47.0947C68.9285 47.1733 68.8771 47.268 68.8502 47.3707L68.6373 48.0331L68.2942 47.9227L69.0828 45.4546L69.4258 45.565L69.3233 45.8804C69.2604 46.0563 69.2604 46.2486 69.3233 46.4245C69.4495 46.6801 69.6204 46.9111 69.8279 47.1066L71.9806 49.3854L75.3043 50.4617L75.6078 49.5234L75.9784 49.6417L74.7129 53.4818Z" fill="white"/>
<path fill-rule="evenodd" clip-rule="evenodd" d="M39.9981 63.6143C55.4733 63.6143 68.0184 51.0692 68.0184 35.594C68.0184 20.1188 55.4733 7.57373 39.9981 7.57373C24.5229 7.57373 11.9778 20.1188 11.9778 35.594C11.9778 51.0692 24.5229 63.6143 39.9981 63.6143ZM37.0411 49.0148L25.6627 49.0148C22.5086 49.0148 20.0116 48.3577 18.1717 47.0434C17.2977 46.4597 16.5861 45.6637 16.1035 44.7301C15.6208 43.7965 15.3828 42.7557 15.4118 41.7051C15.3763 40.8242 15.5551 39.9479 15.9328 39.1513C16.3105 38.3547 16.8758 37.6617 17.5803 37.1317C19.0312 36.0251 21.1904 35.3522 24.058 35.113V34.774C21.5479 34.4139 19.6541 33.7331 18.3767 32.7317C17.7692 32.2785 17.2788 31.6868 16.9462 31.0059C16.6136 30.3249 16.4485 29.5743 16.4645 28.8166C16.4413 27.9073 16.6494 27.007 17.0694 26.2002C17.4894 25.3933 18.1074 24.7064 18.8656 24.2038C20.4663 23.0683 22.6479 22.5005 25.4104 22.5005H37.0411V22.4966H50.6274C52.3043 22.4659 53.9781 22.6528 55.607 23.0525C56.9703 23.4166 58.2539 24.0316 59.3919 24.8661C61.0476 26.0599 62.3686 27.6592 63.2281 29.5105C64.1443 31.4693 64.6168 33.6062 64.6121 35.7686C64.6073 37.9311 64.1253 40.0658 63.2005 42.0205C62.3054 43.8967 60.9488 45.515 59.2579 46.7241C58.1064 47.5293 56.8168 48.116 55.4532 48.4549C53.8171 48.8521 52.1373 49.0402 50.4539 49.0148L40.1873 49.0148L37.0411 49.0148ZM37.3644 47.6979H40.2662V23.7109H40.2149V23.7149H37.3644V47.6979ZM30.725 23.7109H28.4304C26.1884 23.7109 24.7979 23.9895 24.2591 24.5468C23.7203 25.104 23.4574 26.6114 23.4706 29.069C23.4706 31.3294 23.7768 32.7908 24.3892 33.4532C25.0016 34.1155 26.2764 34.448 28.2136 34.4507H30.7447L30.725 23.7109ZM30.725 35.5861H27.7365C25.731 35.5861 24.3958 35.9804 23.7308 36.7689C23.0658 37.5575 22.7333 39.1713 22.7333 41.6105C22.7333 44.2126 23.0119 45.8764 23.5691 46.6019C24.129 47.3273 25.3315 47.6861 27.1767 47.6861H30.725V35.5861ZM50.3278 47.6979H46.9411V23.7228H50.3278C52.0547 23.7228 53.3005 23.9041 54.0654 24.259C54.8741 24.6644 55.5277 25.3236 55.9263 26.1357C56.3819 27.0883 56.6687 28.1128 56.774 29.1636C56.9769 31.248 57.0598 33.3424 57.0224 35.4363V37.3091C57.0679 39.2623 56.9453 41.2159 56.6557 43.1481C56.4894 44.2462 56.0547 45.2862 55.3901 46.1761C54.94 46.7315 54.3369 47.1428 53.6554 47.3589C52.5684 47.6321 51.4475 47.7463 50.3278 47.6979Z" fill="white"/>
</g>
<defs>
<clipPath id="clip0_101_96">
<rect width="80" height="80" fill="white"/>
</clipPath>
</defs>
</svg>
