<svg width="80" height="80" viewBox="0 0 80 80" fill="none" xmlns="http://www.w3.org/2000/svg">
<g clip-path="url(#clip0_101_112)">
<path d="M39.998 79.9961C32.0872 79.9961 24.354 77.6502 17.7763 73.2552C11.1987 68.8602 6.07206 62.6133 3.0447 55.3046C0.0173435 47.9959 -0.774768 39.9537 0.768564 32.1948C2.3119 24.436 6.12135 17.309 11.7152 11.7152C17.309 6.12135 24.436 2.3119 32.1948 0.768568C39.9537 -0.774765 47.9959 0.0173345 55.3046 3.04469C62.6133 6.07205 68.8602 11.1987 73.2552 17.7763C77.6502 24.354 79.9961 32.0872 79.9961 39.9981C79.9846 50.6027 75.7669 60.7696 68.2683 68.2682C60.7697 75.7668 50.6027 79.9846 39.998 79.9961ZM39.998 0.749118C32.2361 0.749118 24.6485 3.0508 18.1947 7.36309C11.7409 11.6754 6.71077 17.8046 3.74041 24.9757C0.770052 32.1468 -0.00711775 40.0376 1.50716 47.6504C3.02144 55.2632 6.75915 62.256 12.2477 67.7445C17.7362 73.233 24.729 76.9707 32.3417 78.485C39.9545 79.9993 47.8454 79.2221 55.0165 76.2517C62.1875 73.2814 68.3168 68.2513 72.6291 61.7975C76.9414 55.3437 79.243 47.756 79.243 39.9941C79.2305 29.5899 75.0916 19.6155 67.7344 12.2589C60.3771 4.90241 50.4023 0.764542 39.998 0.753064V0.749118Z" fill="white"/>
<path d="M39.998 65.5346C34.0763 65.5346 28.2877 63.7786 23.364 60.4887C18.4403 57.1988 14.6028 52.5228 12.3367 47.0519C10.0706 41.581 9.47767 35.561 10.6329 29.7531C11.7882 23.9452 14.6397 18.6104 18.827 14.4232C23.0142 10.2359 28.3491 7.38437 34.1569 6.22912C39.9648 5.07386 45.9848 5.66678 51.4557 7.9329C56.9266 10.199 61.6026 14.0365 64.8925 18.9602C68.1824 23.8839 69.9384 29.6726 69.9384 35.5942C69.9321 43.533 66.7757 51.1448 61.1621 56.7583C55.5486 62.3719 47.9368 65.5283 39.998 65.5346ZM39.998 6.39504C34.2276 6.39504 28.5868 8.10615 23.789 11.312C18.9911 14.5178 15.2516 19.0744 13.0434 24.4056C10.8351 29.7367 10.2574 35.6029 11.3831 41.2624C12.5089 46.9219 15.2875 52.1205 19.3678 56.2007C23.4481 60.281 28.6467 63.0597 34.3062 64.1854C39.9656 65.3112 45.8319 64.7334 51.163 62.5252C56.4941 60.317 61.0507 56.5775 64.2565 51.7796C67.4624 46.9817 69.1735 41.3409 69.1735 35.5705C69.1589 27.8383 66.08 20.4271 60.6114 14.9607C55.1427 9.49423 47.7303 6.41833 39.998 6.40687V6.39504Z" fill="white"/>
<path d="M17.2964 67.8686L18.0849 68.3969L22 62.4829L21.2114 61.9586L21.4086 61.6589L24.7953 63.8983C25.5336 64.321 26.1481 64.9301 26.5774 65.6647C26.7092 65.9368 26.7639 66.2398 26.7354 66.5408C26.7069 66.8419 26.5963 67.1293 26.4157 67.3718C26.2552 67.6452 26.0241 67.8704 25.7467 68.0237C25.4692 68.177 25.1555 68.2528 24.8387 68.2431C24.1803 68.2431 23.3838 67.9238 22.4731 67.3087L21.5742 66.7213L19.7448 69.4811L20.6752 70.0922L20.4584 70.4155L17.0835 68.184L17.2964 67.8686ZM23.6519 63.5711L21.7437 66.4611L22.6623 67.0682C22.7826 67.174 22.9252 67.2513 23.0795 67.2943C23.2337 67.3373 23.3957 67.3449 23.5534 67.3166C23.7742 67.2417 24.1132 66.8593 24.5666 66.1733C24.9609 65.5543 25.1699 65.1285 25.1541 64.8958C25.1383 64.6632 24.9293 64.4148 24.5272 64.1507L23.6519 63.5711Z" fill="white"/>
<path d="M30.311 74.9851L30.382 74.5908L31.1706 74.7406L32.4558 67.7661L31.6673 67.6202L31.7343 67.2654L35.5784 67.9751L35.5153 68.326L34.4429 68.1288L33.1576 75.1033L34.2892 75.3123C34.8246 75.4431 35.39 75.3611 35.8662 75.0836C36.3826 74.6876 36.7819 74.1589 37.0214 73.5539L37.392 73.6209L36.8322 76.1757L30.311 74.9851Z" fill="white"/>
<path d="M44.2325 73.9048L43.1088 68.665L42.2099 68.8582L42.135 68.5073L45.9712 67.6833L46.0461 68.0342L45.0447 68.2511L46.1604 73.4514C46.224 73.9623 46.4639 74.4349 46.8386 74.7879C47.0249 74.9138 47.237 74.9965 47.4594 75.0299C47.6817 75.0633 47.9088 75.0467 48.1239 74.9811C48.3902 74.927 48.6458 74.8298 48.8809 74.6933C49.0926 74.5673 49.2753 74.398 49.417 74.1965C49.5704 73.9834 49.6631 73.7327 49.6851 73.4711C49.6944 73.0176 49.64 72.565 49.5235 72.1267L49.4998 72.0123L48.664 68.1052C48.645 67.9292 48.5736 67.763 48.459 67.6281C48.297 67.5707 48.1202 67.5707 47.9583 67.6281L47.564 67.7109L47.4891 67.36L49.9217 66.8396L49.9966 67.1905L49.6024 67.2693C49.4107 67.2876 49.2312 67.3711 49.0937 67.5059C49.0209 67.6703 49.0125 67.856 49.0701 68.0263L49.9611 72.032C50.0636 72.4456 50.1257 72.8681 50.1464 73.2937C50.1493 73.5405 50.0996 73.7851 50.0005 74.0112C49.8365 74.3932 49.5619 74.7172 49.212 74.9417C48.7666 75.2189 48.2731 75.4101 47.7572 75.5055C46.9702 75.7312 46.1317 75.6994 45.364 75.4148C45.0661 75.2752 44.807 75.0644 44.6097 74.8011C44.4124 74.5378 44.2828 74.23 44.2325 73.9048Z" fill="white"/>
<path d="M58.5678 71.2553L57.2431 69.3667L57.6373 69.1026C58.0909 69.4926 58.6461 69.7456 59.2381 69.832C59.7663 69.8806 60.2939 69.7333 60.7205 69.418C61.0997 69.1628 61.3784 68.7837 61.509 68.3456C61.5692 68.1531 61.5837 67.9492 61.5516 67.7501C61.5194 67.551 61.4414 67.3621 61.3237 67.1983C61.2178 67.034 61.0729 66.8986 60.9018 66.804C60.7217 66.7265 60.5258 66.6927 60.3302 66.7055C59.8722 66.7678 59.4266 66.9008 59.0094 67.0997L58.4889 67.3087C57.9178 67.568 57.2847 67.6596 56.6635 67.5728C56.1302 67.4397 55.6694 67.1047 55.3782 66.6384C55.1791 66.3773 55.0354 66.0782 54.9561 65.7596C54.8768 65.4409 54.8634 65.1094 54.9169 64.7854C54.9814 64.4633 55.1103 64.1575 55.296 63.8865C55.4816 63.6155 55.7201 63.3848 55.9972 63.2083C56.2301 63.038 56.4882 62.905 56.7621 62.8141C57.0292 62.7337 57.3072 62.6951 57.5861 62.6998L57.7359 62.1714L58.0474 61.9546L59.2735 63.6223L58.9502 63.851C58.5577 63.4792 58.0612 63.2358 57.5269 63.1532C57.0397 63.0976 56.5498 63.2317 56.1588 63.5277C55.8299 63.7394 55.5803 64.0541 55.4492 64.4227C55.3934 64.5735 55.3753 64.7358 55.3966 64.8952C55.4179 65.0547 55.4779 65.2064 55.5714 65.3374C55.8553 65.7316 56.49 65.7316 57.4836 65.3374L57.7871 65.2112C58.4831 64.8718 59.2605 64.7352 60.0305 64.8169C60.6589 64.9804 61.1991 65.382 61.5366 65.9367C61.7549 66.2275 61.913 66.559 62.0017 66.9117C62.0903 67.2644 62.1078 67.6312 62.0531 67.9908C62.0002 68.3414 61.8743 68.677 61.6834 68.9758C61.4926 69.2747 61.2411 69.5301 60.9452 69.7255C60.6659 69.9304 60.3576 70.0925 60.0305 70.2065C59.7338 70.3014 59.4233 70.3454 59.1119 70.3366L58.9345 71.0266L58.5678 71.2553Z" fill="white"/>
<path fill-rule="evenodd" clip-rule="evenodd" d="M39.9981 63.6143C55.4733 63.6143 68.0184 51.0692 68.0184 35.594C68.0184 20.1188 55.4733 7.57373 39.9981 7.57373C24.5229 7.57373 11.9778 20.1188 11.9778 35.594C11.9778 51.0692 24.5229 63.6143 39.9981 63.6143ZM37.0372 49.0148L25.6627 49.0148C22.5086 49.0148 20.0116 48.3577 18.1717 47.0434C17.298 46.4594 16.5866 45.6634 16.1039 44.7299C15.6213 43.7963 15.3832 42.7557 15.4118 41.7051C15.3771 40.824 15.5566 39.9475 15.935 39.151C16.3134 38.3544 16.8793 37.6615 17.5842 37.1317C19.0325 36.0251 21.1904 35.3522 24.058 35.113V34.774C21.5505 34.4139 19.658 33.7331 18.3806 32.7317C17.7732 32.2785 17.2828 31.6868 16.9502 31.0059C16.6176 30.3249 16.4524 29.5743 16.4684 28.8166C16.4452 27.9073 16.6534 27.007 17.0733 26.2002C17.4933 25.3933 18.1114 24.7064 18.8695 24.2038C20.4702 23.0683 22.6518 22.5005 25.4143 22.5005H37.0372V22.4966H50.6274C52.3043 22.4659 53.9781 22.6528 55.607 23.0525C56.9697 23.4183 58.253 24.0332 59.3919 24.8661C61.0476 26.0599 62.3686 27.6592 63.2281 29.5105C64.1443 31.4693 64.6169 33.6062 64.6121 35.7686C64.6073 37.9311 64.1253 40.0658 63.2005 42.0205C62.3041 43.8959 60.9478 45.5139 59.2579 46.7241C58.1056 47.5279 56.8163 48.1145 55.4532 48.4549C53.8159 48.8523 52.1347 49.0404 50.45 49.0148L40.1873 49.0148L37.0372 49.0148ZM37.3447 47.6979H40.2662V23.7109H40.2189V23.7149H37.3447V47.6979ZM30.725 23.7109H28.4344C26.1923 23.7109 24.8019 23.9895 24.263 24.5468C23.7242 25.104 23.4614 26.6114 23.4745 29.069C23.4745 31.3294 23.7794 32.7908 24.3892 33.4532C24.999 34.1155 26.2751 34.448 28.2175 34.4507H30.7447L30.725 23.7109ZM30.725 35.5861H27.7365C25.7336 35.5861 24.3997 35.9804 23.7347 36.7689C23.0697 37.5575 22.7372 39.1713 22.7372 41.6105C22.7372 44.2126 23.0159 45.8764 23.5731 46.6019C24.1329 47.3273 25.3354 47.6861 27.1806 47.6861H30.7289L30.725 35.5861ZM50.3278 47.6979H46.9411L46.9529 23.7031H50.3396C52.0665 23.7031 53.3124 23.8844 54.0773 24.2392C54.8859 24.6447 55.5396 25.3039 55.9382 26.1159C56.3938 27.0686 56.6806 28.0931 56.7858 29.1439C56.9887 31.2283 57.0716 33.3227 57.0342 35.4166V37.2894C57.081 39.2428 56.9569 41.1966 56.6636 43.1284C56.5005 44.2354 56.0612 45.2836 55.3862 46.1761C54.9375 46.7312 54.3356 47.1425 53.6554 47.3589C52.5684 47.6318 51.4475 47.746 50.3278 47.6979Z" fill="white"/>
</g>
<defs>
<clipPath id="clip0_101_112">
<rect width="80" height="80" fill="white"/>
</clipPath>
</defs>
</svg>
