<?xml version="1.0" encoding="utf-8"?>
<!-- Generator: Adobe Illustrator 21.0.1, SVG Export Plug-In . SVG Version: 6.00 Build 0)  -->
<svg version="1.1" id="Layer_1" xmlns="http://www.w3.org/2000/svg" xmlns:xlink="http://www.w3.org/1999/xlink" x="0px" y="0px"
	 viewBox="0 0 80 80" style="enable-background:new 0 0 80 80;" xml:space="preserve">
<style type="text/css">
	.st0{fill-rule:evenodd;clip-rule:evenodd;fill:#FFFFFF;}
	.st1{fill:#FFFFFF;}
</style>
<path class="st0" d="M24.5,54.7h31v-6.5h-31V54.7L24.5,54.7z M40,0c11,0,21,4.5,28.3,11.7C75.5,19,80,29,80,40
	c0,11-4.5,21-11.7,28.3C61,75.5,51,80,40,80s-21-4.5-28.3-11.7C4.5,61,0,51,0,40c0-11,4.5-21,11.7-28.3C19,4.5,29,0,40,0L40,0z
	 M60.5,19.5C55.3,14.3,48,11,40,11s-15.3,3.2-20.5,8.5C14.3,24.7,11,32,11,40c0,8,3.2,15.3,8.5,20.5C24.7,65.7,32,69,40,69
	s15.3-3.2,20.5-8.5C65.7,55.3,69,48,69,40C69,32,65.7,24.7,60.5,19.5L60.5,19.5z M24.5,31.8h31v-6.5h-31V31.8L24.5,31.8z M24.5,43.3
	h31v-6.5h-31V43.3L24.5,43.3z"/>
</svg>
