<?xml version="1.0" encoding="utf-8"?>
<!-- Generator: Adobe Illustrator 20.1.0, SVG Export Plug-In . SVG Version: 6.00 Build 0)  -->
<svg version="1.1" id="Layer_1" xmlns="http://www.w3.org/2000/svg" xmlns:xlink="http://www.w3.org/1999/xlink" x="0px" y="0px"
	 viewBox="0 0 25 17" style="enable-background:new 0 0 25 17;" xml:space="preserve">
<style type="text/css">
	.st0{fill:#CB0E20;}
	.st1{fill:#0F2065;}
</style>
<polygon class="st0" points="25,7.1 14.3,7.1 14.3,0 10.7,0 10.7,7.1 0,7.1 0,9.9 10.7,9.9 10.7,17 14.3,17 14.3,9.9 25,9.9 "/>
<polygon class="st1" points="9.8,0 9.8,5 3.6,0 "/>
<polygon class="st1" points="15.2,0 21.4,0 15.2,5 "/>
<polygon class="st1" points="15.2,17 15.2,12 21.4,17 "/>
<polygon class="st1" points="9.8,17 3.6,17 9.8,12 "/>
<polygon class="st1" points="25,6.4 19.6,6.4 25,2.1 "/>
<polygon class="st1" points="0,6.3 0,2.1 5.4,6.4 "/>
<polygon class="st1" points="0,10.6 5.4,10.6 0,14.9 "/>
<polygon class="st1" points="25,10.6 25,14.9 19.6,10.6 "/>
<polygon class="st0" points="0,1.4 6.3,6.4 8,6.4 8,5 1.8,0 0,0 "/>
<polygon class="st0" points="17,12 23.2,17 25,17 25,15.6 18.8,10.6 17,10.6 "/>
<polygon class="st0" points="22.3,0 15.2,5.7 15.2,6.4 17.9,6.4 25,0.7 25,0 "/>
<polygon class="st0" points="2.7,17 9.8,11.3 9.8,10.6 7.1,10.6 0,16.3 0,17 "/>
</svg>
