<?xml version="1.0" encoding="utf-8"?>
<!-- Generator: Adobe Illustrator 22.1.0, SVG Export Plug-In . SVG Version: 6.00 Build 0)  -->
<svg version="1.1" id="Layer_1" xmlns="http://www.w3.org/2000/svg" xmlns:xlink="http://www.w3.org/1999/xlink" x="0px" y="0px"
	 viewBox="0 0 300 300" style="enable-background:new 0 0 300 300;" xml:space="preserve">
<style type="text/css">
	.st0{fill:#D2AB67;}
</style>
<path class="st0" d="M65,278.9l1.8,0.4L60.2,300H1v-2.1h2.9c3.2,0,5.5-1,6.9-3.1c0.8-1.2,1.2-4,1.2-8.3v-49.4c0-4.8-0.5-7.7-1.6-8.9
	c-1.5-1.7-3.6-2.5-6.5-2.5H1v-2.1h34.6v2.1c-4.1,0-6.9,0.3-8.6,1.1c-1.6,0.8-2.8,1.8-3.3,2.9c-0.6,1.2-0.9,4-0.9,8.5v48.1
	c0,3.1,0.3,5.3,0.9,6.4c0.4,0.8,1.2,1.4,2.1,1.8c0.9,0.4,3.9,0.6,8.8,0.6h5.6c5.9,0,10-0.4,12.4-1.3c2.4-0.9,4.5-2.4,6.5-4.6
	C61.1,287.1,63,283.6,65,278.9 M121.3,227.8c3.8,0,6.4,0.3,7.9,0.8c1.9,0.8,3.3,2,4.3,3.5c1,1.5,1.8,4.3,2.6,8.3h2.2l-0.8-16.8h-59
	v2.1h2.7c3.2,0,5.4,0.7,6.8,2.2c1,1.1,1.5,4.1,1.5,8.9v49.6c0,3.7-0.2,6.2-0.7,7.4c-0.4,1.2-1.3,2.1-2.5,2.7
	c-1.6,0.9-3.3,1.3-5.1,1.3h-2.7v2.1h59l6.6-19.1h-2.3c-2.4,4.7-4.8,8.2-7.2,10.5c-1.8,1.8-3.7,3-5.6,3.6c-2,0.6-5.1,0.9-9.4,0.9h-13
	c-2.1,0-3.5-0.2-4.3-0.7c-0.8-0.4-1.3-1-1.6-1.7c-0.3-0.7-0.4-2.8-0.4-6.2v-25.2h16.9c3.2,0,5.6,0.4,7.1,1.1
	c1.5,0.7,2.7,1.8,3.3,3.1c0.5,1.1,1.1,3.5,1.6,7.2h2.1v-26.6h-2.1c-0.2,4.3-1.3,7.4-3.3,9.1c-1.5,1.3-4.4,2-8.7,2h-16.9v-30.2H121.3
	z M202.8,300l29.4-64.2v51c0,4.3-0.4,7-1.3,8.2c-1.3,2-3.7,2.9-7,2.9h-2.8v2.1H254v-2.1h-2.7c-3.1,0-5.3-0.8-6.7-2.4
	c-1.1-1.2-1.6-4.1-1.6-8.8v-49.9c0-4.3,0.4-7,1.3-8.2c1.4-2,3.7-2.9,7-2.9h2.7v-2.1h-21.7L205,283.3l-27.6-59.7h-21.9v2.1
	c3.2,0,5.4,0.4,6.9,1.1c1.4,0.7,2.4,1.7,2.9,2.7c0.7,1.5,1.1,4,1.1,7.3v49.9c0,4.3-0.4,7-1.3,8.2c-1.4,2-3.7,2.9-7,2.9h-2.8v2.1
	h26.9v-2.1h-2.7c-3.1,0-5.3-0.8-6.7-2.4c-1-1.2-1.5-4.1-1.5-8.8v-51l29.6,64.2H202.8z M296.2,297.9c-1.8,0-3.5-0.4-5.1-1.3
	c-1.2-0.7-2-1.5-2.4-2.4c-0.5-1.2-0.7-3.8-0.7-7.6v-49.4c0-4.6,0.5-7.4,1.4-8.7c1.4-1.8,3.7-2.7,6.8-2.7h2.8v-2.1h-32.8v2.1h2.7
	c1.8,0,3.5,0.4,5.2,1.3c1.2,0.7,1.9,1.5,2.3,2.4c0.5,1.2,0.7,3.8,0.7,7.6v49.4c0,4.6-0.4,7.4-1.3,8.7c-1.4,1.8-3.7,2.7-6.9,2.7h-2.7
	v2.1H299v-2.1H296.2z M184.3,169.7c0.2-0.2,0.3-0.3,0.5-0.4c5.1-2,7.1-1.9,10.7-1.5c0.2,0.1,0.5,0.1,0.8,0.2
	C192.8,168.7,188.8,169.2,184.3,169.7 M179.9,168.8c0.9-1.2,2.2-1.6,3.3-1.1c0.1,0.7,0,1.4,0.1,2c-1.3,0.1-2.6,0.2-3.9,0.3
	C179.5,169.7,179.7,169.2,179.9,168.8z M125.5,85.7c0.3-1.9-1.3-4.8,2.4-7.1c0.2,1.5,1.5,1.8,1.9,3.1c2.6,0.5,4.2,3.1,6.8,3.8
	c0.1,2.6,2.8,1.4,3.9,3.2c-0.5,3,1.2,2.5,2.7,2.8c1.9,0.3,6.8,5.7,7.3,7.6c-4.3,2.1-6.2,8-11.5,8.9c-1.3-2.8-3.4-6.1-6.3-5.5
	c-1.7,1.6-5-0.7-6.6,2.2c-0.4,1-1.5,1.9-1,3.2c0.4-0.2,0.9-0.3,1.2-1c0.8,0,1.6-0.8,2.3,0c-0.5,3.7-4,3.9-3.9,7.7c0,1.5,0,3.3,1,4
	c0.5-1.1,0.8-3.1,2.1-3.3c1.1,1.7-1.4,2.4-1.3,4c-0.6,2.3-0.3,5.1,1,7c2.1,0.3,0-2.3,0.6-3.5c0.5-0.8,0.9-2.4,1.9-2.4
	c1,1.2,2.3,1,3.5,1.7l-0.7,1.7c2.6,0.1,4.9-1.9,7.3-2.4c2.5-0.2,4-2.2,6.4-3.5c0.4,0.3,1,1.8,3.4,1.5c-0.7-1.1-0.9-2-0.7-2.7
	c3.4-0.3,4-3.7,5.5-6.8h0.8c0.7-1.9,2.5-1.1,3.6-2.2c1.2-1,2.7-1.8,3.8,0c1.9,1.5,4.1,1.8,6.2,2.5c-4.7,2-9.7,5-12.7,11.3
	c-1,1.8-2.1,2.6-2.8,4.2c2.2,2.6,5.9,4.8,6.2,9.1c-2.1,0.7-4.5,0.3-6.6,1.5c-0.9-1.9-1.2-4.6-3.1-5.4c-3,0.8-4.3-4.1-7.4-2.4
	c-0.8,0.6-2.4,1.4-1.9,3c1-0.2,2.1-0.8,2.9,0.5c-0.2,1.7-1.9,0.8-2.7,1.6c-1.1,0.7-2.4,1.7-2.4,3.7c-2.1,1.8-2.8,4.8-2.7,8.2
	c0.4,1,0.3,2.5,1.4,2.7c0.3-0.5,0-1.4,0.1-2.1c0.4-1.5,1.6-3.2,2.8-3.8c0.4,0.3,1,0.3,1.1,1c-1.3,1.7-2.5,3.8-2.3,6.7
	c0.2,0.2,0.3,0.8,0.7,0.6c2.5-5.1,7.3-0.8,10.4-2.1c5.8,0.6,9.4-2.2,15.1-2.2c0.6,0.1,2.1,0.5,3.6,2c0.7-2.3,0.6-7.8,1.4-7.8
	c1.5-3.8,3.7-7.3,3.9-11.6c1.2-3.1,3-1.1,5.6-2.4c0.7,1.1,1.3,2.1,1.7,3.2c1,2.8,1.3,5.9-1.1,8.5c0.4,2-1.1,3.2-2.6,3.8
	c0.5,1.2,3.1,3,6.8,2.3c4.1,3.7,7.1,3.4,13.5,2.6c-0.5,2.2-1,4.5-1.7,6.5c-0.4,1.2-1.2,3.2-2.5,2.7c-1.9-1.3-4.3-2.7-6.5-1.3
	c-1.2,2.9-3.9,1.7-5.2,4c-1.6,1.6-0.5,5.2-2.7,6.1c-0.8,1.4-1,3.5-0.6,5.2c-5.4,0.3-11.4,0.5-18,0.5c-14.8,0-24.7-1.8-29.7-5.5
	c-5.1-3.7-7.6-11.1-7.6-22.3V84.2C123.9,84.6,124.8,86,125.5,85.7z M101.5,179.3c9-0.1,17.5-0.2,25.6-0.2c10.8,0,24.4,0.1,40.9,0.4
	c16.5,0.3,34.4,0.7,53.6,1.3l11.2-40.4l-6.9-1.4c-3.9,12.2-9.8,20.4-17.7,24.9c-1.1,0.6-2.4,1.2-3.9,1.7c0.9-3.2-1.2-7.4,1.3-9.4
	c3.6-3.8,3.2-9.7,5.8-13.8c1.6-3.1,4.5-6.3,2.7-10c-0.9-1.5-3-1-3.5-3c6.7-4.9,6.9-10.3,6.7-13c0.2-1.7,0.5-2.6,1.9-3.5
	c2-1,3.6-1,5.6-0.8c-0.7-1.8-2.5-2.1-4.7-2.4c0.8-2.1-1-4.5-1.4-4.5c0.4,2.1-0.6,3.7-2.5,4.4c-0.7-3.2-2.4-5.9-4-8.2
	c-2.4-3.4-3.9-4-5.4-8.1c0.3-1.8,2.4-2.2,4.7-2.4c-2.3-3.9-5.5-1.6-5.7-1.4c-1.1-2.4,0.4-6.4,1.4-7.9c2.5-3.5,5.3-7.2,7.6-10.8
	c3.9-6,7.3-14.9,4.9-22c-2.4-7.3-8.8-9.7-15.7-6.1c-1.7,0.9-3.3,2.1-4.5,3.3c-1.2,0.8-10.8,8.9-12,5.8c-1.4,2,3.7,8.2,6.8,4.9
	c-0.1,1.2,2.2,11.3,2.8,11.1c2-0.6,3.3-7.6,3.8-9.8c2-0.1,3.7,0.2,5.2-1.2c-1.6-2.1-2.7-3.4-1.5-6.8c1.6-4.4,6.2-5,8.8-2.5
	c2.1,2.6,2.8,7.1,1.7,10.9c-1.7,6.9-6.9,13.3-10.3,17.6c-0.2,0.3-0.5,0.6-0.7,0.9c-4.3,5.6-5.1,12.2-1.9,18.5c1.6,3.2,3.9,6,5.9,9
	c1.1,1.7,2.1,3.8,3.1,6c1.4,3.2,2,7.9-0.5,10.8c-0.4,0.4-0.7,0.7-1.1,0.9c-2.5,1-4.3-1.5-6.4-3l-7.3-8.7c-2.4-2.9-4.5-5.6-6.4-8.9
	c-0.2-0.3-0.4-0.6-0.5-1l-4.3-6.4c3.6-1.5,5.2-9,7.6-19.9c2.3-10.3-2.4-15-5.9-18.5c-0.4-1.8-1-3.6-2-5.3c-0.2-1.2,0.4-2.6,0.1-4.2
	c-0.3-2-0.7-4-1.8-5.5c-1.9,1.2-3.5,2.7-5.3,4.2l-5.2,0.4c-1.3,0.4-2.4,1.5-3.2,2.7c-2.6-2.1-5.2,0.7-7.8,0.7
	c0.7,3.5-1.6,7.8,0.8,10.6c-2.1,0.8-4.4,1.8-6.3,3.8c-1.3,1.5-2.3,3.2-1.9,5.6c0.1,0.8,0.7,0.6,1.1,0.6c2-3.1,5.1-4.6,8-3.6
	c-0.4,1.6-0.3,3.3-1.2,4.7c-4,0.3-7.4,2.9-10.4,6.1c-2.8-3.1-6.6-3.2-9.9-4.5c-3.5-1.1-3.9-2.8-3.6-5.4c-2.1-2.1,2-2.6-1.6-5.5
	c-1.8-0.5-3.9-0.6-5.5,0.1c-2.5-1-3.3,3.1-5.6,2.2c-0.5,0.4-1,0.8-1.4,1.4V33.8c0-12.2,1.7-19.8,5.1-22.6c3.4-2.8,10.4-4.4,21-4.7V0
	c-4.6,0.3-9.8,0.5-15.6,0.6c-5.8,0.2-11.9,0.3-18.2,0.3c-7.6,0-15.2-0.1-23.1-0.2C85,0.6,77,0.4,68.9,0.1v6.4
	C80,7,87.2,8.3,90.3,10.3c3.1,2,4.7,6.6,4.7,13.7v123.2c0,12.4-1.7,19.9-4.9,22.6c-3.3,2.6-9.9,4-19.7,4h-3.1l0.2,6.4
	C81.2,179.7,92.5,179.5,101.5,179.3z"/>
</svg>
